%TF.GenerationSoftware,KiCad,Pcbnew,9.0.1*%
%TF.CreationDate,2025-04-26T09:10:26+01:00*%
%TF.ProjectId,PicoDCC,5069636f-4443-4432-9e6b-696361645f70,rev?*%
%TF.SameCoordinates,Original*%
%TF.FileFunction,Copper,L2,Bot*%
%TF.FilePolarity,Positive*%
%FSLAX46Y46*%
G04 Gerber Fmt 4.6, Leading zero omitted, Abs format (unit mm)*
G04 Created by KiCad (PCBNEW 9.0.1) date 2025-04-26 09:10:26*
%MOMM*%
%LPD*%
G01*
G04 APERTURE LIST*
G04 Aperture macros list*
%AMRoundRect*
0 Rectangle with rounded corners*
0 $1 Rounding radius*
0 $2 $3 $4 $5 $6 $7 $8 $9 X,Y pos of 4 corners*
0 Add a 4 corners polygon primitive as box body*
4,1,4,$2,$3,$4,$5,$6,$7,$8,$9,$2,$3,0*
0 Add four circle primitives for the rounded corners*
1,1,$1+$1,$2,$3*
1,1,$1+$1,$4,$5*
1,1,$1+$1,$6,$7*
1,1,$1+$1,$8,$9*
0 Add four rect primitives between the rounded corners*
20,1,$1+$1,$2,$3,$4,$5,0*
20,1,$1+$1,$4,$5,$6,$7,0*
20,1,$1+$1,$6,$7,$8,$9,0*
20,1,$1+$1,$8,$9,$2,$3,0*%
G04 Aperture macros list end*
%TA.AperFunction,ComponentPad*%
%ADD10R,1.700000X1.700000*%
%TD*%
%TA.AperFunction,ComponentPad*%
%ADD11C,1.700000*%
%TD*%
%TA.AperFunction,ComponentPad*%
%ADD12C,1.600000*%
%TD*%
%TA.AperFunction,ComponentPad*%
%ADD13O,1.600000X1.600000*%
%TD*%
%TA.AperFunction,ComponentPad*%
%ADD14O,1.600000X1.200000*%
%TD*%
%TA.AperFunction,ComponentPad*%
%ADD15C,1.200000*%
%TD*%
%TA.AperFunction,ComponentPad*%
%ADD16RoundRect,0.250000X1.000000X1.000000X-1.000000X1.000000X-1.000000X-1.000000X1.000000X-1.000000X0*%
%TD*%
%TA.AperFunction,ComponentPad*%
%ADD17C,2.500000*%
%TD*%
%TA.AperFunction,ComponentPad*%
%ADD18R,1.800000X1.800000*%
%TD*%
%TA.AperFunction,ComponentPad*%
%ADD19C,1.800000*%
%TD*%
%TA.AperFunction,ComponentPad*%
%ADD20R,1.200000X1.200000*%
%TD*%
%TA.AperFunction,ViaPad*%
%ADD21C,0.600000*%
%TD*%
%TA.AperFunction,Conductor*%
%ADD22C,0.200000*%
%TD*%
G04 APERTURE END LIST*
D10*
%TO.P,U2,1,RPWM*%
%TO.N,Net-(A1-GPIO20)*%
X127880000Y-146500000D03*
D11*
%TO.P,U2,2,LPWM*%
%TO.N,Net-(Q2-C)*%
X127880000Y-143960000D03*
%TO.P,U2,3,R_EN*%
%TO.N,Net-(A1-GPIO21)*%
X130420000Y-146500000D03*
%TO.P,U2,4,L_EN*%
X130420000Y-143960000D03*
%TO.P,U2,5,R_IS*%
%TO.N,Net-(A1-GPIO27_ADC1)*%
X132960000Y-146500000D03*
%TO.P,U2,6,L_IS*%
X132960000Y-143960000D03*
%TO.P,U2,7,VCC*%
%TO.N,Net-(A1-VSYS)*%
X135500000Y-146500000D03*
%TO.P,U2,8,GND*%
%TO.N,GND*%
X135500000Y-143960000D03*
%TD*%
D10*
%TO.P,U1,1,RPWM*%
%TO.N,Net-(A1-GPIO17)*%
X106880000Y-146500000D03*
D11*
%TO.P,U1,2,LPWM*%
%TO.N,Net-(Q1-C)*%
X106880000Y-143960000D03*
%TO.P,U1,3,R_EN*%
%TO.N,Net-(A1-GPIO18)*%
X109420000Y-146500000D03*
%TO.P,U1,4,L_EN*%
X109420000Y-143960000D03*
%TO.P,U1,5,R_IS*%
%TO.N,Net-(A1-GPIO26_ADC0)*%
X111960000Y-146500000D03*
%TO.P,U1,6,L_IS*%
X111960000Y-143960000D03*
%TO.P,U1,7,VCC*%
%TO.N,Net-(A1-VSYS)*%
X114500000Y-146500000D03*
%TO.P,U1,8,GND*%
%TO.N,GND*%
X114500000Y-143960000D03*
%TD*%
D10*
%TO.P,TP8,1,1*%
%TO.N,GND*%
X135425000Y-54500000D03*
%TD*%
%TO.P,TP7,1,1*%
%TO.N,Net-(A1-VSYS)*%
X115845000Y-54500000D03*
%TD*%
%TO.P,TP6,1,1*%
%TO.N,Net-(A1-GPIO27_ADC1)*%
X135000000Y-133000000D03*
%TD*%
%TO.P,TP5,1,1*%
%TO.N,Net-(A1-GPIO21)*%
X135000000Y-128000000D03*
%TD*%
%TO.P,TP4,1,1*%
%TO.N,Net-(A1-GPIO20)*%
X119000000Y-117000000D03*
%TD*%
%TO.P,TP3,1,1*%
%TO.N,Net-(A1-GPIO26_ADC0)*%
X102000000Y-144000000D03*
%TD*%
%TO.P,TP2,1,1*%
%TO.N,Net-(A1-GPIO18)*%
X138000000Y-116000000D03*
%TD*%
%TO.P,TP1,1,1*%
%TO.N,Net-(A1-GPIO17)*%
X102000000Y-121000000D03*
%TD*%
D12*
%TO.P,R8,1*%
%TO.N,GND*%
X121000000Y-137000000D03*
D13*
%TO.P,R8,2*%
%TO.N,Net-(A1-GPIO27_ADC1)*%
X131160000Y-137000000D03*
%TD*%
D12*
%TO.P,R7,1*%
%TO.N,GND*%
X104000000Y-131000000D03*
D13*
%TO.P,R7,2*%
%TO.N,Net-(A1-GPIO26_ADC0)*%
X114160000Y-131000000D03*
%TD*%
D12*
%TO.P,R6,1*%
%TO.N,GND*%
X121000000Y-127000000D03*
D13*
%TO.P,R6,2*%
%TO.N,Net-(D2-A)*%
X131160000Y-127000000D03*
%TD*%
D12*
%TO.P,R5,1*%
%TO.N,GND*%
X121000000Y-132000000D03*
D13*
%TO.P,R5,2*%
%TO.N,Net-(D1-A)*%
X131160000Y-132000000D03*
%TD*%
D12*
%TO.P,R4,1*%
%TO.N,Net-(A1-VSYS)*%
X106000000Y-121000000D03*
D13*
%TO.P,R4,2*%
%TO.N,Net-(Q2-C)*%
X116160000Y-121000000D03*
%TD*%
D12*
%TO.P,R3,1*%
%TO.N,Net-(A1-GPIO20)*%
X119000000Y-122000000D03*
D13*
%TO.P,R3,2*%
%TO.N,Net-(Q2-B)*%
X129160000Y-122000000D03*
%TD*%
D12*
%TO.P,R2,1*%
%TO.N,Net-(A1-VSYS)*%
X104000000Y-126000000D03*
D13*
%TO.P,R2,2*%
%TO.N,Net-(Q1-C)*%
X114160000Y-126000000D03*
%TD*%
D12*
%TO.P,R1,1*%
%TO.N,Net-(A1-GPIO17)*%
X101920000Y-116000000D03*
D13*
%TO.P,R1,2*%
%TO.N,Net-(Q1-B)*%
X112080000Y-116000000D03*
%TD*%
D14*
%TO.P,Q2,1,E*%
%TO.N,GND*%
X120000000Y-144000000D03*
D15*
%TO.P,Q2,2,B*%
%TO.N,Net-(Q2-B)*%
X121270000Y-145270000D03*
%TO.P,Q2,3,C*%
%TO.N,Net-(Q2-C)*%
X122540000Y-144000000D03*
%TD*%
D14*
%TO.P,Q1,1,E*%
%TO.N,GND*%
X105000000Y-138000000D03*
D15*
%TO.P,Q1,2,B*%
%TO.N,Net-(Q1-B)*%
X106270000Y-139270000D03*
%TO.P,Q1,3,C*%
%TO.N,Net-(Q1-C)*%
X107540000Y-138000000D03*
%TD*%
D16*
%TO.P,J4,1,Pin_1*%
%TO.N,GND*%
X110000000Y-54500000D03*
D17*
%TO.P,J4,2,Pin_2*%
%TO.N,Net-(A1-VSYS)*%
X105000000Y-54500000D03*
%TD*%
D10*
%TO.P,J2,1,Pin_1*%
%TO.N,GND*%
X109040000Y-61960000D03*
D11*
%TO.P,J2,2,Pin_2*%
%TO.N,Net-(A1-VSYS)*%
X109040000Y-64500000D03*
%TO.P,J2,3,Pin_3*%
%TO.N,Net-(A1-GPIO0)*%
X106500000Y-61960000D03*
%TO.P,J2,4,Pin_4*%
%TO.N,Net-(A1-GPIO1)*%
X106500000Y-64500000D03*
%TO.P,J2,5,Pin_5*%
%TO.N,Net-(A1-SWDIO)*%
X103960000Y-61960000D03*
%TO.P,J2,6,Pin_6*%
%TO.N,Net-(A1-SWCLK)*%
X103960000Y-64500000D03*
%TD*%
D10*
%TO.P,J1,1,Pin_1*%
%TO.N,Net-(A1-GPIO0)*%
X103000000Y-70720000D03*
D11*
%TO.P,J1,2,Pin_2*%
%TO.N,Net-(A1-GPIO1)*%
X103000000Y-73260000D03*
%TO.P,J1,3,Pin_3*%
%TO.N,Net-(A1-GPIO2)*%
X103000000Y-75800000D03*
%TO.P,J1,4,Pin_4*%
%TO.N,Net-(A1-GPIO3)*%
X103000000Y-78340000D03*
%TO.P,J1,5,Pin_5*%
%TO.N,Net-(A1-GPIO4)*%
X103000000Y-80880000D03*
%TO.P,J1,6,Pin_6*%
%TO.N,Net-(A1-GPIO5)*%
X103000000Y-83420000D03*
%TO.P,J1,7,Pin_7*%
%TO.N,Net-(A1-GPIO6)*%
X103000000Y-85960000D03*
%TO.P,J1,8,Pin_8*%
%TO.N,Net-(A1-GPIO7)*%
X103000000Y-88500000D03*
%TO.P,J1,9,Pin_9*%
%TO.N,Net-(A1-GPIO8)*%
X103000000Y-91040000D03*
%TO.P,J1,10,Pin_10*%
%TO.N,Net-(A1-GPIO9)*%
X103000000Y-93580000D03*
%TO.P,J1,11,Pin_11*%
%TO.N,Net-(A1-GPIO10)*%
X103000000Y-96120000D03*
%TO.P,J1,12,Pin_12*%
%TO.N,Net-(A1-GPIO11)*%
X103000000Y-98660000D03*
%TO.P,J1,13,Pin_13*%
%TO.N,Net-(A1-GPIO12)*%
X103000000Y-101200000D03*
%TO.P,J1,14,Pin_14*%
%TO.N,Net-(A1-GPIO13)*%
X103000000Y-103740000D03*
%TO.P,J1,15,Pin_15*%
%TO.N,Net-(A1-GPIO14)*%
X103000000Y-106280000D03*
%TO.P,J1,16,Pin_16*%
%TO.N,Net-(A1-GPIO15)*%
X103000000Y-108820000D03*
%TD*%
D18*
%TO.P,D2,1,K*%
%TO.N,Net-(A1-GPIO19)*%
X131000000Y-117000000D03*
D19*
%TO.P,D2,2,A*%
%TO.N,Net-(D2-A)*%
X133540000Y-117000000D03*
%TD*%
D18*
%TO.P,D1,1,K*%
%TO.N,Net-(A1-GPIO16)*%
X132000000Y-122000000D03*
D19*
%TO.P,D1,2,A*%
%TO.N,Net-(D1-A)*%
X134540000Y-122000000D03*
%TD*%
D20*
%TO.P,C2,1*%
%TO.N,Net-(A1-GPIO27_ADC1)*%
X134000000Y-138000000D03*
D15*
%TO.P,C2,2*%
%TO.N,GND*%
X136000000Y-138000000D03*
%TD*%
D20*
%TO.P,C1,1*%
%TO.N,Net-(A1-GPIO26_ADC0)*%
X115000000Y-136000000D03*
D15*
%TO.P,C1,2*%
%TO.N,GND*%
X117000000Y-136000000D03*
%TD*%
D21*
%TO.N,Net-(A1-VSYS)*%
X109040000Y-71500000D03*
X109040000Y-112000000D03*
%TO.N,Net-(A1-SWCLK)*%
X121080300Y-69841500D03*
%TO.N,Net-(A1-GPIO21)*%
X136803400Y-96413200D03*
X138651200Y-97500000D03*
%TO.N,Net-(A1-GPIO1)*%
X113829100Y-63063100D03*
%TO.N,Net-(A1-GPIO0)*%
X113902300Y-60213400D03*
%TO.N,Net-(A1-GPIO18)*%
X136783000Y-136514000D03*
X133114600Y-114769300D03*
%TO.N,Net-(A1-GPIO17)*%
X132641250Y-107641250D03*
%TO.N,Net-(A1-GPIO26_ADC0)*%
X130014900Y-119221900D03*
%TO.N,Net-(A1-VSYS)*%
X132591800Y-63489800D03*
X109950300Y-127996700D03*
%TO.N,Net-(A1-GPIO20)*%
X129605400Y-123321900D03*
X130399200Y-115417400D03*
%TO.N,Net-(A1-SWDIO)*%
X127179300Y-69054700D03*
%TD*%
D22*
%TO.N,Net-(A1-GPIO17)*%
X103830500Y-114089500D02*
X104500000Y-114089500D01*
X101920000Y-116000000D02*
X103830500Y-114089500D01*
X104500000Y-114089500D02*
X126193000Y-114089500D01*
%TO.N,Net-(A1-GPIO20)*%
X119000000Y-117000000D02*
X121151700Y-117000000D01*
%TO.N,Net-(A1-GPIO17)*%
X126193000Y-114089500D02*
X132641250Y-107641250D01*
%TO.N,Net-(A1-VSYS)*%
X109040000Y-71500000D02*
X109040000Y-112000000D01*
%TO.N,Net-(A1-GPIO21)*%
X137564400Y-96413200D02*
X138651200Y-97500000D01*
X136803400Y-96413200D02*
X137564400Y-96413200D01*
%TO.N,Net-(A1-SWCLK)*%
X109301500Y-69841500D02*
X121080300Y-69841500D01*
X103960000Y-64500000D02*
X109301500Y-69841500D01*
%TO.N,Net-(Q2-C)*%
X122580000Y-143960000D02*
X122540000Y-144000000D01*
X127880000Y-143960000D02*
X122580000Y-143960000D01*
%TO.N,Net-(Q1-C)*%
X107540000Y-133721700D02*
X114160000Y-127101700D01*
X107540000Y-138000000D02*
X107540000Y-133721700D01*
X114160000Y-126000000D02*
X114160000Y-127101700D01*
%TO.N,Net-(A1-GPIO1)*%
X113720600Y-63171600D02*
X113829100Y-63063100D01*
X107828400Y-63171600D02*
X113720600Y-63171600D01*
X106500000Y-64500000D02*
X107828400Y-63171600D01*
%TO.N,Net-(A1-GPIO0)*%
X108246600Y-60213400D02*
X106500000Y-61960000D01*
X113902300Y-60213400D02*
X108246600Y-60213400D01*
%TO.N,Net-(A1-GPIO18)*%
X114482500Y-138897500D02*
X109420000Y-143960000D01*
X125801500Y-138897500D02*
X114482500Y-138897500D01*
X128820000Y-135879000D02*
X125801500Y-138897500D01*
X136148000Y-135879000D02*
X128820000Y-135879000D01*
X136783000Y-136514000D02*
X136148000Y-135879000D01*
X135617600Y-114769300D02*
X133114600Y-114769300D01*
X136848300Y-116000000D02*
X135617600Y-114769300D01*
X138000000Y-116000000D02*
X136848300Y-116000000D01*
%TO.N,Net-(A1-GPIO27_ADC1)*%
X133098300Y-137836600D02*
X132261700Y-137000000D01*
X133098300Y-138000000D02*
X133098300Y-137836600D01*
X131160000Y-137000000D02*
X132261700Y-137000000D01*
X134000000Y-138000000D02*
X133098300Y-138000000D01*
%TO.N,Net-(A1-GPIO26_ADC0)*%
X104303400Y-145151700D02*
X103151700Y-144000000D01*
X110611700Y-145151700D02*
X104303400Y-145151700D01*
X111960000Y-146500000D02*
X110611700Y-145151700D01*
X102000000Y-144000000D02*
X103151700Y-144000000D01*
X130493300Y-123349900D02*
X130493300Y-119700300D01*
X123944900Y-129898300D02*
X130493300Y-123349900D01*
X116363400Y-129898300D02*
X123944900Y-129898300D01*
X115261700Y-131000000D02*
X116363400Y-129898300D01*
X114160000Y-131000000D02*
X115261700Y-131000000D01*
X130493300Y-119700300D02*
X130014900Y-119221900D01*
%TO.N,Net-(A1-VSYS)*%
X113130000Y-52936700D02*
X114693300Y-54500000D01*
X106563300Y-52936700D02*
X113130000Y-52936700D01*
X105000000Y-54500000D02*
X106563300Y-52936700D01*
X115845000Y-54500000D02*
X114693300Y-54500000D01*
X134309400Y-145309400D02*
X135500000Y-146500000D01*
X125250300Y-145309400D02*
X134309400Y-145309400D01*
X124059700Y-146500000D02*
X125250300Y-145309400D01*
X114500000Y-146500000D02*
X124059700Y-146500000D01*
X129375700Y-66705900D02*
X132591800Y-63489800D01*
X111245900Y-66705900D02*
X129375700Y-66705900D01*
X109040000Y-64500000D02*
X111245900Y-66705900D01*
X105996700Y-127996700D02*
X104000000Y-126000000D01*
X109950300Y-127996700D02*
X105996700Y-127996700D01*
%TO.N,Net-(A1-GPIO20)*%
X120321900Y-123321900D02*
X129605400Y-123321900D01*
X119000000Y-122000000D02*
X120321900Y-123321900D01*
X122734300Y-115417400D02*
X130399200Y-115417400D01*
X121151700Y-117000000D02*
X122734300Y-115417400D01*
%TO.N,Net-(A1-SWDIO)*%
X109358200Y-69054700D02*
X127179300Y-69054700D01*
X105348300Y-65044800D02*
X109358200Y-69054700D01*
X105348300Y-63348300D02*
X105348300Y-65044800D01*
X103960000Y-61960000D02*
X105348300Y-63348300D01*
%TO.N,GND*%
X114540000Y-144000000D02*
X114500000Y-143960000D01*
X120000000Y-144000000D02*
X114540000Y-144000000D01*
X117000000Y-137000000D02*
X117000000Y-136000000D01*
X109936000Y-137000000D02*
X117000000Y-137000000D01*
X106744200Y-140191800D02*
X109936000Y-137000000D01*
X105911700Y-140191800D02*
X106744200Y-140191800D01*
X105000000Y-139280100D02*
X105911700Y-140191800D01*
X105000000Y-138000000D02*
X105000000Y-139280100D01*
X117000000Y-137000000D02*
X121000000Y-137000000D01*
X111181100Y-55681100D02*
X110000000Y-54500000D01*
X133092200Y-55681100D02*
X111181100Y-55681100D01*
X134273300Y-54500000D02*
X133092200Y-55681100D01*
X135425000Y-54500000D02*
X134273300Y-54500000D01*
X120303900Y-142794400D02*
X120000000Y-143098300D01*
X134334400Y-142794400D02*
X120303900Y-142794400D01*
X135500000Y-143960000D02*
X134334400Y-142794400D01*
X120000000Y-144000000D02*
X120000000Y-143098300D01*
%TD*%
%TA.AperFunction,Conductor*%
%TO.N,GND*%
G36*
X111355924Y-114709685D02*
G01*
X111401679Y-114762489D01*
X111411623Y-114831647D01*
X111382598Y-114895203D01*
X111361770Y-114914318D01*
X111232786Y-115008028D01*
X111088028Y-115152786D01*
X110967715Y-115318386D01*
X110874781Y-115500776D01*
X110811522Y-115695465D01*
X110779500Y-115897648D01*
X110779500Y-116102351D01*
X110811522Y-116304534D01*
X110874781Y-116499223D01*
X110938691Y-116624653D01*
X110962841Y-116672049D01*
X110967715Y-116681613D01*
X111088028Y-116847213D01*
X111232786Y-116991971D01*
X111387749Y-117104556D01*
X111398390Y-117112287D01*
X111499382Y-117163745D01*
X111580776Y-117205218D01*
X111580778Y-117205218D01*
X111580781Y-117205220D01*
X111685137Y-117239127D01*
X111775465Y-117268477D01*
X111876557Y-117284488D01*
X111977648Y-117300500D01*
X111977649Y-117300500D01*
X112182351Y-117300500D01*
X112182352Y-117300500D01*
X112384534Y-117268477D01*
X112579219Y-117205220D01*
X112761610Y-117112287D01*
X112854590Y-117044732D01*
X112927213Y-116991971D01*
X112927215Y-116991968D01*
X112927219Y-116991966D01*
X113071966Y-116847219D01*
X113071968Y-116847215D01*
X113071971Y-116847213D01*
X113124732Y-116774590D01*
X113192287Y-116681610D01*
X113285220Y-116499219D01*
X113348477Y-116304534D01*
X113380500Y-116102352D01*
X113380500Y-115897648D01*
X113359012Y-115761982D01*
X113348477Y-115695465D01*
X113307646Y-115569800D01*
X113285220Y-115500781D01*
X113285218Y-115500778D01*
X113285218Y-115500776D01*
X113229329Y-115391089D01*
X113192287Y-115318390D01*
X113164096Y-115279588D01*
X113071971Y-115152786D01*
X112927213Y-115008028D01*
X112798230Y-114914318D01*
X112755564Y-114858989D01*
X112749585Y-114789375D01*
X112782190Y-114727580D01*
X112843029Y-114693223D01*
X112871115Y-114690000D01*
X122330418Y-114690000D01*
X122397457Y-114709685D01*
X122443212Y-114762489D01*
X122453156Y-114831647D01*
X122424131Y-114895203D01*
X122392418Y-114921387D01*
X122365587Y-114936877D01*
X122365582Y-114936881D01*
X122299675Y-115002789D01*
X122253780Y-115048684D01*
X122253778Y-115048686D01*
X121587694Y-115714771D01*
X120939284Y-116363181D01*
X120877961Y-116396666D01*
X120851603Y-116399500D01*
X120474499Y-116399500D01*
X120407460Y-116379815D01*
X120361705Y-116327011D01*
X120350499Y-116275500D01*
X120350499Y-116102129D01*
X120350498Y-116102123D01*
X120350497Y-116102116D01*
X120344091Y-116042517D01*
X120342251Y-116037585D01*
X120293797Y-115907671D01*
X120293793Y-115907664D01*
X120207547Y-115792455D01*
X120207544Y-115792452D01*
X120092335Y-115706206D01*
X120092328Y-115706202D01*
X119957482Y-115655908D01*
X119957483Y-115655908D01*
X119897883Y-115649501D01*
X119897881Y-115649500D01*
X119897873Y-115649500D01*
X119897864Y-115649500D01*
X118102129Y-115649500D01*
X118102123Y-115649501D01*
X118042516Y-115655908D01*
X117907671Y-115706202D01*
X117907664Y-115706206D01*
X117792455Y-115792452D01*
X117792452Y-115792455D01*
X117706206Y-115907664D01*
X117706202Y-115907671D01*
X117655908Y-116042517D01*
X117651058Y-116087635D01*
X117649501Y-116102123D01*
X117649500Y-116102135D01*
X117649500Y-117897870D01*
X117649501Y-117897876D01*
X117655908Y-117957483D01*
X117706202Y-118092328D01*
X117706206Y-118092335D01*
X117792452Y-118207544D01*
X117792455Y-118207547D01*
X117907664Y-118293793D01*
X117907671Y-118293797D01*
X118042517Y-118344091D01*
X118042516Y-118344091D01*
X118049444Y-118344835D01*
X118102127Y-118350500D01*
X119897872Y-118350499D01*
X119957483Y-118344091D01*
X120092331Y-118293796D01*
X120207546Y-118207546D01*
X120293796Y-118092331D01*
X120344091Y-117957483D01*
X120350500Y-117897873D01*
X120350500Y-117724500D01*
X120370185Y-117657461D01*
X120422989Y-117611706D01*
X120474500Y-117600500D01*
X121065031Y-117600500D01*
X121065047Y-117600501D01*
X121072643Y-117600501D01*
X121230754Y-117600501D01*
X121230757Y-117600501D01*
X121383485Y-117559577D01*
X121433604Y-117530639D01*
X121520416Y-117480520D01*
X121632220Y-117368716D01*
X121632220Y-117368714D01*
X121642428Y-117358507D01*
X121642429Y-117358504D01*
X122946716Y-116054219D01*
X123008039Y-116020734D01*
X123034397Y-116017900D01*
X129475500Y-116017900D01*
X129542539Y-116037585D01*
X129588294Y-116090389D01*
X129599500Y-116141900D01*
X129599500Y-117947870D01*
X129599501Y-117947876D01*
X129605908Y-118007483D01*
X129656202Y-118142328D01*
X129656206Y-118142335D01*
X129742452Y-118257544D01*
X129742454Y-118257546D01*
X129749376Y-118262728D01*
X129791246Y-118318662D01*
X129796229Y-118388354D01*
X129762742Y-118449676D01*
X129722516Y-118476554D01*
X129635724Y-118512504D01*
X129635714Y-118512509D01*
X129504611Y-118600110D01*
X129504607Y-118600113D01*
X129393113Y-118711607D01*
X129393110Y-118711611D01*
X129305509Y-118842714D01*
X129305502Y-118842727D01*
X129245164Y-118988398D01*
X129245161Y-118988410D01*
X129214400Y-119143053D01*
X129214400Y-119300746D01*
X129245161Y-119455389D01*
X129245164Y-119455401D01*
X129305502Y-119601072D01*
X129305509Y-119601085D01*
X129393110Y-119732188D01*
X129393113Y-119732192D01*
X129504607Y-119843686D01*
X129504611Y-119843689D01*
X129635714Y-119931290D01*
X129635727Y-119931297D01*
X129744982Y-119976551D01*
X129781403Y-119991637D01*
X129792989Y-119993941D01*
X129854900Y-120026324D01*
X129889476Y-120087039D01*
X129892800Y-120115559D01*
X129892800Y-120711445D01*
X129873115Y-120778484D01*
X129820311Y-120824239D01*
X129751153Y-120834183D01*
X129712506Y-120821930D01*
X129659226Y-120794782D01*
X129464534Y-120731522D01*
X129278799Y-120702105D01*
X129262352Y-120699500D01*
X129057648Y-120699500D01*
X129041201Y-120702105D01*
X128855465Y-120731522D01*
X128660776Y-120794781D01*
X128478386Y-120887715D01*
X128312786Y-121008028D01*
X128168028Y-121152786D01*
X128047715Y-121318386D01*
X127954781Y-121500776D01*
X127891522Y-121695465D01*
X127859500Y-121897648D01*
X127859500Y-122102351D01*
X127891522Y-122304534D01*
X127954781Y-122499223D01*
X127976122Y-122541105D01*
X127989018Y-122609774D01*
X127962742Y-122674515D01*
X127905636Y-122714772D01*
X127865637Y-122721400D01*
X120621997Y-122721400D01*
X120554958Y-122701715D01*
X120534316Y-122685081D01*
X120294077Y-122444842D01*
X120260592Y-122383519D01*
X120263828Y-122318841D01*
X120268477Y-122304534D01*
X120300500Y-122102352D01*
X120300500Y-121897648D01*
X120268477Y-121695465D01*
X120205218Y-121500776D01*
X120171503Y-121434607D01*
X120112287Y-121318390D01*
X120074205Y-121265974D01*
X119991971Y-121152786D01*
X119847213Y-121008028D01*
X119681613Y-120887715D01*
X119681612Y-120887714D01*
X119681610Y-120887713D01*
X119576552Y-120834183D01*
X119499223Y-120794781D01*
X119304534Y-120731522D01*
X119118799Y-120702105D01*
X119102352Y-120699500D01*
X118897648Y-120699500D01*
X118881201Y-120702105D01*
X118695465Y-120731522D01*
X118500776Y-120794781D01*
X118318386Y-120887715D01*
X118152786Y-121008028D01*
X118008028Y-121152786D01*
X117887715Y-121318386D01*
X117794781Y-121500776D01*
X117731522Y-121695465D01*
X117699500Y-121897648D01*
X117699500Y-122102351D01*
X117731522Y-122304534D01*
X117794781Y-122499223D01*
X117887715Y-122681613D01*
X118008028Y-122847213D01*
X118152786Y-122991971D01*
X118307749Y-123104556D01*
X118318390Y-123112287D01*
X118434607Y-123171503D01*
X118500776Y-123205218D01*
X118500778Y-123205218D01*
X118500781Y-123205220D01*
X118605137Y-123239127D01*
X118695465Y-123268477D01*
X118796557Y-123284488D01*
X118897648Y-123300500D01*
X118897649Y-123300500D01*
X119102351Y-123300500D01*
X119102352Y-123300500D01*
X119304534Y-123268477D01*
X119318842Y-123263827D01*
X119388682Y-123261831D01*
X119444842Y-123294077D01*
X119837039Y-123686274D01*
X119837049Y-123686285D01*
X119841379Y-123690615D01*
X119841380Y-123690616D01*
X119953184Y-123802420D01*
X120019357Y-123840624D01*
X120039995Y-123852539D01*
X120039997Y-123852541D01*
X120078051Y-123874511D01*
X120090115Y-123881477D01*
X120242843Y-123922401D01*
X120242846Y-123922401D01*
X120408553Y-123922401D01*
X120408569Y-123922400D01*
X128772203Y-123922400D01*
X128839242Y-123942085D01*
X128884997Y-123994889D01*
X128894941Y-124064047D01*
X128865916Y-124127603D01*
X128859884Y-124134081D01*
X123732484Y-129261481D01*
X123671161Y-129294966D01*
X123644803Y-129297800D01*
X116284343Y-129297800D01*
X116131614Y-129338723D01*
X116111221Y-129350498D01*
X116111218Y-129350499D01*
X115994690Y-129417775D01*
X115994682Y-129417781D01*
X115882878Y-129529586D01*
X115293505Y-130118958D01*
X115232182Y-130152443D01*
X115162490Y-130147459D01*
X115118143Y-130118958D01*
X115007213Y-130008028D01*
X114841613Y-129887715D01*
X114841612Y-129887714D01*
X114841610Y-129887713D01*
X114784653Y-129858691D01*
X114659223Y-129794781D01*
X114464534Y-129731522D01*
X114289995Y-129703878D01*
X114262352Y-129699500D01*
X114057648Y-129699500D01*
X114033329Y-129703351D01*
X113855465Y-129731522D01*
X113660776Y-129794781D01*
X113478386Y-129887715D01*
X113312786Y-130008028D01*
X113168028Y-130152786D01*
X113047715Y-130318386D01*
X112954781Y-130500776D01*
X112891522Y-130695465D01*
X112859500Y-130897648D01*
X112859500Y-131102351D01*
X112891522Y-131304534D01*
X112954781Y-131499223D01*
X113006167Y-131600072D01*
X113047585Y-131681359D01*
X113047715Y-131681613D01*
X113168028Y-131847213D01*
X113312786Y-131991971D01*
X113467749Y-132104556D01*
X113478390Y-132112287D01*
X113561030Y-132154394D01*
X113660776Y-132205218D01*
X113660778Y-132205218D01*
X113660781Y-132205220D01*
X113765137Y-132239127D01*
X113855465Y-132268477D01*
X113956557Y-132284488D01*
X114057648Y-132300500D01*
X114057649Y-132300500D01*
X114262351Y-132300500D01*
X114262352Y-132300500D01*
X114464534Y-132268477D01*
X114659219Y-132205220D01*
X114841610Y-132112287D01*
X114996160Y-132000001D01*
X115007213Y-131991971D01*
X115007215Y-131991968D01*
X115007219Y-131991966D01*
X115151966Y-131847219D01*
X115272287Y-131681610D01*
X115287951Y-131650866D01*
X115292556Y-131644168D01*
X115313600Y-131627045D01*
X115332231Y-131607319D01*
X115343749Y-131602515D01*
X115346753Y-131600072D01*
X115350661Y-131599633D01*
X115362642Y-131594636D01*
X115493485Y-131559577D01*
X115543604Y-131530639D01*
X115630416Y-131480520D01*
X115742220Y-131368716D01*
X115742220Y-131368714D01*
X115752428Y-131358507D01*
X115752429Y-131358504D01*
X116575816Y-130535119D01*
X116637139Y-130501634D01*
X116663497Y-130498800D01*
X120630423Y-130498800D01*
X120697462Y-130518485D01*
X120743217Y-130571289D01*
X120753161Y-130640447D01*
X120724136Y-130704003D01*
X120668742Y-130740731D01*
X120500968Y-130795244D01*
X120318644Y-130888143D01*
X120274077Y-130920523D01*
X120274077Y-130920524D01*
X120953554Y-131600000D01*
X120947339Y-131600000D01*
X120845606Y-131627259D01*
X120754394Y-131679920D01*
X120679920Y-131754394D01*
X120627259Y-131845606D01*
X120600000Y-131947339D01*
X120600000Y-131953553D01*
X119920524Y-131274077D01*
X119920523Y-131274077D01*
X119888143Y-131318644D01*
X119795244Y-131500968D01*
X119732009Y-131695582D01*
X119700000Y-131897682D01*
X119700000Y-132102317D01*
X119732009Y-132304417D01*
X119795244Y-132499031D01*
X119888141Y-132681350D01*
X119888147Y-132681359D01*
X119920523Y-132725921D01*
X119920524Y-132725922D01*
X120600000Y-132046446D01*
X120600000Y-132052661D01*
X120627259Y-132154394D01*
X120679920Y-132245606D01*
X120754394Y-132320080D01*
X120845606Y-132372741D01*
X120947339Y-132400000D01*
X120953553Y-132400000D01*
X120274076Y-133079474D01*
X120318650Y-133111859D01*
X120500968Y-133204755D01*
X120695582Y-133267990D01*
X120897683Y-133300000D01*
X121102317Y-133300000D01*
X121304417Y-133267990D01*
X121499031Y-133204755D01*
X121681349Y-133111859D01*
X121725921Y-133079474D01*
X121046447Y-132400000D01*
X121052661Y-132400000D01*
X121154394Y-132372741D01*
X121245606Y-132320080D01*
X121320080Y-132245606D01*
X121372741Y-132154394D01*
X121400000Y-132052661D01*
X121400000Y-132046448D01*
X122079474Y-132725922D01*
X122079474Y-132725921D01*
X122111859Y-132681349D01*
X122204755Y-132499031D01*
X122267990Y-132304417D01*
X122300000Y-132102317D01*
X122300000Y-131897682D01*
X122299995Y-131897648D01*
X129859500Y-131897648D01*
X129859500Y-132102351D01*
X129891522Y-132304534D01*
X129954781Y-132499223D01*
X130018691Y-132624653D01*
X130047585Y-132681359D01*
X130047715Y-132681613D01*
X130168028Y-132847213D01*
X130312786Y-132991971D01*
X130433226Y-133079474D01*
X130478390Y-133112287D01*
X130594607Y-133171503D01*
X130660776Y-133205218D01*
X130660778Y-133205218D01*
X130660781Y-133205220D01*
X130765137Y-133239127D01*
X130855465Y-133268477D01*
X130956557Y-133284488D01*
X131057648Y-133300500D01*
X131057649Y-133300500D01*
X131262351Y-133300500D01*
X131262352Y-133300500D01*
X131464534Y-133268477D01*
X131659219Y-133205220D01*
X131841610Y-133112287D01*
X131934590Y-133044732D01*
X132007213Y-132991971D01*
X132007215Y-132991968D01*
X132007219Y-132991966D01*
X132151966Y-132847219D01*
X132151968Y-132847215D01*
X132151971Y-132847213D01*
X132204732Y-132774590D01*
X132272287Y-132681610D01*
X132365220Y-132499219D01*
X132428477Y-132304534D01*
X132460500Y-132102352D01*
X132460500Y-132102135D01*
X133649500Y-132102135D01*
X133649500Y-133897870D01*
X133649501Y-133897876D01*
X133655908Y-133957483D01*
X133706202Y-134092328D01*
X133706206Y-134092335D01*
X133792452Y-134207544D01*
X133792455Y-134207547D01*
X133907664Y-134293793D01*
X133907671Y-134293797D01*
X134042517Y-134344091D01*
X134042516Y-134344091D01*
X134049444Y-134344835D01*
X134102127Y-134350500D01*
X135897872Y-134350499D01*
X135957483Y-134344091D01*
X136092331Y-134293796D01*
X136207546Y-134207546D01*
X136293796Y-134092331D01*
X136344091Y-133957483D01*
X136350500Y-133897873D01*
X136350499Y-132102128D01*
X136344091Y-132042517D01*
X136293796Y-131907669D01*
X136293795Y-131907668D01*
X136293793Y-131907664D01*
X136207547Y-131792455D01*
X136207544Y-131792452D01*
X136092335Y-131706206D01*
X136092328Y-131706202D01*
X135957482Y-131655908D01*
X135957483Y-131655908D01*
X135897883Y-131649501D01*
X135897881Y-131649500D01*
X135897873Y-131649500D01*
X135897864Y-131649500D01*
X134102129Y-131649500D01*
X134102123Y-131649501D01*
X134042516Y-131655908D01*
X133907671Y-131706202D01*
X133907664Y-131706206D01*
X133792455Y-131792452D01*
X133792452Y-131792455D01*
X133706206Y-131907664D01*
X133706202Y-131907671D01*
X133655908Y-132042517D01*
X133649501Y-132102116D01*
X133649501Y-132102123D01*
X133649500Y-132102135D01*
X132460500Y-132102135D01*
X132460500Y-131897648D01*
X132443838Y-131792452D01*
X132428477Y-131695465D01*
X132384324Y-131559577D01*
X132365220Y-131500781D01*
X132365218Y-131500778D01*
X132365218Y-131500776D01*
X132297929Y-131368716D01*
X132272287Y-131318390D01*
X132240092Y-131274077D01*
X132151971Y-131152786D01*
X132007213Y-131008028D01*
X131841613Y-130887715D01*
X131841612Y-130887714D01*
X131841610Y-130887713D01*
X131784653Y-130858691D01*
X131659223Y-130794781D01*
X131464534Y-130731522D01*
X131273672Y-130701293D01*
X131262352Y-130699500D01*
X131057648Y-130699500D01*
X131046328Y-130701293D01*
X130855465Y-130731522D01*
X130660776Y-130794781D01*
X130478386Y-130887715D01*
X130312786Y-131008028D01*
X130168028Y-131152786D01*
X130047715Y-131318386D01*
X129954781Y-131500776D01*
X129891522Y-131695465D01*
X129859500Y-131897648D01*
X122299995Y-131897648D01*
X122267990Y-131695582D01*
X122204755Y-131500968D01*
X122111859Y-131318650D01*
X122079474Y-131274077D01*
X122079474Y-131274076D01*
X121400000Y-131953551D01*
X121400000Y-131947339D01*
X121372741Y-131845606D01*
X121320080Y-131754394D01*
X121245606Y-131679920D01*
X121154394Y-131627259D01*
X121052661Y-131600000D01*
X121046446Y-131600000D01*
X121725922Y-130920524D01*
X121725921Y-130920523D01*
X121681359Y-130888147D01*
X121681350Y-130888141D01*
X121499031Y-130795244D01*
X121331258Y-130740731D01*
X121273583Y-130701293D01*
X121246385Y-130636934D01*
X121258300Y-130568088D01*
X121305544Y-130516612D01*
X121369577Y-130498800D01*
X123858231Y-130498800D01*
X123858247Y-130498801D01*
X123865843Y-130498801D01*
X124023954Y-130498801D01*
X124023957Y-130498801D01*
X124176685Y-130457877D01*
X124231958Y-130425965D01*
X124231959Y-130425965D01*
X124313609Y-130378824D01*
X124313608Y-130378824D01*
X124313616Y-130378820D01*
X124425420Y-130267016D01*
X124425420Y-130267014D01*
X124435624Y-130256811D01*
X124435628Y-130256806D01*
X127794786Y-126897648D01*
X129859500Y-126897648D01*
X129859500Y-127102352D01*
X129863878Y-127129995D01*
X129891522Y-127304534D01*
X129954781Y-127499223D01*
X130015054Y-127617514D01*
X130047585Y-127681359D01*
X130047715Y-127681613D01*
X130168028Y-127847213D01*
X130312786Y-127991971D01*
X130433226Y-128079474D01*
X130478390Y-128112287D01*
X130594607Y-128171503D01*
X130660776Y-128205218D01*
X130660778Y-128205218D01*
X130660781Y-128205220D01*
X130737665Y-128230201D01*
X130855465Y-128268477D01*
X130956557Y-128284488D01*
X131057648Y-128300500D01*
X131057649Y-128300500D01*
X131262351Y-128300500D01*
X131262352Y-128300500D01*
X131464534Y-128268477D01*
X131659219Y-128205220D01*
X131841610Y-128112287D01*
X131934590Y-128044732D01*
X132007213Y-127991971D01*
X132007215Y-127991968D01*
X132007219Y-127991966D01*
X132151966Y-127847219D01*
X132151968Y-127847215D01*
X132151971Y-127847213D01*
X132213010Y-127763198D01*
X132272287Y-127681610D01*
X132365220Y-127499219D01*
X132428477Y-127304534D01*
X132460500Y-127102352D01*
X132460500Y-127102135D01*
X133649500Y-127102135D01*
X133649500Y-128897870D01*
X133649501Y-128897876D01*
X133655908Y-128957483D01*
X133706202Y-129092328D01*
X133706206Y-129092335D01*
X133792452Y-129207544D01*
X133792455Y-129207547D01*
X133907664Y-129293793D01*
X133907671Y-129293797D01*
X134042517Y-129344091D01*
X134042516Y-129344091D01*
X134049444Y-129344835D01*
X134102127Y-129350500D01*
X135897872Y-129350499D01*
X135957483Y-129344091D01*
X136092331Y-129293796D01*
X136207546Y-129207546D01*
X136293796Y-129092331D01*
X136344091Y-128957483D01*
X136350500Y-128897873D01*
X136350499Y-127102128D01*
X136344091Y-127042517D01*
X136293796Y-126907669D01*
X136293795Y-126907668D01*
X136293793Y-126907664D01*
X136207547Y-126792455D01*
X136207544Y-126792452D01*
X136092335Y-126706206D01*
X136092328Y-126706202D01*
X135957482Y-126655908D01*
X135957483Y-126655908D01*
X135897883Y-126649501D01*
X135897881Y-126649500D01*
X135897873Y-126649500D01*
X135897864Y-126649500D01*
X134102129Y-126649500D01*
X134102123Y-126649501D01*
X134042516Y-126655908D01*
X133907671Y-126706202D01*
X133907664Y-126706206D01*
X133792455Y-126792452D01*
X133792452Y-126792455D01*
X133706206Y-126907664D01*
X133706202Y-126907671D01*
X133655908Y-127042517D01*
X133654818Y-127052661D01*
X133649501Y-127102123D01*
X133649500Y-127102135D01*
X132460500Y-127102135D01*
X132460500Y-126897648D01*
X132452257Y-126845606D01*
X132428477Y-126695465D01*
X132397458Y-126600000D01*
X132365220Y-126500781D01*
X132365218Y-126500778D01*
X132365218Y-126500776D01*
X132305472Y-126383519D01*
X132272287Y-126318390D01*
X132240092Y-126274077D01*
X132151971Y-126152786D01*
X132007213Y-126008028D01*
X131841613Y-125887715D01*
X131841612Y-125887714D01*
X131841610Y-125887713D01*
X131784653Y-125858691D01*
X131659223Y-125794781D01*
X131464534Y-125731522D01*
X131289995Y-125703878D01*
X131262352Y-125699500D01*
X131057648Y-125699500D01*
X131033329Y-125703351D01*
X130855465Y-125731522D01*
X130660776Y-125794781D01*
X130478386Y-125887715D01*
X130312786Y-126008028D01*
X130168028Y-126152786D01*
X130047715Y-126318386D01*
X129954781Y-126500776D01*
X129891522Y-126695465D01*
X129867487Y-126847219D01*
X129859500Y-126897648D01*
X127794786Y-126897648D01*
X130851806Y-123840628D01*
X130851811Y-123840624D01*
X130862014Y-123830420D01*
X130862016Y-123830420D01*
X130973820Y-123718616D01*
X131024966Y-123630027D01*
X131052877Y-123581685D01*
X131078474Y-123486153D01*
X131080790Y-123480113D01*
X131098212Y-123457274D01*
X131113164Y-123432745D01*
X131119138Y-123429842D01*
X131123167Y-123424562D01*
X131150171Y-123414767D01*
X131176011Y-123402216D01*
X131187403Y-123401264D01*
X131188850Y-123400740D01*
X131190150Y-123401035D01*
X131196574Y-123400499D01*
X132947871Y-123400499D01*
X132947872Y-123400499D01*
X133007483Y-123394091D01*
X133142331Y-123343796D01*
X133257546Y-123257546D01*
X133343796Y-123142331D01*
X133371429Y-123068243D01*
X133373601Y-123062420D01*
X133415471Y-123006486D01*
X133480936Y-122982068D01*
X133549209Y-122996919D01*
X133577464Y-123018071D01*
X133627636Y-123068243D01*
X133627641Y-123068247D01*
X133688258Y-123112287D01*
X133805978Y-123197815D01*
X133931615Y-123261831D01*
X134002393Y-123297895D01*
X134002396Y-123297896D01*
X134107221Y-123331955D01*
X134212049Y-123366015D01*
X134429778Y-123400500D01*
X134429779Y-123400500D01*
X134650221Y-123400500D01*
X134650222Y-123400500D01*
X134867951Y-123366015D01*
X135077606Y-123297895D01*
X135274022Y-123197815D01*
X135452365Y-123068242D01*
X135608242Y-122912365D01*
X135737815Y-122734022D01*
X135837895Y-122537606D01*
X135906015Y-122327951D01*
X135940500Y-122110222D01*
X135940500Y-121889778D01*
X135906015Y-121672049D01*
X135850366Y-121500776D01*
X135837896Y-121462396D01*
X135837895Y-121462393D01*
X135803237Y-121394375D01*
X135737815Y-121265978D01*
X135655573Y-121152781D01*
X135608247Y-121087641D01*
X135608243Y-121087636D01*
X135452363Y-120931756D01*
X135452358Y-120931752D01*
X135274025Y-120802187D01*
X135274024Y-120802186D01*
X135274022Y-120802185D01*
X135156791Y-120742452D01*
X135077606Y-120702104D01*
X135077603Y-120702103D01*
X134867952Y-120633985D01*
X134759086Y-120616742D01*
X134650222Y-120599500D01*
X134429778Y-120599500D01*
X134357201Y-120610995D01*
X134212047Y-120633985D01*
X134002396Y-120702103D01*
X134002393Y-120702104D01*
X133805974Y-120802187D01*
X133627641Y-120931752D01*
X133627636Y-120931756D01*
X133577463Y-120981929D01*
X133516140Y-121015413D01*
X133446448Y-121010428D01*
X133390515Y-120968557D01*
X133373601Y-120937580D01*
X133343797Y-120857671D01*
X133343793Y-120857664D01*
X133257547Y-120742455D01*
X133257544Y-120742452D01*
X133142335Y-120656206D01*
X133142328Y-120656202D01*
X133007482Y-120605908D01*
X133007483Y-120605908D01*
X132947883Y-120599501D01*
X132947881Y-120599500D01*
X132947873Y-120599500D01*
X132947865Y-120599500D01*
X131217800Y-120599500D01*
X131150761Y-120579815D01*
X131105006Y-120527011D01*
X131093800Y-120475500D01*
X131093800Y-119789360D01*
X131093801Y-119789347D01*
X131093801Y-119621244D01*
X131093801Y-119621243D01*
X131052877Y-119468516D01*
X131045298Y-119455389D01*
X130973824Y-119331590D01*
X130973818Y-119331582D01*
X130849473Y-119207237D01*
X130815988Y-119145914D01*
X130815537Y-119143747D01*
X130784638Y-118988410D01*
X130784637Y-118988403D01*
X130784635Y-118988398D01*
X130724297Y-118842727D01*
X130724290Y-118842714D01*
X130636689Y-118711611D01*
X130636686Y-118711607D01*
X130537259Y-118612180D01*
X130503774Y-118550857D01*
X130508758Y-118481165D01*
X130550630Y-118425232D01*
X130616094Y-118400815D01*
X130624920Y-118400499D01*
X131947872Y-118400499D01*
X132007483Y-118394091D01*
X132142331Y-118343796D01*
X132257546Y-118257546D01*
X132343796Y-118142331D01*
X132371429Y-118068243D01*
X132373601Y-118062420D01*
X132415471Y-118006486D01*
X132480936Y-117982068D01*
X132549209Y-117996919D01*
X132577464Y-118018071D01*
X132627636Y-118068243D01*
X132627641Y-118068247D01*
X132660796Y-118092335D01*
X132805978Y-118197815D01*
X132933376Y-118262728D01*
X133002393Y-118297895D01*
X133002396Y-118297896D01*
X133066309Y-118318662D01*
X133212049Y-118366015D01*
X133429778Y-118400500D01*
X133429779Y-118400500D01*
X133650221Y-118400500D01*
X133650222Y-118400500D01*
X133867951Y-118366015D01*
X134077606Y-118297895D01*
X134274022Y-118197815D01*
X134452365Y-118068242D01*
X134608242Y-117912365D01*
X134737815Y-117734022D01*
X134837895Y-117537606D01*
X134906015Y-117327951D01*
X134940500Y-117110222D01*
X134940500Y-116889778D01*
X134906015Y-116672049D01*
X134859253Y-116528129D01*
X134837896Y-116462396D01*
X134837895Y-116462393D01*
X134757460Y-116304534D01*
X134737815Y-116265978D01*
X134647668Y-116141900D01*
X134608247Y-116087641D01*
X134608243Y-116087636D01*
X134452363Y-115931756D01*
X134452358Y-115931752D01*
X134274025Y-115802187D01*
X134274024Y-115802186D01*
X134274022Y-115802185D01*
X134156791Y-115742452D01*
X134077606Y-115702104D01*
X134077603Y-115702103D01*
X133867952Y-115633985D01*
X133756122Y-115616273D01*
X133692987Y-115586344D01*
X133656056Y-115527032D01*
X133657054Y-115457170D01*
X133695664Y-115398937D01*
X133759627Y-115370823D01*
X133775520Y-115369800D01*
X135317503Y-115369800D01*
X135384542Y-115389485D01*
X135405183Y-115406118D01*
X136479584Y-116480520D01*
X136479586Y-116480521D01*
X136479590Y-116480524D01*
X136587499Y-116542825D01*
X136635715Y-116593391D01*
X136649500Y-116650212D01*
X136649500Y-116897869D01*
X136649501Y-116897876D01*
X136655908Y-116957483D01*
X136706202Y-117092328D01*
X136706206Y-117092335D01*
X136792452Y-117207544D01*
X136792455Y-117207547D01*
X136907664Y-117293793D01*
X136907671Y-117293797D01*
X137042517Y-117344091D01*
X137042516Y-117344091D01*
X137049444Y-117344835D01*
X137102127Y-117350500D01*
X138897872Y-117350499D01*
X138957483Y-117344091D01*
X139092331Y-117293796D01*
X139207546Y-117207546D01*
X139276234Y-117115789D01*
X139332167Y-117073920D01*
X139401859Y-117068936D01*
X139463182Y-117102421D01*
X139496666Y-117163745D01*
X139499500Y-117190102D01*
X139499500Y-149375500D01*
X139479815Y-149442539D01*
X139427011Y-149488294D01*
X139375500Y-149499500D01*
X100624500Y-149499500D01*
X100557461Y-149479815D01*
X100511706Y-149427011D01*
X100500500Y-149375500D01*
X100500500Y-145190102D01*
X100520185Y-145123063D01*
X100572989Y-145077308D01*
X100642147Y-145067364D01*
X100705703Y-145096389D01*
X100723762Y-145115786D01*
X100792454Y-145207546D01*
X100814980Y-145224409D01*
X100907664Y-145293793D01*
X100907671Y-145293797D01*
X101042517Y-145344091D01*
X101042516Y-145344091D01*
X101049444Y-145344835D01*
X101102127Y-145350500D01*
X102897872Y-145350499D01*
X102957483Y-145344091D01*
X103092331Y-145293796D01*
X103207546Y-145207546D01*
X103251278Y-145149127D01*
X103307210Y-145107258D01*
X103376901Y-145102274D01*
X103438223Y-145135758D01*
X103934684Y-145632220D01*
X103934686Y-145632221D01*
X103934690Y-145632224D01*
X104071609Y-145711273D01*
X104071616Y-145711277D01*
X104224343Y-145752201D01*
X104224345Y-145752201D01*
X104390054Y-145752201D01*
X104390070Y-145752200D01*
X105405500Y-145752200D01*
X105472539Y-145771885D01*
X105518294Y-145824689D01*
X105529500Y-145876200D01*
X105529500Y-147397870D01*
X105529501Y-147397876D01*
X105535908Y-147457483D01*
X105586202Y-147592328D01*
X105586206Y-147592335D01*
X105672452Y-147707544D01*
X105672455Y-147707547D01*
X105787664Y-147793793D01*
X105787671Y-147793797D01*
X105922517Y-147844091D01*
X105922516Y-147844091D01*
X105929444Y-147844835D01*
X105982127Y-147850500D01*
X107777872Y-147850499D01*
X107837483Y-147844091D01*
X107972331Y-147793796D01*
X108087546Y-147707546D01*
X108173796Y-147592331D01*
X108222810Y-147460916D01*
X108264681Y-147404984D01*
X108330145Y-147380566D01*
X108398418Y-147395417D01*
X108426673Y-147416569D01*
X108540213Y-147530109D01*
X108712179Y-147655048D01*
X108712181Y-147655049D01*
X108712184Y-147655051D01*
X108901588Y-147751557D01*
X109103757Y-147817246D01*
X109313713Y-147850500D01*
X109313714Y-147850500D01*
X109526286Y-147850500D01*
X109526287Y-147850500D01*
X109736243Y-147817246D01*
X109938412Y-147751557D01*
X110127816Y-147655051D01*
X110214138Y-147592335D01*
X110299786Y-147530109D01*
X110299788Y-147530106D01*
X110299792Y-147530104D01*
X110450104Y-147379792D01*
X110450106Y-147379788D01*
X110450109Y-147379786D01*
X110575048Y-147207820D01*
X110575047Y-147207820D01*
X110575051Y-147207816D01*
X110579514Y-147199054D01*
X110627488Y-147148259D01*
X110695308Y-147131463D01*
X110761444Y-147153999D01*
X110800486Y-147199056D01*
X110804951Y-147207820D01*
X110929890Y-147379786D01*
X111080213Y-147530109D01*
X111252179Y-147655048D01*
X111252181Y-147655049D01*
X111252184Y-147655051D01*
X111441588Y-147751557D01*
X111643757Y-147817246D01*
X111853713Y-147850500D01*
X111853714Y-147850500D01*
X112066286Y-147850500D01*
X112066287Y-147850500D01*
X112276243Y-147817246D01*
X112478412Y-147751557D01*
X112667816Y-147655051D01*
X112754138Y-147592335D01*
X112839786Y-147530109D01*
X112839788Y-147530106D01*
X112839792Y-147530104D01*
X112990104Y-147379792D01*
X112990106Y-147379788D01*
X112990109Y-147379786D01*
X113115048Y-147207820D01*
X113115047Y-147207820D01*
X113115051Y-147207816D01*
X113119514Y-147199054D01*
X113167488Y-147148259D01*
X113235308Y-147131463D01*
X113301444Y-147153999D01*
X113340486Y-147199056D01*
X113344951Y-147207820D01*
X113469890Y-147379786D01*
X113620213Y-147530109D01*
X113792179Y-147655048D01*
X113792181Y-147655049D01*
X113792184Y-147655051D01*
X113981588Y-147751557D01*
X114183757Y-147817246D01*
X114393713Y-147850500D01*
X114393714Y-147850500D01*
X114606286Y-147850500D01*
X114606287Y-147850500D01*
X114816243Y-147817246D01*
X115018412Y-147751557D01*
X115207816Y-147655051D01*
X115294138Y-147592335D01*
X115379786Y-147530109D01*
X115379788Y-147530106D01*
X115379792Y-147530104D01*
X115530104Y-147379792D01*
X115530106Y-147379788D01*
X115530109Y-147379786D01*
X115588661Y-147299193D01*
X115655051Y-147207816D01*
X115655349Y-147207230D01*
X115675235Y-147168205D01*
X115723209Y-147117409D01*
X115785719Y-147100500D01*
X123973031Y-147100500D01*
X123973047Y-147100501D01*
X123980643Y-147100501D01*
X124138754Y-147100501D01*
X124138757Y-147100501D01*
X124291485Y-147059577D01*
X124341604Y-147030639D01*
X124428416Y-146980520D01*
X124540220Y-146868716D01*
X124540220Y-146868714D01*
X124550428Y-146858507D01*
X124550429Y-146858504D01*
X125462717Y-145946219D01*
X125524040Y-145912734D01*
X125550398Y-145909900D01*
X126405500Y-145909900D01*
X126472539Y-145929585D01*
X126518294Y-145982389D01*
X126529500Y-146033900D01*
X126529500Y-147397870D01*
X126529501Y-147397876D01*
X126535908Y-147457483D01*
X126586202Y-147592328D01*
X126586206Y-147592335D01*
X126672452Y-147707544D01*
X126672455Y-147707547D01*
X126787664Y-147793793D01*
X126787671Y-147793797D01*
X126922517Y-147844091D01*
X126922516Y-147844091D01*
X126929444Y-147844835D01*
X126982127Y-147850500D01*
X128777872Y-147850499D01*
X128837483Y-147844091D01*
X128972331Y-147793796D01*
X129087546Y-147707546D01*
X129173796Y-147592331D01*
X129222810Y-147460916D01*
X129264681Y-147404984D01*
X129330145Y-147380566D01*
X129398418Y-147395417D01*
X129426673Y-147416569D01*
X129540213Y-147530109D01*
X129712179Y-147655048D01*
X129712181Y-147655049D01*
X129712184Y-147655051D01*
X129901588Y-147751557D01*
X130103757Y-147817246D01*
X130313713Y-147850500D01*
X130313714Y-147850500D01*
X130526286Y-147850500D01*
X130526287Y-147850500D01*
X130736243Y-147817246D01*
X130938412Y-147751557D01*
X131127816Y-147655051D01*
X131214138Y-147592335D01*
X131299786Y-147530109D01*
X131299788Y-147530106D01*
X131299792Y-147530104D01*
X131450104Y-147379792D01*
X131450106Y-147379788D01*
X131450109Y-147379786D01*
X131575048Y-147207820D01*
X131575047Y-147207820D01*
X131575051Y-147207816D01*
X131579514Y-147199054D01*
X131627488Y-147148259D01*
X131695308Y-147131463D01*
X131761444Y-147153999D01*
X131800486Y-147199056D01*
X131804951Y-147207820D01*
X131929890Y-147379786D01*
X132080213Y-147530109D01*
X132252179Y-147655048D01*
X132252181Y-147655049D01*
X132252184Y-147655051D01*
X132441588Y-147751557D01*
X132643757Y-147817246D01*
X132853713Y-147850500D01*
X132853714Y-147850500D01*
X133066286Y-147850500D01*
X133066287Y-147850500D01*
X133276243Y-147817246D01*
X133478412Y-147751557D01*
X133667816Y-147655051D01*
X133754138Y-147592335D01*
X133839786Y-147530109D01*
X133839788Y-147530106D01*
X133839792Y-147530104D01*
X133990104Y-147379792D01*
X133990106Y-147379788D01*
X133990109Y-147379786D01*
X134115048Y-147207820D01*
X134115047Y-147207820D01*
X134115051Y-147207816D01*
X134119514Y-147199054D01*
X134167488Y-147148259D01*
X134235308Y-147131463D01*
X134301444Y-147153999D01*
X134340486Y-147199056D01*
X134344951Y-147207820D01*
X134469890Y-147379786D01*
X134620213Y-147530109D01*
X134792179Y-147655048D01*
X134792181Y-147655049D01*
X134792184Y-147655051D01*
X134981588Y-147751557D01*
X135183757Y-147817246D01*
X135393713Y-147850500D01*
X135393714Y-147850500D01*
X135606286Y-147850500D01*
X135606287Y-147850500D01*
X135816243Y-147817246D01*
X136018412Y-147751557D01*
X136207816Y-147655051D01*
X136294138Y-147592335D01*
X136379786Y-147530109D01*
X136379788Y-147530106D01*
X136379792Y-147530104D01*
X136530104Y-147379792D01*
X136530106Y-147379788D01*
X136530109Y-147379786D01*
X136655048Y-147207820D01*
X136655047Y-147207820D01*
X136655051Y-147207816D01*
X136751557Y-147018412D01*
X136817246Y-146816243D01*
X136850500Y-146606287D01*
X136850500Y-146393713D01*
X136817246Y-146183757D01*
X136751557Y-145981588D01*
X136655051Y-145792184D01*
X136655049Y-145792181D01*
X136655048Y-145792179D01*
X136530109Y-145620213D01*
X136379786Y-145469890D01*
X136207817Y-145344949D01*
X136198504Y-145340204D01*
X136147707Y-145292230D01*
X136130912Y-145224409D01*
X136153449Y-145158274D01*
X136198507Y-145119232D01*
X136207555Y-145114622D01*
X136261716Y-145075270D01*
X136261717Y-145075270D01*
X135629408Y-144442962D01*
X135692993Y-144425925D01*
X135807007Y-144360099D01*
X135900099Y-144267007D01*
X135965925Y-144152993D01*
X135982962Y-144089408D01*
X136615270Y-144721717D01*
X136615270Y-144721716D01*
X136654622Y-144667554D01*
X136751095Y-144478217D01*
X136816757Y-144276130D01*
X136816757Y-144276127D01*
X136850000Y-144066246D01*
X136850000Y-143853753D01*
X136816757Y-143643872D01*
X136816757Y-143643869D01*
X136751095Y-143441782D01*
X136654624Y-143252449D01*
X136615270Y-143198282D01*
X136615269Y-143198282D01*
X135982962Y-143830590D01*
X135965925Y-143767007D01*
X135900099Y-143652993D01*
X135807007Y-143559901D01*
X135692993Y-143494075D01*
X135629409Y-143477037D01*
X136261716Y-142844728D01*
X136207550Y-142805375D01*
X136018217Y-142708904D01*
X135816129Y-142643242D01*
X135606246Y-142610000D01*
X135393754Y-142610000D01*
X135183872Y-142643242D01*
X135183869Y-142643242D01*
X134981782Y-142708904D01*
X134792439Y-142805380D01*
X134738282Y-142844727D01*
X134738282Y-142844728D01*
X135370591Y-143477037D01*
X135307007Y-143494075D01*
X135192993Y-143559901D01*
X135099901Y-143652993D01*
X135034075Y-143767007D01*
X135017037Y-143830591D01*
X134384728Y-143198282D01*
X134384727Y-143198282D01*
X134345380Y-143252440D01*
X134345376Y-143252446D01*
X134340760Y-143261505D01*
X134292781Y-143312297D01*
X134224959Y-143329087D01*
X134158826Y-143306543D01*
X134119794Y-143261493D01*
X134115051Y-143252184D01*
X134115049Y-143252181D01*
X134115048Y-143252179D01*
X133990109Y-143080213D01*
X133839786Y-142929890D01*
X133667820Y-142804951D01*
X133478414Y-142708444D01*
X133478413Y-142708443D01*
X133478412Y-142708443D01*
X133276243Y-142642754D01*
X133276241Y-142642753D01*
X133276240Y-142642753D01*
X133114957Y-142617208D01*
X133066287Y-142609500D01*
X132853713Y-142609500D01*
X132805042Y-142617208D01*
X132643760Y-142642753D01*
X132441585Y-142708444D01*
X132252179Y-142804951D01*
X132080213Y-142929890D01*
X131929890Y-143080213D01*
X131804949Y-143252182D01*
X131800484Y-143260946D01*
X131752509Y-143311742D01*
X131684688Y-143328536D01*
X131618553Y-143305998D01*
X131579516Y-143260946D01*
X131575050Y-143252182D01*
X131450109Y-143080213D01*
X131299786Y-142929890D01*
X131127820Y-142804951D01*
X130938414Y-142708444D01*
X130938413Y-142708443D01*
X130938412Y-142708443D01*
X130736243Y-142642754D01*
X130736241Y-142642753D01*
X130736240Y-142642753D01*
X130574957Y-142617208D01*
X130526287Y-142609500D01*
X130313713Y-142609500D01*
X130265042Y-142617208D01*
X130103760Y-142642753D01*
X129901585Y-142708444D01*
X129712179Y-142804951D01*
X129540213Y-142929890D01*
X129389890Y-143080213D01*
X129264949Y-143252182D01*
X129260484Y-143260946D01*
X129212509Y-143311742D01*
X129144688Y-143328536D01*
X129078553Y-143305998D01*
X129039516Y-143260946D01*
X129035050Y-143252182D01*
X128910109Y-143080213D01*
X128759786Y-142929890D01*
X128587820Y-142804951D01*
X128398414Y-142708444D01*
X128398413Y-142708443D01*
X128398412Y-142708443D01*
X128196243Y-142642754D01*
X128196241Y-142642753D01*
X128196240Y-142642753D01*
X128034957Y-142617208D01*
X127986287Y-142609500D01*
X127773713Y-142609500D01*
X127725042Y-142617208D01*
X127563760Y-142642753D01*
X127361585Y-142708444D01*
X127172179Y-142804951D01*
X127000213Y-142929890D01*
X126849890Y-143080213D01*
X126724948Y-143252184D01*
X126724947Y-143252185D01*
X126704765Y-143291795D01*
X126656791Y-143342591D01*
X126594281Y-143359500D01*
X123498124Y-143359500D01*
X123431085Y-143339815D01*
X123397806Y-143308385D01*
X123379419Y-143283078D01*
X123379415Y-143283073D01*
X123256930Y-143160588D01*
X123256928Y-143160586D01*
X123116788Y-143058768D01*
X122962445Y-142980127D01*
X122797701Y-142926598D01*
X122797699Y-142926597D01*
X122797698Y-142926597D01*
X122666271Y-142905781D01*
X122626611Y-142899500D01*
X122453389Y-142899500D01*
X122413728Y-142905781D01*
X122282302Y-142926597D01*
X122117552Y-142980128D01*
X121963211Y-143058768D01*
X121903532Y-143102128D01*
X121823072Y-143160586D01*
X121823070Y-143160588D01*
X121823069Y-143160588D01*
X121700588Y-143283069D01*
X121700588Y-143283070D01*
X121700586Y-143283072D01*
X121682195Y-143308385D01*
X121598768Y-143423211D01*
X121520128Y-143577550D01*
X121487668Y-143677453D01*
X121448230Y-143735128D01*
X121383871Y-143762326D01*
X121315025Y-143750411D01*
X121263549Y-143703167D01*
X121251806Y-143677452D01*
X121219408Y-143577744D01*
X121140804Y-143423475D01*
X121039032Y-143283397D01*
X120916602Y-143160967D01*
X120776524Y-143059195D01*
X120622257Y-142980591D01*
X120457584Y-142927085D01*
X120286571Y-142900000D01*
X120250000Y-142900000D01*
X120250000Y-143755025D01*
X120214905Y-143719930D01*
X120135095Y-143673852D01*
X120046078Y-143650000D01*
X119953922Y-143650000D01*
X119864905Y-143673852D01*
X119785095Y-143719930D01*
X119719930Y-143785095D01*
X119673852Y-143864905D01*
X119650000Y-143953922D01*
X119650000Y-144046078D01*
X119673852Y-144135095D01*
X119719930Y-144214905D01*
X119785095Y-144280070D01*
X119864905Y-144326148D01*
X119953922Y-144350000D01*
X120046078Y-144350000D01*
X120135095Y-144326148D01*
X120214905Y-144280070D01*
X120250000Y-144244975D01*
X120250000Y-144828305D01*
X120243931Y-144866624D01*
X120196598Y-145012298D01*
X120169500Y-145183389D01*
X120169500Y-145356610D01*
X120196597Y-145527697D01*
X120250128Y-145692449D01*
X120263761Y-145719204D01*
X120276658Y-145787874D01*
X120250382Y-145852614D01*
X120193276Y-145892872D01*
X120153277Y-145899500D01*
X115785719Y-145899500D01*
X115718680Y-145879815D01*
X115675235Y-145831795D01*
X115655052Y-145792185D01*
X115655051Y-145792184D01*
X115530109Y-145620213D01*
X115379786Y-145469890D01*
X115207817Y-145344949D01*
X115198504Y-145340204D01*
X115147707Y-145292230D01*
X115130912Y-145224409D01*
X115153449Y-145158274D01*
X115198507Y-145119232D01*
X115207555Y-145114622D01*
X115261716Y-145075270D01*
X115261717Y-145075270D01*
X114629408Y-144442962D01*
X114692993Y-144425925D01*
X114807007Y-144360099D01*
X114900099Y-144267007D01*
X114965925Y-144152993D01*
X114982962Y-144089409D01*
X115615270Y-144721717D01*
X115615270Y-144721716D01*
X115654622Y-144667554D01*
X115751095Y-144478217D01*
X115816757Y-144276130D01*
X115816757Y-144276127D01*
X115820895Y-144250000D01*
X118725885Y-144250000D01*
X118727085Y-144257584D01*
X118780591Y-144422255D01*
X118859195Y-144576524D01*
X118960967Y-144716602D01*
X119083397Y-144839032D01*
X119223475Y-144940804D01*
X119377742Y-145019408D01*
X119542415Y-145072914D01*
X119713429Y-145100000D01*
X119750000Y-145100000D01*
X119750000Y-144250000D01*
X118725885Y-144250000D01*
X115820895Y-144250000D01*
X115829839Y-144193537D01*
X115850000Y-144066246D01*
X115850000Y-143853753D01*
X115842510Y-143806463D01*
X115842510Y-143806460D01*
X115833567Y-143749999D01*
X118725884Y-143749999D01*
X118725885Y-143750000D01*
X119750000Y-143750000D01*
X119750000Y-142900000D01*
X119713429Y-142900000D01*
X119542415Y-142927085D01*
X119377742Y-142980591D01*
X119223475Y-143059195D01*
X119083397Y-143160967D01*
X118960967Y-143283397D01*
X118859195Y-143423475D01*
X118780591Y-143577744D01*
X118727085Y-143742415D01*
X118725884Y-143749999D01*
X115833567Y-143749999D01*
X115816757Y-143643872D01*
X115816757Y-143643869D01*
X115751095Y-143441782D01*
X115654624Y-143252449D01*
X115615270Y-143198282D01*
X115615269Y-143198282D01*
X114982962Y-143830590D01*
X114965925Y-143767007D01*
X114900099Y-143652993D01*
X114807007Y-143559901D01*
X114692993Y-143494075D01*
X114629409Y-143477037D01*
X115261716Y-142844728D01*
X115207550Y-142805375D01*
X115018217Y-142708904D01*
X114816129Y-142643242D01*
X114606246Y-142610000D01*
X114393754Y-142610000D01*
X114183872Y-142643242D01*
X114183869Y-142643242D01*
X113981782Y-142708904D01*
X113792439Y-142805380D01*
X113738282Y-142844727D01*
X113738282Y-142844728D01*
X114370591Y-143477037D01*
X114307007Y-143494075D01*
X114192993Y-143559901D01*
X114099901Y-143652993D01*
X114034075Y-143767007D01*
X114017037Y-143830591D01*
X113384728Y-143198282D01*
X113384727Y-143198282D01*
X113345380Y-143252440D01*
X113345376Y-143252446D01*
X113340760Y-143261505D01*
X113292781Y-143312297D01*
X113224959Y-143329087D01*
X113158826Y-143306543D01*
X113119794Y-143261493D01*
X113115051Y-143252184D01*
X113115049Y-143252181D01*
X113115048Y-143252179D01*
X112990109Y-143080213D01*
X112839786Y-142929890D01*
X112667820Y-142804951D01*
X112478414Y-142708444D01*
X112478413Y-142708443D01*
X112478412Y-142708443D01*
X112276243Y-142642754D01*
X112276241Y-142642753D01*
X112276240Y-142642753D01*
X112114957Y-142617208D01*
X112066287Y-142609500D01*
X111919096Y-142609500D01*
X111852057Y-142589815D01*
X111806302Y-142537011D01*
X111796358Y-142467853D01*
X111825383Y-142404297D01*
X111831415Y-142397819D01*
X114694916Y-139534319D01*
X114756239Y-139500834D01*
X114782597Y-139498000D01*
X125714831Y-139498000D01*
X125714847Y-139498001D01*
X125722443Y-139498001D01*
X125880554Y-139498001D01*
X125880557Y-139498001D01*
X126033285Y-139457077D01*
X126083404Y-139428139D01*
X126170216Y-139378020D01*
X126282020Y-139266216D01*
X126282020Y-139266214D01*
X126292228Y-139256007D01*
X126292229Y-139256004D01*
X129032417Y-136515819D01*
X129093740Y-136482334D01*
X129120098Y-136479500D01*
X129791023Y-136479500D01*
X129858062Y-136499185D01*
X129903817Y-136551989D01*
X129913761Y-136621147D01*
X129908954Y-136641819D01*
X129891522Y-136695465D01*
X129859500Y-136897648D01*
X129859500Y-137102351D01*
X129891522Y-137304534D01*
X129954781Y-137499223D01*
X130018691Y-137624653D01*
X130047585Y-137681359D01*
X130047715Y-137681613D01*
X130168028Y-137847213D01*
X130312786Y-137991971D01*
X130467749Y-138104556D01*
X130478390Y-138112287D01*
X130562912Y-138155353D01*
X130660776Y-138205218D01*
X130660778Y-138205218D01*
X130660781Y-138205220D01*
X130720153Y-138224511D01*
X130855465Y-138268477D01*
X130911266Y-138277315D01*
X131057648Y-138300500D01*
X131057649Y-138300500D01*
X131262351Y-138300500D01*
X131262352Y-138300500D01*
X131464534Y-138268477D01*
X131659219Y-138205220D01*
X131841610Y-138112287D01*
X131941799Y-138039496D01*
X132007213Y-137991971D01*
X132007215Y-137991968D01*
X132007219Y-137991966D01*
X132118144Y-137881041D01*
X132179467Y-137847556D01*
X132249159Y-137852540D01*
X132293506Y-137881041D01*
X132476602Y-138064137D01*
X132508695Y-138119723D01*
X132538721Y-138231779D01*
X132538726Y-138231790D01*
X132617775Y-138368709D01*
X132617779Y-138368714D01*
X132617780Y-138368716D01*
X132729584Y-138480520D01*
X132729586Y-138480521D01*
X132729590Y-138480524D01*
X132837499Y-138542825D01*
X132885715Y-138593391D01*
X132898172Y-138644625D01*
X132899099Y-138644576D01*
X132899146Y-138644571D01*
X132899146Y-138644573D01*
X132899324Y-138644564D01*
X132899501Y-138647877D01*
X132905908Y-138707483D01*
X132956202Y-138842328D01*
X132956206Y-138842335D01*
X133042452Y-138957544D01*
X133042455Y-138957547D01*
X133157664Y-139043793D01*
X133157671Y-139043797D01*
X133292517Y-139094091D01*
X133292516Y-139094091D01*
X133299444Y-139094835D01*
X133352127Y-139100500D01*
X134647872Y-139100499D01*
X134707483Y-139094091D01*
X134842331Y-139043796D01*
X134957546Y-138957546D01*
X134973459Y-138936289D01*
X135417261Y-138936289D01*
X135417262Y-138936290D01*
X135423471Y-138940801D01*
X135577742Y-139019408D01*
X135742415Y-139072914D01*
X135913429Y-139100000D01*
X136086571Y-139100000D01*
X136257584Y-139072914D01*
X136422257Y-139019408D01*
X136576525Y-138940803D01*
X136582736Y-138936289D01*
X136582737Y-138936289D01*
X136000001Y-138353553D01*
X136000000Y-138353553D01*
X135417261Y-138936289D01*
X134973459Y-138936289D01*
X135043796Y-138842331D01*
X135094091Y-138707483D01*
X135100500Y-138647873D01*
X135100499Y-138597305D01*
X135120182Y-138530269D01*
X135136818Y-138509626D01*
X135646446Y-138000000D01*
X135646446Y-137999999D01*
X135136818Y-137490371D01*
X135103333Y-137429048D01*
X135100499Y-137402690D01*
X135100499Y-137352129D01*
X135100498Y-137352123D01*
X135094091Y-137292516D01*
X135043797Y-137157671D01*
X135043793Y-137157664D01*
X134957547Y-137042455D01*
X134957544Y-137042452D01*
X134842335Y-136956206D01*
X134842328Y-136956202D01*
X134707482Y-136905908D01*
X134707483Y-136905908D01*
X134647883Y-136899501D01*
X134647881Y-136899500D01*
X134647873Y-136899500D01*
X134647864Y-136899500D01*
X133352129Y-136899500D01*
X133352123Y-136899501D01*
X133292515Y-136905909D01*
X133166395Y-136952948D01*
X133096704Y-136957932D01*
X133035382Y-136924447D01*
X132802116Y-136691181D01*
X132768631Y-136629858D01*
X132773615Y-136560166D01*
X132815487Y-136504233D01*
X132880951Y-136479816D01*
X132889797Y-136479500D01*
X135847903Y-136479500D01*
X135877343Y-136488144D01*
X135907330Y-136494668D01*
X135912345Y-136498422D01*
X135914942Y-136499185D01*
X135935584Y-136515819D01*
X135948425Y-136528660D01*
X135981910Y-136589983D01*
X135982361Y-136592149D01*
X136014451Y-136753471D01*
X136011815Y-136753995D01*
X136011842Y-136812595D01*
X135974094Y-136871390D01*
X135912247Y-136900187D01*
X135742415Y-136927085D01*
X135577740Y-136980592D01*
X135423480Y-137059193D01*
X135423463Y-137059203D01*
X135417261Y-137063708D01*
X135417261Y-137063709D01*
X136058698Y-137705145D01*
X136039496Y-137700000D01*
X135960504Y-137700000D01*
X135884204Y-137720444D01*
X135815795Y-137759940D01*
X135759940Y-137815795D01*
X135720444Y-137884204D01*
X135700000Y-137960504D01*
X135700000Y-138039496D01*
X135720444Y-138115796D01*
X135759940Y-138184205D01*
X135815795Y-138240060D01*
X135884204Y-138279556D01*
X135960504Y-138300000D01*
X136039496Y-138300000D01*
X136115796Y-138279556D01*
X136184205Y-138240060D01*
X136240060Y-138184205D01*
X136279556Y-138115796D01*
X136300000Y-138039496D01*
X136300000Y-137960504D01*
X136294854Y-137941300D01*
X136936289Y-138582736D01*
X136940803Y-138576525D01*
X137019408Y-138422257D01*
X137072914Y-138257584D01*
X137100000Y-138086571D01*
X137100000Y-137913428D01*
X137072914Y-137742415D01*
X137019407Y-137577740D01*
X136956103Y-137453501D01*
X136943206Y-137384831D01*
X136969482Y-137320091D01*
X137019134Y-137282644D01*
X137073218Y-137260242D01*
X137162173Y-137223397D01*
X137162176Y-137223395D01*
X137162179Y-137223394D01*
X137293289Y-137135789D01*
X137404789Y-137024289D01*
X137492394Y-136893179D01*
X137552737Y-136747497D01*
X137583500Y-136592842D01*
X137583500Y-136435158D01*
X137583500Y-136435155D01*
X137583499Y-136435153D01*
X137580934Y-136422257D01*
X137552737Y-136280503D01*
X137535985Y-136240060D01*
X137492397Y-136134827D01*
X137492390Y-136134814D01*
X137404789Y-136003711D01*
X137404786Y-136003707D01*
X137293292Y-135892213D01*
X137293288Y-135892210D01*
X137162185Y-135804609D01*
X137162172Y-135804602D01*
X137016501Y-135744264D01*
X137016491Y-135744261D01*
X136861149Y-135713361D01*
X136844392Y-135704595D01*
X136825914Y-135700576D01*
X136800877Y-135681833D01*
X136799238Y-135680976D01*
X136797660Y-135679425D01*
X136635590Y-135517355D01*
X136635588Y-135517352D01*
X136516717Y-135398481D01*
X136516716Y-135398480D01*
X136429904Y-135348360D01*
X136429904Y-135348359D01*
X136429900Y-135348358D01*
X136379785Y-135319423D01*
X136227057Y-135278499D01*
X136068943Y-135278499D01*
X136061347Y-135278499D01*
X136061331Y-135278500D01*
X128906670Y-135278500D01*
X128906654Y-135278499D01*
X128899058Y-135278499D01*
X128740943Y-135278499D01*
X128664579Y-135298961D01*
X128588214Y-135319423D01*
X128588209Y-135319426D01*
X128451290Y-135398475D01*
X128451282Y-135398481D01*
X125589084Y-138260681D01*
X125527761Y-138294166D01*
X125501403Y-138297000D01*
X121808157Y-138297000D01*
X121741118Y-138277315D01*
X121695363Y-138224511D01*
X121685419Y-138155353D01*
X121714444Y-138091797D01*
X121725770Y-138081401D01*
X121725921Y-138079474D01*
X121046447Y-137400000D01*
X121052661Y-137400000D01*
X121154394Y-137372741D01*
X121245606Y-137320080D01*
X121320080Y-137245606D01*
X121372741Y-137154394D01*
X121400000Y-137052661D01*
X121400000Y-137046448D01*
X122079474Y-137725922D01*
X122079474Y-137725921D01*
X122111859Y-137681349D01*
X122204755Y-137499031D01*
X122267990Y-137304417D01*
X122300000Y-137102317D01*
X122300000Y-136897682D01*
X122267990Y-136695582D01*
X122204755Y-136500968D01*
X122111859Y-136318650D01*
X122079474Y-136274077D01*
X122079474Y-136274076D01*
X121400000Y-136953551D01*
X121400000Y-136947339D01*
X121372741Y-136845606D01*
X121320080Y-136754394D01*
X121245606Y-136679920D01*
X121154394Y-136627259D01*
X121052661Y-136600000D01*
X121046446Y-136600000D01*
X121725922Y-135920524D01*
X121725921Y-135920523D01*
X121681359Y-135888147D01*
X121681350Y-135888141D01*
X121499031Y-135795244D01*
X121304417Y-135732009D01*
X121102317Y-135700000D01*
X120897683Y-135700000D01*
X120695582Y-135732009D01*
X120500968Y-135795244D01*
X120318644Y-135888143D01*
X120274077Y-135920523D01*
X120274077Y-135920524D01*
X120953554Y-136600000D01*
X120947339Y-136600000D01*
X120845606Y-136627259D01*
X120754394Y-136679920D01*
X120679920Y-136754394D01*
X120627259Y-136845606D01*
X120600000Y-136947339D01*
X120600000Y-136953553D01*
X119920524Y-136274077D01*
X119920523Y-136274077D01*
X119888143Y-136318644D01*
X119795244Y-136500968D01*
X119732009Y-136695582D01*
X119700000Y-136897682D01*
X119700000Y-137102317D01*
X119732009Y-137304417D01*
X119795244Y-137499031D01*
X119888141Y-137681350D01*
X119888147Y-137681359D01*
X119920523Y-137725921D01*
X119920524Y-137725922D01*
X120600000Y-137046446D01*
X120600000Y-137052661D01*
X120627259Y-137154394D01*
X120679920Y-137245606D01*
X120754394Y-137320080D01*
X120845606Y-137372741D01*
X120947339Y-137400000D01*
X120953553Y-137400000D01*
X120274076Y-138079474D01*
X120274544Y-138085413D01*
X120307393Y-138128012D01*
X120313372Y-138197625D01*
X120280766Y-138259420D01*
X120219928Y-138293777D01*
X120191842Y-138297000D01*
X114561557Y-138297000D01*
X114403443Y-138297000D01*
X114250715Y-138337923D01*
X114250714Y-138337923D01*
X114250712Y-138337924D01*
X114250709Y-138337925D01*
X114200596Y-138366859D01*
X114200595Y-138366860D01*
X114197379Y-138368717D01*
X114113785Y-138416979D01*
X114113782Y-138416981D01*
X114001978Y-138528786D01*
X109904522Y-142626241D01*
X109843199Y-142659726D01*
X109778523Y-142656491D01*
X109736245Y-142642754D01*
X109596272Y-142620584D01*
X109526287Y-142609500D01*
X109313713Y-142609500D01*
X109265042Y-142617208D01*
X109103760Y-142642753D01*
X108901585Y-142708444D01*
X108712179Y-142804951D01*
X108540213Y-142929890D01*
X108389890Y-143080213D01*
X108264949Y-143252182D01*
X108260484Y-143260946D01*
X108212509Y-143311742D01*
X108144688Y-143328536D01*
X108078553Y-143305998D01*
X108039516Y-143260946D01*
X108035050Y-143252182D01*
X107910109Y-143080213D01*
X107759786Y-142929890D01*
X107587820Y-142804951D01*
X107398414Y-142708444D01*
X107398413Y-142708443D01*
X107398412Y-142708443D01*
X107196243Y-142642754D01*
X107196241Y-142642753D01*
X107196240Y-142642753D01*
X107034957Y-142617208D01*
X106986287Y-142609500D01*
X106773713Y-142609500D01*
X106725042Y-142617208D01*
X106563760Y-142642753D01*
X106361585Y-142708444D01*
X106172179Y-142804951D01*
X106000213Y-142929890D01*
X105849890Y-143080213D01*
X105724951Y-143252179D01*
X105628444Y-143441585D01*
X105562753Y-143643760D01*
X105529500Y-143853713D01*
X105529500Y-144066286D01*
X105562753Y-144276240D01*
X105562754Y-144276243D01*
X105579820Y-144328768D01*
X105599353Y-144388882D01*
X105601348Y-144458723D01*
X105565268Y-144518556D01*
X105502567Y-144549384D01*
X105481422Y-144551200D01*
X104603498Y-144551200D01*
X104536459Y-144531515D01*
X104515817Y-144514881D01*
X103639290Y-143638355D01*
X103639288Y-143638352D01*
X103520417Y-143519481D01*
X103520416Y-143519480D01*
X103413648Y-143457838D01*
X103412455Y-143457149D01*
X103387691Y-143431156D01*
X103364282Y-143406604D01*
X103364275Y-143406578D01*
X103364260Y-143406562D01*
X103364214Y-143406327D01*
X103350499Y-143349787D01*
X103350499Y-143102129D01*
X103350498Y-143102123D01*
X103348142Y-143080208D01*
X103344091Y-143042517D01*
X103320821Y-142980128D01*
X103293797Y-142907671D01*
X103293793Y-142907664D01*
X103207547Y-142792455D01*
X103207544Y-142792452D01*
X103092335Y-142706206D01*
X103092328Y-142706202D01*
X102957482Y-142655908D01*
X102957483Y-142655908D01*
X102897883Y-142649501D01*
X102897881Y-142649500D01*
X102897873Y-142649500D01*
X102897864Y-142649500D01*
X101102129Y-142649500D01*
X101102123Y-142649501D01*
X101042516Y-142655908D01*
X100907671Y-142706202D01*
X100907664Y-142706206D01*
X100792455Y-142792452D01*
X100792452Y-142792455D01*
X100723766Y-142884208D01*
X100667832Y-142926079D01*
X100598141Y-142931063D01*
X100536818Y-142897577D01*
X100503334Y-142836254D01*
X100500500Y-142809897D01*
X100500500Y-138250000D01*
X103725885Y-138250000D01*
X103727085Y-138257584D01*
X103780591Y-138422255D01*
X103859195Y-138576524D01*
X103960967Y-138716602D01*
X104083397Y-138839032D01*
X104223475Y-138940804D01*
X104377742Y-139019408D01*
X104542415Y-139072914D01*
X104713429Y-139100000D01*
X104750000Y-139100000D01*
X104750000Y-138250000D01*
X103725885Y-138250000D01*
X100500500Y-138250000D01*
X100500500Y-137953922D01*
X104650000Y-137953922D01*
X104650000Y-138046078D01*
X104673852Y-138135095D01*
X104719930Y-138214905D01*
X104785095Y-138280070D01*
X104864905Y-138326148D01*
X104953922Y-138350000D01*
X105046078Y-138350000D01*
X105135095Y-138326148D01*
X105214905Y-138280070D01*
X105250000Y-138244975D01*
X105250000Y-138828305D01*
X105243931Y-138866624D01*
X105196598Y-139012298D01*
X105169500Y-139183389D01*
X105169500Y-139356610D01*
X105192342Y-139500834D01*
X105196598Y-139527701D01*
X105250127Y-139692445D01*
X105328768Y-139846788D01*
X105430586Y-139986928D01*
X105553072Y-140109414D01*
X105693212Y-140211232D01*
X105847555Y-140289873D01*
X106012299Y-140343402D01*
X106183389Y-140370500D01*
X106183390Y-140370500D01*
X106356610Y-140370500D01*
X106356611Y-140370500D01*
X106527701Y-140343402D01*
X106692445Y-140289873D01*
X106846788Y-140211232D01*
X106986928Y-140109414D01*
X107109414Y-139986928D01*
X107211232Y-139846788D01*
X107289873Y-139692445D01*
X107343402Y-139527701D01*
X107370500Y-139356611D01*
X107370500Y-139224500D01*
X107390185Y-139157461D01*
X107442989Y-139111706D01*
X107494500Y-139100500D01*
X107626610Y-139100500D01*
X107626611Y-139100500D01*
X107797701Y-139073402D01*
X107962445Y-139019873D01*
X108116788Y-138941232D01*
X108256928Y-138839414D01*
X108379414Y-138716928D01*
X108481232Y-138576788D01*
X108559873Y-138422445D01*
X108613402Y-138257701D01*
X108640500Y-138086611D01*
X108640500Y-137913389D01*
X108613402Y-137742299D01*
X108559873Y-137577555D01*
X108481232Y-137423212D01*
X108379414Y-137283072D01*
X108256928Y-137160586D01*
X108252913Y-137157669D01*
X108191613Y-137113131D01*
X108148948Y-137057801D01*
X108140500Y-137012814D01*
X108140500Y-135352135D01*
X113899500Y-135352135D01*
X113899500Y-136647870D01*
X113899501Y-136647876D01*
X113905908Y-136707483D01*
X113956202Y-136842328D01*
X113956206Y-136842335D01*
X114042452Y-136957544D01*
X114042455Y-136957547D01*
X114157664Y-137043793D01*
X114157671Y-137043797D01*
X114292517Y-137094091D01*
X114292516Y-137094091D01*
X114299444Y-137094835D01*
X114352127Y-137100500D01*
X115647872Y-137100499D01*
X115707483Y-137094091D01*
X115842331Y-137043796D01*
X115957546Y-136957546D01*
X115973459Y-136936289D01*
X116417261Y-136936289D01*
X116417262Y-136936290D01*
X116423471Y-136940801D01*
X116577742Y-137019408D01*
X116742415Y-137072914D01*
X116913429Y-137100000D01*
X117086571Y-137100000D01*
X117257584Y-137072914D01*
X117422257Y-137019408D01*
X117576525Y-136940803D01*
X117582736Y-136936289D01*
X117582736Y-136936288D01*
X117000001Y-136353553D01*
X117000000Y-136353553D01*
X116417261Y-136936289D01*
X115973459Y-136936289D01*
X116043796Y-136842331D01*
X116094091Y-136707483D01*
X116095844Y-136691181D01*
X116100499Y-136647886D01*
X116100499Y-136647882D01*
X116100500Y-136647873D01*
X116100499Y-136597305D01*
X116120182Y-136530269D01*
X116136818Y-136509626D01*
X116646446Y-136000000D01*
X116646446Y-135999999D01*
X116606951Y-135960504D01*
X116700000Y-135960504D01*
X116700000Y-136039496D01*
X116720444Y-136115796D01*
X116759940Y-136184205D01*
X116815795Y-136240060D01*
X116884204Y-136279556D01*
X116960504Y-136300000D01*
X117039496Y-136300000D01*
X117115796Y-136279556D01*
X117184205Y-136240060D01*
X117240060Y-136184205D01*
X117279556Y-136115796D01*
X117300000Y-136039496D01*
X117300000Y-135999999D01*
X117353553Y-135999999D01*
X117353553Y-136000000D01*
X117936289Y-136582736D01*
X117940803Y-136576525D01*
X118019408Y-136422257D01*
X118072914Y-136257584D01*
X118100000Y-136086571D01*
X118100000Y-135913428D01*
X118072914Y-135742415D01*
X118019408Y-135577742D01*
X117940801Y-135423471D01*
X117936290Y-135417262D01*
X117936289Y-135417261D01*
X117353553Y-135999999D01*
X117300000Y-135999999D01*
X117300000Y-135960504D01*
X117279556Y-135884204D01*
X117240060Y-135815795D01*
X117184205Y-135759940D01*
X117115796Y-135720444D01*
X117039496Y-135700000D01*
X116960504Y-135700000D01*
X116884204Y-135720444D01*
X116815795Y-135759940D01*
X116759940Y-135815795D01*
X116720444Y-135884204D01*
X116700000Y-135960504D01*
X116606951Y-135960504D01*
X116136818Y-135490371D01*
X116103333Y-135429048D01*
X116100499Y-135402690D01*
X116100499Y-135352129D01*
X116100498Y-135352123D01*
X116100497Y-135352116D01*
X116094091Y-135292517D01*
X116043796Y-135157669D01*
X116043794Y-135157666D01*
X116043793Y-135157664D01*
X115973457Y-135063708D01*
X116417261Y-135063708D01*
X116417261Y-135063709D01*
X117000000Y-135646446D01*
X117000001Y-135646446D01*
X117582737Y-135063709D01*
X117576525Y-135059196D01*
X117422259Y-134980592D01*
X117257584Y-134927085D01*
X117086571Y-134900000D01*
X116913429Y-134900000D01*
X116742415Y-134927085D01*
X116577740Y-134980592D01*
X116423480Y-135059193D01*
X116423463Y-135059203D01*
X116417261Y-135063708D01*
X115973457Y-135063708D01*
X115957547Y-135042455D01*
X115957544Y-135042452D01*
X115842335Y-134956206D01*
X115842328Y-134956202D01*
X115707482Y-134905908D01*
X115707483Y-134905908D01*
X115647883Y-134899501D01*
X115647881Y-134899500D01*
X115647873Y-134899500D01*
X115647864Y-134899500D01*
X114352129Y-134899500D01*
X114352123Y-134899501D01*
X114292516Y-134905908D01*
X114157671Y-134956202D01*
X114157664Y-134956206D01*
X114042455Y-135042452D01*
X114042452Y-135042455D01*
X113956206Y-135157664D01*
X113956202Y-135157671D01*
X113905908Y-135292517D01*
X113899905Y-135348358D01*
X113899501Y-135352123D01*
X113899500Y-135352135D01*
X108140500Y-135352135D01*
X108140500Y-134021797D01*
X108160185Y-133954758D01*
X108176819Y-133934116D01*
X109166401Y-132944534D01*
X111406933Y-130704003D01*
X114640520Y-127470416D01*
X114719577Y-127333484D01*
X114754635Y-127202646D01*
X114790999Y-127142989D01*
X114818111Y-127124259D01*
X114841610Y-127112287D01*
X114937641Y-127042517D01*
X115007213Y-126991971D01*
X115007215Y-126991968D01*
X115007219Y-126991966D01*
X115101503Y-126897682D01*
X119700000Y-126897682D01*
X119700000Y-127102317D01*
X119732009Y-127304417D01*
X119795244Y-127499031D01*
X119888141Y-127681350D01*
X119888147Y-127681359D01*
X119920523Y-127725921D01*
X119920524Y-127725922D01*
X120600000Y-127046446D01*
X120600000Y-127052661D01*
X120627259Y-127154394D01*
X120679920Y-127245606D01*
X120754394Y-127320080D01*
X120845606Y-127372741D01*
X120947339Y-127400000D01*
X120953553Y-127400000D01*
X120274076Y-128079474D01*
X120318650Y-128111859D01*
X120500968Y-128204755D01*
X120695582Y-128267990D01*
X120897683Y-128300000D01*
X121102317Y-128300000D01*
X121304417Y-128267990D01*
X121499031Y-128204755D01*
X121681349Y-128111859D01*
X121725921Y-128079474D01*
X121046447Y-127400000D01*
X121052661Y-127400000D01*
X121154394Y-127372741D01*
X121245606Y-127320080D01*
X121320080Y-127245606D01*
X121372741Y-127154394D01*
X121400000Y-127052661D01*
X121400000Y-127046448D01*
X122079474Y-127725922D01*
X122079474Y-127725921D01*
X122111859Y-127681349D01*
X122204755Y-127499031D01*
X122267990Y-127304417D01*
X122300000Y-127102317D01*
X122300000Y-126897682D01*
X122267990Y-126695582D01*
X122204755Y-126500968D01*
X122111859Y-126318650D01*
X122079474Y-126274077D01*
X122079474Y-126274076D01*
X121400000Y-126953551D01*
X121400000Y-126947339D01*
X121372741Y-126845606D01*
X121320080Y-126754394D01*
X121245606Y-126679920D01*
X121154394Y-126627259D01*
X121052661Y-126600000D01*
X121046446Y-126600000D01*
X121725922Y-125920524D01*
X121725921Y-125920523D01*
X121681359Y-125888147D01*
X121681350Y-125888141D01*
X121499031Y-125795244D01*
X121304417Y-125732009D01*
X121102317Y-125700000D01*
X120897683Y-125700000D01*
X120695582Y-125732009D01*
X120500968Y-125795244D01*
X120318644Y-125888143D01*
X120274077Y-125920523D01*
X120274077Y-125920524D01*
X120953554Y-126600000D01*
X120947339Y-126600000D01*
X120845606Y-126627259D01*
X120754394Y-126679920D01*
X120679920Y-126754394D01*
X120627259Y-126845606D01*
X120600000Y-126947339D01*
X120600000Y-126953553D01*
X119920524Y-126274077D01*
X119920523Y-126274077D01*
X119888143Y-126318644D01*
X119795244Y-126500968D01*
X119732009Y-126695582D01*
X119700000Y-126897682D01*
X115101503Y-126897682D01*
X115151966Y-126847219D01*
X115160987Y-126834801D01*
X115171793Y-126819930D01*
X115254417Y-126706206D01*
X115272287Y-126681610D01*
X115365220Y-126499219D01*
X115428477Y-126304534D01*
X115460500Y-126102352D01*
X115460500Y-125897648D01*
X115428477Y-125695466D01*
X115365220Y-125500781D01*
X115365218Y-125500778D01*
X115365218Y-125500776D01*
X115331503Y-125434607D01*
X115272287Y-125318390D01*
X115264556Y-125307749D01*
X115151971Y-125152786D01*
X115007213Y-125008028D01*
X114841613Y-124887715D01*
X114841612Y-124887714D01*
X114841610Y-124887713D01*
X114784653Y-124858691D01*
X114659223Y-124794781D01*
X114464534Y-124731522D01*
X114289995Y-124703878D01*
X114262352Y-124699500D01*
X114057648Y-124699500D01*
X114033329Y-124703351D01*
X113855465Y-124731522D01*
X113660776Y-124794781D01*
X113478386Y-124887715D01*
X113312786Y-125008028D01*
X113168028Y-125152786D01*
X113047715Y-125318386D01*
X112954781Y-125500776D01*
X112891522Y-125695465D01*
X112859500Y-125897648D01*
X112859500Y-126102351D01*
X112891522Y-126304534D01*
X112954781Y-126499223D01*
X113018691Y-126624653D01*
X113047712Y-126681609D01*
X113047715Y-126681613D01*
X113168027Y-126847211D01*
X113168031Y-126847215D01*
X113168034Y-126847219D01*
X113228479Y-126907664D01*
X113278958Y-126958143D01*
X113312442Y-127019466D01*
X113307458Y-127089158D01*
X113278957Y-127133505D01*
X107171286Y-133241178D01*
X107059481Y-133352982D01*
X107059479Y-133352985D01*
X107009361Y-133439794D01*
X107009359Y-133439796D01*
X106980425Y-133489909D01*
X106980424Y-133489910D01*
X106980423Y-133489915D01*
X106939499Y-133642643D01*
X106939499Y-133642645D01*
X106939499Y-133810746D01*
X106939500Y-133810759D01*
X106939500Y-137012814D01*
X106919815Y-137079853D01*
X106888387Y-137113131D01*
X106823072Y-137160585D01*
X106700588Y-137283069D01*
X106700588Y-137283070D01*
X106700586Y-137283072D01*
X106700350Y-137283397D01*
X106598768Y-137423211D01*
X106520128Y-137577550D01*
X106487668Y-137677453D01*
X106448230Y-137735128D01*
X106383871Y-137762326D01*
X106315025Y-137750411D01*
X106263549Y-137703167D01*
X106251806Y-137677452D01*
X106219408Y-137577744D01*
X106140804Y-137423475D01*
X106039032Y-137283397D01*
X105916602Y-137160967D01*
X105776524Y-137059195D01*
X105622257Y-136980591D01*
X105457584Y-136927085D01*
X105286571Y-136900000D01*
X105250000Y-136900000D01*
X105250000Y-137755025D01*
X105214905Y-137719930D01*
X105135095Y-137673852D01*
X105046078Y-137650000D01*
X104953922Y-137650000D01*
X104864905Y-137673852D01*
X104785095Y-137719930D01*
X104719930Y-137785095D01*
X104673852Y-137864905D01*
X104650000Y-137953922D01*
X100500500Y-137953922D01*
X100500500Y-137749999D01*
X103725884Y-137749999D01*
X103725885Y-137750000D01*
X104750000Y-137750000D01*
X104750000Y-136900000D01*
X104713429Y-136900000D01*
X104542415Y-136927085D01*
X104377742Y-136980591D01*
X104223475Y-137059195D01*
X104083397Y-137160967D01*
X103960967Y-137283397D01*
X103859195Y-137423475D01*
X103780591Y-137577744D01*
X103727085Y-137742415D01*
X103725884Y-137749999D01*
X100500500Y-137749999D01*
X100500500Y-130897682D01*
X102700000Y-130897682D01*
X102700000Y-131102317D01*
X102732009Y-131304417D01*
X102795244Y-131499031D01*
X102888141Y-131681350D01*
X102888147Y-131681359D01*
X102920523Y-131725921D01*
X102920524Y-131725922D01*
X103600000Y-131046446D01*
X103600000Y-131052661D01*
X103627259Y-131154394D01*
X103679920Y-131245606D01*
X103754394Y-131320080D01*
X103845606Y-131372741D01*
X103947339Y-131400000D01*
X103953553Y-131400000D01*
X103274076Y-132079474D01*
X103318650Y-132111859D01*
X103500968Y-132204755D01*
X103695582Y-132267990D01*
X103897683Y-132300000D01*
X104102317Y-132300000D01*
X104304417Y-132267990D01*
X104499031Y-132204755D01*
X104681349Y-132111859D01*
X104725921Y-132079474D01*
X104046447Y-131400000D01*
X104052661Y-131400000D01*
X104154394Y-131372741D01*
X104245606Y-131320080D01*
X104320080Y-131245606D01*
X104372741Y-131154394D01*
X104400000Y-131052661D01*
X104400000Y-131046448D01*
X105079474Y-131725922D01*
X105079474Y-131725921D01*
X105111859Y-131681349D01*
X105204755Y-131499031D01*
X105267990Y-131304417D01*
X105300000Y-131102317D01*
X105300000Y-130897682D01*
X105267990Y-130695582D01*
X105204755Y-130500968D01*
X105111859Y-130318650D01*
X105079474Y-130274077D01*
X105079474Y-130274076D01*
X104400000Y-130953551D01*
X104400000Y-130947339D01*
X104372741Y-130845606D01*
X104320080Y-130754394D01*
X104245606Y-130679920D01*
X104154394Y-130627259D01*
X104052661Y-130600000D01*
X104046446Y-130600000D01*
X104725922Y-129920524D01*
X104725921Y-129920523D01*
X104681359Y-129888147D01*
X104681350Y-129888141D01*
X104499031Y-129795244D01*
X104304417Y-129732009D01*
X104102317Y-129700000D01*
X103897683Y-129700000D01*
X103695582Y-129732009D01*
X103500968Y-129795244D01*
X103318644Y-129888143D01*
X103274077Y-129920523D01*
X103274077Y-129920524D01*
X103953554Y-130600000D01*
X103947339Y-130600000D01*
X103845606Y-130627259D01*
X103754394Y-130679920D01*
X103679920Y-130754394D01*
X103627259Y-130845606D01*
X103600000Y-130947339D01*
X103600000Y-130953553D01*
X102920524Y-130274077D01*
X102920523Y-130274077D01*
X102888143Y-130318644D01*
X102795244Y-130500968D01*
X102732009Y-130695582D01*
X102700000Y-130897682D01*
X100500500Y-130897682D01*
X100500500Y-125897648D01*
X102699500Y-125897648D01*
X102699500Y-126102351D01*
X102731522Y-126304534D01*
X102794781Y-126499223D01*
X102858691Y-126624653D01*
X102887712Y-126681609D01*
X102887715Y-126681613D01*
X103008028Y-126847213D01*
X103152786Y-126991971D01*
X103307749Y-127104556D01*
X103318390Y-127112287D01*
X103399499Y-127153614D01*
X103500776Y-127205218D01*
X103500778Y-127205218D01*
X103500781Y-127205220D01*
X103605137Y-127239127D01*
X103695465Y-127268477D01*
X103796557Y-127284488D01*
X103897648Y-127300500D01*
X103897649Y-127300500D01*
X104102351Y-127300500D01*
X104102352Y-127300500D01*
X104304534Y-127268477D01*
X104318842Y-127263827D01*
X104388682Y-127261831D01*
X104444842Y-127294077D01*
X105511839Y-128361074D01*
X105511849Y-128361085D01*
X105516179Y-128365415D01*
X105516180Y-128365416D01*
X105627984Y-128477220D01*
X105679545Y-128506988D01*
X105714795Y-128527339D01*
X105714797Y-128527341D01*
X105764913Y-128556276D01*
X105764915Y-128556277D01*
X105917642Y-128597200D01*
X105917643Y-128597200D01*
X109370534Y-128597200D01*
X109437573Y-128616885D01*
X109439425Y-128618098D01*
X109571114Y-128706090D01*
X109571127Y-128706097D01*
X109716798Y-128766435D01*
X109716803Y-128766437D01*
X109871453Y-128797199D01*
X109871456Y-128797200D01*
X109871458Y-128797200D01*
X110029144Y-128797200D01*
X110029145Y-128797199D01*
X110183797Y-128766437D01*
X110329479Y-128706094D01*
X110460589Y-128618489D01*
X110572089Y-128506989D01*
X110659694Y-128375879D01*
X110720037Y-128230197D01*
X110750800Y-128075542D01*
X110750800Y-127917858D01*
X110750800Y-127917855D01*
X110750799Y-127917853D01*
X110720038Y-127763210D01*
X110720037Y-127763203D01*
X110704595Y-127725922D01*
X110659697Y-127617527D01*
X110659690Y-127617514D01*
X110572089Y-127486411D01*
X110572086Y-127486407D01*
X110460592Y-127374913D01*
X110460588Y-127374910D01*
X110329485Y-127287309D01*
X110329472Y-127287302D01*
X110183801Y-127226964D01*
X110183789Y-127226961D01*
X110029145Y-127196200D01*
X110029142Y-127196200D01*
X109871458Y-127196200D01*
X109871455Y-127196200D01*
X109716810Y-127226961D01*
X109716798Y-127226964D01*
X109571127Y-127287302D01*
X109571114Y-127287309D01*
X109439425Y-127375302D01*
X109372747Y-127396180D01*
X109370534Y-127396200D01*
X106296797Y-127396200D01*
X106229758Y-127376515D01*
X106209116Y-127359881D01*
X105294077Y-126444842D01*
X105260592Y-126383519D01*
X105263828Y-126318841D01*
X105263976Y-126318386D01*
X105268477Y-126304534D01*
X105300500Y-126102352D01*
X105300500Y-125897648D01*
X105268477Y-125695466D01*
X105205220Y-125500781D01*
X105205218Y-125500778D01*
X105205218Y-125500776D01*
X105171503Y-125434607D01*
X105112287Y-125318390D01*
X105104556Y-125307749D01*
X104991971Y-125152786D01*
X104847213Y-125008028D01*
X104681613Y-124887715D01*
X104681612Y-124887714D01*
X104681610Y-124887713D01*
X104624653Y-124858691D01*
X104499223Y-124794781D01*
X104304534Y-124731522D01*
X104129995Y-124703878D01*
X104102352Y-124699500D01*
X103897648Y-124699500D01*
X103873329Y-124703351D01*
X103695465Y-124731522D01*
X103500776Y-124794781D01*
X103318386Y-124887715D01*
X103152786Y-125008028D01*
X103008028Y-125152786D01*
X102887715Y-125318386D01*
X102794781Y-125500776D01*
X102731522Y-125695465D01*
X102699500Y-125897648D01*
X100500500Y-125897648D01*
X100500500Y-122190102D01*
X100520185Y-122123063D01*
X100572989Y-122077308D01*
X100642147Y-122067364D01*
X100705703Y-122096389D01*
X100723762Y-122115786D01*
X100792454Y-122207546D01*
X100838643Y-122242123D01*
X100907664Y-122293793D01*
X100907671Y-122293797D01*
X101042517Y-122344091D01*
X101042516Y-122344091D01*
X101049444Y-122344835D01*
X101102127Y-122350500D01*
X102897872Y-122350499D01*
X102957483Y-122344091D01*
X103092331Y-122293796D01*
X103207546Y-122207546D01*
X103293796Y-122092331D01*
X103344091Y-121957483D01*
X103350500Y-121897873D01*
X103350499Y-120897648D01*
X104699500Y-120897648D01*
X104699500Y-121102351D01*
X104731522Y-121304534D01*
X104794781Y-121499223D01*
X104858691Y-121624653D01*
X104882841Y-121672049D01*
X104887715Y-121681613D01*
X105008028Y-121847213D01*
X105152786Y-121991971D01*
X105307749Y-122104556D01*
X105318390Y-122112287D01*
X105434607Y-122171503D01*
X105500776Y-122205218D01*
X105500778Y-122205218D01*
X105500781Y-122205220D01*
X105605137Y-122239127D01*
X105695465Y-122268477D01*
X105796557Y-122284488D01*
X105897648Y-122300500D01*
X105897649Y-122300500D01*
X106102351Y-122300500D01*
X106102352Y-122300500D01*
X106304534Y-122268477D01*
X106499219Y-122205220D01*
X106681610Y-122112287D01*
X106774590Y-122044732D01*
X106847213Y-121991971D01*
X106847215Y-121991968D01*
X106847219Y-121991966D01*
X106991966Y-121847219D01*
X106991968Y-121847215D01*
X106991971Y-121847213D01*
X107044732Y-121774590D01*
X107112287Y-121681610D01*
X107205220Y-121499219D01*
X107268477Y-121304534D01*
X107300500Y-121102352D01*
X107300500Y-120897648D01*
X114859500Y-120897648D01*
X114859500Y-121102351D01*
X114891522Y-121304534D01*
X114954781Y-121499223D01*
X115018691Y-121624653D01*
X115042841Y-121672049D01*
X115047715Y-121681613D01*
X115168028Y-121847213D01*
X115312786Y-121991971D01*
X115467749Y-122104556D01*
X115478390Y-122112287D01*
X115594607Y-122171503D01*
X115660776Y-122205218D01*
X115660778Y-122205218D01*
X115660781Y-122205220D01*
X115765137Y-122239127D01*
X115855465Y-122268477D01*
X115956557Y-122284488D01*
X116057648Y-122300500D01*
X116057649Y-122300500D01*
X116262351Y-122300500D01*
X116262352Y-122300500D01*
X116464534Y-122268477D01*
X116659219Y-122205220D01*
X116841610Y-122112287D01*
X116934590Y-122044732D01*
X117007213Y-121991971D01*
X117007215Y-121991968D01*
X117007219Y-121991966D01*
X117151966Y-121847219D01*
X117151968Y-121847215D01*
X117151971Y-121847213D01*
X117204732Y-121774590D01*
X117272287Y-121681610D01*
X117365220Y-121499219D01*
X117428477Y-121304534D01*
X117460500Y-121102352D01*
X117460500Y-120897648D01*
X117441626Y-120778484D01*
X117428477Y-120695465D01*
X117390900Y-120579815D01*
X117365220Y-120500781D01*
X117365218Y-120500778D01*
X117365218Y-120500776D01*
X117331503Y-120434607D01*
X117272287Y-120318390D01*
X117264556Y-120307749D01*
X117151971Y-120152786D01*
X117007213Y-120008028D01*
X116841613Y-119887715D01*
X116841612Y-119887714D01*
X116841610Y-119887713D01*
X116784653Y-119858691D01*
X116659223Y-119794781D01*
X116464534Y-119731522D01*
X116289995Y-119703878D01*
X116262352Y-119699500D01*
X116057648Y-119699500D01*
X116033329Y-119703351D01*
X115855465Y-119731522D01*
X115660776Y-119794781D01*
X115478386Y-119887715D01*
X115312786Y-120008028D01*
X115168028Y-120152786D01*
X115047715Y-120318386D01*
X114954781Y-120500776D01*
X114891522Y-120695465D01*
X114859500Y-120897648D01*
X107300500Y-120897648D01*
X107281626Y-120778484D01*
X107268477Y-120695465D01*
X107230900Y-120579815D01*
X107205220Y-120500781D01*
X107205218Y-120500778D01*
X107205218Y-120500776D01*
X107171503Y-120434607D01*
X107112287Y-120318390D01*
X107104556Y-120307749D01*
X106991971Y-120152786D01*
X106847213Y-120008028D01*
X106681613Y-119887715D01*
X106681612Y-119887714D01*
X106681610Y-119887713D01*
X106624653Y-119858691D01*
X106499223Y-119794781D01*
X106304534Y-119731522D01*
X106129995Y-119703878D01*
X106102352Y-119699500D01*
X105897648Y-119699500D01*
X105873329Y-119703351D01*
X105695465Y-119731522D01*
X105500776Y-119794781D01*
X105318386Y-119887715D01*
X105152786Y-120008028D01*
X105008028Y-120152786D01*
X104887715Y-120318386D01*
X104794781Y-120500776D01*
X104731522Y-120695465D01*
X104699500Y-120897648D01*
X103350499Y-120897648D01*
X103350499Y-120102128D01*
X103344091Y-120042517D01*
X103338051Y-120026324D01*
X103293797Y-119907671D01*
X103293793Y-119907664D01*
X103207547Y-119792455D01*
X103207544Y-119792452D01*
X103092335Y-119706206D01*
X103092328Y-119706202D01*
X102957482Y-119655908D01*
X102957483Y-119655908D01*
X102897883Y-119649501D01*
X102897881Y-119649500D01*
X102897873Y-119649500D01*
X102897864Y-119649500D01*
X101102129Y-119649500D01*
X101102123Y-119649501D01*
X101042516Y-119655908D01*
X100907671Y-119706202D01*
X100907664Y-119706206D01*
X100792455Y-119792452D01*
X100792452Y-119792455D01*
X100723766Y-119884208D01*
X100667832Y-119926079D01*
X100598141Y-119931063D01*
X100536818Y-119897577D01*
X100503334Y-119836254D01*
X100500500Y-119809897D01*
X100500500Y-116595168D01*
X100520185Y-116528129D01*
X100572989Y-116482374D01*
X100642147Y-116472430D01*
X100705703Y-116501455D01*
X100734984Y-116538872D01*
X100745534Y-116559577D01*
X100807715Y-116681614D01*
X100928028Y-116847213D01*
X101072786Y-116991971D01*
X101227749Y-117104556D01*
X101238390Y-117112287D01*
X101339382Y-117163745D01*
X101420776Y-117205218D01*
X101420778Y-117205218D01*
X101420781Y-117205220D01*
X101525137Y-117239127D01*
X101615465Y-117268477D01*
X101716557Y-117284488D01*
X101817648Y-117300500D01*
X101817649Y-117300500D01*
X102022351Y-117300500D01*
X102022352Y-117300500D01*
X102224534Y-117268477D01*
X102419219Y-117205220D01*
X102601610Y-117112287D01*
X102694590Y-117044732D01*
X102767213Y-116991971D01*
X102767215Y-116991968D01*
X102767219Y-116991966D01*
X102911966Y-116847219D01*
X102911968Y-116847215D01*
X102911971Y-116847213D01*
X102964732Y-116774590D01*
X103032287Y-116681610D01*
X103125220Y-116499219D01*
X103188477Y-116304534D01*
X103220500Y-116102352D01*
X103220500Y-115897648D01*
X103188477Y-115695466D01*
X103183825Y-115681151D01*
X103181832Y-115611312D01*
X103214075Y-115555158D01*
X104042916Y-114726319D01*
X104104239Y-114692834D01*
X104130597Y-114690000D01*
X104420943Y-114690000D01*
X111288885Y-114690000D01*
X111355924Y-114709685D01*
G37*
%TD.AperFunction*%
%TA.AperFunction,Conductor*%
G36*
X114034075Y-144152993D02*
G01*
X114099901Y-144267007D01*
X114192993Y-144360099D01*
X114307007Y-144425925D01*
X114370590Y-144442962D01*
X113738282Y-145075269D01*
X113738282Y-145075270D01*
X113792452Y-145114626D01*
X113792451Y-145114626D01*
X113801495Y-145119234D01*
X113852292Y-145167208D01*
X113869087Y-145235029D01*
X113846550Y-145301164D01*
X113801499Y-145340202D01*
X113792182Y-145344949D01*
X113620213Y-145469890D01*
X113469890Y-145620213D01*
X113344949Y-145792182D01*
X113340484Y-145800946D01*
X113292509Y-145851742D01*
X113224688Y-145868536D01*
X113158553Y-145845998D01*
X113119516Y-145800946D01*
X113115050Y-145792182D01*
X112990109Y-145620213D01*
X112839786Y-145469890D01*
X112667820Y-145344951D01*
X112666132Y-145344091D01*
X112659054Y-145340485D01*
X112608259Y-145292512D01*
X112591463Y-145224692D01*
X112613999Y-145158556D01*
X112659054Y-145119515D01*
X112667816Y-145115051D01*
X112722572Y-145075269D01*
X112839786Y-144990109D01*
X112839788Y-144990106D01*
X112839792Y-144990104D01*
X112990104Y-144839792D01*
X112990106Y-144839788D01*
X112990109Y-144839786D01*
X113075890Y-144721717D01*
X113115051Y-144667816D01*
X113119793Y-144658508D01*
X113167763Y-144607711D01*
X113235583Y-144590911D01*
X113301719Y-144613445D01*
X113340763Y-144658500D01*
X113345373Y-144667547D01*
X113384728Y-144721716D01*
X114017037Y-144089408D01*
X114034075Y-144152993D01*
G37*
%TD.AperFunction*%
%TA.AperFunction,Conductor*%
G36*
X139442539Y-50520185D02*
G01*
X139488294Y-50572989D01*
X139499500Y-50624500D01*
X139499500Y-96919935D01*
X139479815Y-96986974D01*
X139427011Y-97032729D01*
X139357853Y-97042673D01*
X139294297Y-97013648D01*
X139277131Y-96994190D01*
X139276853Y-96994419D01*
X139272986Y-96989707D01*
X139161492Y-96878213D01*
X139161488Y-96878210D01*
X139030385Y-96790609D01*
X139030372Y-96790602D01*
X138884701Y-96730264D01*
X138884691Y-96730261D01*
X138729349Y-96699361D01*
X138667438Y-96666976D01*
X138665860Y-96665425D01*
X138051990Y-96051555D01*
X138051988Y-96051552D01*
X137933117Y-95932681D01*
X137933116Y-95932680D01*
X137846304Y-95882560D01*
X137846304Y-95882559D01*
X137846300Y-95882558D01*
X137796185Y-95853623D01*
X137643457Y-95812699D01*
X137485343Y-95812699D01*
X137477747Y-95812699D01*
X137477731Y-95812700D01*
X137383166Y-95812700D01*
X137316127Y-95793015D01*
X137314275Y-95791802D01*
X137182585Y-95703809D01*
X137182572Y-95703802D01*
X137036901Y-95643464D01*
X137036889Y-95643461D01*
X136882245Y-95612700D01*
X136882242Y-95612700D01*
X136724558Y-95612700D01*
X136724555Y-95612700D01*
X136569910Y-95643461D01*
X136569898Y-95643464D01*
X136424227Y-95703802D01*
X136424214Y-95703809D01*
X136293111Y-95791410D01*
X136293107Y-95791413D01*
X136181613Y-95902907D01*
X136181610Y-95902911D01*
X136094009Y-96034014D01*
X136094002Y-96034027D01*
X136033664Y-96179698D01*
X136033661Y-96179710D01*
X136002900Y-96334353D01*
X136002900Y-96492046D01*
X136033661Y-96646689D01*
X136033664Y-96646701D01*
X136094002Y-96792372D01*
X136094009Y-96792385D01*
X136181610Y-96923488D01*
X136181613Y-96923492D01*
X136293107Y-97034986D01*
X136293111Y-97034989D01*
X136424214Y-97122590D01*
X136424227Y-97122597D01*
X136569898Y-97182935D01*
X136569903Y-97182937D01*
X136724553Y-97213699D01*
X136724556Y-97213700D01*
X136724558Y-97213700D01*
X136882244Y-97213700D01*
X136882245Y-97213699D01*
X137036897Y-97182937D01*
X137182579Y-97122594D01*
X137243021Y-97082207D01*
X137309697Y-97061329D01*
X137377077Y-97079812D01*
X137399593Y-97097628D01*
X137816625Y-97514660D01*
X137850110Y-97575983D01*
X137850561Y-97578149D01*
X137881461Y-97733491D01*
X137881464Y-97733501D01*
X137941802Y-97879172D01*
X137941809Y-97879185D01*
X138029410Y-98010288D01*
X138029413Y-98010292D01*
X138140907Y-98121786D01*
X138140911Y-98121789D01*
X138272014Y-98209390D01*
X138272027Y-98209397D01*
X138417698Y-98269735D01*
X138417703Y-98269737D01*
X138572353Y-98300499D01*
X138572356Y-98300500D01*
X138572358Y-98300500D01*
X138730044Y-98300500D01*
X138730045Y-98300499D01*
X138884697Y-98269737D01*
X139030379Y-98209394D01*
X139161489Y-98121789D01*
X139272989Y-98010289D01*
X139272991Y-98010285D01*
X139276853Y-98005581D01*
X139277981Y-98006507D01*
X139326010Y-97966369D01*
X139395335Y-97957662D01*
X139458363Y-97987817D01*
X139495082Y-98047260D01*
X139499500Y-98080065D01*
X139499500Y-114809897D01*
X139479815Y-114876936D01*
X139427011Y-114922691D01*
X139357853Y-114932635D01*
X139294297Y-114903610D01*
X139276234Y-114884208D01*
X139207547Y-114792455D01*
X139207544Y-114792452D01*
X139092335Y-114706206D01*
X139092328Y-114706202D01*
X138957482Y-114655908D01*
X138957483Y-114655908D01*
X138897883Y-114649501D01*
X138897881Y-114649500D01*
X138897873Y-114649500D01*
X138897864Y-114649500D01*
X137102129Y-114649500D01*
X137102123Y-114649501D01*
X137042516Y-114655908D01*
X136907671Y-114706202D01*
X136907664Y-114706206D01*
X136792455Y-114792452D01*
X136748722Y-114850871D01*
X136692787Y-114892742D01*
X136623095Y-114897725D01*
X136561775Y-114864240D01*
X136105190Y-114407655D01*
X136105188Y-114407652D01*
X135986317Y-114288781D01*
X135986316Y-114288780D01*
X135899504Y-114238660D01*
X135899504Y-114238659D01*
X135899500Y-114238658D01*
X135849385Y-114209723D01*
X135696657Y-114168799D01*
X135538543Y-114168799D01*
X135530947Y-114168799D01*
X135530931Y-114168800D01*
X133694366Y-114168800D01*
X133627327Y-114149115D01*
X133625475Y-114147902D01*
X133493785Y-114059909D01*
X133493772Y-114059902D01*
X133348101Y-113999564D01*
X133348089Y-113999561D01*
X133193445Y-113968800D01*
X133193442Y-113968800D01*
X133035758Y-113968800D01*
X133035755Y-113968800D01*
X132881110Y-113999561D01*
X132881098Y-113999564D01*
X132735427Y-114059902D01*
X132735414Y-114059909D01*
X132604311Y-114147510D01*
X132604307Y-114147513D01*
X132492813Y-114259007D01*
X132492810Y-114259011D01*
X132405209Y-114390114D01*
X132405202Y-114390127D01*
X132344864Y-114535798D01*
X132344861Y-114535810D01*
X132314100Y-114690453D01*
X132314100Y-114848146D01*
X132344861Y-115002789D01*
X132344864Y-115002801D01*
X132405202Y-115148472D01*
X132405209Y-115148485D01*
X132492810Y-115279588D01*
X132492813Y-115279592D01*
X132604307Y-115391086D01*
X132604311Y-115391089D01*
X132735414Y-115478690D01*
X132735427Y-115478697D01*
X132876033Y-115536937D01*
X132930437Y-115580777D01*
X132952502Y-115647071D01*
X132935223Y-115714771D01*
X132884878Y-115761982D01*
X132805974Y-115802186D01*
X132627641Y-115931752D01*
X132627636Y-115931756D01*
X132577463Y-115981929D01*
X132516140Y-116015413D01*
X132446448Y-116010428D01*
X132390515Y-115968557D01*
X132373601Y-115937580D01*
X132343797Y-115857671D01*
X132343793Y-115857664D01*
X132257547Y-115742455D01*
X132257544Y-115742452D01*
X132142335Y-115656206D01*
X132142328Y-115656202D01*
X132007482Y-115605908D01*
X132007483Y-115605908D01*
X131947883Y-115599501D01*
X131947881Y-115599500D01*
X131947873Y-115599500D01*
X131947865Y-115599500D01*
X131323700Y-115599500D01*
X131256661Y-115579815D01*
X131210906Y-115527011D01*
X131199700Y-115475500D01*
X131199700Y-115338555D01*
X131199699Y-115338553D01*
X131195688Y-115318390D01*
X131168937Y-115183903D01*
X131156046Y-115152781D01*
X131108597Y-115038227D01*
X131108590Y-115038214D01*
X131020989Y-114907111D01*
X131020986Y-114907107D01*
X130909492Y-114795613D01*
X130909488Y-114795610D01*
X130778385Y-114708009D01*
X130778372Y-114708002D01*
X130632701Y-114647664D01*
X130632689Y-114647661D01*
X130478045Y-114616900D01*
X130478042Y-114616900D01*
X130320358Y-114616900D01*
X130320355Y-114616900D01*
X130165710Y-114647661D01*
X130165698Y-114647664D01*
X130020027Y-114708002D01*
X130020014Y-114708009D01*
X129888325Y-114796002D01*
X129821647Y-114816880D01*
X129819434Y-114816900D01*
X126596882Y-114816900D01*
X126529843Y-114797215D01*
X126484088Y-114744411D01*
X126474144Y-114675253D01*
X126503169Y-114611697D01*
X126513890Y-114600768D01*
X126523584Y-114592035D01*
X126561716Y-114570020D01*
X126673520Y-114458216D01*
X126673521Y-114458213D01*
X132655914Y-108475821D01*
X132717235Y-108442338D01*
X132719402Y-108441887D01*
X132720091Y-108441750D01*
X132720092Y-108441750D01*
X132874747Y-108410987D01*
X133020429Y-108350644D01*
X133151539Y-108263039D01*
X133263039Y-108151539D01*
X133350644Y-108020429D01*
X133410987Y-107874747D01*
X133441750Y-107720092D01*
X133441750Y-107562408D01*
X133441750Y-107562405D01*
X133441749Y-107562403D01*
X133410987Y-107407753D01*
X133370540Y-107310104D01*
X133350647Y-107262077D01*
X133350640Y-107262064D01*
X133263039Y-107130961D01*
X133263036Y-107130957D01*
X133151542Y-107019463D01*
X133151538Y-107019460D01*
X133020435Y-106931859D01*
X133020422Y-106931852D01*
X132874751Y-106871514D01*
X132874739Y-106871511D01*
X132720095Y-106840750D01*
X132720092Y-106840750D01*
X132562408Y-106840750D01*
X132562405Y-106840750D01*
X132407760Y-106871511D01*
X132407748Y-106871514D01*
X132262077Y-106931852D01*
X132262064Y-106931859D01*
X132130961Y-107019460D01*
X132130957Y-107019463D01*
X132019463Y-107130957D01*
X132019460Y-107130961D01*
X131931859Y-107262064D01*
X131931852Y-107262077D01*
X131871514Y-107407748D01*
X131871511Y-107407758D01*
X131840612Y-107563098D01*
X131808227Y-107625009D01*
X131806676Y-107626587D01*
X125980584Y-113452681D01*
X125919261Y-113486166D01*
X125892903Y-113489000D01*
X103917169Y-113489000D01*
X103917153Y-113488999D01*
X103909557Y-113488999D01*
X103751443Y-113488999D01*
X103644087Y-113517765D01*
X103598710Y-113529924D01*
X103598709Y-113529925D01*
X103548596Y-113558859D01*
X103548595Y-113558860D01*
X103505189Y-113583920D01*
X103461785Y-113608979D01*
X103461782Y-113608981D01*
X103349978Y-113720786D01*
X102364842Y-114705921D01*
X102303519Y-114739406D01*
X102238848Y-114736173D01*
X102224534Y-114731522D01*
X102049995Y-114703878D01*
X102022352Y-114699500D01*
X101817648Y-114699500D01*
X101793329Y-114703351D01*
X101615465Y-114731522D01*
X101420776Y-114794781D01*
X101238386Y-114887715D01*
X101072786Y-115008028D01*
X100928028Y-115152786D01*
X100807715Y-115318386D01*
X100734985Y-115461126D01*
X100687010Y-115511922D01*
X100619189Y-115528717D01*
X100553054Y-115506179D01*
X100509603Y-115451464D01*
X100500500Y-115404831D01*
X100500500Y-69822135D01*
X101649500Y-69822135D01*
X101649500Y-71617870D01*
X101649501Y-71617876D01*
X101655908Y-71677483D01*
X101706202Y-71812328D01*
X101706206Y-71812335D01*
X101792452Y-71927544D01*
X101792455Y-71927547D01*
X101907664Y-72013793D01*
X101907671Y-72013797D01*
X102039082Y-72062810D01*
X102095016Y-72104681D01*
X102119433Y-72170145D01*
X102104582Y-72238418D01*
X102083431Y-72266673D01*
X101969889Y-72380215D01*
X101844951Y-72552179D01*
X101748444Y-72741585D01*
X101682753Y-72943760D01*
X101649500Y-73153713D01*
X101649500Y-73366286D01*
X101682753Y-73576239D01*
X101748444Y-73778414D01*
X101844951Y-73967820D01*
X101969890Y-74139786D01*
X102120213Y-74290109D01*
X102292182Y-74415050D01*
X102300946Y-74419516D01*
X102351742Y-74467491D01*
X102368536Y-74535312D01*
X102345998Y-74601447D01*
X102300946Y-74640484D01*
X102292182Y-74644949D01*
X102120213Y-74769890D01*
X101969890Y-74920213D01*
X101844951Y-75092179D01*
X101748444Y-75281585D01*
X101682753Y-75483760D01*
X101649500Y-75693713D01*
X101649500Y-75906286D01*
X101682753Y-76116239D01*
X101748444Y-76318414D01*
X101844951Y-76507820D01*
X101969890Y-76679786D01*
X102120213Y-76830109D01*
X102292182Y-76955050D01*
X102300946Y-76959516D01*
X102351742Y-77007491D01*
X102368536Y-77075312D01*
X102345998Y-77141447D01*
X102300946Y-77180484D01*
X102292182Y-77184949D01*
X102120213Y-77309890D01*
X101969890Y-77460213D01*
X101844951Y-77632179D01*
X101748444Y-77821585D01*
X101682753Y-78023760D01*
X101649500Y-78233713D01*
X101649500Y-78446286D01*
X101682753Y-78656239D01*
X101748444Y-78858414D01*
X101844951Y-79047820D01*
X101969890Y-79219786D01*
X102120213Y-79370109D01*
X102292182Y-79495050D01*
X102300946Y-79499516D01*
X102351742Y-79547491D01*
X102368536Y-79615312D01*
X102345998Y-79681447D01*
X102300946Y-79720484D01*
X102292182Y-79724949D01*
X102120213Y-79849890D01*
X101969890Y-80000213D01*
X101844951Y-80172179D01*
X101748444Y-80361585D01*
X101682753Y-80563760D01*
X101649500Y-80773713D01*
X101649500Y-80986286D01*
X101682753Y-81196239D01*
X101748444Y-81398414D01*
X101844951Y-81587820D01*
X101969890Y-81759786D01*
X102120213Y-81910109D01*
X102292182Y-82035050D01*
X102300946Y-82039516D01*
X102351742Y-82087491D01*
X102368536Y-82155312D01*
X102345998Y-82221447D01*
X102300946Y-82260484D01*
X102292182Y-82264949D01*
X102120213Y-82389890D01*
X101969890Y-82540213D01*
X101844951Y-82712179D01*
X101748444Y-82901585D01*
X101682753Y-83103760D01*
X101649500Y-83313713D01*
X101649500Y-83526286D01*
X101682753Y-83736239D01*
X101748444Y-83938414D01*
X101844951Y-84127820D01*
X101969890Y-84299786D01*
X102120213Y-84450109D01*
X102292182Y-84575050D01*
X102300946Y-84579516D01*
X102351742Y-84627491D01*
X102368536Y-84695312D01*
X102345998Y-84761447D01*
X102300946Y-84800484D01*
X102292182Y-84804949D01*
X102120213Y-84929890D01*
X101969890Y-85080213D01*
X101844951Y-85252179D01*
X101748444Y-85441585D01*
X101682753Y-85643760D01*
X101649500Y-85853713D01*
X101649500Y-86066286D01*
X101682753Y-86276239D01*
X101748444Y-86478414D01*
X101844951Y-86667820D01*
X101969890Y-86839786D01*
X102120213Y-86990109D01*
X102292182Y-87115050D01*
X102300946Y-87119516D01*
X102351742Y-87167491D01*
X102368536Y-87235312D01*
X102345998Y-87301447D01*
X102300946Y-87340484D01*
X102292182Y-87344949D01*
X102120213Y-87469890D01*
X101969890Y-87620213D01*
X101844951Y-87792179D01*
X101748444Y-87981585D01*
X101682753Y-88183760D01*
X101649500Y-88393713D01*
X101649500Y-88606286D01*
X101682753Y-88816239D01*
X101748444Y-89018414D01*
X101844951Y-89207820D01*
X101969890Y-89379786D01*
X102120213Y-89530109D01*
X102292182Y-89655050D01*
X102300946Y-89659516D01*
X102351742Y-89707491D01*
X102368536Y-89775312D01*
X102345998Y-89841447D01*
X102300946Y-89880484D01*
X102292182Y-89884949D01*
X102120213Y-90009890D01*
X101969890Y-90160213D01*
X101844951Y-90332179D01*
X101748444Y-90521585D01*
X101682753Y-90723760D01*
X101649500Y-90933713D01*
X101649500Y-91146286D01*
X101682753Y-91356239D01*
X101748444Y-91558414D01*
X101844951Y-91747820D01*
X101969890Y-91919786D01*
X102120213Y-92070109D01*
X102292182Y-92195050D01*
X102300946Y-92199516D01*
X102351742Y-92247491D01*
X102368536Y-92315312D01*
X102345998Y-92381447D01*
X102300946Y-92420484D01*
X102292182Y-92424949D01*
X102120213Y-92549890D01*
X101969890Y-92700213D01*
X101844951Y-92872179D01*
X101748444Y-93061585D01*
X101682753Y-93263760D01*
X101649500Y-93473713D01*
X101649500Y-93686286D01*
X101682753Y-93896239D01*
X101748444Y-94098414D01*
X101844951Y-94287820D01*
X101969890Y-94459786D01*
X102120213Y-94610109D01*
X102292182Y-94735050D01*
X102300946Y-94739516D01*
X102351742Y-94787491D01*
X102368536Y-94855312D01*
X102345998Y-94921447D01*
X102300946Y-94960484D01*
X102292182Y-94964949D01*
X102120213Y-95089890D01*
X101969890Y-95240213D01*
X101844951Y-95412179D01*
X101748444Y-95601585D01*
X101682753Y-95803760D01*
X101662334Y-95932680D01*
X101649500Y-96013713D01*
X101649500Y-96226287D01*
X101682754Y-96436243D01*
X101700884Y-96492042D01*
X101748444Y-96638414D01*
X101844951Y-96827820D01*
X101969890Y-96999786D01*
X102120213Y-97150109D01*
X102292182Y-97275050D01*
X102300946Y-97279516D01*
X102351742Y-97327491D01*
X102368536Y-97395312D01*
X102345998Y-97461447D01*
X102300946Y-97500484D01*
X102292182Y-97504949D01*
X102120213Y-97629890D01*
X101969890Y-97780213D01*
X101844951Y-97952179D01*
X101748444Y-98141585D01*
X101682753Y-98343760D01*
X101649500Y-98553713D01*
X101649500Y-98766286D01*
X101682753Y-98976239D01*
X101748444Y-99178414D01*
X101844951Y-99367820D01*
X101969890Y-99539786D01*
X102120213Y-99690109D01*
X102292182Y-99815050D01*
X102300946Y-99819516D01*
X102351742Y-99867491D01*
X102368536Y-99935312D01*
X102345998Y-100001447D01*
X102300946Y-100040484D01*
X102292182Y-100044949D01*
X102120213Y-100169890D01*
X101969890Y-100320213D01*
X101844951Y-100492179D01*
X101748444Y-100681585D01*
X101682753Y-100883760D01*
X101649500Y-101093713D01*
X101649500Y-101306286D01*
X101682753Y-101516239D01*
X101748444Y-101718414D01*
X101844951Y-101907820D01*
X101969890Y-102079786D01*
X102120213Y-102230109D01*
X102292182Y-102355050D01*
X102300946Y-102359516D01*
X102351742Y-102407491D01*
X102368536Y-102475312D01*
X102345998Y-102541447D01*
X102300946Y-102580484D01*
X102292182Y-102584949D01*
X102120213Y-102709890D01*
X101969890Y-102860213D01*
X101844951Y-103032179D01*
X101748444Y-103221585D01*
X101682753Y-103423760D01*
X101649500Y-103633713D01*
X101649500Y-103846286D01*
X101682753Y-104056239D01*
X101748444Y-104258414D01*
X101844951Y-104447820D01*
X101969890Y-104619786D01*
X102120213Y-104770109D01*
X102292182Y-104895050D01*
X102300946Y-104899516D01*
X102351742Y-104947491D01*
X102368536Y-105015312D01*
X102345998Y-105081447D01*
X102300946Y-105120484D01*
X102292182Y-105124949D01*
X102120213Y-105249890D01*
X101969890Y-105400213D01*
X101844951Y-105572179D01*
X101748444Y-105761585D01*
X101682753Y-105963760D01*
X101649500Y-106173713D01*
X101649500Y-106386286D01*
X101682753Y-106596239D01*
X101748444Y-106798414D01*
X101844951Y-106987820D01*
X101969890Y-107159786D01*
X102120213Y-107310109D01*
X102292182Y-107435050D01*
X102300946Y-107439516D01*
X102351742Y-107487491D01*
X102368536Y-107555312D01*
X102345998Y-107621447D01*
X102300946Y-107660484D01*
X102292182Y-107664949D01*
X102120213Y-107789890D01*
X101969890Y-107940213D01*
X101844951Y-108112179D01*
X101748444Y-108301585D01*
X101682753Y-108503760D01*
X101649500Y-108713713D01*
X101649500Y-108926286D01*
X101682753Y-109136239D01*
X101748444Y-109338414D01*
X101844951Y-109527820D01*
X101969890Y-109699786D01*
X102120213Y-109850109D01*
X102292179Y-109975048D01*
X102292181Y-109975049D01*
X102292184Y-109975051D01*
X102481588Y-110071557D01*
X102683757Y-110137246D01*
X102893713Y-110170500D01*
X102893714Y-110170500D01*
X103106286Y-110170500D01*
X103106287Y-110170500D01*
X103316243Y-110137246D01*
X103518412Y-110071557D01*
X103707816Y-109975051D01*
X103729789Y-109959086D01*
X103879786Y-109850109D01*
X103879788Y-109850106D01*
X103879792Y-109850104D01*
X104030104Y-109699792D01*
X104030106Y-109699788D01*
X104030109Y-109699786D01*
X104155048Y-109527820D01*
X104155047Y-109527820D01*
X104155051Y-109527816D01*
X104251557Y-109338412D01*
X104317246Y-109136243D01*
X104350500Y-108926287D01*
X104350500Y-108713713D01*
X104317246Y-108503757D01*
X104251557Y-108301588D01*
X104155051Y-108112184D01*
X104155049Y-108112181D01*
X104155048Y-108112179D01*
X104030109Y-107940213D01*
X103879786Y-107789890D01*
X103707820Y-107664951D01*
X103707115Y-107664591D01*
X103699054Y-107660485D01*
X103648259Y-107612512D01*
X103631463Y-107544692D01*
X103653999Y-107478556D01*
X103699054Y-107439515D01*
X103707816Y-107435051D01*
X103745396Y-107407748D01*
X103879786Y-107310109D01*
X103879788Y-107310106D01*
X103879792Y-107310104D01*
X104030104Y-107159792D01*
X104030106Y-107159788D01*
X104030109Y-107159786D01*
X104155048Y-106987820D01*
X104155047Y-106987820D01*
X104155051Y-106987816D01*
X104251557Y-106798412D01*
X104317246Y-106596243D01*
X104350500Y-106386287D01*
X104350500Y-106173713D01*
X104317246Y-105963757D01*
X104251557Y-105761588D01*
X104155051Y-105572184D01*
X104155049Y-105572181D01*
X104155048Y-105572179D01*
X104030109Y-105400213D01*
X103879786Y-105249890D01*
X103707820Y-105124951D01*
X103707115Y-105124591D01*
X103699054Y-105120485D01*
X103648259Y-105072512D01*
X103631463Y-105004692D01*
X103653999Y-104938556D01*
X103699054Y-104899515D01*
X103707816Y-104895051D01*
X103729789Y-104879086D01*
X103879786Y-104770109D01*
X103879788Y-104770106D01*
X103879792Y-104770104D01*
X104030104Y-104619792D01*
X104030106Y-104619788D01*
X104030109Y-104619786D01*
X104155048Y-104447820D01*
X104155047Y-104447820D01*
X104155051Y-104447816D01*
X104251557Y-104258412D01*
X104317246Y-104056243D01*
X104350500Y-103846287D01*
X104350500Y-103633713D01*
X104317246Y-103423757D01*
X104251557Y-103221588D01*
X104155051Y-103032184D01*
X104155049Y-103032181D01*
X104155048Y-103032179D01*
X104030109Y-102860213D01*
X103879786Y-102709890D01*
X103707820Y-102584951D01*
X103707115Y-102584591D01*
X103699054Y-102580485D01*
X103648259Y-102532512D01*
X103631463Y-102464692D01*
X103653999Y-102398556D01*
X103699054Y-102359515D01*
X103707816Y-102355051D01*
X103729789Y-102339086D01*
X103879786Y-102230109D01*
X103879788Y-102230106D01*
X103879792Y-102230104D01*
X104030104Y-102079792D01*
X104030106Y-102079788D01*
X104030109Y-102079786D01*
X104155048Y-101907820D01*
X104155047Y-101907820D01*
X104155051Y-101907816D01*
X104251557Y-101718412D01*
X104317246Y-101516243D01*
X104350500Y-101306287D01*
X104350500Y-101093713D01*
X104317246Y-100883757D01*
X104251557Y-100681588D01*
X104155051Y-100492184D01*
X104155049Y-100492181D01*
X104155048Y-100492179D01*
X104030109Y-100320213D01*
X103879786Y-100169890D01*
X103707820Y-100044951D01*
X103707115Y-100044591D01*
X103699054Y-100040485D01*
X103648259Y-99992512D01*
X103631463Y-99924692D01*
X103653999Y-99858556D01*
X103699054Y-99819515D01*
X103707816Y-99815051D01*
X103729789Y-99799086D01*
X103879786Y-99690109D01*
X103879788Y-99690106D01*
X103879792Y-99690104D01*
X104030104Y-99539792D01*
X104030106Y-99539788D01*
X104030109Y-99539786D01*
X104155048Y-99367820D01*
X104155047Y-99367820D01*
X104155051Y-99367816D01*
X104251557Y-99178412D01*
X104317246Y-98976243D01*
X104350500Y-98766287D01*
X104350500Y-98553713D01*
X104317246Y-98343757D01*
X104251557Y-98141588D01*
X104155051Y-97952184D01*
X104155049Y-97952181D01*
X104155048Y-97952179D01*
X104030109Y-97780213D01*
X103879786Y-97629890D01*
X103707820Y-97504951D01*
X103707115Y-97504591D01*
X103699054Y-97500485D01*
X103648259Y-97452512D01*
X103631463Y-97384692D01*
X103653999Y-97318556D01*
X103699054Y-97279515D01*
X103707816Y-97275051D01*
X103792259Y-97213700D01*
X103879786Y-97150109D01*
X103879788Y-97150106D01*
X103879792Y-97150104D01*
X104030104Y-96999792D01*
X104030106Y-96999788D01*
X104030109Y-96999786D01*
X104155048Y-96827820D01*
X104155047Y-96827820D01*
X104155051Y-96827816D01*
X104251557Y-96638412D01*
X104317246Y-96436243D01*
X104350500Y-96226287D01*
X104350500Y-96013713D01*
X104317246Y-95803757D01*
X104251557Y-95601588D01*
X104155051Y-95412184D01*
X104155049Y-95412181D01*
X104155048Y-95412179D01*
X104030109Y-95240213D01*
X103879786Y-95089890D01*
X103707820Y-94964951D01*
X103707115Y-94964591D01*
X103699054Y-94960485D01*
X103648259Y-94912512D01*
X103631463Y-94844692D01*
X103653999Y-94778556D01*
X103699054Y-94739515D01*
X103707816Y-94735051D01*
X103729789Y-94719086D01*
X103879786Y-94610109D01*
X103879788Y-94610106D01*
X103879792Y-94610104D01*
X104030104Y-94459792D01*
X104030106Y-94459788D01*
X104030109Y-94459786D01*
X104155048Y-94287820D01*
X104155047Y-94287820D01*
X104155051Y-94287816D01*
X104251557Y-94098412D01*
X104317246Y-93896243D01*
X104350500Y-93686287D01*
X104350500Y-93473713D01*
X104317246Y-93263757D01*
X104251557Y-93061588D01*
X104155051Y-92872184D01*
X104155049Y-92872181D01*
X104155048Y-92872179D01*
X104030109Y-92700213D01*
X103879786Y-92549890D01*
X103707820Y-92424951D01*
X103707115Y-92424591D01*
X103699054Y-92420485D01*
X103648259Y-92372512D01*
X103631463Y-92304692D01*
X103653999Y-92238556D01*
X103699054Y-92199515D01*
X103707816Y-92195051D01*
X103729789Y-92179086D01*
X103879786Y-92070109D01*
X103879788Y-92070106D01*
X103879792Y-92070104D01*
X104030104Y-91919792D01*
X104030106Y-91919788D01*
X104030109Y-91919786D01*
X104155048Y-91747820D01*
X104155047Y-91747820D01*
X104155051Y-91747816D01*
X104251557Y-91558412D01*
X104317246Y-91356243D01*
X104350500Y-91146287D01*
X104350500Y-90933713D01*
X104317246Y-90723757D01*
X104251557Y-90521588D01*
X104155051Y-90332184D01*
X104155049Y-90332181D01*
X104155048Y-90332179D01*
X104030109Y-90160213D01*
X103879786Y-90009890D01*
X103707820Y-89884951D01*
X103707115Y-89884591D01*
X103699054Y-89880485D01*
X103648259Y-89832512D01*
X103631463Y-89764692D01*
X103653999Y-89698556D01*
X103699054Y-89659515D01*
X103707816Y-89655051D01*
X103729789Y-89639086D01*
X103879786Y-89530109D01*
X103879788Y-89530106D01*
X103879792Y-89530104D01*
X104030104Y-89379792D01*
X104030106Y-89379788D01*
X104030109Y-89379786D01*
X104155048Y-89207820D01*
X104155047Y-89207820D01*
X104155051Y-89207816D01*
X104251557Y-89018412D01*
X104317246Y-88816243D01*
X104350500Y-88606287D01*
X104350500Y-88393713D01*
X104317246Y-88183757D01*
X104251557Y-87981588D01*
X104155051Y-87792184D01*
X104155049Y-87792181D01*
X104155048Y-87792179D01*
X104030109Y-87620213D01*
X103879786Y-87469890D01*
X103707820Y-87344951D01*
X103707115Y-87344591D01*
X103699054Y-87340485D01*
X103648259Y-87292512D01*
X103631463Y-87224692D01*
X103653999Y-87158556D01*
X103699054Y-87119515D01*
X103707816Y-87115051D01*
X103729789Y-87099086D01*
X103879786Y-86990109D01*
X103879788Y-86990106D01*
X103879792Y-86990104D01*
X104030104Y-86839792D01*
X104030106Y-86839788D01*
X104030109Y-86839786D01*
X104155048Y-86667820D01*
X104155047Y-86667820D01*
X104155051Y-86667816D01*
X104251557Y-86478412D01*
X104317246Y-86276243D01*
X104350500Y-86066287D01*
X104350500Y-85853713D01*
X104317246Y-85643757D01*
X104251557Y-85441588D01*
X104155051Y-85252184D01*
X104155049Y-85252181D01*
X104155048Y-85252179D01*
X104030109Y-85080213D01*
X103879786Y-84929890D01*
X103707820Y-84804951D01*
X103707115Y-84804591D01*
X103699054Y-84800485D01*
X103648259Y-84752512D01*
X103631463Y-84684692D01*
X103653999Y-84618556D01*
X103699054Y-84579515D01*
X103707816Y-84575051D01*
X103729789Y-84559086D01*
X103879786Y-84450109D01*
X103879788Y-84450106D01*
X103879792Y-84450104D01*
X104030104Y-84299792D01*
X104030106Y-84299788D01*
X104030109Y-84299786D01*
X104155048Y-84127820D01*
X104155047Y-84127820D01*
X104155051Y-84127816D01*
X104251557Y-83938412D01*
X104317246Y-83736243D01*
X104350500Y-83526287D01*
X104350500Y-83313713D01*
X104317246Y-83103757D01*
X104251557Y-82901588D01*
X104155051Y-82712184D01*
X104155049Y-82712181D01*
X104155048Y-82712179D01*
X104030109Y-82540213D01*
X103879786Y-82389890D01*
X103707820Y-82264951D01*
X103707115Y-82264591D01*
X103699054Y-82260485D01*
X103648259Y-82212512D01*
X103631463Y-82144692D01*
X103653999Y-82078556D01*
X103699054Y-82039515D01*
X103707816Y-82035051D01*
X103729789Y-82019086D01*
X103879786Y-81910109D01*
X103879788Y-81910106D01*
X103879792Y-81910104D01*
X104030104Y-81759792D01*
X104030106Y-81759788D01*
X104030109Y-81759786D01*
X104155048Y-81587820D01*
X104155047Y-81587820D01*
X104155051Y-81587816D01*
X104251557Y-81398412D01*
X104317246Y-81196243D01*
X104350500Y-80986287D01*
X104350500Y-80773713D01*
X104317246Y-80563757D01*
X104251557Y-80361588D01*
X104155051Y-80172184D01*
X104155049Y-80172181D01*
X104155048Y-80172179D01*
X104030109Y-80000213D01*
X103879786Y-79849890D01*
X103707820Y-79724951D01*
X103707115Y-79724591D01*
X103699054Y-79720485D01*
X103648259Y-79672512D01*
X103631463Y-79604692D01*
X103653999Y-79538556D01*
X103699054Y-79499515D01*
X103707816Y-79495051D01*
X103729789Y-79479086D01*
X103879786Y-79370109D01*
X103879788Y-79370106D01*
X103879792Y-79370104D01*
X104030104Y-79219792D01*
X104030106Y-79219788D01*
X104030109Y-79219786D01*
X104155048Y-79047820D01*
X104155047Y-79047820D01*
X104155051Y-79047816D01*
X104251557Y-78858412D01*
X104317246Y-78656243D01*
X104350500Y-78446287D01*
X104350500Y-78233713D01*
X104317246Y-78023757D01*
X104251557Y-77821588D01*
X104155051Y-77632184D01*
X104155049Y-77632181D01*
X104155048Y-77632179D01*
X104030109Y-77460213D01*
X103879786Y-77309890D01*
X103707820Y-77184951D01*
X103707115Y-77184591D01*
X103699054Y-77180485D01*
X103648259Y-77132512D01*
X103631463Y-77064692D01*
X103653999Y-76998556D01*
X103699054Y-76959515D01*
X103707816Y-76955051D01*
X103729789Y-76939086D01*
X103879786Y-76830109D01*
X103879788Y-76830106D01*
X103879792Y-76830104D01*
X104030104Y-76679792D01*
X104030106Y-76679788D01*
X104030109Y-76679786D01*
X104155048Y-76507820D01*
X104155047Y-76507820D01*
X104155051Y-76507816D01*
X104251557Y-76318412D01*
X104317246Y-76116243D01*
X104350500Y-75906287D01*
X104350500Y-75693713D01*
X104317246Y-75483757D01*
X104251557Y-75281588D01*
X104155051Y-75092184D01*
X104155049Y-75092181D01*
X104155048Y-75092179D01*
X104030109Y-74920213D01*
X103879786Y-74769890D01*
X103707820Y-74644951D01*
X103707115Y-74644591D01*
X103699054Y-74640485D01*
X103648259Y-74592512D01*
X103631463Y-74524692D01*
X103653999Y-74458556D01*
X103699054Y-74419515D01*
X103707816Y-74415051D01*
X103729789Y-74399086D01*
X103879786Y-74290109D01*
X103879788Y-74290106D01*
X103879792Y-74290104D01*
X104030104Y-74139792D01*
X104030106Y-74139788D01*
X104030109Y-74139786D01*
X104155048Y-73967820D01*
X104155047Y-73967820D01*
X104155051Y-73967816D01*
X104251557Y-73778412D01*
X104317246Y-73576243D01*
X104350500Y-73366287D01*
X104350500Y-73153713D01*
X104317246Y-72943757D01*
X104251557Y-72741588D01*
X104155051Y-72552184D01*
X104155049Y-72552181D01*
X104155048Y-72552179D01*
X104030109Y-72380213D01*
X103916569Y-72266673D01*
X103883084Y-72205350D01*
X103888068Y-72135658D01*
X103929940Y-72079725D01*
X103960915Y-72062810D01*
X104092331Y-72013796D01*
X104207546Y-71927546D01*
X104293796Y-71812331D01*
X104344091Y-71677483D01*
X104350500Y-71617873D01*
X104350500Y-71421153D01*
X108239500Y-71421153D01*
X108239500Y-71578846D01*
X108270261Y-71733489D01*
X108270264Y-71733501D01*
X108330602Y-71879172D01*
X108330609Y-71879185D01*
X108418602Y-72010874D01*
X108439480Y-72077551D01*
X108439500Y-72079765D01*
X108439500Y-111420234D01*
X108419815Y-111487273D01*
X108418602Y-111489125D01*
X108330609Y-111620814D01*
X108330602Y-111620827D01*
X108270264Y-111766498D01*
X108270261Y-111766510D01*
X108239500Y-111921153D01*
X108239500Y-112078846D01*
X108270261Y-112233489D01*
X108270264Y-112233501D01*
X108330602Y-112379172D01*
X108330609Y-112379185D01*
X108418210Y-112510288D01*
X108418213Y-112510292D01*
X108529707Y-112621786D01*
X108529711Y-112621789D01*
X108660814Y-112709390D01*
X108660827Y-112709397D01*
X108806498Y-112769735D01*
X108806503Y-112769737D01*
X108961153Y-112800499D01*
X108961156Y-112800500D01*
X108961158Y-112800500D01*
X109118844Y-112800500D01*
X109118845Y-112800499D01*
X109273497Y-112769737D01*
X109419179Y-112709394D01*
X109550289Y-112621789D01*
X109661789Y-112510289D01*
X109749394Y-112379179D01*
X109809737Y-112233497D01*
X109840500Y-112078842D01*
X109840500Y-111921158D01*
X109840500Y-111921155D01*
X109840499Y-111921153D01*
X109809738Y-111766510D01*
X109809737Y-111766503D01*
X109809735Y-111766498D01*
X109749397Y-111620827D01*
X109749390Y-111620814D01*
X109661398Y-111489125D01*
X109640520Y-111422447D01*
X109640500Y-111420234D01*
X109640500Y-72079765D01*
X109660185Y-72012726D01*
X109661398Y-72010874D01*
X109717078Y-71927544D01*
X109749394Y-71879179D01*
X109809737Y-71733497D01*
X109840500Y-71578842D01*
X109840500Y-71421158D01*
X109840500Y-71421155D01*
X109840499Y-71421153D01*
X109809738Y-71266510D01*
X109809737Y-71266503D01*
X109809735Y-71266498D01*
X109749397Y-71120827D01*
X109749390Y-71120814D01*
X109661789Y-70989711D01*
X109661786Y-70989707D01*
X109550292Y-70878213D01*
X109550288Y-70878210D01*
X109419185Y-70790609D01*
X109419172Y-70790602D01*
X109273501Y-70730264D01*
X109273489Y-70730261D01*
X109118845Y-70699500D01*
X109118842Y-70699500D01*
X108961158Y-70699500D01*
X108961155Y-70699500D01*
X108806510Y-70730261D01*
X108806498Y-70730264D01*
X108660827Y-70790602D01*
X108660814Y-70790609D01*
X108529711Y-70878210D01*
X108529707Y-70878213D01*
X108418213Y-70989707D01*
X108418210Y-70989711D01*
X108330609Y-71120814D01*
X108330602Y-71120827D01*
X108270264Y-71266498D01*
X108270261Y-71266510D01*
X108239500Y-71421153D01*
X104350500Y-71421153D01*
X104350499Y-70699500D01*
X104350499Y-69822129D01*
X104350498Y-69822123D01*
X104350497Y-69822116D01*
X104344091Y-69762517D01*
X104325309Y-69712161D01*
X104293797Y-69627671D01*
X104293793Y-69627664D01*
X104207547Y-69512455D01*
X104207544Y-69512452D01*
X104092335Y-69426206D01*
X104092328Y-69426202D01*
X103957482Y-69375908D01*
X103957483Y-69375908D01*
X103897883Y-69369501D01*
X103897881Y-69369500D01*
X103897873Y-69369500D01*
X103897864Y-69369500D01*
X102102129Y-69369500D01*
X102102123Y-69369501D01*
X102042516Y-69375908D01*
X101907671Y-69426202D01*
X101907664Y-69426206D01*
X101792455Y-69512452D01*
X101792452Y-69512455D01*
X101706206Y-69627664D01*
X101706202Y-69627671D01*
X101655908Y-69762517D01*
X101654115Y-69779200D01*
X101649501Y-69822123D01*
X101649500Y-69822135D01*
X100500500Y-69822135D01*
X100500500Y-61853713D01*
X102609500Y-61853713D01*
X102609500Y-62066287D01*
X102642754Y-62276243D01*
X102696387Y-62441309D01*
X102708444Y-62478414D01*
X102804951Y-62667820D01*
X102929890Y-62839786D01*
X103080213Y-62990109D01*
X103252182Y-63115050D01*
X103260946Y-63119516D01*
X103311742Y-63167491D01*
X103328536Y-63235312D01*
X103305998Y-63301447D01*
X103260946Y-63340484D01*
X103252182Y-63344949D01*
X103080213Y-63469890D01*
X102929890Y-63620213D01*
X102804951Y-63792179D01*
X102708444Y-63981585D01*
X102642753Y-64183760D01*
X102609500Y-64393713D01*
X102609500Y-64606286D01*
X102642753Y-64816239D01*
X102642753Y-64816241D01*
X102642754Y-64816243D01*
X102697431Y-64984522D01*
X102708444Y-65018414D01*
X102804951Y-65207820D01*
X102929890Y-65379786D01*
X103080213Y-65530109D01*
X103252179Y-65655048D01*
X103252181Y-65655049D01*
X103252184Y-65655051D01*
X103441588Y-65751557D01*
X103643757Y-65817246D01*
X103853713Y-65850500D01*
X103853714Y-65850500D01*
X104066286Y-65850500D01*
X104066287Y-65850500D01*
X104276243Y-65817246D01*
X104318523Y-65803507D01*
X104388362Y-65801511D01*
X104444521Y-65833756D01*
X108932784Y-70322020D01*
X108932786Y-70322021D01*
X108932790Y-70322024D01*
X109069709Y-70401073D01*
X109069716Y-70401077D01*
X109222443Y-70442001D01*
X109222445Y-70442001D01*
X109388154Y-70442001D01*
X109388170Y-70442000D01*
X120500534Y-70442000D01*
X120567573Y-70461685D01*
X120569425Y-70462898D01*
X120701114Y-70550890D01*
X120701127Y-70550897D01*
X120846798Y-70611235D01*
X120846803Y-70611237D01*
X121001453Y-70641999D01*
X121001456Y-70642000D01*
X121001458Y-70642000D01*
X121159144Y-70642000D01*
X121159145Y-70641999D01*
X121313797Y-70611237D01*
X121459479Y-70550894D01*
X121590589Y-70463289D01*
X121702089Y-70351789D01*
X121789694Y-70220679D01*
X121850037Y-70074997D01*
X121880800Y-69920342D01*
X121880800Y-69779200D01*
X121900485Y-69712161D01*
X121953289Y-69666406D01*
X122004800Y-69655200D01*
X126599534Y-69655200D01*
X126666573Y-69674885D01*
X126668425Y-69676098D01*
X126800114Y-69764090D01*
X126800127Y-69764097D01*
X126940231Y-69822129D01*
X126945803Y-69824437D01*
X127100453Y-69855199D01*
X127100456Y-69855200D01*
X127100458Y-69855200D01*
X127258144Y-69855200D01*
X127258145Y-69855199D01*
X127412797Y-69824437D01*
X127558479Y-69764094D01*
X127689589Y-69676489D01*
X127801089Y-69564989D01*
X127888694Y-69433879D01*
X127949037Y-69288197D01*
X127979800Y-69133542D01*
X127979800Y-68975858D01*
X127979800Y-68975855D01*
X127979799Y-68975853D01*
X127949038Y-68821210D01*
X127949037Y-68821203D01*
X127949035Y-68821198D01*
X127888697Y-68675527D01*
X127888690Y-68675514D01*
X127801089Y-68544411D01*
X127801086Y-68544407D01*
X127689592Y-68432913D01*
X127689588Y-68432910D01*
X127558485Y-68345309D01*
X127558472Y-68345302D01*
X127412801Y-68284964D01*
X127412789Y-68284961D01*
X127258145Y-68254200D01*
X127258142Y-68254200D01*
X127100458Y-68254200D01*
X127100455Y-68254200D01*
X126945810Y-68284961D01*
X126945798Y-68284964D01*
X126800127Y-68345302D01*
X126800114Y-68345309D01*
X126668425Y-68433302D01*
X126601747Y-68454180D01*
X126599534Y-68454200D01*
X109658297Y-68454200D01*
X109591258Y-68434515D01*
X109570616Y-68417881D01*
X107063495Y-65910760D01*
X107030010Y-65849437D01*
X107034994Y-65779745D01*
X107076866Y-65723812D01*
X107094881Y-65712594D01*
X107207816Y-65655051D01*
X107240600Y-65631232D01*
X107379786Y-65530109D01*
X107379788Y-65530106D01*
X107379792Y-65530104D01*
X107530104Y-65379792D01*
X107530106Y-65379788D01*
X107530109Y-65379786D01*
X107655048Y-65207820D01*
X107655047Y-65207820D01*
X107655051Y-65207816D01*
X107659514Y-65199054D01*
X107707488Y-65148259D01*
X107775308Y-65131463D01*
X107841444Y-65153999D01*
X107880486Y-65199056D01*
X107884951Y-65207820D01*
X108009890Y-65379786D01*
X108160213Y-65530109D01*
X108332179Y-65655048D01*
X108332181Y-65655049D01*
X108332184Y-65655051D01*
X108521588Y-65751557D01*
X108723757Y-65817246D01*
X108933713Y-65850500D01*
X108933714Y-65850500D01*
X109146286Y-65850500D01*
X109146287Y-65850500D01*
X109356243Y-65817246D01*
X109398523Y-65803507D01*
X109468362Y-65801511D01*
X109524521Y-65833756D01*
X110877184Y-67186420D01*
X110877186Y-67186421D01*
X110877190Y-67186424D01*
X111014109Y-67265473D01*
X111014116Y-67265477D01*
X111166843Y-67306401D01*
X111166845Y-67306401D01*
X111332554Y-67306401D01*
X111332570Y-67306400D01*
X129289031Y-67306400D01*
X129289047Y-67306401D01*
X129296643Y-67306401D01*
X129454754Y-67306401D01*
X129454757Y-67306401D01*
X129607485Y-67265477D01*
X129657604Y-67236539D01*
X129744416Y-67186420D01*
X129856220Y-67074616D01*
X129856220Y-67074614D01*
X129866428Y-67064407D01*
X129866429Y-67064404D01*
X132606462Y-64324372D01*
X132667783Y-64290889D01*
X132669950Y-64290438D01*
X132727885Y-64278913D01*
X132825297Y-64259537D01*
X132970979Y-64199194D01*
X133102089Y-64111589D01*
X133213589Y-64000089D01*
X133301194Y-63868979D01*
X133303423Y-63863599D01*
X133333005Y-63792179D01*
X133361537Y-63723297D01*
X133392300Y-63568642D01*
X133392300Y-63410958D01*
X133392300Y-63410955D01*
X133392299Y-63410953D01*
X133378282Y-63340484D01*
X133361537Y-63256303D01*
X133324750Y-63167491D01*
X133301197Y-63110627D01*
X133301190Y-63110614D01*
X133213589Y-62979511D01*
X133213586Y-62979507D01*
X133102092Y-62868013D01*
X133102088Y-62868010D01*
X132970985Y-62780409D01*
X132970972Y-62780402D01*
X132825301Y-62720064D01*
X132825289Y-62720061D01*
X132670645Y-62689300D01*
X132670642Y-62689300D01*
X132512958Y-62689300D01*
X132512955Y-62689300D01*
X132358310Y-62720061D01*
X132358298Y-62720064D01*
X132212627Y-62780402D01*
X132212614Y-62780409D01*
X132081511Y-62868010D01*
X132081507Y-62868013D01*
X131970013Y-62979507D01*
X131970010Y-62979511D01*
X131882409Y-63110614D01*
X131882402Y-63110627D01*
X131822064Y-63256298D01*
X131822061Y-63256308D01*
X131791161Y-63411650D01*
X131758776Y-63473561D01*
X131757225Y-63475139D01*
X129163284Y-66069081D01*
X129136356Y-66083784D01*
X129110538Y-66100377D01*
X129104337Y-66101268D01*
X129101961Y-66102566D01*
X129075603Y-66105400D01*
X129059019Y-66105400D01*
X128991980Y-66085715D01*
X128946225Y-66032911D01*
X128936281Y-65963753D01*
X128958701Y-65908514D01*
X129040378Y-65796096D01*
X129124379Y-65631235D01*
X129181555Y-65455264D01*
X129210500Y-65272514D01*
X129210500Y-65087486D01*
X129181555Y-64904736D01*
X129124379Y-64728765D01*
X129124379Y-64728764D01*
X129040377Y-64563903D01*
X128931621Y-64414213D01*
X128800787Y-64283379D01*
X128651096Y-64174622D01*
X128486235Y-64090620D01*
X128486232Y-64090619D01*
X128310265Y-64033445D01*
X128218889Y-64018972D01*
X128127514Y-64004500D01*
X127942486Y-64004500D01*
X127881569Y-64014148D01*
X127759734Y-64033445D01*
X127583767Y-64090619D01*
X127583764Y-64090620D01*
X127418903Y-64174622D01*
X127385079Y-64199197D01*
X127269213Y-64283379D01*
X127269211Y-64283381D01*
X127269210Y-64283381D01*
X127138381Y-64414210D01*
X127138381Y-64414211D01*
X127138379Y-64414213D01*
X127091672Y-64478499D01*
X127029622Y-64563903D01*
X126945620Y-64728764D01*
X126945619Y-64728767D01*
X126888445Y-64904734D01*
X126859500Y-65087486D01*
X126859500Y-65272513D01*
X126888445Y-65455265D01*
X126945619Y-65631232D01*
X126945620Y-65631235D01*
X127029622Y-65796096D01*
X127111299Y-65908514D01*
X127134779Y-65974321D01*
X127118954Y-66042375D01*
X127068848Y-66091070D01*
X127010981Y-66105400D01*
X124209019Y-66105400D01*
X124141980Y-66085715D01*
X124096225Y-66032911D01*
X124086281Y-65963753D01*
X124108701Y-65908514D01*
X124190378Y-65796096D01*
X124274379Y-65631235D01*
X124331555Y-65455264D01*
X124360500Y-65272514D01*
X124360500Y-65087486D01*
X124331555Y-64904736D01*
X124274379Y-64728765D01*
X124274379Y-64728764D01*
X124190377Y-64563903D01*
X124081621Y-64414213D01*
X123950787Y-64283379D01*
X123801096Y-64174622D01*
X123636235Y-64090620D01*
X123636232Y-64090619D01*
X123460265Y-64033445D01*
X123368889Y-64018972D01*
X123277514Y-64004500D01*
X123092486Y-64004500D01*
X123031569Y-64014148D01*
X122909734Y-64033445D01*
X122733767Y-64090619D01*
X122733764Y-64090620D01*
X122568903Y-64174622D01*
X122535079Y-64199197D01*
X122419213Y-64283379D01*
X122419211Y-64283381D01*
X122419210Y-64283381D01*
X122288381Y-64414210D01*
X122288381Y-64414211D01*
X122288379Y-64414213D01*
X122241672Y-64478499D01*
X122179622Y-64563903D01*
X122095620Y-64728764D01*
X122095619Y-64728767D01*
X122038445Y-64904734D01*
X122009500Y-65087486D01*
X122009500Y-65272513D01*
X122038445Y-65455265D01*
X122095619Y-65631232D01*
X122095620Y-65631235D01*
X122179622Y-65796096D01*
X122261299Y-65908514D01*
X122284779Y-65974321D01*
X122268954Y-66042375D01*
X122218848Y-66091070D01*
X122160981Y-66105400D01*
X111545998Y-66105400D01*
X111478959Y-66085715D01*
X111458317Y-66069081D01*
X110373757Y-64984522D01*
X110340272Y-64923199D01*
X110343507Y-64858523D01*
X110357246Y-64816243D01*
X110390500Y-64606287D01*
X110390500Y-64393713D01*
X110357246Y-64183757D01*
X110291557Y-63981588D01*
X110291554Y-63981582D01*
X110276683Y-63952394D01*
X110263787Y-63883724D01*
X110290064Y-63818984D01*
X110347171Y-63778728D01*
X110387168Y-63772100D01*
X113424305Y-63772100D01*
X113471757Y-63781539D01*
X113595598Y-63832835D01*
X113595603Y-63832837D01*
X113750253Y-63863599D01*
X113750256Y-63863600D01*
X113750258Y-63863600D01*
X113907944Y-63863600D01*
X113907945Y-63863599D01*
X114062597Y-63832837D01*
X114208279Y-63772494D01*
X114339389Y-63684889D01*
X114450889Y-63573389D01*
X114538494Y-63442279D01*
X114598837Y-63296597D01*
X114629600Y-63141942D01*
X114629600Y-62984258D01*
X114629600Y-62984255D01*
X114629599Y-62984253D01*
X114606477Y-62868011D01*
X114598837Y-62829603D01*
X114598835Y-62829598D01*
X114538497Y-62683927D01*
X114538490Y-62683914D01*
X114450889Y-62552811D01*
X114450886Y-62552807D01*
X114339392Y-62441313D01*
X114339388Y-62441310D01*
X114208285Y-62353709D01*
X114208272Y-62353702D01*
X114062601Y-62293364D01*
X114062589Y-62293361D01*
X113907945Y-62262600D01*
X113907942Y-62262600D01*
X113750258Y-62262600D01*
X113750255Y-62262600D01*
X113595610Y-62293361D01*
X113595598Y-62293364D01*
X113449927Y-62353702D01*
X113449914Y-62353709D01*
X113318812Y-62441309D01*
X113293883Y-62466239D01*
X113225339Y-62534782D01*
X113164019Y-62568266D01*
X113137660Y-62571100D01*
X110514000Y-62571100D01*
X110446961Y-62551415D01*
X110401206Y-62498611D01*
X110390000Y-62447100D01*
X110390000Y-62210000D01*
X109473012Y-62210000D01*
X109505925Y-62152993D01*
X109535207Y-62043713D01*
X121534500Y-62043713D01*
X121534500Y-62256287D01*
X121567754Y-62466243D01*
X121633249Y-62667816D01*
X121633444Y-62668414D01*
X121729951Y-62857820D01*
X121854890Y-63029786D01*
X122005213Y-63180109D01*
X122177179Y-63305048D01*
X122177181Y-63305049D01*
X122177184Y-63305051D01*
X122366588Y-63401557D01*
X122568757Y-63467246D01*
X122778713Y-63500500D01*
X122778714Y-63500500D01*
X122991286Y-63500500D01*
X122991287Y-63500500D01*
X123201243Y-63467246D01*
X123403412Y-63401557D01*
X123592816Y-63305051D01*
X123659903Y-63256310D01*
X123764786Y-63180109D01*
X123764788Y-63180106D01*
X123764792Y-63180104D01*
X123915104Y-63029792D01*
X123915106Y-63029788D01*
X123915109Y-63029786D01*
X124040048Y-62857820D01*
X124040047Y-62857820D01*
X124040051Y-62857816D01*
X124136557Y-62668412D01*
X124202246Y-62466243D01*
X124235500Y-62256287D01*
X124235500Y-62043713D01*
X126984500Y-62043713D01*
X126984500Y-62256287D01*
X127017754Y-62466243D01*
X127083249Y-62667816D01*
X127083444Y-62668414D01*
X127179951Y-62857820D01*
X127304890Y-63029786D01*
X127455213Y-63180109D01*
X127627179Y-63305048D01*
X127627181Y-63305049D01*
X127627184Y-63305051D01*
X127816588Y-63401557D01*
X128018757Y-63467246D01*
X128228713Y-63500500D01*
X128228714Y-63500500D01*
X128441286Y-63500500D01*
X128441287Y-63500500D01*
X128651243Y-63467246D01*
X128853412Y-63401557D01*
X129042816Y-63305051D01*
X129109903Y-63256310D01*
X129214786Y-63180109D01*
X129214788Y-63180106D01*
X129214792Y-63180104D01*
X129365104Y-63029792D01*
X129365106Y-63029788D01*
X129365109Y-63029786D01*
X129490048Y-62857820D01*
X129490047Y-62857820D01*
X129490051Y-62857816D01*
X129586557Y-62668412D01*
X129652246Y-62466243D01*
X129685500Y-62256287D01*
X129685500Y-62043713D01*
X129652246Y-61833757D01*
X129586557Y-61631588D01*
X129490051Y-61442184D01*
X129490049Y-61442181D01*
X129490048Y-61442179D01*
X129365109Y-61270213D01*
X129214786Y-61119890D01*
X129042820Y-60994951D01*
X128853414Y-60898444D01*
X128853413Y-60898443D01*
X128853412Y-60898443D01*
X128651243Y-60832754D01*
X128651241Y-60832753D01*
X128651240Y-60832753D01*
X128475690Y-60804949D01*
X128441287Y-60799500D01*
X128228713Y-60799500D01*
X128194310Y-60804949D01*
X128018760Y-60832753D01*
X127816585Y-60898444D01*
X127627179Y-60994951D01*
X127455213Y-61119890D01*
X127304890Y-61270213D01*
X127179951Y-61442179D01*
X127083444Y-61631585D01*
X127017753Y-61833760D01*
X126987333Y-62025826D01*
X126984500Y-62043713D01*
X124235500Y-62043713D01*
X124202246Y-61833757D01*
X124136557Y-61631588D01*
X124040051Y-61442184D01*
X124040049Y-61442181D01*
X124040048Y-61442179D01*
X123915109Y-61270213D01*
X123764786Y-61119890D01*
X123592820Y-60994951D01*
X123403414Y-60898444D01*
X123403413Y-60898443D01*
X123403412Y-60898443D01*
X123201243Y-60832754D01*
X123201241Y-60832753D01*
X123201240Y-60832753D01*
X123025690Y-60804949D01*
X122991287Y-60799500D01*
X122778713Y-60799500D01*
X122744310Y-60804949D01*
X122568760Y-60832753D01*
X122366585Y-60898444D01*
X122177179Y-60994951D01*
X122005213Y-61119890D01*
X121854890Y-61270213D01*
X121729951Y-61442179D01*
X121633444Y-61631585D01*
X121567753Y-61833760D01*
X121537333Y-62025826D01*
X121534500Y-62043713D01*
X109535207Y-62043713D01*
X109540000Y-62025826D01*
X109540000Y-61894174D01*
X109505925Y-61767007D01*
X109473012Y-61710000D01*
X110390000Y-61710000D01*
X110390000Y-61062172D01*
X110389999Y-61062155D01*
X110383598Y-61002627D01*
X110383596Y-61002619D01*
X110375620Y-60981233D01*
X110370636Y-60911541D01*
X110404121Y-60850218D01*
X110465445Y-60816734D01*
X110491802Y-60813900D01*
X113322534Y-60813900D01*
X113389573Y-60833585D01*
X113391425Y-60834798D01*
X113523114Y-60922790D01*
X113523127Y-60922797D01*
X113664206Y-60981233D01*
X113668803Y-60983137D01*
X113823453Y-61013899D01*
X113823456Y-61013900D01*
X113823458Y-61013900D01*
X113981144Y-61013900D01*
X113981145Y-61013899D01*
X114135797Y-60983137D01*
X114281479Y-60922794D01*
X114412589Y-60835189D01*
X114524089Y-60723689D01*
X114611694Y-60592579D01*
X114672037Y-60446897D01*
X114702800Y-60292242D01*
X114702800Y-60134558D01*
X114702800Y-60134555D01*
X114702799Y-60134553D01*
X114672038Y-59979910D01*
X114672037Y-59979903D01*
X114616028Y-59844684D01*
X114611697Y-59834227D01*
X114611690Y-59834214D01*
X114524089Y-59703111D01*
X114524086Y-59703107D01*
X114412592Y-59591613D01*
X114412588Y-59591610D01*
X114281485Y-59504009D01*
X114281472Y-59504002D01*
X114135801Y-59443664D01*
X114135789Y-59443661D01*
X113981145Y-59412900D01*
X113981142Y-59412900D01*
X113823458Y-59412900D01*
X113823455Y-59412900D01*
X113668810Y-59443661D01*
X113668798Y-59443664D01*
X113523127Y-59504002D01*
X113523114Y-59504009D01*
X113391425Y-59592002D01*
X113324747Y-59612880D01*
X113322534Y-59612900D01*
X108167540Y-59612900D01*
X108126619Y-59623864D01*
X108126619Y-59623865D01*
X108089351Y-59633851D01*
X108014814Y-59653823D01*
X108014809Y-59653826D01*
X107877890Y-59732875D01*
X107877882Y-59732881D01*
X107766078Y-59844686D01*
X106984522Y-60626241D01*
X106923199Y-60659726D01*
X106858523Y-60656491D01*
X106816245Y-60642754D01*
X106676272Y-60620584D01*
X106606287Y-60609500D01*
X106393713Y-60609500D01*
X106345042Y-60617208D01*
X106183760Y-60642753D01*
X105981585Y-60708444D01*
X105792179Y-60804951D01*
X105620213Y-60929890D01*
X105469890Y-61080213D01*
X105344949Y-61252182D01*
X105340484Y-61260946D01*
X105292509Y-61311742D01*
X105224688Y-61328536D01*
X105158553Y-61305998D01*
X105119516Y-61260946D01*
X105115050Y-61252182D01*
X104990109Y-61080213D01*
X104839786Y-60929890D01*
X104667820Y-60804951D01*
X104478414Y-60708444D01*
X104478413Y-60708443D01*
X104478412Y-60708443D01*
X104276243Y-60642754D01*
X104276241Y-60642753D01*
X104276240Y-60642753D01*
X104114957Y-60617208D01*
X104066287Y-60609500D01*
X103853713Y-60609500D01*
X103805042Y-60617208D01*
X103643760Y-60642753D01*
X103441585Y-60708444D01*
X103252179Y-60804951D01*
X103080213Y-60929890D01*
X102929890Y-61080213D01*
X102804951Y-61252179D01*
X102708444Y-61441585D01*
X102642753Y-61643760D01*
X102641291Y-61652993D01*
X102609500Y-61853713D01*
X100500500Y-61853713D01*
X100500500Y-54385258D01*
X103249500Y-54385258D01*
X103249500Y-54614741D01*
X103258415Y-54682451D01*
X103279452Y-54842238D01*
X103329933Y-55030639D01*
X103338842Y-55063887D01*
X103426650Y-55275876D01*
X103426657Y-55275890D01*
X103541392Y-55474617D01*
X103681081Y-55656661D01*
X103681089Y-55656670D01*
X103843330Y-55818911D01*
X103843338Y-55818918D01*
X103843339Y-55818919D01*
X103875501Y-55843598D01*
X104025382Y-55958607D01*
X104025385Y-55958608D01*
X104025388Y-55958611D01*
X104224112Y-56073344D01*
X104224117Y-56073346D01*
X104224123Y-56073349D01*
X104315480Y-56111190D01*
X104436113Y-56161158D01*
X104657762Y-56220548D01*
X104874312Y-56249057D01*
X104881460Y-56249999D01*
X104885266Y-56250500D01*
X104885273Y-56250500D01*
X105114727Y-56250500D01*
X105114734Y-56250500D01*
X105342238Y-56220548D01*
X105563887Y-56161158D01*
X105775888Y-56073344D01*
X105974612Y-55958611D01*
X106156661Y-55818919D01*
X106156665Y-55818914D01*
X106156670Y-55818911D01*
X106318911Y-55656670D01*
X106318914Y-55656665D01*
X106318919Y-55656661D01*
X106458611Y-55474612D01*
X106573344Y-55275888D01*
X106661158Y-55063887D01*
X106720548Y-54842238D01*
X106750500Y-54614734D01*
X106750500Y-54385266D01*
X106720548Y-54157762D01*
X106661158Y-53936113D01*
X106620215Y-53837271D01*
X106618078Y-53817394D01*
X106611093Y-53798665D01*
X106614420Y-53783368D01*
X106612747Y-53767803D01*
X106621695Y-53749925D01*
X106625945Y-53730392D01*
X106642631Y-53708101D01*
X106644022Y-53705323D01*
X106647061Y-53702172D01*
X106775717Y-53573516D01*
X106837039Y-53540034D01*
X106863397Y-53537200D01*
X108126000Y-53537200D01*
X108193039Y-53556885D01*
X108238794Y-53609689D01*
X108250000Y-53661200D01*
X108250000Y-54250000D01*
X109399999Y-54250000D01*
X109374979Y-54310402D01*
X109350000Y-54435981D01*
X109350000Y-54564019D01*
X109374979Y-54689598D01*
X109399999Y-54750000D01*
X108250001Y-54750000D01*
X108250001Y-55549986D01*
X108260494Y-55652697D01*
X108315641Y-55819119D01*
X108315643Y-55819124D01*
X108407684Y-55968345D01*
X108531654Y-56092315D01*
X108680875Y-56184356D01*
X108680880Y-56184358D01*
X108847302Y-56239505D01*
X108847309Y-56239506D01*
X108950019Y-56249999D01*
X109749999Y-56249999D01*
X109750000Y-56249998D01*
X109750000Y-55100001D01*
X109810402Y-55125021D01*
X109935981Y-55150000D01*
X110064019Y-55150000D01*
X110189598Y-55125021D01*
X110250000Y-55100001D01*
X110250000Y-56249999D01*
X111049972Y-56249999D01*
X111049986Y-56249998D01*
X111152697Y-56239505D01*
X111319119Y-56184358D01*
X111319124Y-56184356D01*
X111468345Y-56092315D01*
X111592315Y-55968345D01*
X111684356Y-55819124D01*
X111684358Y-55819119D01*
X111739505Y-55652697D01*
X111739506Y-55652690D01*
X111749999Y-55549986D01*
X111750000Y-55549973D01*
X111750000Y-54750000D01*
X110600001Y-54750000D01*
X110625021Y-54689598D01*
X110650000Y-54564019D01*
X110650000Y-54435981D01*
X110625021Y-54310402D01*
X110600001Y-54250000D01*
X111749999Y-54250000D01*
X111749999Y-53661200D01*
X111769684Y-53594161D01*
X111822488Y-53548406D01*
X111873999Y-53537200D01*
X112829903Y-53537200D01*
X112896942Y-53556885D01*
X112917584Y-53573519D01*
X114208439Y-54864374D01*
X114208449Y-54864385D01*
X114212779Y-54868715D01*
X114212780Y-54868716D01*
X114324584Y-54980520D01*
X114411395Y-55030639D01*
X114411394Y-55030639D01*
X114424824Y-55038392D01*
X114432498Y-55042823D01*
X114480715Y-55093389D01*
X114494500Y-55150211D01*
X114494500Y-55397869D01*
X114494501Y-55397876D01*
X114500908Y-55457483D01*
X114551202Y-55592328D01*
X114551206Y-55592335D01*
X114637452Y-55707544D01*
X114637455Y-55707547D01*
X114752664Y-55793793D01*
X114752671Y-55793797D01*
X114887517Y-55844091D01*
X114887516Y-55844091D01*
X114894444Y-55844835D01*
X114947127Y-55850500D01*
X116742872Y-55850499D01*
X116802483Y-55844091D01*
X116937331Y-55793796D01*
X117052546Y-55707546D01*
X117138796Y-55592331D01*
X117189091Y-55457483D01*
X117195500Y-55397873D01*
X117195499Y-54435981D01*
X117195499Y-53602155D01*
X134075000Y-53602155D01*
X134075000Y-54250000D01*
X134991988Y-54250000D01*
X134959075Y-54307007D01*
X134925000Y-54434174D01*
X134925000Y-54565826D01*
X134959075Y-54692993D01*
X134991988Y-54750000D01*
X134075000Y-54750000D01*
X134075000Y-55397844D01*
X134081401Y-55457372D01*
X134081403Y-55457379D01*
X134131645Y-55592086D01*
X134131649Y-55592093D01*
X134217809Y-55707187D01*
X134217812Y-55707190D01*
X134332906Y-55793350D01*
X134332913Y-55793354D01*
X134467620Y-55843596D01*
X134467627Y-55843598D01*
X134527155Y-55849999D01*
X134527172Y-55850000D01*
X135175000Y-55850000D01*
X135175000Y-54933012D01*
X135232007Y-54965925D01*
X135359174Y-55000000D01*
X135490826Y-55000000D01*
X135617993Y-54965925D01*
X135675000Y-54933012D01*
X135675000Y-55850000D01*
X136322828Y-55850000D01*
X136322844Y-55849999D01*
X136382372Y-55843598D01*
X136382379Y-55843596D01*
X136517086Y-55793354D01*
X136517093Y-55793350D01*
X136632187Y-55707190D01*
X136632190Y-55707187D01*
X136718350Y-55592093D01*
X136718354Y-55592086D01*
X136768596Y-55457379D01*
X136768598Y-55457372D01*
X136774999Y-55397844D01*
X136775000Y-55397827D01*
X136775000Y-54750000D01*
X135858012Y-54750000D01*
X135890925Y-54692993D01*
X135925000Y-54565826D01*
X135925000Y-54434174D01*
X135890925Y-54307007D01*
X135858012Y-54250000D01*
X136775000Y-54250000D01*
X136775000Y-53602172D01*
X136774999Y-53602155D01*
X136768598Y-53542627D01*
X136768596Y-53542620D01*
X136718354Y-53407913D01*
X136718350Y-53407906D01*
X136632190Y-53292812D01*
X136632187Y-53292809D01*
X136517093Y-53206649D01*
X136517086Y-53206645D01*
X136382379Y-53156403D01*
X136382372Y-53156401D01*
X136322844Y-53150000D01*
X135675000Y-53150000D01*
X135675000Y-54066988D01*
X135617993Y-54034075D01*
X135490826Y-54000000D01*
X135359174Y-54000000D01*
X135232007Y-54034075D01*
X135175000Y-54066988D01*
X135175000Y-53150000D01*
X134527155Y-53150000D01*
X134467627Y-53156401D01*
X134467620Y-53156403D01*
X134332913Y-53206645D01*
X134332906Y-53206649D01*
X134217812Y-53292809D01*
X134217809Y-53292812D01*
X134131649Y-53407906D01*
X134131645Y-53407913D01*
X134081403Y-53542620D01*
X134081401Y-53542627D01*
X134075000Y-53602155D01*
X117195499Y-53602155D01*
X117195499Y-53602129D01*
X117195498Y-53602123D01*
X117194642Y-53594161D01*
X117189091Y-53542517D01*
X117182702Y-53525388D01*
X117138797Y-53407671D01*
X117138793Y-53407664D01*
X117052547Y-53292455D01*
X117052544Y-53292452D01*
X116937335Y-53206206D01*
X116937328Y-53206202D01*
X116802482Y-53155908D01*
X116802483Y-53155908D01*
X116742883Y-53149501D01*
X116742881Y-53149500D01*
X116742873Y-53149500D01*
X116742864Y-53149500D01*
X114947129Y-53149500D01*
X114947123Y-53149501D01*
X114887516Y-53155908D01*
X114752671Y-53206202D01*
X114752664Y-53206206D01*
X114637455Y-53292452D01*
X114593722Y-53350871D01*
X114537787Y-53392742D01*
X114468095Y-53397725D01*
X114406775Y-53364240D01*
X113617590Y-52575055D01*
X113617588Y-52575052D01*
X113498717Y-52456181D01*
X113498716Y-52456180D01*
X113411904Y-52406060D01*
X113411904Y-52406059D01*
X113411900Y-52406058D01*
X113361785Y-52377123D01*
X113209057Y-52336199D01*
X113050943Y-52336199D01*
X113043347Y-52336199D01*
X113043331Y-52336200D01*
X106642357Y-52336200D01*
X106484243Y-52336200D01*
X106331515Y-52377123D01*
X106331514Y-52377123D01*
X106331512Y-52377124D01*
X106331509Y-52377125D01*
X106281396Y-52406059D01*
X106281395Y-52406060D01*
X106237989Y-52431120D01*
X106194585Y-52456179D01*
X106194582Y-52456181D01*
X106082778Y-52567986D01*
X105797860Y-52852903D01*
X105736537Y-52886388D01*
X105666845Y-52881404D01*
X105662743Y-52879789D01*
X105563887Y-52838842D01*
X105563885Y-52838841D01*
X105563884Y-52838841D01*
X105498035Y-52821197D01*
X105342238Y-52779452D01*
X105304215Y-52774446D01*
X105114741Y-52749500D01*
X105114734Y-52749500D01*
X104885266Y-52749500D01*
X104885258Y-52749500D01*
X104668715Y-52778009D01*
X104657762Y-52779452D01*
X104564076Y-52804554D01*
X104436112Y-52838842D01*
X104224123Y-52926650D01*
X104224109Y-52926657D01*
X104025382Y-53041392D01*
X103843338Y-53181081D01*
X103681081Y-53343338D01*
X103541392Y-53525382D01*
X103426657Y-53724109D01*
X103426650Y-53724123D01*
X103338842Y-53936112D01*
X103279453Y-54157759D01*
X103279451Y-54157770D01*
X103249500Y-54385258D01*
X100500500Y-54385258D01*
X100500500Y-50624500D01*
X100520185Y-50557461D01*
X100572989Y-50511706D01*
X100624500Y-50500500D01*
X139375500Y-50500500D01*
X139442539Y-50520185D01*
G37*
%TD.AperFunction*%
%TD*%
M02*
