%TF.GenerationSoftware,KiCad,Pcbnew,9.0.1*%
%TF.CreationDate,2025-04-26T09:10:26+01:00*%
%TF.ProjectId,PicoDCC,5069636f-4443-4432-9e6b-696361645f70,rev?*%
%TF.SameCoordinates,Original*%
%TF.FileFunction,Copper,L1,Top*%
%TF.FilePolarity,Positive*%
%FSLAX46Y46*%
G04 Gerber Fmt 4.6, Leading zero omitted, Abs format (unit mm)*
G04 Created by KiCad (PCBNEW 9.0.1) date 2025-04-26 09:10:26*
%MOMM*%
%LPD*%
G01*
G04 APERTURE LIST*
G04 Aperture macros list*
%AMRoundRect*
0 Rectangle with rounded corners*
0 $1 Rounding radius*
0 $2 $3 $4 $5 $6 $7 $8 $9 X,Y pos of 4 corners*
0 Add a 4 corners polygon primitive as box body*
4,1,4,$2,$3,$4,$5,$6,$7,$8,$9,$2,$3,0*
0 Add four circle primitives for the rounded corners*
1,1,$1+$1,$2,$3*
1,1,$1+$1,$4,$5*
1,1,$1+$1,$6,$7*
1,1,$1+$1,$8,$9*
0 Add four rect primitives between the rounded corners*
20,1,$1+$1,$2,$3,$4,$5,0*
20,1,$1+$1,$4,$5,$6,$7,0*
20,1,$1+$1,$6,$7,$8,$9,0*
20,1,$1+$1,$8,$9,$2,$3,0*%
%AMFreePoly0*
4,1,37,1.600000,0.796148,1.678414,0.796148,1.832228,0.765552,1.977117,0.705537,2.107515,0.618408,2.218408,0.507515,2.305537,0.377117,2.365552,0.232228,2.396148,0.078414,2.396148,-0.078414,2.365552,-0.232228,2.305537,-0.377117,2.218408,-0.507515,2.107515,-0.618408,1.977117,-0.705537,1.832228,-0.765552,1.678414,-0.796148,1.600000,-0.796148,1.600000,-0.800000,-0.600000,-0.800000,
-0.603843,-0.796157,-0.639018,-0.796157,-0.711114,-0.766294,-0.766294,-0.711114,-0.796157,-0.639018,-0.796157,-0.603843,-0.800000,-0.600000,-0.800000,0.600000,-0.796157,0.603843,-0.796157,0.639018,-0.766294,0.711114,-0.711114,0.766294,-0.639018,0.796157,-0.603843,0.796157,-0.600000,0.800000,1.600000,0.800000,1.600000,0.796148,1.600000,0.796148,$1*%
%AMFreePoly1*
4,1,37,0.800000,0.796148,0.878414,0.796148,1.032228,0.765552,1.177117,0.705537,1.307515,0.618408,1.418408,0.507515,1.505537,0.377117,1.565552,0.232228,1.596148,0.078414,1.596148,-0.078414,1.565552,-0.232228,1.505537,-0.377117,1.418408,-0.507515,1.307515,-0.618408,1.177117,-0.705537,1.032228,-0.765552,0.878414,-0.796148,0.800000,-0.796148,0.800000,-0.800000,-1.400000,-0.800000,
-1.403843,-0.796157,-1.439018,-0.796157,-1.511114,-0.766294,-1.566294,-0.711114,-1.596157,-0.639018,-1.596157,-0.603843,-1.600000,-0.600000,-1.600000,0.600000,-1.596157,0.603843,-1.596157,0.639018,-1.566294,0.711114,-1.511114,0.766294,-1.439018,0.796157,-1.403843,0.796157,-1.400000,0.800000,0.800000,0.800000,0.800000,0.796148,0.800000,0.796148,$1*%
%AMFreePoly2*
4,1,37,1.403843,0.796157,1.439018,0.796157,1.511114,0.766294,1.566294,0.711114,1.596157,0.639018,1.596157,0.603843,1.600000,0.600000,1.600000,-0.600000,1.596157,-0.603843,1.596157,-0.639018,1.566294,-0.711114,1.511114,-0.766294,1.439018,-0.796157,1.403843,-0.796157,1.400000,-0.800000,-0.800000,-0.800000,-0.800000,-0.796148,-0.878414,-0.796148,-1.032228,-0.765552,-1.177117,-0.705537,
-1.307515,-0.618408,-1.418408,-0.507515,-1.505537,-0.377117,-1.565552,-0.232228,-1.596148,-0.078414,-1.596148,0.078414,-1.565552,0.232228,-1.505537,0.377117,-1.418408,0.507515,-1.307515,0.618408,-1.177117,0.705537,-1.032228,0.765552,-0.878414,0.796148,-0.800000,0.796148,-0.800000,0.800000,1.400000,0.800000,1.403843,0.796157,1.403843,0.796157,$1*%
G04 Aperture macros list end*
%TA.AperFunction,SMDPad,CuDef*%
%ADD10RoundRect,0.800000X0.000010X-0.800000X0.000010X0.800000X-0.000010X0.800000X-0.000010X-0.800000X0*%
%TD*%
%TA.AperFunction,SMDPad,CuDef*%
%ADD11FreePoly0,270.000000*%
%TD*%
%TA.AperFunction,SMDPad,CuDef*%
%ADD12RoundRect,0.800000X-0.800000X-0.000010X0.800000X-0.000010X0.800000X0.000010X-0.800000X0.000010X0*%
%TD*%
%TA.AperFunction,SMDPad,CuDef*%
%ADD13FreePoly1,0.000000*%
%TD*%
%TA.AperFunction,SMDPad,CuDef*%
%ADD14FreePoly2,0.000000*%
%TD*%
%TA.AperFunction,ComponentPad*%
%ADD15R,1.700000X1.700000*%
%TD*%
%TA.AperFunction,ComponentPad*%
%ADD16C,1.700000*%
%TD*%
%TA.AperFunction,ComponentPad*%
%ADD17C,1.600000*%
%TD*%
%TA.AperFunction,ComponentPad*%
%ADD18O,1.600000X1.600000*%
%TD*%
%TA.AperFunction,ComponentPad*%
%ADD19O,1.600000X1.200000*%
%TD*%
%TA.AperFunction,ComponentPad*%
%ADD20C,1.200000*%
%TD*%
%TA.AperFunction,ComponentPad*%
%ADD21RoundRect,0.250000X1.000000X1.000000X-1.000000X1.000000X-1.000000X-1.000000X1.000000X-1.000000X0*%
%TD*%
%TA.AperFunction,ComponentPad*%
%ADD22C,2.500000*%
%TD*%
%TA.AperFunction,ComponentPad*%
%ADD23R,1.800000X1.800000*%
%TD*%
%TA.AperFunction,ComponentPad*%
%ADD24C,1.800000*%
%TD*%
%TA.AperFunction,ComponentPad*%
%ADD25R,1.200000X1.200000*%
%TD*%
%TA.AperFunction,ViaPad*%
%ADD26C,0.600000*%
%TD*%
%TA.AperFunction,Conductor*%
%ADD27C,0.200000*%
%TD*%
G04 APERTURE END LIST*
D10*
%TO.P,A1,D3,SWDIO*%
%TO.N,Net-(A1-SWDIO)*%
X128150000Y-110850000D03*
D11*
%TO.P,A1,D2,GND*%
%TO.N,GND*%
X125610000Y-110050000D03*
D10*
%TO.P,A1,D1,SWCLK*%
%TO.N,Net-(A1-SWCLK)*%
X123070000Y-110850000D03*
D12*
%TO.P,A1,40,VBUS*%
%TO.N,unconnected-(A1-VBUS-Pad40)*%
X135300000Y-62020000D03*
%TO.P,A1,39,VSYS*%
%TO.N,Net-(A1-VSYS)*%
X135300000Y-64560000D03*
D13*
%TO.P,A1,38,GND*%
%TO.N,GND*%
X135300000Y-67100000D03*
D12*
%TO.P,A1,37,3V3_EN*%
%TO.N,unconnected-(A1-3V3_EN-Pad37)*%
X135300000Y-69640000D03*
%TO.P,A1,36,3V3*%
%TO.N,unconnected-(A1-3V3-Pad36)*%
X135300000Y-72180000D03*
%TO.P,A1,35,ADC_VREF*%
%TO.N,unconnected-(A1-ADC_VREF-Pad35)*%
X135300000Y-74720000D03*
%TO.P,A1,34,GPIO28_ADC2*%
%TO.N,unconnected-(A1-GPIO28_ADC2-Pad34)*%
X135300000Y-77260000D03*
D13*
%TO.P,A1,33,AGND*%
%TO.N,unconnected-(A1-AGND-Pad33)*%
X135300000Y-79800000D03*
D12*
%TO.P,A1,32,GPIO27_ADC1*%
%TO.N,Net-(A1-GPIO27_ADC1)*%
X135300000Y-82340000D03*
%TO.P,A1,31,GPIO26_ADC0*%
%TO.N,Net-(A1-GPIO26_ADC0)*%
X135300000Y-84880000D03*
%TO.P,A1,30,RUN*%
%TO.N,unconnected-(A1-RUN-Pad30)*%
X135300000Y-87420000D03*
%TO.P,A1,29,GPIO22*%
%TO.N,unconnected-(A1-GPIO22-Pad29)*%
X135300000Y-89960000D03*
D13*
%TO.P,A1,28,GND*%
%TO.N,GND*%
X135300000Y-92500000D03*
D12*
%TO.P,A1,27,GPIO21*%
%TO.N,Net-(A1-GPIO21)*%
X135300000Y-95040000D03*
%TO.P,A1,26,GPIO20*%
%TO.N,Net-(A1-GPIO20)*%
X135300000Y-97580000D03*
%TO.P,A1,25,GPIO19*%
%TO.N,Net-(A1-GPIO19)*%
X135300000Y-100120000D03*
%TO.P,A1,24,GPIO18*%
%TO.N,Net-(A1-GPIO18)*%
X135300000Y-102660000D03*
D13*
%TO.P,A1,23,GND*%
%TO.N,GND*%
X135300000Y-105200000D03*
D12*
%TO.P,A1,22,GPIO17*%
%TO.N,Net-(A1-GPIO17)*%
X135300000Y-107740000D03*
%TO.P,A1,21,GPIO16*%
%TO.N,Net-(A1-GPIO16)*%
X135300000Y-110280000D03*
%TO.P,A1,20,GPIO15*%
%TO.N,Net-(A1-GPIO15)*%
X115920000Y-110280000D03*
%TO.P,A1,19,GPIO14*%
%TO.N,Net-(A1-GPIO14)*%
X115920000Y-107740000D03*
D14*
%TO.P,A1,18,GND*%
%TO.N,GND*%
X115920000Y-105200000D03*
D12*
%TO.P,A1,17,GPIO13*%
%TO.N,Net-(A1-GPIO13)*%
X115920000Y-102660000D03*
%TO.P,A1,16,GPIO12*%
%TO.N,Net-(A1-GPIO12)*%
X115920000Y-100120000D03*
%TO.P,A1,15,GPIO11*%
%TO.N,Net-(A1-GPIO11)*%
X115920000Y-97580000D03*
%TO.P,A1,14,GPIO10*%
%TO.N,Net-(A1-GPIO10)*%
X115920000Y-95040000D03*
D14*
%TO.P,A1,13,GND*%
%TO.N,GND*%
X115920000Y-92500000D03*
D12*
%TO.P,A1,12,GPIO9*%
%TO.N,Net-(A1-GPIO9)*%
X115920000Y-89960000D03*
%TO.P,A1,11,GPIO8*%
%TO.N,Net-(A1-GPIO8)*%
X115920000Y-87420000D03*
%TO.P,A1,10,GPIO7*%
%TO.N,Net-(A1-GPIO7)*%
X115920000Y-84880000D03*
%TO.P,A1,9,GPIO6*%
%TO.N,Net-(A1-GPIO6)*%
X115920000Y-82340000D03*
D14*
%TO.P,A1,8,GND*%
%TO.N,GND*%
X115920000Y-79800000D03*
D12*
%TO.P,A1,7,GPIO5*%
%TO.N,Net-(A1-GPIO5)*%
X115920000Y-77260000D03*
%TO.P,A1,6,GPIO4*%
%TO.N,Net-(A1-GPIO4)*%
X115920000Y-74720000D03*
%TO.P,A1,5,GPIO3*%
%TO.N,Net-(A1-GPIO3)*%
X115920000Y-72180000D03*
%TO.P,A1,4,GPIO2*%
%TO.N,Net-(A1-GPIO2)*%
X115920000Y-69640000D03*
D14*
%TO.P,A1,3,GND*%
%TO.N,GND*%
X115920000Y-67100000D03*
D12*
%TO.P,A1,2,GPIO1*%
%TO.N,Net-(A1-GPIO1)*%
X115920000Y-64560000D03*
D13*
%TO.P,A1,1,GPIO0*%
%TO.N,Net-(A1-GPIO0)*%
X115920000Y-62020000D03*
%TD*%
D15*
%TO.P,U2,1,RPWM*%
%TO.N,Net-(A1-GPIO20)*%
X127880000Y-146500000D03*
D16*
%TO.P,U2,2,LPWM*%
%TO.N,Net-(Q2-C)*%
X127880000Y-143960000D03*
%TO.P,U2,3,R_EN*%
%TO.N,Net-(A1-GPIO21)*%
X130420000Y-146500000D03*
%TO.P,U2,4,L_EN*%
X130420000Y-143960000D03*
%TO.P,U2,5,R_IS*%
%TO.N,Net-(A1-GPIO27_ADC1)*%
X132960000Y-146500000D03*
%TO.P,U2,6,L_IS*%
X132960000Y-143960000D03*
%TO.P,U2,7,VCC*%
%TO.N,Net-(A1-VSYS)*%
X135500000Y-146500000D03*
%TO.P,U2,8,GND*%
%TO.N,GND*%
X135500000Y-143960000D03*
%TD*%
D15*
%TO.P,U1,1,RPWM*%
%TO.N,Net-(A1-GPIO17)*%
X106880000Y-146500000D03*
D16*
%TO.P,U1,2,LPWM*%
%TO.N,Net-(Q1-C)*%
X106880000Y-143960000D03*
%TO.P,U1,3,R_EN*%
%TO.N,Net-(A1-GPIO18)*%
X109420000Y-146500000D03*
%TO.P,U1,4,L_EN*%
X109420000Y-143960000D03*
%TO.P,U1,5,R_IS*%
%TO.N,Net-(A1-GPIO26_ADC0)*%
X111960000Y-146500000D03*
%TO.P,U1,6,L_IS*%
X111960000Y-143960000D03*
%TO.P,U1,7,VCC*%
%TO.N,Net-(A1-VSYS)*%
X114500000Y-146500000D03*
%TO.P,U1,8,GND*%
%TO.N,GND*%
X114500000Y-143960000D03*
%TD*%
D15*
%TO.P,TP8,1,1*%
%TO.N,GND*%
X135425000Y-54500000D03*
%TD*%
%TO.P,TP7,1,1*%
%TO.N,Net-(A1-VSYS)*%
X115845000Y-54500000D03*
%TD*%
%TO.P,TP6,1,1*%
%TO.N,Net-(A1-GPIO27_ADC1)*%
X135000000Y-133000000D03*
%TD*%
%TO.P,TP5,1,1*%
%TO.N,Net-(A1-GPIO21)*%
X135000000Y-128000000D03*
%TD*%
%TO.P,TP4,1,1*%
%TO.N,Net-(A1-GPIO20)*%
X119000000Y-117000000D03*
%TD*%
%TO.P,TP3,1,1*%
%TO.N,Net-(A1-GPIO26_ADC0)*%
X102000000Y-144000000D03*
%TD*%
%TO.P,TP2,1,1*%
%TO.N,Net-(A1-GPIO18)*%
X138000000Y-116000000D03*
%TD*%
%TO.P,TP1,1,1*%
%TO.N,Net-(A1-GPIO17)*%
X102000000Y-121000000D03*
%TD*%
D17*
%TO.P,R8,1*%
%TO.N,GND*%
X121000000Y-137000000D03*
D18*
%TO.P,R8,2*%
%TO.N,Net-(A1-GPIO27_ADC1)*%
X131160000Y-137000000D03*
%TD*%
D17*
%TO.P,R7,1*%
%TO.N,GND*%
X104000000Y-131000000D03*
D18*
%TO.P,R7,2*%
%TO.N,Net-(A1-GPIO26_ADC0)*%
X114160000Y-131000000D03*
%TD*%
D17*
%TO.P,R6,1*%
%TO.N,GND*%
X121000000Y-127000000D03*
D18*
%TO.P,R6,2*%
%TO.N,Net-(D2-A)*%
X131160000Y-127000000D03*
%TD*%
D17*
%TO.P,R5,1*%
%TO.N,GND*%
X121000000Y-132000000D03*
D18*
%TO.P,R5,2*%
%TO.N,Net-(D1-A)*%
X131160000Y-132000000D03*
%TD*%
D17*
%TO.P,R4,1*%
%TO.N,Net-(A1-VSYS)*%
X106000000Y-121000000D03*
D18*
%TO.P,R4,2*%
%TO.N,Net-(Q2-C)*%
X116160000Y-121000000D03*
%TD*%
D17*
%TO.P,R3,1*%
%TO.N,Net-(A1-GPIO20)*%
X119000000Y-122000000D03*
D18*
%TO.P,R3,2*%
%TO.N,Net-(Q2-B)*%
X129160000Y-122000000D03*
%TD*%
D17*
%TO.P,R2,1*%
%TO.N,Net-(A1-VSYS)*%
X104000000Y-126000000D03*
D18*
%TO.P,R2,2*%
%TO.N,Net-(Q1-C)*%
X114160000Y-126000000D03*
%TD*%
D17*
%TO.P,R1,1*%
%TO.N,Net-(A1-GPIO17)*%
X101920000Y-116000000D03*
D18*
%TO.P,R1,2*%
%TO.N,Net-(Q1-B)*%
X112080000Y-116000000D03*
%TD*%
D19*
%TO.P,Q2,1,E*%
%TO.N,GND*%
X120000000Y-144000000D03*
D20*
%TO.P,Q2,2,B*%
%TO.N,Net-(Q2-B)*%
X121270000Y-145270000D03*
%TO.P,Q2,3,C*%
%TO.N,Net-(Q2-C)*%
X122540000Y-144000000D03*
%TD*%
D19*
%TO.P,Q1,1,E*%
%TO.N,GND*%
X105000000Y-138000000D03*
D20*
%TO.P,Q1,2,B*%
%TO.N,Net-(Q1-B)*%
X106270000Y-139270000D03*
%TO.P,Q1,3,C*%
%TO.N,Net-(Q1-C)*%
X107540000Y-138000000D03*
%TD*%
D21*
%TO.P,J4,1,Pin_1*%
%TO.N,GND*%
X110000000Y-54500000D03*
D22*
%TO.P,J4,2,Pin_2*%
%TO.N,Net-(A1-VSYS)*%
X105000000Y-54500000D03*
%TD*%
D15*
%TO.P,J2,1,Pin_1*%
%TO.N,GND*%
X109040000Y-61960000D03*
D16*
%TO.P,J2,2,Pin_2*%
%TO.N,Net-(A1-VSYS)*%
X109040000Y-64500000D03*
%TO.P,J2,3,Pin_3*%
%TO.N,Net-(A1-GPIO0)*%
X106500000Y-61960000D03*
%TO.P,J2,4,Pin_4*%
%TO.N,Net-(A1-GPIO1)*%
X106500000Y-64500000D03*
%TO.P,J2,5,Pin_5*%
%TO.N,Net-(A1-SWDIO)*%
X103960000Y-61960000D03*
%TO.P,J2,6,Pin_6*%
%TO.N,Net-(A1-SWCLK)*%
X103960000Y-64500000D03*
%TD*%
D15*
%TO.P,J1,1,Pin_1*%
%TO.N,Net-(A1-GPIO0)*%
X103000000Y-70720000D03*
D16*
%TO.P,J1,2,Pin_2*%
%TO.N,Net-(A1-GPIO1)*%
X103000000Y-73260000D03*
%TO.P,J1,3,Pin_3*%
%TO.N,Net-(A1-GPIO2)*%
X103000000Y-75800000D03*
%TO.P,J1,4,Pin_4*%
%TO.N,Net-(A1-GPIO3)*%
X103000000Y-78340000D03*
%TO.P,J1,5,Pin_5*%
%TO.N,Net-(A1-GPIO4)*%
X103000000Y-80880000D03*
%TO.P,J1,6,Pin_6*%
%TO.N,Net-(A1-GPIO5)*%
X103000000Y-83420000D03*
%TO.P,J1,7,Pin_7*%
%TO.N,Net-(A1-GPIO6)*%
X103000000Y-85960000D03*
%TO.P,J1,8,Pin_8*%
%TO.N,Net-(A1-GPIO7)*%
X103000000Y-88500000D03*
%TO.P,J1,9,Pin_9*%
%TO.N,Net-(A1-GPIO8)*%
X103000000Y-91040000D03*
%TO.P,J1,10,Pin_10*%
%TO.N,Net-(A1-GPIO9)*%
X103000000Y-93580000D03*
%TO.P,J1,11,Pin_11*%
%TO.N,Net-(A1-GPIO10)*%
X103000000Y-96120000D03*
%TO.P,J1,12,Pin_12*%
%TO.N,Net-(A1-GPIO11)*%
X103000000Y-98660000D03*
%TO.P,J1,13,Pin_13*%
%TO.N,Net-(A1-GPIO12)*%
X103000000Y-101200000D03*
%TO.P,J1,14,Pin_14*%
%TO.N,Net-(A1-GPIO13)*%
X103000000Y-103740000D03*
%TO.P,J1,15,Pin_15*%
%TO.N,Net-(A1-GPIO14)*%
X103000000Y-106280000D03*
%TO.P,J1,16,Pin_16*%
%TO.N,Net-(A1-GPIO15)*%
X103000000Y-108820000D03*
%TD*%
D23*
%TO.P,D2,1,K*%
%TO.N,Net-(A1-GPIO19)*%
X131000000Y-117000000D03*
D24*
%TO.P,D2,2,A*%
%TO.N,Net-(D2-A)*%
X133540000Y-117000000D03*
%TD*%
D23*
%TO.P,D1,1,K*%
%TO.N,Net-(A1-GPIO16)*%
X132000000Y-122000000D03*
D24*
%TO.P,D1,2,A*%
%TO.N,Net-(D1-A)*%
X134540000Y-122000000D03*
%TD*%
D25*
%TO.P,C2,1*%
%TO.N,Net-(A1-GPIO27_ADC1)*%
X134000000Y-138000000D03*
D20*
%TO.P,C2,2*%
%TO.N,GND*%
X136000000Y-138000000D03*
%TD*%
D25*
%TO.P,C1,1*%
%TO.N,Net-(A1-GPIO26_ADC0)*%
X115000000Y-136000000D03*
D20*
%TO.P,C1,2*%
%TO.N,GND*%
X117000000Y-136000000D03*
%TD*%
D26*
%TO.N,Net-(A1-VSYS)*%
X109040000Y-71500000D03*
X109040000Y-112000000D03*
%TO.N,Net-(A1-SWCLK)*%
X121080300Y-69841500D03*
%TO.N,Net-(A1-GPIO21)*%
X136803400Y-96413200D03*
X138651200Y-97500000D03*
%TO.N,Net-(A1-GPIO1)*%
X113829100Y-63063100D03*
%TO.N,Net-(A1-GPIO0)*%
X113902300Y-60213400D03*
%TO.N,Net-(A1-GPIO18)*%
X136783000Y-136514000D03*
X133114600Y-114769300D03*
%TO.N,Net-(A1-GPIO17)*%
X132641250Y-107641250D03*
%TO.N,Net-(A1-GPIO26_ADC0)*%
X130014900Y-119221900D03*
%TO.N,Net-(A1-VSYS)*%
X132591800Y-63489800D03*
X109950300Y-127996700D03*
%TO.N,Net-(A1-GPIO20)*%
X129605400Y-123321900D03*
X130399200Y-115417400D03*
%TO.N,Net-(A1-SWDIO)*%
X127179300Y-69054700D03*
%TD*%
D27*
%TO.N,Net-(Q1-B)*%
X112080000Y-118485900D02*
X112080000Y-116000000D01*
X106270000Y-124295900D02*
X112080000Y-118485900D01*
X106270000Y-139270000D02*
X106270000Y-124295900D01*
%TO.N,Net-(A1-GPIO17)*%
X102000000Y-116080000D02*
X101920000Y-116000000D01*
X102000000Y-121000000D02*
X102000000Y-116080000D01*
%TO.N,Net-(A1-GPIO20)*%
X119000000Y-122000000D02*
X119000000Y-117000000D01*
%TO.N,Net-(A1-GPIO17)*%
X132740000Y-107740000D02*
X132641250Y-107641250D01*
X135300000Y-107740000D02*
X132740000Y-107740000D01*
%TO.N,Net-(A1-GPIO18)*%
X135057800Y-102660000D02*
X132000000Y-105717800D01*
X132000000Y-105717800D02*
X132000000Y-113654700D01*
X132000000Y-113654700D02*
X133114600Y-114769300D01*
X135300000Y-102660000D02*
X135057800Y-102660000D01*
%TO.N,Net-(A1-GPIO4)*%
X110140000Y-80500000D02*
X115920000Y-74720000D01*
X103380000Y-80500000D02*
X110140000Y-80500000D01*
X103000000Y-80880000D02*
X103380000Y-80500000D01*
%TO.N,Net-(A1-GPIO5)*%
X104420000Y-82000000D02*
X111180000Y-82000000D01*
X103000000Y-83420000D02*
X104420000Y-82000000D01*
X111180000Y-82000000D02*
X115920000Y-77260000D01*
%TO.N,Net-(A1-GPIO6)*%
X115260000Y-83000000D02*
X115920000Y-82340000D01*
X103000000Y-85960000D02*
X105960000Y-83000000D01*
X105960000Y-83000000D02*
X115260000Y-83000000D01*
%TO.N,Net-(A1-GPIO8)*%
X115840000Y-87500000D02*
X115920000Y-87420000D01*
X106540000Y-87500000D02*
X115840000Y-87500000D01*
X103000000Y-91040000D02*
X106540000Y-87500000D01*
%TO.N,Net-(A1-GPIO7)*%
X115800000Y-85000000D02*
X115920000Y-84880000D01*
X106500000Y-85000000D02*
X115800000Y-85000000D01*
X103000000Y-88500000D02*
X106500000Y-85000000D01*
%TO.N,Net-(A1-GPIO2)*%
X109760000Y-75800000D02*
X115920000Y-69640000D01*
X103000000Y-75800000D02*
X109760000Y-75800000D01*
%TO.N,Net-(A1-GPIO3)*%
X109760000Y-78340000D02*
X115920000Y-72180000D01*
X103000000Y-78340000D02*
X109760000Y-78340000D01*
%TO.N,Net-(A1-GPIO9)*%
X106620000Y-89960000D02*
X115920000Y-89960000D01*
X103000000Y-93580000D02*
X106620000Y-89960000D01*
%TO.N,Net-(A1-GPIO10)*%
X104080000Y-95040000D02*
X115920000Y-95040000D01*
X103000000Y-96120000D02*
X104080000Y-95040000D01*
%TO.N,Net-(A1-GPIO11)*%
X104080000Y-97580000D02*
X115920000Y-97580000D01*
X103000000Y-98660000D02*
X104080000Y-97580000D01*
%TO.N,Net-(A1-GPIO12)*%
X104080000Y-100120000D02*
X115920000Y-100120000D01*
X103000000Y-101200000D02*
X104080000Y-100120000D01*
%TO.N,Net-(A1-GPIO13)*%
X104080000Y-102660000D02*
X115920000Y-102660000D01*
X103000000Y-103740000D02*
X104080000Y-102660000D01*
%TO.N,Net-(A1-GPIO14)*%
X104460000Y-107740000D02*
X115920000Y-107740000D01*
X103000000Y-106280000D02*
X104460000Y-107740000D01*
%TO.N,Net-(A1-GPIO15)*%
X104460000Y-110280000D02*
X115920000Y-110280000D01*
X103000000Y-108820000D02*
X104460000Y-110280000D01*
%TO.N,Net-(A1-VSYS)*%
X109040000Y-112000000D02*
X109040000Y-117960000D01*
%TO.N,Net-(A1-GPIO21)*%
X138651200Y-113222100D02*
X138651200Y-97500000D01*
X135948800Y-127051200D02*
X135948800Y-115924500D01*
X135000000Y-128000000D02*
X135948800Y-127051200D01*
X135948800Y-115924500D02*
X138651200Y-113222100D01*
%TO.N,Net-(A1-SWCLK)*%
X121080300Y-108060300D02*
X121080300Y-69841500D01*
X123070000Y-110050000D02*
X121080300Y-108060300D01*
%TO.N,Net-(D2-A)*%
X131160000Y-127000000D02*
X131160000Y-125898300D01*
X130754300Y-119785700D02*
X133540000Y-117000000D01*
X130754300Y-125492600D02*
X130754300Y-119785700D01*
X131160000Y-125898300D02*
X130754300Y-125492600D01*
%TO.N,Net-(D1-A)*%
X134540000Y-125510000D02*
X134540000Y-122000000D01*
X131160000Y-128890000D02*
X134540000Y-125510000D01*
X131160000Y-132000000D02*
X131160000Y-128890000D01*
%TO.N,Net-(A1-GPIO16)*%
X135300000Y-117498300D02*
X135300000Y-110280000D01*
X132000000Y-120798300D02*
X135300000Y-117498300D01*
X132000000Y-122000000D02*
X132000000Y-120798300D01*
%TO.N,Net-(A1-GPIO21)*%
X130420000Y-144558300D02*
X130420000Y-146500000D01*
X130420000Y-143960000D02*
X130420000Y-144517000D01*
X130420000Y-144517000D02*
X130420000Y-144558300D01*
X135000000Y-128575800D02*
X135000000Y-129151700D01*
X132558300Y-141821700D02*
X130420000Y-143960000D01*
X132558300Y-131593400D02*
X132558300Y-141821700D01*
X135000000Y-129151700D02*
X132558300Y-131593400D01*
X135000000Y-128575800D02*
X135000000Y-128000000D01*
X135430200Y-95040000D02*
X136803400Y-96413200D01*
X135300000Y-95040000D02*
X135430200Y-95040000D01*
%TO.N,Net-(Q2-B)*%
X121270000Y-142164300D02*
X121270000Y-145270000D01*
X128748300Y-134686000D02*
X121270000Y-142164300D01*
X128748300Y-122411700D02*
X128748300Y-134686000D01*
X129160000Y-122000000D02*
X128748300Y-122411700D01*
%TO.N,Net-(Q2-C)*%
X122540000Y-145382000D02*
X122540000Y-144000000D01*
X121737900Y-146184100D02*
X122540000Y-145382000D01*
X120700600Y-146184100D02*
X121737900Y-146184100D01*
X118501300Y-143984800D02*
X120700600Y-146184100D01*
X118501300Y-124443000D02*
X118501300Y-143984800D01*
X116160000Y-122101700D02*
X118501300Y-124443000D01*
X116160000Y-121000000D02*
X116160000Y-122101700D01*
%TO.N,Net-(Q1-C)*%
X107540000Y-143300000D02*
X106880000Y-143960000D01*
X107540000Y-138000000D02*
X107540000Y-143300000D01*
%TO.N,Net-(A1-GPIO1)*%
X106500000Y-69760000D02*
X106500000Y-64500000D01*
X103000000Y-73260000D02*
X106500000Y-69760000D01*
X115326000Y-64560000D02*
X115920000Y-64560000D01*
X113829100Y-63063100D02*
X115326000Y-64560000D01*
%TO.N,Net-(A1-GPIO0)*%
X115708900Y-62020000D02*
X113902300Y-60213400D01*
X115920000Y-62020000D02*
X115708900Y-62020000D01*
X105230000Y-67338300D02*
X103000000Y-69568300D01*
X105230000Y-63230000D02*
X105230000Y-67338300D01*
X106500000Y-61960000D02*
X105230000Y-63230000D01*
X103000000Y-70720000D02*
X103000000Y-69568300D01*
%TO.N,Net-(A1-GPIO18)*%
X109420000Y-143960000D02*
X109420000Y-146500000D01*
X138000000Y-135297000D02*
X138000000Y-116000000D01*
X136783000Y-136514000D02*
X138000000Y-135297000D01*
%TO.N,Net-(A1-GPIO27_ADC1)*%
X135000000Y-133000000D02*
X135000000Y-134151700D01*
X132960000Y-143960000D02*
X132960000Y-146500000D01*
X134000000Y-135151700D02*
X134000000Y-138000000D01*
X135000000Y-134151700D02*
X134000000Y-135151700D01*
X134000000Y-142920000D02*
X132960000Y-143960000D01*
X134000000Y-138000000D02*
X134000000Y-142920000D01*
X131160000Y-137000000D02*
X131160000Y-135898300D01*
X130050800Y-134789100D02*
X131160000Y-135898300D01*
X130050800Y-123727400D02*
X130050800Y-134789100D01*
X130307200Y-123471000D02*
X130050800Y-123727400D01*
X130307200Y-120365000D02*
X130307200Y-123471000D01*
X129395800Y-119453600D02*
X130307200Y-120365000D01*
X129395800Y-88244200D02*
X129395800Y-119453600D01*
X135300000Y-82340000D02*
X129395800Y-88244200D01*
%TO.N,Net-(A1-GPIO17)*%
X106880000Y-146500000D02*
X106880000Y-145348300D01*
X106592100Y-145348300D02*
X106880000Y-145348300D01*
X102000000Y-140756200D02*
X106592100Y-145348300D01*
X102000000Y-121000000D02*
X102000000Y-140756200D01*
%TO.N,Net-(A1-GPIO26_ADC0)*%
X114160000Y-131000000D02*
X114160000Y-131550800D01*
X114160000Y-131550800D02*
X114160000Y-132101700D01*
X115000000Y-132941700D02*
X114160000Y-132101700D01*
X111960000Y-146500000D02*
X111960000Y-143960000D01*
X115000000Y-136000000D02*
X115000000Y-132941700D01*
X111960000Y-139941700D02*
X115000000Y-136901700D01*
X111960000Y-143960000D02*
X111960000Y-139941700D01*
X115000000Y-136000000D02*
X115000000Y-136901700D01*
X129797500Y-90382500D02*
X135300000Y-84880000D01*
X129797500Y-119004500D02*
X129797500Y-90382500D01*
X130014900Y-119221900D02*
X129797500Y-119004500D01*
%TO.N,Net-(A1-GPIO19)*%
X131000000Y-117000000D02*
X131000000Y-115798300D01*
X131401700Y-115396600D02*
X131000000Y-115798300D01*
X131401700Y-104018300D02*
X131401700Y-115396600D01*
X135300000Y-100120000D02*
X131401700Y-104018300D01*
%TO.N,Net-(A1-VSYS)*%
X107770000Y-63230000D02*
X109040000Y-64500000D01*
X107770000Y-57270000D02*
X107770000Y-63230000D01*
X105000000Y-54500000D02*
X107770000Y-57270000D01*
X109040000Y-117960000D02*
X106000000Y-121000000D01*
X109040000Y-64500000D02*
X109040000Y-71500000D01*
X104000000Y-123000000D02*
X104000000Y-126000000D01*
X106000000Y-121000000D02*
X104000000Y-123000000D01*
X134229800Y-63489800D02*
X135300000Y-64560000D01*
X132591800Y-63489800D02*
X134229800Y-63489800D01*
X110786200Y-146967000D02*
X110786200Y-128832600D01*
X111478100Y-147658900D02*
X110786200Y-146967000D01*
X113341100Y-147658900D02*
X111478100Y-147658900D01*
X114500000Y-146500000D02*
X113341100Y-147658900D01*
X110786200Y-128832600D02*
X109950300Y-127996700D01*
%TO.N,Net-(A1-GPIO20)*%
X128167900Y-145348300D02*
X127880000Y-145348300D01*
X129150000Y-144366200D02*
X128167900Y-145348300D01*
X129150000Y-123777300D02*
X129150000Y-144366200D01*
X129605400Y-123321900D02*
X129150000Y-123777300D01*
X127880000Y-146500000D02*
X127880000Y-145348300D01*
X130399200Y-102480800D02*
X135300000Y-97580000D01*
X130399200Y-115417400D02*
X130399200Y-102480800D01*
%TO.N,Net-(A1-SWDIO)*%
X128150000Y-110050000D02*
X128150000Y-70025400D01*
X128150000Y-70025400D02*
X127179300Y-69054700D01*
%TO.N,GND*%
X121000000Y-132000000D02*
X121000000Y-127000000D01*
X117835400Y-92500000D02*
X115920000Y-92500000D01*
X105000000Y-132000000D02*
X104000000Y-131000000D01*
X105000000Y-138000000D02*
X105000000Y-132000000D01*
X136000000Y-143460000D02*
X135500000Y-143960000D01*
X136000000Y-138000000D02*
X136000000Y-143460000D01*
X113227400Y-64407400D02*
X115920000Y-67100000D01*
X113227400Y-57727400D02*
X113227400Y-64407400D01*
X110000000Y-54500000D02*
X113227400Y-57727400D01*
X110000000Y-59848300D02*
X110000000Y-54500000D01*
X109040000Y-60808300D02*
X110000000Y-59848300D01*
X109040000Y-61960000D02*
X109040000Y-60808300D01*
X125610000Y-122390000D02*
X121000000Y-127000000D01*
X125610000Y-110050000D02*
X125610000Y-122390000D01*
X135425000Y-54500000D02*
X135425000Y-55651700D01*
X115920000Y-79800000D02*
X117835400Y-79800000D01*
X117835400Y-92500000D02*
X117835400Y-79800000D01*
X117835400Y-69015400D02*
X115920000Y-67100000D01*
X117835400Y-79800000D02*
X117835400Y-69015400D01*
X120000000Y-138000000D02*
X121000000Y-137000000D01*
X120000000Y-144000000D02*
X120000000Y-138000000D01*
X121000000Y-137000000D02*
X121000000Y-132000000D01*
X118037100Y-92701700D02*
X118037100Y-105200000D01*
X117835400Y-92500000D02*
X118037100Y-92701700D01*
X115920000Y-105200000D02*
X118037100Y-105200000D01*
X121180400Y-126819600D02*
X121000000Y-127000000D01*
X121180400Y-114681800D02*
X121180400Y-126819600D01*
X118037100Y-111538500D02*
X121180400Y-114681800D01*
X118037100Y-105200000D02*
X118037100Y-111538500D01*
X137231300Y-65168700D02*
X135300000Y-67100000D01*
X137231300Y-57458000D02*
X137231300Y-65168700D01*
X135425000Y-55651700D02*
X137231300Y-57458000D01*
X137212300Y-69012300D02*
X135300000Y-67100000D01*
X137212300Y-92500000D02*
X137212300Y-69012300D01*
X135300000Y-92500000D02*
X137212300Y-92500000D01*
X137405100Y-92692800D02*
X137212300Y-92500000D01*
X137405100Y-103094900D02*
X137405100Y-92692800D01*
X135300000Y-105200000D02*
X137405100Y-103094900D01*
%TD*%
%TA.AperFunction,Conductor*%
%TO.N,GND*%
G36*
X139442539Y-50520185D02*
G01*
X139488294Y-50572989D01*
X139499500Y-50624500D01*
X139499500Y-96919935D01*
X139479815Y-96986974D01*
X139427011Y-97032729D01*
X139357853Y-97042673D01*
X139294297Y-97013648D01*
X139277131Y-96994190D01*
X139276853Y-96994419D01*
X139272986Y-96989707D01*
X139161492Y-96878213D01*
X139161488Y-96878210D01*
X139030385Y-96790609D01*
X139030372Y-96790602D01*
X138884701Y-96730264D01*
X138884689Y-96730261D01*
X138730045Y-96699500D01*
X138730042Y-96699500D01*
X138572358Y-96699500D01*
X138572355Y-96699500D01*
X138417710Y-96730261D01*
X138417698Y-96730264D01*
X138272027Y-96790602D01*
X138272014Y-96790609D01*
X138140911Y-96878210D01*
X138140907Y-96878213D01*
X138029413Y-96989707D01*
X138029410Y-96989711D01*
X137941809Y-97120814D01*
X137941802Y-97120827D01*
X137881464Y-97266498D01*
X137881461Y-97266510D01*
X137850700Y-97421153D01*
X137850700Y-97578846D01*
X137881461Y-97733489D01*
X137881464Y-97733501D01*
X137941802Y-97879172D01*
X137941809Y-97879185D01*
X138029802Y-98010874D01*
X138050680Y-98077551D01*
X138050700Y-98079765D01*
X138050700Y-112922002D01*
X138031015Y-112989041D01*
X138014381Y-113009683D01*
X136112181Y-114911883D01*
X136050858Y-114945368D01*
X135981166Y-114940384D01*
X135925233Y-114898512D01*
X135900816Y-114833048D01*
X135900500Y-114824202D01*
X135900500Y-111704500D01*
X135920185Y-111637461D01*
X135972989Y-111591706D01*
X136024500Y-111580500D01*
X136156785Y-111580500D01*
X136156785Y-111580499D01*
X136326692Y-111565635D01*
X136546496Y-111506739D01*
X136752734Y-111410568D01*
X136939139Y-111280047D01*
X137100047Y-111119139D01*
X137230568Y-110932734D01*
X137326739Y-110726496D01*
X137385635Y-110506692D01*
X137400500Y-110336784D01*
X137400500Y-110223216D01*
X137385635Y-110053308D01*
X137326739Y-109833504D01*
X137230568Y-109627266D01*
X137100047Y-109440861D01*
X137100045Y-109440858D01*
X136939141Y-109279954D01*
X136752734Y-109149432D01*
X136752728Y-109149429D01*
X136694725Y-109122382D01*
X136642285Y-109076210D01*
X136623133Y-109009017D01*
X136643348Y-108942135D01*
X136694725Y-108897618D01*
X136752734Y-108870568D01*
X136939139Y-108740047D01*
X137100047Y-108579139D01*
X137230568Y-108392734D01*
X137326739Y-108186496D01*
X137385635Y-107966692D01*
X137400500Y-107796784D01*
X137400500Y-107683216D01*
X137385635Y-107513308D01*
X137326739Y-107293504D01*
X137230568Y-107087266D01*
X137100047Y-106900861D01*
X137100045Y-106900858D01*
X136939141Y-106739954D01*
X136752734Y-106609432D01*
X136752732Y-106609431D01*
X136700779Y-106585205D01*
X136648340Y-106539032D01*
X136629188Y-106471839D01*
X136649404Y-106404958D01*
X136694732Y-106363464D01*
X136759500Y-106328844D01*
X136759521Y-106328832D01*
X136890530Y-106241295D01*
X136890536Y-106241291D01*
X136967064Y-106178485D01*
X137078485Y-106067064D01*
X137141291Y-105990536D01*
X137141295Y-105990530D01*
X137228832Y-105859521D01*
X137228844Y-105859501D01*
X137275509Y-105772198D01*
X137335814Y-105626612D01*
X137364556Y-105531860D01*
X137364559Y-105531849D01*
X137380839Y-105450000D01*
X135424000Y-105450000D01*
X135356961Y-105430315D01*
X135311206Y-105377511D01*
X135300000Y-105326000D01*
X135300000Y-105074000D01*
X135319685Y-105006961D01*
X135372489Y-104961206D01*
X135424000Y-104950000D01*
X137380839Y-104950000D01*
X137380839Y-104949999D01*
X137364559Y-104868150D01*
X137364556Y-104868139D01*
X137335814Y-104773387D01*
X137275509Y-104627801D01*
X137228844Y-104540498D01*
X137228832Y-104540478D01*
X137141295Y-104409469D01*
X137141291Y-104409463D01*
X137078485Y-104332935D01*
X136967064Y-104221514D01*
X136890536Y-104158708D01*
X136890530Y-104158704D01*
X136759521Y-104071167D01*
X136759501Y-104071155D01*
X136694730Y-104036534D01*
X136644886Y-103987571D01*
X136629426Y-103919434D01*
X136653258Y-103853754D01*
X136700777Y-103814795D01*
X136752734Y-103790568D01*
X136939139Y-103660047D01*
X137100047Y-103499139D01*
X137230568Y-103312734D01*
X137326739Y-103106496D01*
X137385635Y-102886692D01*
X137400500Y-102716784D01*
X137400500Y-102603216D01*
X137385635Y-102433308D01*
X137326739Y-102213504D01*
X137230568Y-102007266D01*
X137100047Y-101820861D01*
X137100045Y-101820858D01*
X136939141Y-101659954D01*
X136752734Y-101529432D01*
X136752728Y-101529429D01*
X136694725Y-101502382D01*
X136642285Y-101456210D01*
X136623133Y-101389017D01*
X136643348Y-101322135D01*
X136694725Y-101277618D01*
X136752734Y-101250568D01*
X136939139Y-101120047D01*
X137100047Y-100959139D01*
X137230568Y-100772734D01*
X137326739Y-100566496D01*
X137385635Y-100346692D01*
X137400500Y-100176784D01*
X137400500Y-100063216D01*
X137385635Y-99893308D01*
X137326739Y-99673504D01*
X137230568Y-99467266D01*
X137100047Y-99280861D01*
X137100045Y-99280858D01*
X136939141Y-99119954D01*
X136752734Y-98989432D01*
X136752728Y-98989429D01*
X136694725Y-98962382D01*
X136642285Y-98916210D01*
X136623133Y-98849017D01*
X136643348Y-98782135D01*
X136694725Y-98737618D01*
X136752734Y-98710568D01*
X136939139Y-98580047D01*
X137100047Y-98419139D01*
X137230568Y-98232734D01*
X137326739Y-98026496D01*
X137385635Y-97806692D01*
X137400500Y-97636784D01*
X137400500Y-97523216D01*
X137385635Y-97353308D01*
X137326739Y-97133504D01*
X137326736Y-97133498D01*
X137324889Y-97128423D01*
X137326690Y-97127767D01*
X137317458Y-97067056D01*
X137345965Y-97003266D01*
X137352642Y-96996035D01*
X137425189Y-96923489D01*
X137512794Y-96792379D01*
X137573137Y-96646697D01*
X137603900Y-96492042D01*
X137603900Y-96334358D01*
X137603900Y-96334355D01*
X137603899Y-96334353D01*
X137598859Y-96309017D01*
X137573137Y-96179703D01*
X137569353Y-96170567D01*
X137512797Y-96034027D01*
X137512790Y-96034014D01*
X137425189Y-95902911D01*
X137425186Y-95902907D01*
X137313692Y-95791413D01*
X137313689Y-95791411D01*
X137303676Y-95784720D01*
X137258872Y-95731106D01*
X137250166Y-95661781D01*
X137260184Y-95629220D01*
X137326739Y-95486496D01*
X137385635Y-95266692D01*
X137400500Y-95096784D01*
X137400500Y-94983216D01*
X137385635Y-94813308D01*
X137326739Y-94593504D01*
X137230568Y-94387266D01*
X137100047Y-94200861D01*
X137100045Y-94200858D01*
X136939141Y-94039954D01*
X136752734Y-93909432D01*
X136752732Y-93909431D01*
X136700779Y-93885205D01*
X136648340Y-93839032D01*
X136629188Y-93771839D01*
X136649404Y-93704958D01*
X136694732Y-93663464D01*
X136759500Y-93628844D01*
X136759521Y-93628832D01*
X136890530Y-93541295D01*
X136890536Y-93541291D01*
X136967064Y-93478485D01*
X137078485Y-93367064D01*
X137141291Y-93290536D01*
X137141295Y-93290530D01*
X137228832Y-93159521D01*
X137228844Y-93159501D01*
X137275509Y-93072198D01*
X137335814Y-92926612D01*
X137364556Y-92831860D01*
X137364559Y-92831849D01*
X137380839Y-92750000D01*
X133195000Y-92750000D01*
X133195000Y-93139785D01*
X133197893Y-93193762D01*
X133197893Y-93193764D01*
X133233438Y-93333030D01*
X133233442Y-93333042D01*
X133263881Y-93406528D01*
X133263893Y-93406556D01*
X133287218Y-93455309D01*
X133287221Y-93455314D01*
X133373358Y-93570378D01*
X133373361Y-93570382D01*
X133429623Y-93626643D01*
X133429640Y-93626659D01*
X133469842Y-93662770D01*
X133593454Y-93736111D01*
X133593461Y-93736115D01*
X133666932Y-93766547D01*
X133666956Y-93766556D01*
X133695164Y-93776508D01*
X133751835Y-93817374D01*
X133777417Y-93882392D01*
X133763785Y-93950920D01*
X133725033Y-93995019D01*
X133660859Y-94039953D01*
X133499954Y-94200858D01*
X133369432Y-94387265D01*
X133369431Y-94387267D01*
X133273261Y-94593502D01*
X133273258Y-94593511D01*
X133214366Y-94813302D01*
X133214364Y-94813312D01*
X133199500Y-94983214D01*
X133199500Y-95096785D01*
X133214364Y-95266687D01*
X133214366Y-95266697D01*
X133273258Y-95486488D01*
X133273261Y-95486497D01*
X133369431Y-95692732D01*
X133369432Y-95692734D01*
X133499954Y-95879141D01*
X133660858Y-96040045D01*
X133660861Y-96040047D01*
X133847266Y-96170568D01*
X133905275Y-96197618D01*
X133957714Y-96243791D01*
X133976866Y-96310984D01*
X133956650Y-96377865D01*
X133905275Y-96422382D01*
X133847267Y-96449431D01*
X133847265Y-96449432D01*
X133660858Y-96579954D01*
X133499954Y-96740858D01*
X133369432Y-96927265D01*
X133369431Y-96927267D01*
X133273261Y-97133502D01*
X133273258Y-97133511D01*
X133214366Y-97353302D01*
X133214364Y-97353312D01*
X133199500Y-97523214D01*
X133199500Y-97636785D01*
X133214364Y-97806687D01*
X133214366Y-97806697D01*
X133273258Y-98026488D01*
X133273261Y-98026497D01*
X133369431Y-98232732D01*
X133369432Y-98232734D01*
X133486264Y-98399589D01*
X133508591Y-98465795D01*
X133491581Y-98533563D01*
X133472370Y-98558393D01*
X130609681Y-101421083D01*
X130548358Y-101454568D01*
X130478666Y-101449584D01*
X130422733Y-101407712D01*
X130398316Y-101342248D01*
X130398000Y-101333402D01*
X130398000Y-90682596D01*
X130417685Y-90615557D01*
X130434314Y-90594920D01*
X133112893Y-87916340D01*
X133174214Y-87882857D01*
X133243906Y-87887841D01*
X133299839Y-87929713D01*
X133312954Y-87951618D01*
X133369431Y-88072732D01*
X133369432Y-88072734D01*
X133499954Y-88259141D01*
X133660858Y-88420045D01*
X133660861Y-88420047D01*
X133847266Y-88550568D01*
X133905275Y-88577618D01*
X133957714Y-88623791D01*
X133976866Y-88690984D01*
X133956650Y-88757865D01*
X133905275Y-88802382D01*
X133847267Y-88829431D01*
X133847265Y-88829432D01*
X133660858Y-88959954D01*
X133499954Y-89120858D01*
X133369432Y-89307265D01*
X133369431Y-89307267D01*
X133273261Y-89513502D01*
X133273258Y-89513511D01*
X133214366Y-89733302D01*
X133214364Y-89733312D01*
X133199500Y-89903214D01*
X133199500Y-90016785D01*
X133214364Y-90186687D01*
X133214366Y-90186697D01*
X133273258Y-90406488D01*
X133273261Y-90406497D01*
X133369431Y-90612732D01*
X133369432Y-90612734D01*
X133499954Y-90799141D01*
X133660858Y-90960045D01*
X133727379Y-91006623D01*
X133771004Y-91061199D01*
X133778198Y-91130698D01*
X133746676Y-91193052D01*
X133686922Y-91228346D01*
X133666970Y-91233438D01*
X133666957Y-91233442D01*
X133593471Y-91263881D01*
X133593443Y-91263893D01*
X133544690Y-91287218D01*
X133544685Y-91287221D01*
X133429621Y-91373358D01*
X133429617Y-91373361D01*
X133373356Y-91429623D01*
X133373340Y-91429640D01*
X133337229Y-91469842D01*
X133263888Y-91593454D01*
X133263884Y-91593461D01*
X133233452Y-91666932D01*
X133233451Y-91666935D01*
X133215455Y-91717946D01*
X133195000Y-91860219D01*
X133195000Y-92250000D01*
X137380839Y-92250000D01*
X137380839Y-92249999D01*
X137364559Y-92168150D01*
X137364556Y-92168139D01*
X137335814Y-92073387D01*
X137275509Y-91927801D01*
X137228844Y-91840498D01*
X137228832Y-91840478D01*
X137141295Y-91709469D01*
X137141291Y-91709463D01*
X137078485Y-91632935D01*
X136967064Y-91521514D01*
X136890536Y-91458708D01*
X136890530Y-91458704D01*
X136759521Y-91371167D01*
X136759501Y-91371155D01*
X136694730Y-91336534D01*
X136644886Y-91287571D01*
X136629426Y-91219434D01*
X136653258Y-91153754D01*
X136700777Y-91114795D01*
X136752734Y-91090568D01*
X136939139Y-90960047D01*
X137100047Y-90799139D01*
X137230568Y-90612734D01*
X137326739Y-90406496D01*
X137385635Y-90186692D01*
X137400500Y-90016784D01*
X137400500Y-89903216D01*
X137385635Y-89733308D01*
X137326739Y-89513504D01*
X137230568Y-89307266D01*
X137100047Y-89120861D01*
X137100045Y-89120858D01*
X136939141Y-88959954D01*
X136752734Y-88829432D01*
X136752728Y-88829429D01*
X136694725Y-88802382D01*
X136642285Y-88756210D01*
X136623133Y-88689017D01*
X136643348Y-88622135D01*
X136694725Y-88577618D01*
X136752734Y-88550568D01*
X136939139Y-88420047D01*
X137100047Y-88259139D01*
X137230568Y-88072734D01*
X137326739Y-87866496D01*
X137385635Y-87646692D01*
X137400500Y-87476784D01*
X137400500Y-87363216D01*
X137385635Y-87193308D01*
X137326739Y-86973504D01*
X137230568Y-86767266D01*
X137100047Y-86580861D01*
X137100045Y-86580858D01*
X136939141Y-86419954D01*
X136752734Y-86289432D01*
X136752728Y-86289429D01*
X136694725Y-86262382D01*
X136642285Y-86216210D01*
X136623133Y-86149017D01*
X136643348Y-86082135D01*
X136694725Y-86037618D01*
X136752734Y-86010568D01*
X136939139Y-85880047D01*
X137100047Y-85719139D01*
X137230568Y-85532734D01*
X137326739Y-85326496D01*
X137385635Y-85106692D01*
X137400500Y-84936784D01*
X137400500Y-84823216D01*
X137385635Y-84653308D01*
X137326739Y-84433504D01*
X137230568Y-84227266D01*
X137100047Y-84040861D01*
X137100045Y-84040858D01*
X136939141Y-83879954D01*
X136752734Y-83749432D01*
X136752728Y-83749429D01*
X136694725Y-83722382D01*
X136642285Y-83676210D01*
X136623133Y-83609017D01*
X136643348Y-83542135D01*
X136694725Y-83497618D01*
X136752734Y-83470568D01*
X136939139Y-83340047D01*
X137100047Y-83179139D01*
X137230568Y-82992734D01*
X137326739Y-82786496D01*
X137385635Y-82566692D01*
X137400500Y-82396784D01*
X137400500Y-82283216D01*
X137385635Y-82113308D01*
X137326739Y-81893504D01*
X137230568Y-81687266D01*
X137100047Y-81500861D01*
X137100045Y-81500858D01*
X136939141Y-81339954D01*
X136752734Y-81209432D01*
X136752732Y-81209431D01*
X136701343Y-81185468D01*
X136648904Y-81139295D01*
X136629752Y-81072102D01*
X136649968Y-81005221D01*
X136695293Y-80963729D01*
X136759783Y-80929259D01*
X136890811Y-80841709D01*
X136967412Y-80778843D01*
X137078843Y-80667412D01*
X137141709Y-80590811D01*
X137229259Y-80459783D01*
X137275972Y-80372389D01*
X137336278Y-80226798D01*
X137365044Y-80131968D01*
X137395787Y-79977410D01*
X137405500Y-79878793D01*
X137405500Y-79721207D01*
X137395787Y-79622590D01*
X137365044Y-79468032D01*
X137336278Y-79373202D01*
X137275972Y-79227611D01*
X137271789Y-79219786D01*
X137229265Y-79140228D01*
X137229263Y-79140226D01*
X137229259Y-79140217D01*
X137229248Y-79140200D01*
X137141721Y-79009206D01*
X137141712Y-79009194D01*
X137141709Y-79009189D01*
X137078843Y-78932588D01*
X136967412Y-78821157D01*
X136890811Y-78758291D01*
X136890804Y-78758286D01*
X136890793Y-78758278D01*
X136759799Y-78670751D01*
X136759788Y-78670744D01*
X136759783Y-78670741D01*
X136695293Y-78636270D01*
X136645450Y-78587308D01*
X136629990Y-78519171D01*
X136653822Y-78453491D01*
X136701341Y-78414532D01*
X136752734Y-78390568D01*
X136939139Y-78260047D01*
X137100047Y-78099139D01*
X137230568Y-77912734D01*
X137326739Y-77706496D01*
X137385635Y-77486692D01*
X137400500Y-77316784D01*
X137400500Y-77203216D01*
X137385635Y-77033308D01*
X137326739Y-76813504D01*
X137230568Y-76607266D01*
X137100047Y-76420861D01*
X137100045Y-76420858D01*
X136939141Y-76259954D01*
X136752734Y-76129432D01*
X136752728Y-76129429D01*
X136694725Y-76102382D01*
X136642285Y-76056210D01*
X136623133Y-75989017D01*
X136643348Y-75922135D01*
X136694725Y-75877618D01*
X136752734Y-75850568D01*
X136939139Y-75720047D01*
X137100047Y-75559139D01*
X137230568Y-75372734D01*
X137326739Y-75166496D01*
X137385635Y-74946692D01*
X137400500Y-74776784D01*
X137400500Y-74663216D01*
X137385635Y-74493308D01*
X137326739Y-74273504D01*
X137230568Y-74067266D01*
X137100047Y-73880861D01*
X137100045Y-73880858D01*
X136939141Y-73719954D01*
X136752734Y-73589432D01*
X136752728Y-73589429D01*
X136694725Y-73562382D01*
X136642285Y-73516210D01*
X136623133Y-73449017D01*
X136643348Y-73382135D01*
X136694725Y-73337618D01*
X136752734Y-73310568D01*
X136939139Y-73180047D01*
X137100047Y-73019139D01*
X137230568Y-72832734D01*
X137326739Y-72626496D01*
X137385635Y-72406692D01*
X137400500Y-72236784D01*
X137400500Y-72123216D01*
X137385635Y-71953308D01*
X137326739Y-71733504D01*
X137230568Y-71527266D01*
X137100047Y-71340861D01*
X137100045Y-71340858D01*
X136939141Y-71179954D01*
X136752734Y-71049432D01*
X136752728Y-71049429D01*
X136694725Y-71022382D01*
X136642285Y-70976210D01*
X136623133Y-70909017D01*
X136643348Y-70842135D01*
X136694725Y-70797618D01*
X136752734Y-70770568D01*
X136939139Y-70640047D01*
X137100047Y-70479139D01*
X137230568Y-70292734D01*
X137326739Y-70086496D01*
X137385635Y-69866692D01*
X137400500Y-69696784D01*
X137400500Y-69583216D01*
X137385635Y-69413308D01*
X137326739Y-69193504D01*
X137230568Y-68987266D01*
X137114295Y-68821210D01*
X137100045Y-68800858D01*
X136939141Y-68639954D01*
X136752734Y-68509432D01*
X136752732Y-68509431D01*
X136700779Y-68485205D01*
X136648340Y-68439032D01*
X136629188Y-68371839D01*
X136649404Y-68304958D01*
X136694732Y-68263464D01*
X136759500Y-68228844D01*
X136759521Y-68228832D01*
X136890530Y-68141295D01*
X136890536Y-68141291D01*
X136967064Y-68078485D01*
X137078485Y-67967064D01*
X137141291Y-67890536D01*
X137141295Y-67890530D01*
X137228832Y-67759521D01*
X137228844Y-67759501D01*
X137275509Y-67672198D01*
X137335814Y-67526612D01*
X137364556Y-67431860D01*
X137364559Y-67431849D01*
X137380839Y-67350000D01*
X133195000Y-67350000D01*
X133195000Y-67739785D01*
X133197893Y-67793762D01*
X133197893Y-67793764D01*
X133233438Y-67933030D01*
X133233442Y-67933042D01*
X133263881Y-68006528D01*
X133263893Y-68006556D01*
X133287218Y-68055309D01*
X133287221Y-68055314D01*
X133373358Y-68170378D01*
X133373361Y-68170382D01*
X133429623Y-68226643D01*
X133429640Y-68226659D01*
X133469842Y-68262770D01*
X133593454Y-68336111D01*
X133593461Y-68336115D01*
X133666932Y-68366547D01*
X133666956Y-68366556D01*
X133695164Y-68376508D01*
X133751835Y-68417374D01*
X133777417Y-68482392D01*
X133763785Y-68550920D01*
X133725033Y-68595019D01*
X133660859Y-68639953D01*
X133499954Y-68800858D01*
X133369432Y-68987265D01*
X133369431Y-68987267D01*
X133273261Y-69193502D01*
X133273258Y-69193511D01*
X133214366Y-69413302D01*
X133214364Y-69413312D01*
X133199500Y-69583214D01*
X133199500Y-69696785D01*
X133214364Y-69866687D01*
X133214366Y-69866697D01*
X133273258Y-70086488D01*
X133273261Y-70086497D01*
X133369431Y-70292732D01*
X133369432Y-70292734D01*
X133499954Y-70479141D01*
X133660858Y-70640045D01*
X133660861Y-70640047D01*
X133847266Y-70770568D01*
X133905275Y-70797618D01*
X133957714Y-70843791D01*
X133976866Y-70910984D01*
X133956650Y-70977865D01*
X133905275Y-71022382D01*
X133847267Y-71049431D01*
X133847265Y-71049432D01*
X133660858Y-71179954D01*
X133499954Y-71340858D01*
X133369432Y-71527265D01*
X133369431Y-71527267D01*
X133273261Y-71733502D01*
X133273258Y-71733511D01*
X133214366Y-71953302D01*
X133214364Y-71953312D01*
X133199500Y-72123214D01*
X133199500Y-72236785D01*
X133214364Y-72406687D01*
X133214366Y-72406697D01*
X133273258Y-72626488D01*
X133273261Y-72626497D01*
X133369431Y-72832732D01*
X133369432Y-72832734D01*
X133499954Y-73019141D01*
X133660858Y-73180045D01*
X133660861Y-73180047D01*
X133847266Y-73310568D01*
X133905275Y-73337618D01*
X133957714Y-73383791D01*
X133976866Y-73450984D01*
X133956650Y-73517865D01*
X133905275Y-73562382D01*
X133847267Y-73589431D01*
X133847265Y-73589432D01*
X133660858Y-73719954D01*
X133499954Y-73880858D01*
X133369432Y-74067265D01*
X133369431Y-74067267D01*
X133273261Y-74273502D01*
X133273258Y-74273511D01*
X133214366Y-74493302D01*
X133214364Y-74493312D01*
X133199500Y-74663214D01*
X133199500Y-74776785D01*
X133214364Y-74946687D01*
X133214366Y-74946697D01*
X133273258Y-75166488D01*
X133273261Y-75166497D01*
X133369431Y-75372732D01*
X133369432Y-75372734D01*
X133499954Y-75559141D01*
X133660858Y-75720045D01*
X133660861Y-75720047D01*
X133847266Y-75850568D01*
X133905275Y-75877618D01*
X133957714Y-75923791D01*
X133976866Y-75990984D01*
X133956650Y-76057865D01*
X133905275Y-76102382D01*
X133847267Y-76129431D01*
X133847265Y-76129432D01*
X133660858Y-76259954D01*
X133499954Y-76420858D01*
X133369432Y-76607265D01*
X133369431Y-76607267D01*
X133273261Y-76813502D01*
X133273258Y-76813511D01*
X133214366Y-77033302D01*
X133214364Y-77033312D01*
X133199500Y-77203214D01*
X133199500Y-77316785D01*
X133214364Y-77486687D01*
X133214366Y-77486697D01*
X133273258Y-77706488D01*
X133273261Y-77706497D01*
X133369431Y-77912732D01*
X133369432Y-77912734D01*
X133499954Y-78099141D01*
X133660857Y-78260044D01*
X133660860Y-78260046D01*
X133660861Y-78260047D01*
X133726844Y-78306248D01*
X133770469Y-78360824D01*
X133777663Y-78430322D01*
X133746141Y-78492677D01*
X133686391Y-78527970D01*
X133666780Y-78532975D01*
X133666766Y-78532980D01*
X133593280Y-78563419D01*
X133593252Y-78563431D01*
X133544451Y-78586779D01*
X133544446Y-78586782D01*
X133429268Y-78673005D01*
X133429256Y-78673015D01*
X133373019Y-78729252D01*
X133336843Y-78769524D01*
X133336837Y-78769532D01*
X133263426Y-78893263D01*
X133232978Y-78966774D01*
X133232970Y-78966795D01*
X133214976Y-79017800D01*
X133194500Y-79160219D01*
X133194500Y-80439784D01*
X133197395Y-80493814D01*
X133197396Y-80493818D01*
X133232976Y-80633221D01*
X133232980Y-80633233D01*
X133263419Y-80706719D01*
X133263431Y-80706747D01*
X133286779Y-80755548D01*
X133286781Y-80755551D01*
X133373006Y-80870733D01*
X133373010Y-80870737D01*
X133373015Y-80870743D01*
X133429252Y-80926980D01*
X133429261Y-80926988D01*
X133429267Y-80926994D01*
X133431790Y-80929260D01*
X133469524Y-80963156D01*
X133469532Y-80963162D01*
X133593263Y-81036573D01*
X133593262Y-81036573D01*
X133600329Y-81039500D01*
X133666774Y-81067022D01*
X133694662Y-81076860D01*
X133751332Y-81117725D01*
X133776913Y-81182743D01*
X133763283Y-81251271D01*
X133724531Y-81295371D01*
X133660856Y-81339956D01*
X133499954Y-81500858D01*
X133369432Y-81687265D01*
X133369431Y-81687267D01*
X133273261Y-81893502D01*
X133273258Y-81893511D01*
X133214366Y-82113302D01*
X133214364Y-82113312D01*
X133199500Y-82283214D01*
X133199500Y-82396785D01*
X133214364Y-82566687D01*
X133214366Y-82566697D01*
X133273258Y-82786488D01*
X133273261Y-82786497D01*
X133369431Y-82992732D01*
X133369432Y-82992734D01*
X133486264Y-83159589D01*
X133508591Y-83225795D01*
X133491581Y-83293563D01*
X133472370Y-83318393D01*
X129027086Y-87763678D01*
X128962181Y-87828583D01*
X128900858Y-87862068D01*
X128831166Y-87857084D01*
X128775233Y-87815212D01*
X128750816Y-87749748D01*
X128750500Y-87740902D01*
X128750500Y-69946345D01*
X128750500Y-69946343D01*
X128729158Y-69866692D01*
X128709577Y-69793615D01*
X128680639Y-69743495D01*
X128630520Y-69656684D01*
X128518716Y-69544880D01*
X128518715Y-69544879D01*
X128514385Y-69540549D01*
X128514374Y-69540539D01*
X128013874Y-69040039D01*
X127980389Y-68978716D01*
X127979938Y-68976549D01*
X127949038Y-68821210D01*
X127949037Y-68821203D01*
X127940610Y-68800858D01*
X127888697Y-68675527D01*
X127888690Y-68675514D01*
X127801089Y-68544411D01*
X127801086Y-68544407D01*
X127689592Y-68432913D01*
X127689588Y-68432910D01*
X127558485Y-68345309D01*
X127558472Y-68345302D01*
X127412801Y-68284964D01*
X127412789Y-68284961D01*
X127258145Y-68254200D01*
X127258142Y-68254200D01*
X127100458Y-68254200D01*
X127100455Y-68254200D01*
X126945810Y-68284961D01*
X126945798Y-68284964D01*
X126800127Y-68345302D01*
X126800114Y-68345309D01*
X126669011Y-68432910D01*
X126669007Y-68432913D01*
X126557513Y-68544407D01*
X126557510Y-68544411D01*
X126469909Y-68675514D01*
X126469902Y-68675527D01*
X126409564Y-68821198D01*
X126409561Y-68821210D01*
X126378800Y-68975853D01*
X126378800Y-69133546D01*
X126409561Y-69288189D01*
X126409564Y-69288201D01*
X126469902Y-69433872D01*
X126469909Y-69433885D01*
X126557510Y-69564988D01*
X126557513Y-69564992D01*
X126669007Y-69676486D01*
X126669011Y-69676489D01*
X126800114Y-69764090D01*
X126800127Y-69764097D01*
X126940231Y-69822129D01*
X126945803Y-69824437D01*
X127010447Y-69837295D01*
X127101149Y-69855338D01*
X127163060Y-69887723D01*
X127164639Y-69889274D01*
X127513181Y-70237816D01*
X127546666Y-70299139D01*
X127549500Y-70325497D01*
X127549500Y-80192958D01*
X127529815Y-80259997D01*
X127477011Y-80305752D01*
X127407853Y-80315696D01*
X127363500Y-80300345D01*
X127252170Y-80236068D01*
X127252171Y-80236068D01*
X127217574Y-80226798D01*
X127125545Y-80202139D01*
X127060000Y-80200000D01*
X126610000Y-80200000D01*
X126160000Y-80200000D01*
X126094458Y-80202138D01*
X125967832Y-80236068D01*
X125854307Y-80301611D01*
X125854304Y-80301613D01*
X125761613Y-80394304D01*
X125761611Y-80394307D01*
X125696068Y-80507832D01*
X125662138Y-80634458D01*
X125660000Y-80699999D01*
X125660000Y-81600000D01*
X125662138Y-81665541D01*
X125662138Y-81665544D01*
X125662139Y-81665545D01*
X125696068Y-81792167D01*
X125761612Y-81905694D01*
X125854306Y-81998388D01*
X125967833Y-82063932D01*
X126094455Y-82097861D01*
X126160000Y-82100000D01*
X127060000Y-82100000D01*
X127125545Y-82097861D01*
X127252167Y-82063933D01*
X127363502Y-81999653D01*
X127431399Y-81983181D01*
X127497426Y-82006033D01*
X127540617Y-82060954D01*
X127549500Y-82107041D01*
X127549500Y-108818306D01*
X127529815Y-108885345D01*
X127496623Y-108919881D01*
X127310859Y-109049953D01*
X127149956Y-109210856D01*
X127103376Y-109277380D01*
X127048799Y-109321004D01*
X126979300Y-109328197D01*
X126916946Y-109296675D01*
X126881652Y-109236918D01*
X126876560Y-109216968D01*
X126876557Y-109216957D01*
X126846118Y-109143471D01*
X126846106Y-109143443D01*
X126822781Y-109094690D01*
X126822778Y-109094685D01*
X126736641Y-108979621D01*
X126736638Y-108979617D01*
X126680376Y-108923356D01*
X126680359Y-108923340D01*
X126640157Y-108887229D01*
X126516545Y-108813888D01*
X126516538Y-108813884D01*
X126443067Y-108783452D01*
X126443064Y-108783451D01*
X126392053Y-108765455D01*
X126249780Y-108745000D01*
X124970214Y-108745000D01*
X124916237Y-108747893D01*
X124916235Y-108747893D01*
X124776969Y-108783438D01*
X124776957Y-108783442D01*
X124703471Y-108813881D01*
X124703443Y-108813893D01*
X124654690Y-108837218D01*
X124654685Y-108837221D01*
X124539621Y-108923358D01*
X124539617Y-108923361D01*
X124483356Y-108979623D01*
X124483340Y-108979640D01*
X124447229Y-109019842D01*
X124373888Y-109143454D01*
X124373884Y-109143461D01*
X124343452Y-109216932D01*
X124343443Y-109216956D01*
X124333490Y-109245167D01*
X124292622Y-109301838D01*
X124227603Y-109327417D01*
X124159076Y-109313783D01*
X124114980Y-109275033D01*
X124070047Y-109210861D01*
X124070046Y-109210860D01*
X124070044Y-109210857D01*
X123909141Y-109049954D01*
X123722734Y-108919432D01*
X123722732Y-108919431D01*
X123516497Y-108823261D01*
X123516488Y-108823258D01*
X123296697Y-108764366D01*
X123296687Y-108764364D01*
X123126785Y-108749500D01*
X123126784Y-108749500D01*
X123013216Y-108749500D01*
X123013215Y-108749500D01*
X122843312Y-108764364D01*
X122843302Y-108764366D01*
X122747067Y-108790152D01*
X122677217Y-108788489D01*
X122627293Y-108758058D01*
X122175471Y-108306236D01*
X121717119Y-107847883D01*
X121683634Y-107786560D01*
X121680800Y-107760202D01*
X121680800Y-70421265D01*
X121700485Y-70354226D01*
X121701698Y-70352374D01*
X121789690Y-70220685D01*
X121789690Y-70220684D01*
X121789694Y-70220679D01*
X121850037Y-70074997D01*
X121880800Y-69920342D01*
X121880800Y-69762658D01*
X121880800Y-69762655D01*
X121880799Y-69762653D01*
X121863659Y-69676486D01*
X121850037Y-69608003D01*
X121839769Y-69583214D01*
X121789697Y-69462327D01*
X121789690Y-69462314D01*
X121702089Y-69331211D01*
X121702086Y-69331207D01*
X121590592Y-69219713D01*
X121590588Y-69219710D01*
X121459485Y-69132109D01*
X121459472Y-69132102D01*
X121313801Y-69071764D01*
X121313789Y-69071761D01*
X121159145Y-69041000D01*
X121159142Y-69041000D01*
X121001458Y-69041000D01*
X121001455Y-69041000D01*
X120846810Y-69071761D01*
X120846798Y-69071764D01*
X120701127Y-69132102D01*
X120701114Y-69132109D01*
X120570011Y-69219710D01*
X120570007Y-69219713D01*
X120458513Y-69331207D01*
X120458510Y-69331211D01*
X120370909Y-69462314D01*
X120370902Y-69462327D01*
X120310564Y-69607998D01*
X120310561Y-69608010D01*
X120279800Y-69762653D01*
X120279800Y-69920346D01*
X120310561Y-70074989D01*
X120310564Y-70075001D01*
X120370902Y-70220672D01*
X120370909Y-70220685D01*
X120458902Y-70352374D01*
X120479780Y-70419051D01*
X120479800Y-70421265D01*
X120479800Y-107973630D01*
X120479799Y-107973648D01*
X120479799Y-108139354D01*
X120479798Y-108139354D01*
X120479799Y-108139357D01*
X120520723Y-108292085D01*
X120525043Y-108299567D01*
X120525046Y-108299579D01*
X120525050Y-108299578D01*
X120589371Y-108410987D01*
X120599779Y-108429014D01*
X120599781Y-108429017D01*
X120718649Y-108547885D01*
X120718655Y-108547890D01*
X121778058Y-109607293D01*
X121811543Y-109668616D01*
X121810152Y-109727067D01*
X121784366Y-109823302D01*
X121784364Y-109823312D01*
X121769500Y-109993214D01*
X121769500Y-111706785D01*
X121784364Y-111876687D01*
X121784366Y-111876697D01*
X121843258Y-112096488D01*
X121843261Y-112096497D01*
X121939431Y-112302732D01*
X121939432Y-112302734D01*
X122069954Y-112489141D01*
X122230858Y-112650045D01*
X122230861Y-112650047D01*
X122417266Y-112780568D01*
X122623504Y-112876739D01*
X122623509Y-112876740D01*
X122623511Y-112876741D01*
X122676415Y-112890916D01*
X122843308Y-112935635D01*
X123013214Y-112950499D01*
X123013215Y-112950500D01*
X123013216Y-112950500D01*
X123126785Y-112950500D01*
X123126785Y-112950499D01*
X123296692Y-112935635D01*
X123516496Y-112876739D01*
X123722734Y-112780568D01*
X123909139Y-112650047D01*
X124070047Y-112489139D01*
X124200568Y-112302734D01*
X124224795Y-112250777D01*
X124270965Y-112198341D01*
X124338158Y-112179188D01*
X124405040Y-112199403D01*
X124446534Y-112244730D01*
X124481155Y-112309501D01*
X124481167Y-112309521D01*
X124568704Y-112440530D01*
X124568708Y-112440536D01*
X124631514Y-112517064D01*
X124742935Y-112628485D01*
X124819463Y-112691291D01*
X124819469Y-112691295D01*
X124950478Y-112778832D01*
X124950498Y-112778844D01*
X125037801Y-112825509D01*
X125183387Y-112885814D01*
X125278135Y-112914555D01*
X125432699Y-112945298D01*
X125531210Y-112955000D01*
X125688790Y-112955000D01*
X125787299Y-112945298D01*
X125787302Y-112945298D01*
X125941864Y-112914555D01*
X126036612Y-112885814D01*
X126182198Y-112825509D01*
X126269501Y-112778844D01*
X126269521Y-112778832D01*
X126400530Y-112691295D01*
X126400536Y-112691291D01*
X126477064Y-112628485D01*
X126588485Y-112517064D01*
X126651291Y-112440536D01*
X126651295Y-112440530D01*
X126738832Y-112309521D01*
X126738844Y-112309500D01*
X126773464Y-112244732D01*
X126822426Y-112194887D01*
X126890564Y-112179426D01*
X126956244Y-112203257D01*
X126995205Y-112250779D01*
X127019431Y-112302732D01*
X127019432Y-112302734D01*
X127149954Y-112489141D01*
X127310858Y-112650045D01*
X127310861Y-112650047D01*
X127497266Y-112780568D01*
X127703504Y-112876739D01*
X127703509Y-112876740D01*
X127703511Y-112876741D01*
X127756415Y-112890916D01*
X127923308Y-112935635D01*
X128093214Y-112950499D01*
X128093215Y-112950500D01*
X128093216Y-112950500D01*
X128206785Y-112950500D01*
X128206785Y-112950499D01*
X128376692Y-112935635D01*
X128596496Y-112876739D01*
X128618896Y-112866293D01*
X128687969Y-112855801D01*
X128751754Y-112884318D01*
X128789995Y-112942794D01*
X128795300Y-112978675D01*
X128795300Y-119366930D01*
X128795299Y-119366948D01*
X128795299Y-119532654D01*
X128795298Y-119532654D01*
X128795299Y-119532657D01*
X128836223Y-119685385D01*
X128860351Y-119727176D01*
X128915281Y-119822317D01*
X129034149Y-119941185D01*
X129034155Y-119941190D01*
X129632516Y-120539551D01*
X129666001Y-120600874D01*
X129661017Y-120670566D01*
X129619145Y-120726499D01*
X129553681Y-120750916D01*
X129506518Y-120745163D01*
X129464542Y-120731524D01*
X129464535Y-120731523D01*
X129295309Y-120704720D01*
X129262352Y-120699500D01*
X129057648Y-120699500D01*
X129041201Y-120702105D01*
X128855465Y-120731522D01*
X128660776Y-120794781D01*
X128478386Y-120887715D01*
X128312786Y-121008028D01*
X128168028Y-121152786D01*
X128047715Y-121318386D01*
X127954781Y-121500776D01*
X127891522Y-121695465D01*
X127867487Y-121847219D01*
X127859500Y-121897648D01*
X127859500Y-122102352D01*
X127861074Y-122112287D01*
X127891522Y-122304534D01*
X127954781Y-122499223D01*
X128037435Y-122661438D01*
X128047713Y-122681610D01*
X128124118Y-122786774D01*
X128147598Y-122852579D01*
X128147800Y-122859658D01*
X128147800Y-134385902D01*
X128128115Y-134452941D01*
X128111481Y-134473583D01*
X120789481Y-141795582D01*
X120789480Y-141795584D01*
X120755173Y-141855007D01*
X120739361Y-141882394D01*
X120739359Y-141882396D01*
X120710425Y-141932509D01*
X120710424Y-141932510D01*
X120694544Y-141991772D01*
X120669499Y-142085243D01*
X120669499Y-142085245D01*
X120669499Y-142253346D01*
X120669500Y-142253359D01*
X120669500Y-142825269D01*
X120649815Y-142892308D01*
X120597011Y-142938063D01*
X120527853Y-142948007D01*
X120507183Y-142943200D01*
X120457592Y-142927087D01*
X120457585Y-142927086D01*
X120286571Y-142900000D01*
X120250000Y-142900000D01*
X120250000Y-143755025D01*
X120214905Y-143719930D01*
X120135095Y-143673852D01*
X120046078Y-143650000D01*
X119953922Y-143650000D01*
X119864905Y-143673852D01*
X119785095Y-143719930D01*
X119750000Y-143755025D01*
X119750000Y-142900000D01*
X119713429Y-142900000D01*
X119542415Y-142927085D01*
X119377742Y-142980591D01*
X119282095Y-143029327D01*
X119213426Y-143042223D01*
X119148685Y-143015947D01*
X119108428Y-142958840D01*
X119101800Y-142918842D01*
X119101800Y-136897682D01*
X119700000Y-136897682D01*
X119700000Y-137102317D01*
X119732009Y-137304417D01*
X119795244Y-137499031D01*
X119888141Y-137681350D01*
X119888147Y-137681359D01*
X119920523Y-137725921D01*
X119920524Y-137725922D01*
X120600000Y-137046446D01*
X120600000Y-137052661D01*
X120627259Y-137154394D01*
X120679920Y-137245606D01*
X120754394Y-137320080D01*
X120845606Y-137372741D01*
X120947339Y-137400000D01*
X120953553Y-137400000D01*
X120274076Y-138079474D01*
X120318650Y-138111859D01*
X120500968Y-138204755D01*
X120695582Y-138267990D01*
X120897683Y-138300000D01*
X121102317Y-138300000D01*
X121304417Y-138267990D01*
X121499031Y-138204755D01*
X121681349Y-138111859D01*
X121725921Y-138079474D01*
X121046447Y-137400000D01*
X121052661Y-137400000D01*
X121154394Y-137372741D01*
X121245606Y-137320080D01*
X121320080Y-137245606D01*
X121372741Y-137154394D01*
X121400000Y-137052661D01*
X121400000Y-137046448D01*
X122079474Y-137725922D01*
X122079474Y-137725921D01*
X122111859Y-137681349D01*
X122204755Y-137499031D01*
X122267990Y-137304417D01*
X122300000Y-137102317D01*
X122300000Y-136897682D01*
X122267990Y-136695582D01*
X122204755Y-136500968D01*
X122111859Y-136318650D01*
X122079474Y-136274077D01*
X122079474Y-136274076D01*
X121400000Y-136953551D01*
X121400000Y-136947339D01*
X121372741Y-136845606D01*
X121320080Y-136754394D01*
X121245606Y-136679920D01*
X121154394Y-136627259D01*
X121052661Y-136600000D01*
X121046446Y-136600000D01*
X121725922Y-135920524D01*
X121725921Y-135920523D01*
X121681359Y-135888147D01*
X121681350Y-135888141D01*
X121499031Y-135795244D01*
X121304417Y-135732009D01*
X121102317Y-135700000D01*
X120897683Y-135700000D01*
X120695582Y-135732009D01*
X120500968Y-135795244D01*
X120318644Y-135888143D01*
X120274077Y-135920523D01*
X120274077Y-135920524D01*
X120953554Y-136600000D01*
X120947339Y-136600000D01*
X120845606Y-136627259D01*
X120754394Y-136679920D01*
X120679920Y-136754394D01*
X120627259Y-136845606D01*
X120600000Y-136947339D01*
X120600000Y-136953553D01*
X119920524Y-136274077D01*
X119920523Y-136274077D01*
X119888143Y-136318644D01*
X119795244Y-136500968D01*
X119732009Y-136695582D01*
X119700000Y-136897682D01*
X119101800Y-136897682D01*
X119101800Y-131897682D01*
X119700000Y-131897682D01*
X119700000Y-132102317D01*
X119732009Y-132304417D01*
X119795244Y-132499031D01*
X119888141Y-132681350D01*
X119888147Y-132681359D01*
X119920523Y-132725921D01*
X119920524Y-132725922D01*
X120600000Y-132046446D01*
X120600000Y-132052661D01*
X120627259Y-132154394D01*
X120679920Y-132245606D01*
X120754394Y-132320080D01*
X120845606Y-132372741D01*
X120947339Y-132400000D01*
X120953553Y-132400000D01*
X120274076Y-133079474D01*
X120318650Y-133111859D01*
X120500968Y-133204755D01*
X120695582Y-133267990D01*
X120897683Y-133300000D01*
X121102317Y-133300000D01*
X121304417Y-133267990D01*
X121499031Y-133204755D01*
X121681349Y-133111859D01*
X121725921Y-133079474D01*
X121046447Y-132400000D01*
X121052661Y-132400000D01*
X121154394Y-132372741D01*
X121245606Y-132320080D01*
X121320080Y-132245606D01*
X121372741Y-132154394D01*
X121400000Y-132052661D01*
X121400000Y-132046448D01*
X122079474Y-132725922D01*
X122079474Y-132725921D01*
X122111859Y-132681349D01*
X122204755Y-132499031D01*
X122267990Y-132304417D01*
X122300000Y-132102317D01*
X122300000Y-131897682D01*
X122267990Y-131695582D01*
X122204755Y-131500968D01*
X122111859Y-131318650D01*
X122079474Y-131274077D01*
X122079474Y-131274076D01*
X121400000Y-131953551D01*
X121400000Y-131947339D01*
X121372741Y-131845606D01*
X121320080Y-131754394D01*
X121245606Y-131679920D01*
X121154394Y-131627259D01*
X121052661Y-131600000D01*
X121046446Y-131600000D01*
X121725922Y-130920524D01*
X121725921Y-130920523D01*
X121681359Y-130888147D01*
X121681350Y-130888141D01*
X121499031Y-130795244D01*
X121304417Y-130732009D01*
X121102317Y-130700000D01*
X120897683Y-130700000D01*
X120695582Y-130732009D01*
X120500968Y-130795244D01*
X120318644Y-130888143D01*
X120274077Y-130920523D01*
X120274077Y-130920524D01*
X120953554Y-131600000D01*
X120947339Y-131600000D01*
X120845606Y-131627259D01*
X120754394Y-131679920D01*
X120679920Y-131754394D01*
X120627259Y-131845606D01*
X120600000Y-131947339D01*
X120600000Y-131953553D01*
X119920524Y-131274077D01*
X119920523Y-131274077D01*
X119888143Y-131318644D01*
X119795244Y-131500968D01*
X119732009Y-131695582D01*
X119700000Y-131897682D01*
X119101800Y-131897682D01*
X119101800Y-126897682D01*
X119700000Y-126897682D01*
X119700000Y-127102317D01*
X119732009Y-127304417D01*
X119795244Y-127499031D01*
X119888141Y-127681350D01*
X119888147Y-127681359D01*
X119920523Y-127725921D01*
X119920524Y-127725922D01*
X120600000Y-127046446D01*
X120600000Y-127052661D01*
X120627259Y-127154394D01*
X120679920Y-127245606D01*
X120754394Y-127320080D01*
X120845606Y-127372741D01*
X120947339Y-127400000D01*
X120953553Y-127400000D01*
X120274076Y-128079474D01*
X120318650Y-128111859D01*
X120500968Y-128204755D01*
X120695582Y-128267990D01*
X120897683Y-128300000D01*
X121102317Y-128300000D01*
X121304417Y-128267990D01*
X121499031Y-128204755D01*
X121681349Y-128111859D01*
X121725921Y-128079474D01*
X121046447Y-127400000D01*
X121052661Y-127400000D01*
X121154394Y-127372741D01*
X121245606Y-127320080D01*
X121320080Y-127245606D01*
X121372741Y-127154394D01*
X121400000Y-127052661D01*
X121400000Y-127046448D01*
X122079474Y-127725922D01*
X122079474Y-127725921D01*
X122111859Y-127681349D01*
X122204755Y-127499031D01*
X122267990Y-127304417D01*
X122300000Y-127102317D01*
X122300000Y-126897682D01*
X122267990Y-126695582D01*
X122204755Y-126500968D01*
X122111859Y-126318650D01*
X122079474Y-126274077D01*
X122079474Y-126274076D01*
X121400000Y-126953551D01*
X121400000Y-126947339D01*
X121372741Y-126845606D01*
X121320080Y-126754394D01*
X121245606Y-126679920D01*
X121154394Y-126627259D01*
X121052661Y-126600000D01*
X121046446Y-126600000D01*
X121725922Y-125920524D01*
X121725921Y-125920523D01*
X121681359Y-125888147D01*
X121681350Y-125888141D01*
X121499031Y-125795244D01*
X121304417Y-125732009D01*
X121102317Y-125700000D01*
X120897683Y-125700000D01*
X120695582Y-125732009D01*
X120500968Y-125795244D01*
X120318644Y-125888143D01*
X120274077Y-125920523D01*
X120274077Y-125920524D01*
X120953554Y-126600000D01*
X120947339Y-126600000D01*
X120845606Y-126627259D01*
X120754394Y-126679920D01*
X120679920Y-126754394D01*
X120627259Y-126845606D01*
X120600000Y-126947339D01*
X120600000Y-126953553D01*
X119920524Y-126274077D01*
X119920523Y-126274077D01*
X119888143Y-126318644D01*
X119795244Y-126500968D01*
X119732009Y-126695582D01*
X119700000Y-126897682D01*
X119101800Y-126897682D01*
X119101800Y-124363945D01*
X119101800Y-124363943D01*
X119060877Y-124211216D01*
X119060877Y-124211215D01*
X119023234Y-124146016D01*
X118981820Y-124074284D01*
X118870016Y-123962480D01*
X118870015Y-123962479D01*
X118865685Y-123958149D01*
X118865674Y-123958139D01*
X118263254Y-123355719D01*
X118229769Y-123294396D01*
X118234753Y-123224704D01*
X118276625Y-123168771D01*
X118342089Y-123144354D01*
X118407228Y-123157552D01*
X118429246Y-123168771D01*
X118500776Y-123205218D01*
X118500778Y-123205218D01*
X118500781Y-123205220D01*
X118605137Y-123239127D01*
X118695465Y-123268477D01*
X118763950Y-123279324D01*
X118897648Y-123300500D01*
X118897649Y-123300500D01*
X119102351Y-123300500D01*
X119102352Y-123300500D01*
X119304534Y-123268477D01*
X119499219Y-123205220D01*
X119681610Y-123112287D01*
X119774590Y-123044732D01*
X119847213Y-122991971D01*
X119847215Y-122991968D01*
X119847219Y-122991966D01*
X119991966Y-122847219D01*
X119991968Y-122847215D01*
X119991971Y-122847213D01*
X120105099Y-122691503D01*
X120112287Y-122681610D01*
X120205220Y-122499219D01*
X120268477Y-122304534D01*
X120300500Y-122102352D01*
X120300500Y-121897648D01*
X120268477Y-121695466D01*
X120205220Y-121500781D01*
X120205218Y-121500778D01*
X120205218Y-121500776D01*
X120149340Y-121391111D01*
X120112287Y-121318390D01*
X120102220Y-121304534D01*
X119991971Y-121152786D01*
X119847213Y-121008028D01*
X119681610Y-120887712D01*
X119668200Y-120880879D01*
X119617406Y-120832903D01*
X119600500Y-120770397D01*
X119600500Y-118474499D01*
X119620185Y-118407460D01*
X119672989Y-118361705D01*
X119724500Y-118350499D01*
X119897871Y-118350499D01*
X119897872Y-118350499D01*
X119957483Y-118344091D01*
X120092331Y-118293796D01*
X120207546Y-118207546D01*
X120293796Y-118092331D01*
X120344091Y-117957483D01*
X120350500Y-117897873D01*
X120350499Y-116102128D01*
X120344091Y-116042517D01*
X120329079Y-116002269D01*
X120293797Y-115907671D01*
X120293793Y-115907664D01*
X120207547Y-115792455D01*
X120207544Y-115792452D01*
X120092335Y-115706206D01*
X120092328Y-115706202D01*
X119957482Y-115655908D01*
X119957483Y-115655908D01*
X119897883Y-115649501D01*
X119897881Y-115649500D01*
X119897873Y-115649500D01*
X119897864Y-115649500D01*
X118102129Y-115649500D01*
X118102123Y-115649501D01*
X118042516Y-115655908D01*
X117907671Y-115706202D01*
X117907664Y-115706206D01*
X117792455Y-115792452D01*
X117792452Y-115792455D01*
X117706206Y-115907664D01*
X117706202Y-115907671D01*
X117655908Y-116042517D01*
X117651058Y-116087635D01*
X117649501Y-116102123D01*
X117649500Y-116102135D01*
X117649500Y-117897870D01*
X117649501Y-117897876D01*
X117655908Y-117957483D01*
X117706202Y-118092328D01*
X117706206Y-118092335D01*
X117792452Y-118207544D01*
X117792455Y-118207547D01*
X117907664Y-118293793D01*
X117907671Y-118293797D01*
X117952618Y-118310561D01*
X118042517Y-118344091D01*
X118102127Y-118350500D01*
X118275500Y-118350499D01*
X118342539Y-118370183D01*
X118388294Y-118422987D01*
X118399500Y-118474499D01*
X118399500Y-120770397D01*
X118379815Y-120837436D01*
X118331800Y-120880879D01*
X118318389Y-120887712D01*
X118152786Y-121008028D01*
X118008028Y-121152786D01*
X117887715Y-121318386D01*
X117794781Y-121500776D01*
X117731522Y-121695465D01*
X117707487Y-121847219D01*
X117699500Y-121897648D01*
X117699500Y-122102352D01*
X117701074Y-122112287D01*
X117731522Y-122304534D01*
X117794781Y-122499223D01*
X117842446Y-122592769D01*
X117855342Y-122661438D01*
X117829066Y-122726179D01*
X117771959Y-122766436D01*
X117702154Y-122769428D01*
X117644280Y-122736745D01*
X117041041Y-122133506D01*
X117007556Y-122072183D01*
X117012540Y-122002491D01*
X117041041Y-121958144D01*
X117041703Y-121957482D01*
X117151966Y-121847219D01*
X117151968Y-121847215D01*
X117151971Y-121847213D01*
X117204732Y-121774590D01*
X117272287Y-121681610D01*
X117365220Y-121499219D01*
X117428477Y-121304534D01*
X117460500Y-121102352D01*
X117460500Y-120897648D01*
X117436348Y-120745163D01*
X117428477Y-120695465D01*
X117386578Y-120566515D01*
X117365220Y-120500781D01*
X117365218Y-120500778D01*
X117365218Y-120500776D01*
X117328943Y-120429584D01*
X117272287Y-120318390D01*
X117255222Y-120294902D01*
X117151971Y-120152786D01*
X117007213Y-120008028D01*
X116841613Y-119887715D01*
X116841612Y-119887714D01*
X116841610Y-119887713D01*
X116784653Y-119858691D01*
X116659223Y-119794781D01*
X116464534Y-119731522D01*
X116289995Y-119703878D01*
X116262352Y-119699500D01*
X116057648Y-119699500D01*
X116033329Y-119703351D01*
X115855465Y-119731522D01*
X115660776Y-119794781D01*
X115478386Y-119887715D01*
X115312786Y-120008028D01*
X115168028Y-120152786D01*
X115047715Y-120318386D01*
X114954781Y-120500776D01*
X114891522Y-120695465D01*
X114859500Y-120897648D01*
X114859500Y-121102351D01*
X114891522Y-121304534D01*
X114954781Y-121499223D01*
X115047715Y-121681613D01*
X115168028Y-121847213D01*
X115312786Y-121991971D01*
X115478388Y-122112286D01*
X115501884Y-122124258D01*
X115524302Y-122145430D01*
X115548122Y-122165006D01*
X115550479Y-122170153D01*
X115552681Y-122172232D01*
X115563616Y-122196717D01*
X115564563Y-122199659D01*
X115600423Y-122333485D01*
X115610247Y-122350500D01*
X115616842Y-122361923D01*
X115616843Y-122361926D01*
X115679477Y-122470412D01*
X115679481Y-122470417D01*
X115798349Y-122589285D01*
X115798355Y-122589290D01*
X117864481Y-124655416D01*
X117897966Y-124716739D01*
X117900800Y-124743097D01*
X117900800Y-135401391D01*
X117881115Y-135468430D01*
X117864481Y-135489072D01*
X117353553Y-136000000D01*
X117864481Y-136510927D01*
X117897966Y-136572250D01*
X117900800Y-136598608D01*
X117900800Y-143898130D01*
X117900799Y-143898148D01*
X117900799Y-144063854D01*
X117900798Y-144063854D01*
X117941723Y-144216587D01*
X117941724Y-144216588D01*
X117959908Y-144248083D01*
X118020775Y-144353509D01*
X118020781Y-144353517D01*
X118139649Y-144472385D01*
X118139655Y-144472390D01*
X120215739Y-146548474D01*
X120215749Y-146548485D01*
X120220079Y-146552815D01*
X120220080Y-146552816D01*
X120331884Y-146664620D01*
X120418695Y-146714739D01*
X120418697Y-146714741D01*
X120456751Y-146736711D01*
X120468815Y-146743677D01*
X120621543Y-146784601D01*
X120621546Y-146784601D01*
X120787253Y-146784601D01*
X120787269Y-146784600D01*
X121651231Y-146784600D01*
X121651247Y-146784601D01*
X121658843Y-146784601D01*
X121816954Y-146784601D01*
X121816957Y-146784601D01*
X121969685Y-146743677D01*
X122019804Y-146714739D01*
X122106616Y-146664620D01*
X122218420Y-146552816D01*
X122218420Y-146552814D01*
X122228628Y-146542607D01*
X122228629Y-146542604D01*
X123020520Y-145750716D01*
X123099577Y-145613784D01*
X123140501Y-145461057D01*
X123140501Y-145302942D01*
X123140501Y-145295347D01*
X123140500Y-145295329D01*
X123140500Y-144987184D01*
X123160185Y-144920145D01*
X123191609Y-144886870D01*
X123256928Y-144839414D01*
X123379414Y-144716928D01*
X123481232Y-144576788D01*
X123559873Y-144422445D01*
X123613402Y-144257701D01*
X123640500Y-144086611D01*
X123640500Y-143913389D01*
X123613402Y-143742299D01*
X123559873Y-143577555D01*
X123481232Y-143423212D01*
X123379414Y-143283072D01*
X123256928Y-143160586D01*
X123116788Y-143058768D01*
X122962445Y-142980127D01*
X122797701Y-142926598D01*
X122797699Y-142926597D01*
X122797698Y-142926597D01*
X122652857Y-142903657D01*
X122626611Y-142899500D01*
X122453389Y-142899500D01*
X122427143Y-142903657D01*
X122282302Y-142926597D01*
X122117549Y-142980129D01*
X122050794Y-143014142D01*
X121982125Y-143027038D01*
X121917384Y-143000761D01*
X121877128Y-142943654D01*
X121870500Y-142903657D01*
X121870500Y-142464397D01*
X121890185Y-142397358D01*
X121906819Y-142376716D01*
X128337819Y-135945716D01*
X128399142Y-135912231D01*
X128468834Y-135917215D01*
X128524767Y-135959087D01*
X128549184Y-136024551D01*
X128549500Y-136033397D01*
X128549500Y-142586863D01*
X128529815Y-142653902D01*
X128477011Y-142699657D01*
X128407853Y-142709601D01*
X128387182Y-142704794D01*
X128196240Y-142642753D01*
X128034957Y-142617208D01*
X127986287Y-142609500D01*
X127773713Y-142609500D01*
X127725042Y-142617208D01*
X127563760Y-142642753D01*
X127563757Y-142642754D01*
X127366679Y-142706789D01*
X127361585Y-142708444D01*
X127172179Y-142804951D01*
X127000213Y-142929890D01*
X126849890Y-143080213D01*
X126724951Y-143252179D01*
X126628444Y-143441585D01*
X126562753Y-143643760D01*
X126529500Y-143853713D01*
X126529500Y-144066286D01*
X126562735Y-144276127D01*
X126562754Y-144276243D01*
X126626486Y-144472390D01*
X126628444Y-144478414D01*
X126724951Y-144667820D01*
X126849890Y-144839786D01*
X126963430Y-144953326D01*
X126996915Y-145014649D01*
X126991931Y-145084341D01*
X126950059Y-145140274D01*
X126919083Y-145157189D01*
X126787669Y-145206203D01*
X126787664Y-145206206D01*
X126672455Y-145292452D01*
X126672452Y-145292455D01*
X126586206Y-145407664D01*
X126586202Y-145407671D01*
X126535908Y-145542517D01*
X126529501Y-145602116D01*
X126529500Y-145602135D01*
X126529500Y-147397870D01*
X126529501Y-147397876D01*
X126535908Y-147457483D01*
X126586202Y-147592328D01*
X126586206Y-147592335D01*
X126672452Y-147707544D01*
X126672455Y-147707547D01*
X126787664Y-147793793D01*
X126787671Y-147793797D01*
X126922517Y-147844091D01*
X126922516Y-147844091D01*
X126929444Y-147844835D01*
X126982127Y-147850500D01*
X128777872Y-147850499D01*
X128837483Y-147844091D01*
X128972331Y-147793796D01*
X129087546Y-147707546D01*
X129173796Y-147592331D01*
X129222810Y-147460916D01*
X129264681Y-147404984D01*
X129330145Y-147380566D01*
X129398418Y-147395417D01*
X129426673Y-147416569D01*
X129540213Y-147530109D01*
X129712179Y-147655048D01*
X129712181Y-147655049D01*
X129712184Y-147655051D01*
X129901588Y-147751557D01*
X130103757Y-147817246D01*
X130313713Y-147850500D01*
X130313714Y-147850500D01*
X130526286Y-147850500D01*
X130526287Y-147850500D01*
X130736243Y-147817246D01*
X130938412Y-147751557D01*
X131127816Y-147655051D01*
X131214138Y-147592335D01*
X131299786Y-147530109D01*
X131299788Y-147530106D01*
X131299792Y-147530104D01*
X131450104Y-147379792D01*
X131450106Y-147379788D01*
X131450109Y-147379786D01*
X131575048Y-147207820D01*
X131575047Y-147207820D01*
X131575051Y-147207816D01*
X131579514Y-147199054D01*
X131627488Y-147148259D01*
X131695308Y-147131463D01*
X131761444Y-147153999D01*
X131800486Y-147199056D01*
X131804951Y-147207820D01*
X131929890Y-147379786D01*
X132080213Y-147530109D01*
X132252179Y-147655048D01*
X132252181Y-147655049D01*
X132252184Y-147655051D01*
X132441588Y-147751557D01*
X132643757Y-147817246D01*
X132853713Y-147850500D01*
X132853714Y-147850500D01*
X133066286Y-147850500D01*
X133066287Y-147850500D01*
X133276243Y-147817246D01*
X133478412Y-147751557D01*
X133667816Y-147655051D01*
X133754138Y-147592335D01*
X133839786Y-147530109D01*
X133839788Y-147530106D01*
X133839792Y-147530104D01*
X133990104Y-147379792D01*
X133990106Y-147379788D01*
X133990109Y-147379786D01*
X134115048Y-147207820D01*
X134115047Y-147207820D01*
X134115051Y-147207816D01*
X134119514Y-147199054D01*
X134167488Y-147148259D01*
X134235308Y-147131463D01*
X134301444Y-147153999D01*
X134340486Y-147199056D01*
X134344951Y-147207820D01*
X134469890Y-147379786D01*
X134620213Y-147530109D01*
X134792179Y-147655048D01*
X134792181Y-147655049D01*
X134792184Y-147655051D01*
X134981588Y-147751557D01*
X135183757Y-147817246D01*
X135393713Y-147850500D01*
X135393714Y-147850500D01*
X135606286Y-147850500D01*
X135606287Y-147850500D01*
X135816243Y-147817246D01*
X136018412Y-147751557D01*
X136207816Y-147655051D01*
X136294138Y-147592335D01*
X136379786Y-147530109D01*
X136379788Y-147530106D01*
X136379792Y-147530104D01*
X136530104Y-147379792D01*
X136530106Y-147379788D01*
X136530109Y-147379786D01*
X136655048Y-147207820D01*
X136655047Y-147207820D01*
X136655051Y-147207816D01*
X136751557Y-147018412D01*
X136817246Y-146816243D01*
X136850500Y-146606287D01*
X136850500Y-146393713D01*
X136817246Y-146183757D01*
X136751557Y-145981588D01*
X136655051Y-145792184D01*
X136655049Y-145792181D01*
X136655048Y-145792179D01*
X136530109Y-145620213D01*
X136379786Y-145469890D01*
X136207817Y-145344949D01*
X136198504Y-145340204D01*
X136147707Y-145292230D01*
X136130912Y-145224409D01*
X136153449Y-145158274D01*
X136198507Y-145119232D01*
X136207555Y-145114622D01*
X136261716Y-145075270D01*
X136261717Y-145075270D01*
X135629408Y-144442962D01*
X135692993Y-144425925D01*
X135807007Y-144360099D01*
X135900099Y-144267007D01*
X135965925Y-144152993D01*
X135982962Y-144089408D01*
X136615270Y-144721717D01*
X136615270Y-144721716D01*
X136654622Y-144667554D01*
X136751095Y-144478217D01*
X136816757Y-144276130D01*
X136816757Y-144276127D01*
X136850000Y-144066246D01*
X136850000Y-143853753D01*
X136816757Y-143643872D01*
X136816757Y-143643869D01*
X136751095Y-143441782D01*
X136654624Y-143252449D01*
X136615270Y-143198282D01*
X136615269Y-143198282D01*
X135982962Y-143830590D01*
X135965925Y-143767007D01*
X135900099Y-143652993D01*
X135807007Y-143559901D01*
X135692993Y-143494075D01*
X135629408Y-143477037D01*
X136261716Y-142844728D01*
X136207550Y-142805375D01*
X136018217Y-142708904D01*
X135816129Y-142643242D01*
X135606246Y-142610000D01*
X135393754Y-142610000D01*
X135183872Y-142643242D01*
X135183869Y-142643242D01*
X134981782Y-142708904D01*
X134792440Y-142805379D01*
X134789284Y-142807314D01*
X134721837Y-142825554D01*
X134655236Y-142804435D01*
X134610625Y-142750660D01*
X134600500Y-142701583D01*
X134600500Y-139216976D01*
X134620185Y-139149937D01*
X134672989Y-139104182D01*
X134700135Y-139096736D01*
X134699932Y-139095876D01*
X134707479Y-139094092D01*
X134707481Y-139094091D01*
X134707483Y-139094091D01*
X134842331Y-139043796D01*
X134957546Y-138957546D01*
X134973459Y-138936289D01*
X135417261Y-138936289D01*
X135417262Y-138936290D01*
X135423471Y-138940801D01*
X135577742Y-139019408D01*
X135742415Y-139072914D01*
X135913429Y-139100000D01*
X136086571Y-139100000D01*
X136257584Y-139072914D01*
X136422257Y-139019408D01*
X136576525Y-138940803D01*
X136582736Y-138936289D01*
X136582737Y-138936289D01*
X136000001Y-138353553D01*
X136000000Y-138353553D01*
X135417261Y-138936289D01*
X134973459Y-138936289D01*
X135043796Y-138842331D01*
X135094091Y-138707483D01*
X135100500Y-138647873D01*
X135100499Y-138597305D01*
X135120182Y-138530269D01*
X135136818Y-138509626D01*
X135646446Y-138000000D01*
X135646446Y-137999999D01*
X135136818Y-137490371D01*
X135103333Y-137429048D01*
X135100499Y-137402690D01*
X135100499Y-137352129D01*
X135100498Y-137352123D01*
X135094091Y-137292516D01*
X135043797Y-137157671D01*
X135043793Y-137157664D01*
X134957547Y-137042455D01*
X134957544Y-137042452D01*
X134842335Y-136956206D01*
X134842328Y-136956202D01*
X134707482Y-136905908D01*
X134699938Y-136904126D01*
X134700474Y-136901853D01*
X134646688Y-136879571D01*
X134606843Y-136822177D01*
X134600500Y-136783024D01*
X134600500Y-135451797D01*
X134620185Y-135384758D01*
X134636819Y-135364116D01*
X135020343Y-134980592D01*
X135480520Y-134520416D01*
X135542825Y-134412498D01*
X135593391Y-134364284D01*
X135650212Y-134350499D01*
X135897871Y-134350499D01*
X135897872Y-134350499D01*
X135957483Y-134344091D01*
X136092331Y-134293796D01*
X136207546Y-134207546D01*
X136293796Y-134092331D01*
X136344091Y-133957483D01*
X136350500Y-133897873D01*
X136350499Y-132102128D01*
X136344091Y-132042517D01*
X136329162Y-132002491D01*
X136293797Y-131907671D01*
X136293793Y-131907664D01*
X136207547Y-131792455D01*
X136207544Y-131792452D01*
X136092335Y-131706206D01*
X136092328Y-131706202D01*
X135957482Y-131655908D01*
X135957483Y-131655908D01*
X135897883Y-131649501D01*
X135897881Y-131649500D01*
X135897873Y-131649500D01*
X135897864Y-131649500D01*
X134102129Y-131649500D01*
X134102123Y-131649501D01*
X134042516Y-131655908D01*
X133907671Y-131706202D01*
X133907664Y-131706206D01*
X133792455Y-131792452D01*
X133792452Y-131792455D01*
X133706206Y-131907664D01*
X133706202Y-131907671D01*
X133655908Y-132042517D01*
X133649501Y-132102116D01*
X133649501Y-132102123D01*
X133649500Y-132102135D01*
X133649500Y-133897870D01*
X133649501Y-133897876D01*
X133655908Y-133957483D01*
X133706202Y-134092328D01*
X133706206Y-134092335D01*
X133792451Y-134207543D01*
X133792452Y-134207544D01*
X133792454Y-134207546D01*
X133850872Y-134251277D01*
X133892741Y-134307209D01*
X133897725Y-134376900D01*
X133864240Y-134438223D01*
X133634035Y-134668428D01*
X133634027Y-134668436D01*
X133631286Y-134671178D01*
X133631284Y-134671180D01*
X133519480Y-134782984D01*
X133500141Y-134816481D01*
X133493942Y-134827217D01*
X133493941Y-134827219D01*
X133448510Y-134905908D01*
X133440423Y-134919915D01*
X133402575Y-135061165D01*
X133366209Y-135120825D01*
X133303362Y-135151354D01*
X133233987Y-135143059D01*
X133180109Y-135098573D01*
X133158835Y-135032021D01*
X133158800Y-135029071D01*
X133158800Y-131893496D01*
X133178485Y-131826457D01*
X133195114Y-131805820D01*
X135358506Y-129642427D01*
X135358511Y-129642424D01*
X135368714Y-129632220D01*
X135368716Y-129632220D01*
X135480520Y-129520416D01*
X135530931Y-129433100D01*
X135542829Y-129412491D01*
X135593397Y-129364281D01*
X135650212Y-129350499D01*
X135897871Y-129350499D01*
X135897872Y-129350499D01*
X135957483Y-129344091D01*
X136092331Y-129293796D01*
X136207546Y-129207546D01*
X136293796Y-129092331D01*
X136344091Y-128957483D01*
X136350500Y-128897873D01*
X136350499Y-127550097D01*
X136370184Y-127483059D01*
X136374093Y-127477333D01*
X136379859Y-127469375D01*
X136429320Y-127419916D01*
X136479439Y-127333104D01*
X136508377Y-127282985D01*
X136549301Y-127130257D01*
X136549301Y-126972143D01*
X136549301Y-126964548D01*
X136549300Y-126964530D01*
X136549300Y-117255290D01*
X136568985Y-117188251D01*
X136621789Y-117142496D01*
X136690947Y-117132552D01*
X136754503Y-117161577D01*
X136772565Y-117180978D01*
X136782595Y-117194376D01*
X136792454Y-117207546D01*
X136792455Y-117207547D01*
X136907664Y-117293793D01*
X136907671Y-117293797D01*
X136952618Y-117310561D01*
X137042517Y-117344091D01*
X137102127Y-117350500D01*
X137275500Y-117350499D01*
X137342539Y-117370183D01*
X137388294Y-117422987D01*
X137399500Y-117474499D01*
X137399500Y-134996903D01*
X137379815Y-135063942D01*
X137363181Y-135084584D01*
X136768339Y-135679425D01*
X136707016Y-135712910D01*
X136704850Y-135713361D01*
X136549508Y-135744261D01*
X136549498Y-135744264D01*
X136403827Y-135804602D01*
X136403814Y-135804609D01*
X136272711Y-135892210D01*
X136272707Y-135892213D01*
X136161213Y-136003707D01*
X136161210Y-136003711D01*
X136073609Y-136134814D01*
X136073602Y-136134827D01*
X136013264Y-136280498D01*
X136013261Y-136280510D01*
X135982500Y-136435153D01*
X135982500Y-136592846D01*
X136014451Y-136753472D01*
X136011815Y-136753996D01*
X136011842Y-136812595D01*
X135974094Y-136871390D01*
X135912247Y-136900187D01*
X135742415Y-136927085D01*
X135577740Y-136980592D01*
X135423480Y-137059193D01*
X135423463Y-137059203D01*
X135417261Y-137063708D01*
X135417261Y-137063709D01*
X136058698Y-137705145D01*
X136039496Y-137700000D01*
X135960504Y-137700000D01*
X135884204Y-137720444D01*
X135815795Y-137759940D01*
X135759940Y-137815795D01*
X135720444Y-137884204D01*
X135700000Y-137960504D01*
X135700000Y-138039496D01*
X135720444Y-138115796D01*
X135759940Y-138184205D01*
X135815795Y-138240060D01*
X135884204Y-138279556D01*
X135960504Y-138300000D01*
X136039496Y-138300000D01*
X136115796Y-138279556D01*
X136184205Y-138240060D01*
X136240060Y-138184205D01*
X136279556Y-138115796D01*
X136300000Y-138039496D01*
X136300000Y-137960504D01*
X136294854Y-137941300D01*
X136936289Y-138582736D01*
X136940803Y-138576525D01*
X137019408Y-138422257D01*
X137072914Y-138257584D01*
X137100000Y-138086571D01*
X137100000Y-137913428D01*
X137072914Y-137742415D01*
X137019407Y-137577740D01*
X136956103Y-137453501D01*
X136943206Y-137384831D01*
X136969482Y-137320091D01*
X137019134Y-137282644D01*
X137073218Y-137260242D01*
X137162173Y-137223397D01*
X137162176Y-137223395D01*
X137162179Y-137223394D01*
X137293289Y-137135789D01*
X137404789Y-137024289D01*
X137492394Y-136893179D01*
X137552737Y-136747497D01*
X137582353Y-136598608D01*
X137583638Y-136592150D01*
X137616023Y-136530239D01*
X137617521Y-136528713D01*
X138368713Y-135777521D01*
X138368716Y-135777520D01*
X138480520Y-135665716D01*
X138530639Y-135578904D01*
X138559577Y-135528785D01*
X138600501Y-135376057D01*
X138600501Y-135217943D01*
X138600501Y-135210348D01*
X138600500Y-135210330D01*
X138600500Y-117474499D01*
X138620185Y-117407460D01*
X138672989Y-117361705D01*
X138724500Y-117350499D01*
X138897871Y-117350499D01*
X138897872Y-117350499D01*
X138957483Y-117344091D01*
X139092331Y-117293796D01*
X139207546Y-117207546D01*
X139276234Y-117115789D01*
X139332167Y-117073920D01*
X139401859Y-117068936D01*
X139463182Y-117102421D01*
X139496666Y-117163745D01*
X139499500Y-117190102D01*
X139499500Y-149375500D01*
X139479815Y-149442539D01*
X139427011Y-149488294D01*
X139375500Y-149499500D01*
X100624500Y-149499500D01*
X100557461Y-149479815D01*
X100511706Y-149427011D01*
X100500500Y-149375500D01*
X100500500Y-145190102D01*
X100520185Y-145123063D01*
X100572989Y-145077308D01*
X100642147Y-145067364D01*
X100705703Y-145096389D01*
X100723762Y-145115786D01*
X100792454Y-145207546D01*
X100814980Y-145224409D01*
X100907664Y-145293793D01*
X100907671Y-145293797D01*
X101042517Y-145344091D01*
X101042516Y-145344091D01*
X101049444Y-145344835D01*
X101102127Y-145350500D01*
X102897872Y-145350499D01*
X102957483Y-145344091D01*
X103092331Y-145293796D01*
X103207546Y-145207546D01*
X103293796Y-145092331D01*
X103344091Y-144957483D01*
X103350500Y-144897873D01*
X103350499Y-143255295D01*
X103370184Y-143188257D01*
X103422987Y-143142502D01*
X103492146Y-143132558D01*
X103555702Y-143161583D01*
X103562180Y-143167615D01*
X105602712Y-145208147D01*
X105636197Y-145269470D01*
X105631213Y-145339162D01*
X105614299Y-145370138D01*
X105586203Y-145407669D01*
X105586202Y-145407671D01*
X105535908Y-145542517D01*
X105529501Y-145602116D01*
X105529500Y-145602135D01*
X105529500Y-147397870D01*
X105529501Y-147397876D01*
X105535908Y-147457483D01*
X105586202Y-147592328D01*
X105586206Y-147592335D01*
X105672452Y-147707544D01*
X105672455Y-147707547D01*
X105787664Y-147793793D01*
X105787671Y-147793797D01*
X105922517Y-147844091D01*
X105922516Y-147844091D01*
X105929444Y-147844835D01*
X105982127Y-147850500D01*
X107777872Y-147850499D01*
X107837483Y-147844091D01*
X107972331Y-147793796D01*
X108087546Y-147707546D01*
X108173796Y-147592331D01*
X108222810Y-147460916D01*
X108264681Y-147404984D01*
X108330145Y-147380566D01*
X108398418Y-147395417D01*
X108426673Y-147416569D01*
X108540213Y-147530109D01*
X108712179Y-147655048D01*
X108712181Y-147655049D01*
X108712184Y-147655051D01*
X108901588Y-147751557D01*
X109103757Y-147817246D01*
X109313713Y-147850500D01*
X109313714Y-147850500D01*
X109526286Y-147850500D01*
X109526287Y-147850500D01*
X109736243Y-147817246D01*
X109938412Y-147751557D01*
X110127816Y-147655051D01*
X110214138Y-147592335D01*
X110299786Y-147530109D01*
X110299786Y-147530107D01*
X110299792Y-147530104D01*
X110312248Y-147517647D01*
X110373568Y-147484162D01*
X110443260Y-147489144D01*
X110487611Y-147517646D01*
X110993239Y-148023274D01*
X110993249Y-148023285D01*
X110997579Y-148027615D01*
X110997580Y-148027616D01*
X111109384Y-148139420D01*
X111109386Y-148139421D01*
X111109390Y-148139424D01*
X111246309Y-148218473D01*
X111246316Y-148218477D01*
X111358119Y-148248434D01*
X111399042Y-148259400D01*
X111399043Y-148259400D01*
X113254431Y-148259400D01*
X113254447Y-148259401D01*
X113262043Y-148259401D01*
X113420154Y-148259401D01*
X113420157Y-148259401D01*
X113572885Y-148218477D01*
X113623004Y-148189539D01*
X113709816Y-148139420D01*
X113821620Y-148027616D01*
X113821620Y-148027614D01*
X113831828Y-148017407D01*
X113831830Y-148017404D01*
X114015478Y-147833755D01*
X114076799Y-147800272D01*
X114141473Y-147803506D01*
X114183757Y-147817246D01*
X114393713Y-147850500D01*
X114393714Y-147850500D01*
X114606286Y-147850500D01*
X114606287Y-147850500D01*
X114816243Y-147817246D01*
X115018412Y-147751557D01*
X115207816Y-147655051D01*
X115294138Y-147592335D01*
X115379786Y-147530109D01*
X115379788Y-147530106D01*
X115379792Y-147530104D01*
X115530104Y-147379792D01*
X115530106Y-147379788D01*
X115530109Y-147379786D01*
X115655048Y-147207820D01*
X115655047Y-147207820D01*
X115655051Y-147207816D01*
X115751557Y-147018412D01*
X115817246Y-146816243D01*
X115850500Y-146606287D01*
X115850500Y-146393713D01*
X115817246Y-146183757D01*
X115751557Y-145981588D01*
X115655051Y-145792184D01*
X115655049Y-145792181D01*
X115655048Y-145792179D01*
X115530109Y-145620213D01*
X115379786Y-145469890D01*
X115207817Y-145344949D01*
X115198504Y-145340204D01*
X115147707Y-145292230D01*
X115130912Y-145224409D01*
X115153449Y-145158274D01*
X115198507Y-145119232D01*
X115207555Y-145114622D01*
X115261716Y-145075270D01*
X115261717Y-145075270D01*
X114629408Y-144442962D01*
X114692993Y-144425925D01*
X114807007Y-144360099D01*
X114900099Y-144267007D01*
X114965925Y-144152993D01*
X114982962Y-144089409D01*
X115615270Y-144721717D01*
X115615270Y-144721716D01*
X115654622Y-144667554D01*
X115751095Y-144478217D01*
X115816757Y-144276130D01*
X115816757Y-144276127D01*
X115850000Y-144066246D01*
X115850000Y-143853753D01*
X115816757Y-143643872D01*
X115816757Y-143643869D01*
X115751095Y-143441782D01*
X115654624Y-143252449D01*
X115615270Y-143198282D01*
X115615269Y-143198282D01*
X114982962Y-143830590D01*
X114965925Y-143767007D01*
X114900099Y-143652993D01*
X114807007Y-143559901D01*
X114692993Y-143494075D01*
X114629409Y-143477037D01*
X115261716Y-142844728D01*
X115207550Y-142805375D01*
X115018217Y-142708904D01*
X114816129Y-142643242D01*
X114606246Y-142610000D01*
X114393754Y-142610000D01*
X114183872Y-142643242D01*
X114183869Y-142643242D01*
X113981782Y-142708904D01*
X113792439Y-142805380D01*
X113738282Y-142844727D01*
X113738282Y-142844728D01*
X114370591Y-143477037D01*
X114307007Y-143494075D01*
X114192993Y-143559901D01*
X114099901Y-143652993D01*
X114034075Y-143767007D01*
X114017037Y-143830591D01*
X113384728Y-143198282D01*
X113384727Y-143198282D01*
X113345380Y-143252440D01*
X113345376Y-143252446D01*
X113340760Y-143261505D01*
X113292781Y-143312297D01*
X113224959Y-143329087D01*
X113158826Y-143306543D01*
X113119794Y-143261493D01*
X113115051Y-143252184D01*
X113115049Y-143252181D01*
X113115048Y-143252179D01*
X112990109Y-143080213D01*
X112839786Y-142929890D01*
X112667815Y-142804948D01*
X112667814Y-142804947D01*
X112628205Y-142784765D01*
X112577409Y-142736791D01*
X112560500Y-142674281D01*
X112560500Y-140241796D01*
X112580185Y-140174757D01*
X112596814Y-140154120D01*
X115358506Y-137392427D01*
X115358511Y-137392424D01*
X115368714Y-137382220D01*
X115368716Y-137382220D01*
X115480520Y-137270416D01*
X115542825Y-137162498D01*
X115593391Y-137114284D01*
X115644627Y-137101853D01*
X115644576Y-137100900D01*
X115644571Y-137100854D01*
X115644573Y-137100853D01*
X115644564Y-137100676D01*
X115647857Y-137100499D01*
X115647872Y-137100499D01*
X115707483Y-137094091D01*
X115842331Y-137043796D01*
X115957546Y-136957546D01*
X115973459Y-136936289D01*
X116417261Y-136936289D01*
X116417262Y-136936290D01*
X116423471Y-136940801D01*
X116577742Y-137019408D01*
X116742415Y-137072914D01*
X116913429Y-137100000D01*
X117086571Y-137100000D01*
X117257584Y-137072914D01*
X117422257Y-137019408D01*
X117576525Y-136940803D01*
X117582736Y-136936289D01*
X117582737Y-136936289D01*
X117000001Y-136353553D01*
X117000000Y-136353553D01*
X116417261Y-136936289D01*
X115973459Y-136936289D01*
X116043796Y-136842331D01*
X116094091Y-136707483D01*
X116095383Y-136695466D01*
X116100499Y-136647886D01*
X116100499Y-136647882D01*
X116100500Y-136647873D01*
X116100499Y-136597305D01*
X116120182Y-136530269D01*
X116136818Y-136509626D01*
X116646446Y-136000000D01*
X116646446Y-135999999D01*
X116606951Y-135960504D01*
X116700000Y-135960504D01*
X116700000Y-136039496D01*
X116720444Y-136115796D01*
X116759940Y-136184205D01*
X116815795Y-136240060D01*
X116884204Y-136279556D01*
X116960504Y-136300000D01*
X117039496Y-136300000D01*
X117115796Y-136279556D01*
X117184205Y-136240060D01*
X117240060Y-136184205D01*
X117279556Y-136115796D01*
X117300000Y-136039496D01*
X117300000Y-135960504D01*
X117279556Y-135884204D01*
X117240060Y-135815795D01*
X117184205Y-135759940D01*
X117115796Y-135720444D01*
X117039496Y-135700000D01*
X116960504Y-135700000D01*
X116884204Y-135720444D01*
X116815795Y-135759940D01*
X116759940Y-135815795D01*
X116720444Y-135884204D01*
X116700000Y-135960504D01*
X116606951Y-135960504D01*
X116136818Y-135490371D01*
X116103333Y-135429048D01*
X116100499Y-135402690D01*
X116100499Y-135352129D01*
X116100498Y-135352123D01*
X116100497Y-135352116D01*
X116094091Y-135292517D01*
X116043796Y-135157669D01*
X116043794Y-135157666D01*
X116043793Y-135157664D01*
X115973457Y-135063708D01*
X116417261Y-135063708D01*
X116417261Y-135063709D01*
X117000000Y-135646446D01*
X117000001Y-135646446D01*
X117582737Y-135063709D01*
X117576525Y-135059196D01*
X117422259Y-134980592D01*
X117257584Y-134927085D01*
X117086571Y-134900000D01*
X116913429Y-134900000D01*
X116742415Y-134927085D01*
X116577740Y-134980592D01*
X116423480Y-135059193D01*
X116423463Y-135059203D01*
X116417261Y-135063708D01*
X115973457Y-135063708D01*
X115957547Y-135042455D01*
X115957544Y-135042452D01*
X115842335Y-134956206D01*
X115842328Y-134956202D01*
X115707482Y-134905908D01*
X115699938Y-134904126D01*
X115700474Y-134901853D01*
X115646688Y-134879571D01*
X115606843Y-134822177D01*
X115600500Y-134783024D01*
X115600500Y-132862645D01*
X115600500Y-132862643D01*
X115559577Y-132709916D01*
X115543084Y-132681349D01*
X115480524Y-132572990D01*
X115480521Y-132572986D01*
X115480520Y-132572984D01*
X115368716Y-132461180D01*
X115368715Y-132461179D01*
X115364385Y-132456849D01*
X115364374Y-132456839D01*
X115041041Y-132133506D01*
X115007556Y-132072183D01*
X115012540Y-132002491D01*
X115041041Y-131958144D01*
X115091521Y-131907664D01*
X115151966Y-131847219D01*
X115151968Y-131847215D01*
X115151971Y-131847213D01*
X115219407Y-131754394D01*
X115272287Y-131681610D01*
X115365220Y-131499219D01*
X115428477Y-131304534D01*
X115460500Y-131102352D01*
X115460500Y-130897648D01*
X115440345Y-130770397D01*
X115428477Y-130695465D01*
X115397458Y-130600000D01*
X115365220Y-130500781D01*
X115365218Y-130500778D01*
X115365218Y-130500776D01*
X115320652Y-130413312D01*
X115272287Y-130318390D01*
X115240092Y-130274077D01*
X115151971Y-130152786D01*
X115007213Y-130008028D01*
X114841613Y-129887715D01*
X114841612Y-129887714D01*
X114841610Y-129887713D01*
X114784653Y-129858691D01*
X114659223Y-129794781D01*
X114464534Y-129731522D01*
X114289995Y-129703878D01*
X114262352Y-129699500D01*
X114057648Y-129699500D01*
X114033329Y-129703351D01*
X113855465Y-129731522D01*
X113660776Y-129794781D01*
X113478386Y-129887715D01*
X113312786Y-130008028D01*
X113168028Y-130152786D01*
X113047715Y-130318386D01*
X112954781Y-130500776D01*
X112891522Y-130695465D01*
X112867619Y-130846385D01*
X112859500Y-130897648D01*
X112859500Y-131102352D01*
X112863878Y-131129995D01*
X112891522Y-131304534D01*
X112954781Y-131499223D01*
X113018691Y-131624653D01*
X113047585Y-131681359D01*
X113047715Y-131681613D01*
X113168028Y-131847213D01*
X113312786Y-131991971D01*
X113478388Y-132112286D01*
X113501884Y-132124258D01*
X113523683Y-132144845D01*
X113547119Y-132163554D01*
X113549977Y-132169678D01*
X113552681Y-132172232D01*
X113563063Y-132195042D01*
X113564336Y-132198809D01*
X113600423Y-132333485D01*
X113617012Y-132362218D01*
X113623160Y-132372867D01*
X113623161Y-132372869D01*
X113679477Y-132470412D01*
X113679481Y-132470417D01*
X113798349Y-132589285D01*
X113798355Y-132589290D01*
X114363181Y-133154116D01*
X114396666Y-133215439D01*
X114399500Y-133241797D01*
X114399500Y-134783023D01*
X114379815Y-134850062D01*
X114327011Y-134895817D01*
X114299865Y-134903266D01*
X114300068Y-134904124D01*
X114292520Y-134905907D01*
X114157671Y-134956202D01*
X114157664Y-134956206D01*
X114042455Y-135042452D01*
X114042452Y-135042455D01*
X113956206Y-135157664D01*
X113956202Y-135157671D01*
X113905908Y-135292517D01*
X113901015Y-135338035D01*
X113899501Y-135352123D01*
X113899500Y-135352135D01*
X113899500Y-136647870D01*
X113899501Y-136647876D01*
X113905908Y-136707483D01*
X113956202Y-136842328D01*
X113956204Y-136842331D01*
X114000523Y-136901534D01*
X114024940Y-136966999D01*
X114010088Y-137035272D01*
X113988937Y-137063526D01*
X111598381Y-139454083D01*
X111537058Y-139487568D01*
X111467366Y-139482584D01*
X111411433Y-139440712D01*
X111387016Y-139375248D01*
X111386700Y-139366402D01*
X111386700Y-128753545D01*
X111386700Y-128753543D01*
X111351507Y-128622201D01*
X111345777Y-128600815D01*
X111316839Y-128550695D01*
X111266720Y-128463884D01*
X111154916Y-128352080D01*
X111154915Y-128352079D01*
X111150585Y-128347749D01*
X111150574Y-128347739D01*
X110784874Y-127982039D01*
X110751389Y-127920716D01*
X110750938Y-127918549D01*
X110720038Y-127763210D01*
X110720037Y-127763203D01*
X110704595Y-127725922D01*
X110659697Y-127617527D01*
X110659690Y-127617514D01*
X110572089Y-127486411D01*
X110572086Y-127486407D01*
X110460592Y-127374913D01*
X110460588Y-127374910D01*
X110329485Y-127287309D01*
X110329472Y-127287302D01*
X110183801Y-127226964D01*
X110183789Y-127226961D01*
X110029145Y-127196200D01*
X110029142Y-127196200D01*
X109871458Y-127196200D01*
X109871455Y-127196200D01*
X109716810Y-127226961D01*
X109716798Y-127226964D01*
X109571127Y-127287302D01*
X109571114Y-127287309D01*
X109440011Y-127374910D01*
X109440007Y-127374913D01*
X109328513Y-127486407D01*
X109328510Y-127486411D01*
X109240909Y-127617514D01*
X109240902Y-127617527D01*
X109180564Y-127763198D01*
X109180561Y-127763210D01*
X109149800Y-127917853D01*
X109149800Y-128075546D01*
X109180561Y-128230189D01*
X109180564Y-128230201D01*
X109240902Y-128375872D01*
X109240909Y-128375885D01*
X109328510Y-128506988D01*
X109328513Y-128506992D01*
X109440007Y-128618486D01*
X109440011Y-128618489D01*
X109571114Y-128706090D01*
X109571127Y-128706097D01*
X109716798Y-128766435D01*
X109716803Y-128766437D01*
X109781447Y-128779295D01*
X109872149Y-128797338D01*
X109934060Y-128829723D01*
X109935639Y-128831274D01*
X110149381Y-129045016D01*
X110182866Y-129106339D01*
X110185700Y-129132697D01*
X110185700Y-142632092D01*
X110166015Y-142699131D01*
X110113211Y-142744886D01*
X110044053Y-142754830D01*
X110005406Y-142742577D01*
X109938417Y-142708445D01*
X109938414Y-142708444D01*
X109938412Y-142708443D01*
X109736243Y-142642754D01*
X109736241Y-142642753D01*
X109736240Y-142642753D01*
X109574957Y-142617208D01*
X109526287Y-142609500D01*
X109313713Y-142609500D01*
X109265042Y-142617208D01*
X109103760Y-142642753D01*
X109103757Y-142642754D01*
X108906679Y-142706789D01*
X108901585Y-142708444D01*
X108712179Y-142804951D01*
X108540213Y-142929890D01*
X108389894Y-143080209D01*
X108364818Y-143114724D01*
X108309487Y-143157389D01*
X108239874Y-143163368D01*
X108178079Y-143130762D01*
X108143722Y-143069923D01*
X108140500Y-143041838D01*
X108140500Y-138987184D01*
X108160185Y-138920145D01*
X108191609Y-138886870D01*
X108256928Y-138839414D01*
X108379414Y-138716928D01*
X108481232Y-138576788D01*
X108559873Y-138422445D01*
X108613402Y-138257701D01*
X108640500Y-138086611D01*
X108640500Y-137913389D01*
X108613402Y-137742299D01*
X108559873Y-137577555D01*
X108481232Y-137423212D01*
X108379414Y-137283072D01*
X108256928Y-137160586D01*
X108116788Y-137058768D01*
X107962445Y-136980127D01*
X107797701Y-136926598D01*
X107797699Y-136926597D01*
X107797698Y-136926597D01*
X107641467Y-136901853D01*
X107626611Y-136899500D01*
X107453389Y-136899500D01*
X107438533Y-136901853D01*
X107282302Y-136926597D01*
X107117549Y-136980129D01*
X107050794Y-137014142D01*
X106982125Y-137027038D01*
X106917384Y-137000761D01*
X106877128Y-136943654D01*
X106870500Y-136903657D01*
X106870500Y-125897648D01*
X112859500Y-125897648D01*
X112859500Y-126102351D01*
X112891522Y-126304534D01*
X112954781Y-126499223D01*
X113011412Y-126610365D01*
X113023668Y-126634420D01*
X113047715Y-126681613D01*
X113168028Y-126847213D01*
X113312786Y-126991971D01*
X113464667Y-127102317D01*
X113478390Y-127112287D01*
X113561030Y-127154394D01*
X113660776Y-127205218D01*
X113660778Y-127205218D01*
X113660781Y-127205220D01*
X113765137Y-127239127D01*
X113855465Y-127268477D01*
X113947064Y-127282985D01*
X114057648Y-127300500D01*
X114057649Y-127300500D01*
X114262351Y-127300500D01*
X114262352Y-127300500D01*
X114464534Y-127268477D01*
X114659219Y-127205220D01*
X114841610Y-127112287D01*
X114996160Y-127000001D01*
X115007213Y-126991971D01*
X115007215Y-126991968D01*
X115007219Y-126991966D01*
X115151966Y-126847219D01*
X115151968Y-126847215D01*
X115151971Y-126847213D01*
X115219407Y-126754394D01*
X115272287Y-126681610D01*
X115365220Y-126499219D01*
X115428477Y-126304534D01*
X115460500Y-126102352D01*
X115460500Y-125897648D01*
X115428477Y-125695466D01*
X115419068Y-125666509D01*
X115393903Y-125589057D01*
X115365220Y-125500781D01*
X115365218Y-125500778D01*
X115365218Y-125500776D01*
X115320092Y-125412212D01*
X115272287Y-125318390D01*
X115199976Y-125218861D01*
X115151971Y-125152786D01*
X115007213Y-125008028D01*
X114841613Y-124887715D01*
X114841612Y-124887714D01*
X114841610Y-124887713D01*
X114784653Y-124858691D01*
X114659223Y-124794781D01*
X114464534Y-124731522D01*
X114289995Y-124703878D01*
X114262352Y-124699500D01*
X114057648Y-124699500D01*
X114033329Y-124703351D01*
X113855465Y-124731522D01*
X113660776Y-124794781D01*
X113478386Y-124887715D01*
X113312786Y-125008028D01*
X113168028Y-125152786D01*
X113047715Y-125318386D01*
X112954781Y-125500776D01*
X112891522Y-125695465D01*
X112859500Y-125897648D01*
X106870500Y-125897648D01*
X106870500Y-124595997D01*
X106890185Y-124528958D01*
X106906819Y-124508316D01*
X109567922Y-121847213D01*
X112560520Y-118854616D01*
X112639577Y-118717685D01*
X112680501Y-118564957D01*
X112680501Y-118406842D01*
X112680501Y-118399247D01*
X112680500Y-118399229D01*
X112680500Y-117229601D01*
X112700185Y-117162562D01*
X112748206Y-117119116D01*
X112761610Y-117112287D01*
X112927219Y-116991966D01*
X113071966Y-116847219D01*
X113071968Y-116847215D01*
X113071971Y-116847213D01*
X113124732Y-116774590D01*
X113192287Y-116681610D01*
X113285220Y-116499219D01*
X113348477Y-116304534D01*
X113380500Y-116102352D01*
X113380500Y-115897648D01*
X113359012Y-115761982D01*
X113348477Y-115695465D01*
X113292874Y-115524339D01*
X113285220Y-115500781D01*
X113285218Y-115500778D01*
X113285218Y-115500776D01*
X113229329Y-115391089D01*
X113192287Y-115318390D01*
X113164096Y-115279588D01*
X113071971Y-115152786D01*
X112927213Y-115008028D01*
X112761613Y-114887715D01*
X112761612Y-114887714D01*
X112761610Y-114887713D01*
X112678337Y-114845283D01*
X112579223Y-114794781D01*
X112384534Y-114731522D01*
X112209995Y-114703878D01*
X112182352Y-114699500D01*
X111977648Y-114699500D01*
X111953329Y-114703351D01*
X111775465Y-114731522D01*
X111580776Y-114794781D01*
X111398386Y-114887715D01*
X111232786Y-115008028D01*
X111088028Y-115152786D01*
X110967715Y-115318386D01*
X110874781Y-115500776D01*
X110811522Y-115695465D01*
X110779500Y-115897648D01*
X110779500Y-116102351D01*
X110811522Y-116304534D01*
X110874781Y-116499223D01*
X110967715Y-116681613D01*
X111088028Y-116847213D01*
X111088034Y-116847219D01*
X111232781Y-116991966D01*
X111398390Y-117112287D01*
X111411793Y-117119116D01*
X111462589Y-117167088D01*
X111479500Y-117229601D01*
X111479500Y-118185802D01*
X111459815Y-118252841D01*
X111443181Y-118273483D01*
X105789481Y-123927182D01*
X105789479Y-123927184D01*
X105771608Y-123958139D01*
X105763375Y-123972400D01*
X105710423Y-124064115D01*
X105669499Y-124216843D01*
X105669499Y-124216845D01*
X105669499Y-124384946D01*
X105669500Y-124384959D01*
X105669500Y-136825269D01*
X105649815Y-136892308D01*
X105597011Y-136938063D01*
X105527853Y-136948007D01*
X105507183Y-136943200D01*
X105457592Y-136927087D01*
X105457585Y-136927086D01*
X105286571Y-136900000D01*
X105250000Y-136900000D01*
X105250000Y-137755025D01*
X105214905Y-137719930D01*
X105135095Y-137673852D01*
X105046078Y-137650000D01*
X104953922Y-137650000D01*
X104864905Y-137673852D01*
X104785095Y-137719930D01*
X104719930Y-137785095D01*
X104673852Y-137864905D01*
X104650000Y-137953922D01*
X104650000Y-138046078D01*
X104673852Y-138135095D01*
X104719930Y-138214905D01*
X104785095Y-138280070D01*
X104864905Y-138326148D01*
X104953922Y-138350000D01*
X105046078Y-138350000D01*
X105135095Y-138326148D01*
X105214905Y-138280070D01*
X105250000Y-138244975D01*
X105250000Y-138828305D01*
X105243931Y-138866624D01*
X105196598Y-139012298D01*
X105169500Y-139183389D01*
X105169500Y-139356610D01*
X105190241Y-139487568D01*
X105196598Y-139527701D01*
X105250127Y-139692445D01*
X105328768Y-139846788D01*
X105430586Y-139986928D01*
X105553072Y-140109414D01*
X105693212Y-140211232D01*
X105847555Y-140289873D01*
X106012299Y-140343402D01*
X106183389Y-140370500D01*
X106183390Y-140370500D01*
X106356610Y-140370500D01*
X106356611Y-140370500D01*
X106527701Y-140343402D01*
X106692445Y-140289873D01*
X106759206Y-140255856D01*
X106827874Y-140242961D01*
X106892615Y-140269237D01*
X106932872Y-140326344D01*
X106939500Y-140366342D01*
X106939500Y-142485500D01*
X106919815Y-142552539D01*
X106867011Y-142598294D01*
X106815500Y-142609500D01*
X106773713Y-142609500D01*
X106725042Y-142617208D01*
X106563760Y-142642753D01*
X106563757Y-142642754D01*
X106366679Y-142706789D01*
X106361585Y-142708444D01*
X106172179Y-142804951D01*
X106000213Y-142929890D01*
X105849890Y-143080213D01*
X105724951Y-143252179D01*
X105674258Y-143351671D01*
X105626283Y-143402467D01*
X105558462Y-143419262D01*
X105492328Y-143396725D01*
X105476092Y-143383057D01*
X102636819Y-140543784D01*
X102603334Y-140482461D01*
X102600500Y-140456103D01*
X102600500Y-138250000D01*
X103725885Y-138250000D01*
X103727085Y-138257584D01*
X103780591Y-138422255D01*
X103859195Y-138576524D01*
X103960967Y-138716602D01*
X104083397Y-138839032D01*
X104223475Y-138940804D01*
X104377742Y-139019408D01*
X104542415Y-139072914D01*
X104713429Y-139100000D01*
X104750000Y-139100000D01*
X104750000Y-138250000D01*
X103725885Y-138250000D01*
X102600500Y-138250000D01*
X102600500Y-137749999D01*
X103725884Y-137749999D01*
X103725885Y-137750000D01*
X104750000Y-137750000D01*
X104750000Y-136900000D01*
X104713429Y-136900000D01*
X104542415Y-136927085D01*
X104377742Y-136980591D01*
X104223475Y-137059195D01*
X104083397Y-137160967D01*
X103960967Y-137283397D01*
X103859195Y-137423475D01*
X103780591Y-137577744D01*
X103727085Y-137742415D01*
X103725884Y-137749999D01*
X102600500Y-137749999D01*
X102600500Y-131633320D01*
X102620185Y-131566281D01*
X102672989Y-131520526D01*
X102742147Y-131510582D01*
X102805703Y-131539607D01*
X102834985Y-131577025D01*
X102888141Y-131681350D01*
X102888147Y-131681359D01*
X102920523Y-131725921D01*
X102920524Y-131725922D01*
X103600000Y-131046446D01*
X103600000Y-131052661D01*
X103627259Y-131154394D01*
X103679920Y-131245606D01*
X103754394Y-131320080D01*
X103845606Y-131372741D01*
X103947339Y-131400000D01*
X103953553Y-131400000D01*
X103274076Y-132079474D01*
X103318650Y-132111859D01*
X103500968Y-132204755D01*
X103695582Y-132267990D01*
X103897683Y-132300000D01*
X104102317Y-132300000D01*
X104304417Y-132267990D01*
X104499031Y-132204755D01*
X104681349Y-132111859D01*
X104725921Y-132079474D01*
X104046447Y-131400000D01*
X104052661Y-131400000D01*
X104154394Y-131372741D01*
X104245606Y-131320080D01*
X104320080Y-131245606D01*
X104372741Y-131154394D01*
X104400000Y-131052661D01*
X104400000Y-131046448D01*
X105079474Y-131725922D01*
X105079474Y-131725921D01*
X105111859Y-131681349D01*
X105204755Y-131499031D01*
X105267990Y-131304417D01*
X105300000Y-131102317D01*
X105300000Y-130897682D01*
X105267990Y-130695582D01*
X105204755Y-130500968D01*
X105111859Y-130318650D01*
X105079474Y-130274077D01*
X105079474Y-130274076D01*
X104400000Y-130953551D01*
X104400000Y-130947339D01*
X104372741Y-130845606D01*
X104320080Y-130754394D01*
X104245606Y-130679920D01*
X104154394Y-130627259D01*
X104052661Y-130600000D01*
X104046446Y-130600000D01*
X104725922Y-129920524D01*
X104725921Y-129920523D01*
X104681359Y-129888147D01*
X104681350Y-129888141D01*
X104499031Y-129795244D01*
X104304417Y-129732009D01*
X104102317Y-129700000D01*
X103897683Y-129700000D01*
X103695582Y-129732009D01*
X103500968Y-129795244D01*
X103318644Y-129888143D01*
X103274077Y-129920523D01*
X103274077Y-129920524D01*
X103953554Y-130600000D01*
X103947339Y-130600000D01*
X103845606Y-130627259D01*
X103754394Y-130679920D01*
X103679920Y-130754394D01*
X103627259Y-130845606D01*
X103600000Y-130947339D01*
X103600000Y-130953553D01*
X102920524Y-130274077D01*
X102920523Y-130274077D01*
X102888143Y-130318644D01*
X102834985Y-130422974D01*
X102787010Y-130473770D01*
X102719189Y-130490565D01*
X102653054Y-130468027D01*
X102609603Y-130413312D01*
X102600500Y-130366679D01*
X102600500Y-126634420D01*
X102620185Y-126567381D01*
X102672989Y-126521626D01*
X102742147Y-126511682D01*
X102805703Y-126540707D01*
X102834984Y-126578123D01*
X102865642Y-126638294D01*
X102887715Y-126681614D01*
X103008028Y-126847213D01*
X103152786Y-126991971D01*
X103304667Y-127102317D01*
X103318390Y-127112287D01*
X103401030Y-127154394D01*
X103500776Y-127205218D01*
X103500778Y-127205218D01*
X103500781Y-127205220D01*
X103605137Y-127239127D01*
X103695465Y-127268477D01*
X103787064Y-127282985D01*
X103897648Y-127300500D01*
X103897649Y-127300500D01*
X104102351Y-127300500D01*
X104102352Y-127300500D01*
X104304534Y-127268477D01*
X104499219Y-127205220D01*
X104681610Y-127112287D01*
X104836160Y-127000001D01*
X104847213Y-126991971D01*
X104847215Y-126991968D01*
X104847219Y-126991966D01*
X104991966Y-126847219D01*
X104991968Y-126847215D01*
X104991971Y-126847213D01*
X105059407Y-126754394D01*
X105112287Y-126681610D01*
X105205220Y-126499219D01*
X105268477Y-126304534D01*
X105300500Y-126102352D01*
X105300500Y-125897648D01*
X105268477Y-125695466D01*
X105259068Y-125666509D01*
X105233903Y-125589057D01*
X105205220Y-125500781D01*
X105205218Y-125500778D01*
X105205218Y-125500776D01*
X105160092Y-125412212D01*
X105112287Y-125318390D01*
X105039976Y-125218861D01*
X104991971Y-125152786D01*
X104847213Y-125008028D01*
X104681610Y-124887712D01*
X104668200Y-124880879D01*
X104617406Y-124832903D01*
X104600500Y-124770397D01*
X104600500Y-123300096D01*
X104620185Y-123233057D01*
X104636814Y-123212419D01*
X105555158Y-122294075D01*
X105616479Y-122260592D01*
X105681151Y-122263825D01*
X105695466Y-122268477D01*
X105897648Y-122300500D01*
X105897649Y-122300500D01*
X106102351Y-122300500D01*
X106102352Y-122300500D01*
X106304534Y-122268477D01*
X106499219Y-122205220D01*
X106681610Y-122112287D01*
X106784830Y-122037294D01*
X106847213Y-121991971D01*
X106847215Y-121991968D01*
X106847219Y-121991966D01*
X106991966Y-121847219D01*
X106991968Y-121847215D01*
X106991971Y-121847213D01*
X107044732Y-121774590D01*
X107112287Y-121681610D01*
X107205220Y-121499219D01*
X107268477Y-121304534D01*
X107300500Y-121102352D01*
X107300500Y-120897648D01*
X107268477Y-120695466D01*
X107263825Y-120681151D01*
X107261832Y-120611312D01*
X107294075Y-120555158D01*
X109398506Y-118450728D01*
X109398511Y-118450724D01*
X109408714Y-118440520D01*
X109408716Y-118440520D01*
X109520520Y-118328716D01*
X109590476Y-118207548D01*
X109590477Y-118207547D01*
X109599576Y-118191787D01*
X109599576Y-118191786D01*
X109599577Y-118191785D01*
X109640500Y-118039058D01*
X109640500Y-117880943D01*
X109640500Y-112579765D01*
X109660185Y-112512726D01*
X109661398Y-112510874D01*
X109708397Y-112440536D01*
X109749394Y-112379179D01*
X109809737Y-112233497D01*
X109840500Y-112078842D01*
X109840500Y-111921158D01*
X109840500Y-111921155D01*
X109840499Y-111921153D01*
X109809738Y-111766510D01*
X109809737Y-111766503D01*
X109784055Y-111704500D01*
X109749397Y-111620827D01*
X109749390Y-111620814D01*
X109661789Y-111489711D01*
X109661786Y-111489707D01*
X109550292Y-111378213D01*
X109550288Y-111378210D01*
X109419185Y-111290609D01*
X109419172Y-111290602D01*
X109273501Y-111230264D01*
X109273489Y-111230261D01*
X109118845Y-111199500D01*
X109118842Y-111199500D01*
X108961158Y-111199500D01*
X108961155Y-111199500D01*
X108806510Y-111230261D01*
X108806498Y-111230264D01*
X108660827Y-111290602D01*
X108660814Y-111290609D01*
X108529711Y-111378210D01*
X108529707Y-111378213D01*
X108418213Y-111489707D01*
X108418210Y-111489711D01*
X108330609Y-111620814D01*
X108330602Y-111620827D01*
X108270264Y-111766498D01*
X108270261Y-111766510D01*
X108239500Y-111921153D01*
X108239500Y-112078846D01*
X108270261Y-112233489D01*
X108270264Y-112233501D01*
X108330602Y-112379172D01*
X108330609Y-112379185D01*
X108418602Y-112510874D01*
X108439480Y-112577551D01*
X108439500Y-112579765D01*
X108439500Y-117659902D01*
X108419815Y-117726941D01*
X108403181Y-117747583D01*
X106444842Y-119705921D01*
X106383519Y-119739406D01*
X106318848Y-119736173D01*
X106304534Y-119731522D01*
X106129995Y-119703878D01*
X106102352Y-119699500D01*
X105897648Y-119699500D01*
X105873329Y-119703351D01*
X105695465Y-119731522D01*
X105500776Y-119794781D01*
X105318386Y-119887715D01*
X105152786Y-120008028D01*
X105008028Y-120152786D01*
X104887715Y-120318386D01*
X104794781Y-120500776D01*
X104731522Y-120695465D01*
X104699500Y-120897648D01*
X104699500Y-121102351D01*
X104731522Y-121304534D01*
X104736173Y-121318848D01*
X104738165Y-121388690D01*
X104705921Y-121444842D01*
X103634714Y-122516049D01*
X103634708Y-122516055D01*
X103631286Y-122519478D01*
X103631284Y-122519480D01*
X103519480Y-122631284D01*
X103490425Y-122681610D01*
X103484713Y-122691502D01*
X103484713Y-122691503D01*
X103440423Y-122768214D01*
X103428078Y-122814286D01*
X103399499Y-122920943D01*
X103399499Y-122920945D01*
X103399499Y-123089046D01*
X103399500Y-123089059D01*
X103399500Y-124770397D01*
X103379815Y-124837436D01*
X103331800Y-124880879D01*
X103318389Y-124887712D01*
X103152786Y-125008028D01*
X103008028Y-125152786D01*
X102887715Y-125318386D01*
X102834985Y-125421874D01*
X102787010Y-125472670D01*
X102719189Y-125489465D01*
X102653054Y-125466927D01*
X102609603Y-125412212D01*
X102600500Y-125365579D01*
X102600500Y-122474499D01*
X102620185Y-122407460D01*
X102672989Y-122361705D01*
X102724500Y-122350499D01*
X102897871Y-122350499D01*
X102897872Y-122350499D01*
X102957483Y-122344091D01*
X103092331Y-122293796D01*
X103207546Y-122207546D01*
X103293796Y-122092331D01*
X103344091Y-121957483D01*
X103350500Y-121897873D01*
X103350499Y-120102128D01*
X103344091Y-120042517D01*
X103331227Y-120008028D01*
X103293797Y-119907671D01*
X103293793Y-119907664D01*
X103207547Y-119792455D01*
X103207544Y-119792452D01*
X103092335Y-119706206D01*
X103092328Y-119706202D01*
X102957482Y-119655908D01*
X102957483Y-119655908D01*
X102897883Y-119649501D01*
X102897881Y-119649500D01*
X102897873Y-119649500D01*
X102897865Y-119649500D01*
X102724500Y-119649500D01*
X102657461Y-119629815D01*
X102611706Y-119577011D01*
X102600500Y-119525500D01*
X102600500Y-117176274D01*
X102620185Y-117109235D01*
X102651613Y-117075957D01*
X102767219Y-116991966D01*
X102911966Y-116847219D01*
X102911968Y-116847215D01*
X102911971Y-116847213D01*
X102964732Y-116774590D01*
X103032287Y-116681610D01*
X103125220Y-116499219D01*
X103188477Y-116304534D01*
X103220500Y-116102352D01*
X103220500Y-115897648D01*
X103199012Y-115761982D01*
X103188477Y-115695465D01*
X103132874Y-115524339D01*
X103125220Y-115500781D01*
X103125218Y-115500778D01*
X103125218Y-115500776D01*
X103069329Y-115391089D01*
X103032287Y-115318390D01*
X103004096Y-115279588D01*
X102911971Y-115152786D01*
X102767213Y-115008028D01*
X102601613Y-114887715D01*
X102601612Y-114887714D01*
X102601610Y-114887713D01*
X102518337Y-114845283D01*
X102419223Y-114794781D01*
X102224534Y-114731522D01*
X102049995Y-114703878D01*
X102022352Y-114699500D01*
X101817648Y-114699500D01*
X101793329Y-114703351D01*
X101615465Y-114731522D01*
X101420776Y-114794781D01*
X101238386Y-114887715D01*
X101072786Y-115008028D01*
X100928028Y-115152786D01*
X100807715Y-115318386D01*
X100734985Y-115461126D01*
X100687010Y-115511922D01*
X100619189Y-115528717D01*
X100553054Y-115506179D01*
X100509603Y-115451464D01*
X100500500Y-115404831D01*
X100500500Y-69822135D01*
X101649500Y-69822135D01*
X101649500Y-71617870D01*
X101649501Y-71617876D01*
X101655908Y-71677483D01*
X101706202Y-71812328D01*
X101706206Y-71812335D01*
X101792452Y-71927544D01*
X101792455Y-71927547D01*
X101907664Y-72013793D01*
X101907671Y-72013797D01*
X102039082Y-72062810D01*
X102095016Y-72104681D01*
X102119433Y-72170145D01*
X102104582Y-72238418D01*
X102083431Y-72266673D01*
X101969889Y-72380215D01*
X101844951Y-72552179D01*
X101748444Y-72741585D01*
X101682753Y-72943760D01*
X101649500Y-73153713D01*
X101649500Y-73366286D01*
X101680558Y-73562382D01*
X101682754Y-73576243D01*
X101729448Y-73719953D01*
X101748444Y-73778414D01*
X101844951Y-73967820D01*
X101969890Y-74139786D01*
X102120213Y-74290109D01*
X102292182Y-74415050D01*
X102300946Y-74419516D01*
X102351742Y-74467491D01*
X102368536Y-74535312D01*
X102345998Y-74601447D01*
X102300946Y-74640484D01*
X102292182Y-74644949D01*
X102120213Y-74769890D01*
X101969890Y-74920213D01*
X101844951Y-75092179D01*
X101748444Y-75281585D01*
X101682753Y-75483760D01*
X101649500Y-75693713D01*
X101649500Y-75906286D01*
X101680558Y-76102382D01*
X101682754Y-76116243D01*
X101729448Y-76259953D01*
X101748444Y-76318414D01*
X101844951Y-76507820D01*
X101969890Y-76679786D01*
X102120213Y-76830109D01*
X102292182Y-76955050D01*
X102300946Y-76959516D01*
X102351742Y-77007491D01*
X102368536Y-77075312D01*
X102345998Y-77141447D01*
X102300946Y-77180484D01*
X102292182Y-77184949D01*
X102120213Y-77309890D01*
X101969890Y-77460213D01*
X101844951Y-77632179D01*
X101748444Y-77821585D01*
X101682753Y-78023760D01*
X101649500Y-78233713D01*
X101649500Y-78446286D01*
X101679590Y-78636271D01*
X101682754Y-78656243D01*
X101743984Y-78844690D01*
X101748444Y-78858414D01*
X101844951Y-79047820D01*
X101969890Y-79219786D01*
X102120213Y-79370109D01*
X102292182Y-79495050D01*
X102300946Y-79499516D01*
X102351742Y-79547491D01*
X102368536Y-79615312D01*
X102345998Y-79681447D01*
X102300946Y-79720484D01*
X102292182Y-79724949D01*
X102120213Y-79849890D01*
X101969890Y-80000213D01*
X101844951Y-80172179D01*
X101748444Y-80361585D01*
X101682753Y-80563760D01*
X101649500Y-80773713D01*
X101649500Y-80986286D01*
X101681005Y-81185205D01*
X101682754Y-81196243D01*
X101743112Y-81382006D01*
X101748444Y-81398414D01*
X101844951Y-81587820D01*
X101969890Y-81759786D01*
X102120213Y-81910109D01*
X102292182Y-82035050D01*
X102300946Y-82039516D01*
X102351742Y-82087491D01*
X102368536Y-82155312D01*
X102345998Y-82221447D01*
X102300946Y-82260484D01*
X102292182Y-82264949D01*
X102120213Y-82389890D01*
X101969890Y-82540213D01*
X101844951Y-82712179D01*
X101748444Y-82901585D01*
X101682753Y-83103760D01*
X101649500Y-83313713D01*
X101649500Y-83526286D01*
X101680558Y-83722382D01*
X101682754Y-83736243D01*
X101729448Y-83879953D01*
X101748444Y-83938414D01*
X101844951Y-84127820D01*
X101969890Y-84299786D01*
X102120213Y-84450109D01*
X102292182Y-84575050D01*
X102300946Y-84579516D01*
X102351742Y-84627491D01*
X102368536Y-84695312D01*
X102345998Y-84761447D01*
X102300946Y-84800484D01*
X102292182Y-84804949D01*
X102120213Y-84929890D01*
X101969890Y-85080213D01*
X101844951Y-85252179D01*
X101748444Y-85441585D01*
X101682753Y-85643760D01*
X101649500Y-85853713D01*
X101649500Y-86066286D01*
X101680558Y-86262382D01*
X101682754Y-86276243D01*
X101729448Y-86419953D01*
X101748444Y-86478414D01*
X101844951Y-86667820D01*
X101969890Y-86839786D01*
X102120213Y-86990109D01*
X102292182Y-87115050D01*
X102300946Y-87119516D01*
X102351742Y-87167491D01*
X102368536Y-87235312D01*
X102345998Y-87301447D01*
X102300946Y-87340484D01*
X102292182Y-87344949D01*
X102120213Y-87469890D01*
X101969890Y-87620213D01*
X101844951Y-87792179D01*
X101748444Y-87981585D01*
X101682753Y-88183760D01*
X101649500Y-88393713D01*
X101649500Y-88606286D01*
X101680558Y-88802382D01*
X101682754Y-88816243D01*
X101729448Y-88959953D01*
X101748444Y-89018414D01*
X101844951Y-89207820D01*
X101969890Y-89379786D01*
X102120213Y-89530109D01*
X102292182Y-89655050D01*
X102300946Y-89659516D01*
X102351742Y-89707491D01*
X102368536Y-89775312D01*
X102345998Y-89841447D01*
X102300946Y-89880484D01*
X102292182Y-89884949D01*
X102120213Y-90009890D01*
X101969890Y-90160213D01*
X101844951Y-90332179D01*
X101748444Y-90521585D01*
X101682753Y-90723760D01*
X101649500Y-90933713D01*
X101649500Y-91146286D01*
X101663305Y-91233451D01*
X101682754Y-91356243D01*
X101743984Y-91544690D01*
X101748444Y-91558414D01*
X101844951Y-91747820D01*
X101969890Y-91919786D01*
X102120213Y-92070109D01*
X102292182Y-92195050D01*
X102300946Y-92199516D01*
X102351742Y-92247491D01*
X102368536Y-92315312D01*
X102345998Y-92381447D01*
X102300946Y-92420484D01*
X102292182Y-92424949D01*
X102120213Y-92549890D01*
X101969890Y-92700213D01*
X101844951Y-92872179D01*
X101748444Y-93061585D01*
X101682753Y-93263760D01*
X101649500Y-93473713D01*
X101649500Y-93686286D01*
X101681005Y-93885205D01*
X101682754Y-93896243D01*
X101729448Y-94039953D01*
X101748444Y-94098414D01*
X101844951Y-94287820D01*
X101969890Y-94459786D01*
X102120213Y-94610109D01*
X102292182Y-94735050D01*
X102300946Y-94739516D01*
X102351742Y-94787491D01*
X102368536Y-94855312D01*
X102345998Y-94921447D01*
X102300946Y-94960484D01*
X102292182Y-94964949D01*
X102120213Y-95089890D01*
X101969890Y-95240213D01*
X101844951Y-95412179D01*
X101748444Y-95601585D01*
X101682753Y-95803760D01*
X101649500Y-96013713D01*
X101649500Y-96226286D01*
X101680558Y-96422382D01*
X101682754Y-96436243D01*
X101729448Y-96579953D01*
X101748444Y-96638414D01*
X101844951Y-96827820D01*
X101969890Y-96999786D01*
X102120213Y-97150109D01*
X102292182Y-97275050D01*
X102300946Y-97279516D01*
X102351742Y-97327491D01*
X102368536Y-97395312D01*
X102345998Y-97461447D01*
X102300946Y-97500484D01*
X102292182Y-97504949D01*
X102120213Y-97629890D01*
X101969890Y-97780213D01*
X101844951Y-97952179D01*
X101748444Y-98141585D01*
X101682753Y-98343760D01*
X101649500Y-98553713D01*
X101649500Y-98766286D01*
X101680558Y-98962382D01*
X101682754Y-98976243D01*
X101729448Y-99119953D01*
X101748444Y-99178414D01*
X101844951Y-99367820D01*
X101969890Y-99539786D01*
X102120213Y-99690109D01*
X102292182Y-99815050D01*
X102300946Y-99819516D01*
X102351742Y-99867491D01*
X102368536Y-99935312D01*
X102345998Y-100001447D01*
X102300946Y-100040484D01*
X102292182Y-100044949D01*
X102120213Y-100169890D01*
X101969890Y-100320213D01*
X101844951Y-100492179D01*
X101748444Y-100681585D01*
X101682753Y-100883760D01*
X101649500Y-101093713D01*
X101649500Y-101306286D01*
X101680558Y-101502382D01*
X101682754Y-101516243D01*
X101729448Y-101659953D01*
X101748444Y-101718414D01*
X101844951Y-101907820D01*
X101969890Y-102079786D01*
X102120213Y-102230109D01*
X102292182Y-102355050D01*
X102300946Y-102359516D01*
X102351742Y-102407491D01*
X102368536Y-102475312D01*
X102345998Y-102541447D01*
X102300946Y-102580484D01*
X102292182Y-102584949D01*
X102120213Y-102709890D01*
X101969890Y-102860213D01*
X101844951Y-103032179D01*
X101748444Y-103221585D01*
X101682753Y-103423760D01*
X101649500Y-103633713D01*
X101649500Y-103846286D01*
X101663305Y-103933451D01*
X101682754Y-104056243D01*
X101743984Y-104244690D01*
X101748444Y-104258414D01*
X101844951Y-104447820D01*
X101969890Y-104619786D01*
X102120213Y-104770109D01*
X102292182Y-104895050D01*
X102300946Y-104899516D01*
X102351742Y-104947491D01*
X102368536Y-105015312D01*
X102345998Y-105081447D01*
X102300946Y-105120484D01*
X102292182Y-105124949D01*
X102120213Y-105249890D01*
X101969890Y-105400213D01*
X101844951Y-105572179D01*
X101748444Y-105761585D01*
X101682753Y-105963760D01*
X101649500Y-106173713D01*
X101649500Y-106386286D01*
X101682753Y-106596239D01*
X101682753Y-106596241D01*
X101682754Y-106596243D01*
X101738646Y-106768261D01*
X101748444Y-106798414D01*
X101844951Y-106987820D01*
X101969890Y-107159786D01*
X102120213Y-107310109D01*
X102292182Y-107435050D01*
X102300946Y-107439516D01*
X102351742Y-107487491D01*
X102368536Y-107555312D01*
X102345998Y-107621447D01*
X102300946Y-107660484D01*
X102292182Y-107664949D01*
X102120213Y-107789890D01*
X101969890Y-107940213D01*
X101844951Y-108112179D01*
X101748444Y-108301585D01*
X101748443Y-108301587D01*
X101748443Y-108301588D01*
X101734168Y-108345523D01*
X101682753Y-108503760D01*
X101649500Y-108713713D01*
X101649500Y-108926286D01*
X101682753Y-109136239D01*
X101682753Y-109136241D01*
X101682754Y-109136243D01*
X101744870Y-109327417D01*
X101748444Y-109338414D01*
X101844951Y-109527820D01*
X101969890Y-109699786D01*
X102120213Y-109850109D01*
X102292179Y-109975048D01*
X102292181Y-109975049D01*
X102292184Y-109975051D01*
X102481588Y-110071557D01*
X102683757Y-110137246D01*
X102893713Y-110170500D01*
X102893714Y-110170500D01*
X103106286Y-110170500D01*
X103106287Y-110170500D01*
X103316243Y-110137246D01*
X103358523Y-110123507D01*
X103428362Y-110121511D01*
X103484521Y-110153756D01*
X104091284Y-110760520D01*
X104228215Y-110839577D01*
X104380943Y-110880501D01*
X104380946Y-110880501D01*
X104546654Y-110880501D01*
X104546670Y-110880500D01*
X113888308Y-110880500D01*
X113955347Y-110900185D01*
X113989880Y-110933374D01*
X114075480Y-111055624D01*
X114119954Y-111119141D01*
X114280858Y-111280045D01*
X114280861Y-111280047D01*
X114467266Y-111410568D01*
X114673504Y-111506739D01*
X114893308Y-111565635D01*
X115063214Y-111580499D01*
X115063215Y-111580500D01*
X115063216Y-111580500D01*
X116776785Y-111580500D01*
X116776785Y-111580499D01*
X116946692Y-111565635D01*
X117166496Y-111506739D01*
X117372734Y-111410568D01*
X117559139Y-111280047D01*
X117720047Y-111119139D01*
X117850568Y-110932734D01*
X117946739Y-110726496D01*
X118005635Y-110506692D01*
X118020500Y-110336784D01*
X118020500Y-110223216D01*
X118005635Y-110053308D01*
X117946739Y-109833504D01*
X117850568Y-109627266D01*
X117720047Y-109440861D01*
X117720045Y-109440858D01*
X117559141Y-109279954D01*
X117372734Y-109149432D01*
X117372728Y-109149429D01*
X117314725Y-109122382D01*
X117262285Y-109076210D01*
X117243133Y-109009017D01*
X117263348Y-108942135D01*
X117314725Y-108897618D01*
X117372734Y-108870568D01*
X117559139Y-108740047D01*
X117720047Y-108579139D01*
X117850568Y-108392734D01*
X117946739Y-108186496D01*
X118005635Y-107966692D01*
X118020500Y-107796784D01*
X118020500Y-107683216D01*
X118005635Y-107513308D01*
X117946739Y-107293504D01*
X117850568Y-107087266D01*
X117720047Y-106900861D01*
X117720045Y-106900858D01*
X117559141Y-106739954D01*
X117492620Y-106693376D01*
X117448995Y-106638800D01*
X117441801Y-106569301D01*
X117473324Y-106506946D01*
X117533083Y-106471651D01*
X117553038Y-106466558D01*
X117553042Y-106466557D01*
X117626528Y-106436118D01*
X117626556Y-106436106D01*
X117675309Y-106412781D01*
X117675314Y-106412778D01*
X117790378Y-106326641D01*
X117790382Y-106326638D01*
X117846643Y-106270376D01*
X117846659Y-106270359D01*
X117882770Y-106230157D01*
X117956111Y-106106545D01*
X117956115Y-106106538D01*
X117986547Y-106033067D01*
X117986548Y-106033064D01*
X118004544Y-105982053D01*
X118024999Y-105839780D01*
X118025000Y-105839779D01*
X118025000Y-105450000D01*
X113839160Y-105450000D01*
X113855440Y-105531849D01*
X113855443Y-105531860D01*
X113884185Y-105626612D01*
X113944490Y-105772198D01*
X113991155Y-105859501D01*
X113991167Y-105859521D01*
X114078704Y-105990530D01*
X114078708Y-105990536D01*
X114141514Y-106067064D01*
X114252935Y-106178485D01*
X114329463Y-106241291D01*
X114329469Y-106241295D01*
X114460478Y-106328832D01*
X114460506Y-106328849D01*
X114525268Y-106363465D01*
X114575112Y-106412427D01*
X114590573Y-106480565D01*
X114566741Y-106546244D01*
X114519221Y-106585204D01*
X114495556Y-106596240D01*
X114467264Y-106609433D01*
X114280858Y-106739954D01*
X114119954Y-106900858D01*
X114059067Y-106987816D01*
X113989881Y-107086624D01*
X113935307Y-107130248D01*
X113888308Y-107139500D01*
X104760098Y-107139500D01*
X104693059Y-107119815D01*
X104672417Y-107103181D01*
X104535828Y-106966592D01*
X104333756Y-106764521D01*
X104300272Y-106703199D01*
X104303507Y-106638523D01*
X104317246Y-106596243D01*
X104350500Y-106386287D01*
X104350500Y-106173713D01*
X104317246Y-105963757D01*
X104251557Y-105761588D01*
X104155051Y-105572184D01*
X104155049Y-105572181D01*
X104155048Y-105572179D01*
X104030109Y-105400213D01*
X103879786Y-105249890D01*
X103707820Y-105124951D01*
X103707115Y-105124591D01*
X103699054Y-105120485D01*
X103648259Y-105072512D01*
X103631463Y-105004692D01*
X103653999Y-104938556D01*
X103699054Y-104899515D01*
X103707816Y-104895051D01*
X103744842Y-104868150D01*
X103879786Y-104770109D01*
X103879788Y-104770106D01*
X103879792Y-104770104D01*
X104030104Y-104619792D01*
X104030106Y-104619788D01*
X104030109Y-104619786D01*
X104155048Y-104447820D01*
X104155047Y-104447820D01*
X104155051Y-104447816D01*
X104251557Y-104258412D01*
X104317246Y-104056243D01*
X104350500Y-103846287D01*
X104350500Y-103633713D01*
X104317246Y-103423757D01*
X104316938Y-103422809D01*
X104316927Y-103422429D01*
X104316109Y-103419022D01*
X104316825Y-103418850D01*
X104314948Y-103352968D01*
X104351033Y-103293138D01*
X104413736Y-103262315D01*
X104434872Y-103260500D01*
X113888308Y-103260500D01*
X113955347Y-103280185D01*
X113989880Y-103313374D01*
X114067172Y-103423759D01*
X114119954Y-103499141D01*
X114280858Y-103660045D01*
X114280861Y-103660047D01*
X114467266Y-103790568D01*
X114519219Y-103814794D01*
X114571659Y-103860966D01*
X114590811Y-103928159D01*
X114570596Y-103995041D01*
X114525269Y-104036534D01*
X114460499Y-104071155D01*
X114460478Y-104071167D01*
X114329469Y-104158704D01*
X114329463Y-104158708D01*
X114252935Y-104221514D01*
X114141514Y-104332935D01*
X114078708Y-104409463D01*
X114078704Y-104409469D01*
X113991167Y-104540478D01*
X113991155Y-104540498D01*
X113944490Y-104627801D01*
X113884185Y-104773387D01*
X113855443Y-104868139D01*
X113855440Y-104868150D01*
X113839160Y-104949999D01*
X113839161Y-104950000D01*
X118025000Y-104950000D01*
X118025000Y-104560214D01*
X118022106Y-104506237D01*
X118022106Y-104506235D01*
X117986561Y-104366969D01*
X117986557Y-104366957D01*
X117956118Y-104293471D01*
X117956106Y-104293443D01*
X117932781Y-104244690D01*
X117932778Y-104244685D01*
X117846641Y-104129621D01*
X117846638Y-104129617D01*
X117790376Y-104073356D01*
X117790359Y-104073340D01*
X117750157Y-104037229D01*
X117626545Y-103963888D01*
X117626538Y-103963884D01*
X117553067Y-103933452D01*
X117553065Y-103933451D01*
X117524833Y-103923491D01*
X117468162Y-103882623D01*
X117442582Y-103817604D01*
X117456215Y-103749077D01*
X117494964Y-103704982D01*
X117559139Y-103660047D01*
X117720047Y-103499139D01*
X117850568Y-103312734D01*
X117946739Y-103106496D01*
X118005635Y-102886692D01*
X118020500Y-102716784D01*
X118020500Y-102603216D01*
X118005635Y-102433308D01*
X117946739Y-102213504D01*
X117850568Y-102007266D01*
X117720047Y-101820861D01*
X117720045Y-101820858D01*
X117559141Y-101659954D01*
X117372734Y-101529432D01*
X117372728Y-101529429D01*
X117314725Y-101502382D01*
X117262285Y-101456210D01*
X117243133Y-101389017D01*
X117263348Y-101322135D01*
X117314725Y-101277618D01*
X117372734Y-101250568D01*
X117559139Y-101120047D01*
X117720047Y-100959139D01*
X117850568Y-100772734D01*
X117946739Y-100566496D01*
X118005635Y-100346692D01*
X118020500Y-100176784D01*
X118020500Y-100063216D01*
X118005635Y-99893308D01*
X117946739Y-99673504D01*
X117850568Y-99467266D01*
X117720047Y-99280861D01*
X117720045Y-99280858D01*
X117559141Y-99119954D01*
X117372734Y-98989432D01*
X117372728Y-98989429D01*
X117314725Y-98962382D01*
X117262285Y-98916210D01*
X117243133Y-98849017D01*
X117263348Y-98782135D01*
X117314725Y-98737618D01*
X117372734Y-98710568D01*
X117559139Y-98580047D01*
X117720047Y-98419139D01*
X117850568Y-98232734D01*
X117946739Y-98026496D01*
X118005635Y-97806692D01*
X118020500Y-97636784D01*
X118020500Y-97523216D01*
X118005635Y-97353308D01*
X117946739Y-97133504D01*
X117850568Y-96927266D01*
X117720047Y-96740861D01*
X117720045Y-96740858D01*
X117559141Y-96579954D01*
X117372734Y-96449432D01*
X117372728Y-96449429D01*
X117314725Y-96422382D01*
X117262285Y-96376210D01*
X117243133Y-96309017D01*
X117263348Y-96242135D01*
X117314725Y-96197618D01*
X117372734Y-96170568D01*
X117559139Y-96040047D01*
X117720047Y-95879139D01*
X117850568Y-95692734D01*
X117946739Y-95486496D01*
X118005635Y-95266692D01*
X118020500Y-95096784D01*
X118020500Y-94983216D01*
X118005635Y-94813308D01*
X117946739Y-94593504D01*
X117850568Y-94387266D01*
X117720047Y-94200861D01*
X117720045Y-94200858D01*
X117559141Y-94039954D01*
X117492620Y-93993376D01*
X117448995Y-93938800D01*
X117441801Y-93869301D01*
X117473324Y-93806946D01*
X117533083Y-93771651D01*
X117553038Y-93766558D01*
X117553042Y-93766557D01*
X117626528Y-93736118D01*
X117626556Y-93736106D01*
X117675309Y-93712781D01*
X117675314Y-93712778D01*
X117790378Y-93626641D01*
X117790382Y-93626638D01*
X117846643Y-93570376D01*
X117846659Y-93570359D01*
X117882770Y-93530157D01*
X117956111Y-93406545D01*
X117956115Y-93406538D01*
X117986547Y-93333067D01*
X117986548Y-93333064D01*
X118004544Y-93282053D01*
X118024999Y-93139780D01*
X118025000Y-93139779D01*
X118025000Y-92750000D01*
X113839160Y-92750000D01*
X113855440Y-92831849D01*
X113855443Y-92831860D01*
X113884185Y-92926612D01*
X113944490Y-93072198D01*
X113991155Y-93159501D01*
X113991167Y-93159521D01*
X114078704Y-93290530D01*
X114078708Y-93290536D01*
X114141514Y-93367064D01*
X114252935Y-93478485D01*
X114329463Y-93541291D01*
X114329469Y-93541295D01*
X114460478Y-93628832D01*
X114460506Y-93628849D01*
X114525268Y-93663465D01*
X114575112Y-93712427D01*
X114590573Y-93780565D01*
X114566741Y-93846244D01*
X114519221Y-93885204D01*
X114495550Y-93896243D01*
X114467264Y-93909433D01*
X114280858Y-94039954D01*
X114119954Y-94200858D01*
X114079100Y-94259205D01*
X113989881Y-94386624D01*
X113935307Y-94430248D01*
X113888308Y-94439500D01*
X104280114Y-94439500D01*
X104213075Y-94419815D01*
X104167320Y-94367011D01*
X104157376Y-94297853D01*
X104169629Y-94259205D01*
X104251557Y-94098412D01*
X104317246Y-93896243D01*
X104350500Y-93686287D01*
X104350500Y-93473713D01*
X104317246Y-93263757D01*
X104303506Y-93221473D01*
X104301512Y-93151635D01*
X104333755Y-93095478D01*
X106832416Y-90596819D01*
X106893739Y-90563334D01*
X106920097Y-90560500D01*
X113888308Y-90560500D01*
X113955347Y-90580185D01*
X113989880Y-90613374D01*
X114067173Y-90723760D01*
X114119954Y-90799141D01*
X114280858Y-90960045D01*
X114280861Y-90960047D01*
X114467266Y-91090568D01*
X114519219Y-91114794D01*
X114571659Y-91160966D01*
X114590811Y-91228159D01*
X114570596Y-91295041D01*
X114525269Y-91336534D01*
X114460499Y-91371155D01*
X114460478Y-91371167D01*
X114329469Y-91458704D01*
X114329463Y-91458708D01*
X114252935Y-91521514D01*
X114141514Y-91632935D01*
X114078708Y-91709463D01*
X114078704Y-91709469D01*
X113991167Y-91840478D01*
X113991155Y-91840498D01*
X113944490Y-91927801D01*
X113884185Y-92073387D01*
X113855443Y-92168139D01*
X113855440Y-92168150D01*
X113839160Y-92249999D01*
X113839161Y-92250000D01*
X118025000Y-92250000D01*
X118025000Y-91860214D01*
X118022106Y-91806237D01*
X118022106Y-91806235D01*
X117986561Y-91666969D01*
X117986557Y-91666957D01*
X117956118Y-91593471D01*
X117956106Y-91593443D01*
X117932781Y-91544690D01*
X117932778Y-91544685D01*
X117846641Y-91429621D01*
X117846638Y-91429617D01*
X117790376Y-91373356D01*
X117790359Y-91373340D01*
X117750157Y-91337229D01*
X117626545Y-91263888D01*
X117626538Y-91263884D01*
X117553067Y-91233452D01*
X117553065Y-91233451D01*
X117524833Y-91223491D01*
X117468162Y-91182623D01*
X117442582Y-91117604D01*
X117456215Y-91049077D01*
X117494964Y-91004982D01*
X117559139Y-90960047D01*
X117720047Y-90799139D01*
X117850568Y-90612734D01*
X117946739Y-90406496D01*
X118005635Y-90186692D01*
X118020500Y-90016784D01*
X118020500Y-89903216D01*
X118005635Y-89733308D01*
X117946739Y-89513504D01*
X117850568Y-89307266D01*
X117720047Y-89120861D01*
X117720045Y-89120858D01*
X117559141Y-88959954D01*
X117372734Y-88829432D01*
X117372728Y-88829429D01*
X117314725Y-88802382D01*
X117262285Y-88756210D01*
X117243133Y-88689017D01*
X117263348Y-88622135D01*
X117314725Y-88577618D01*
X117372734Y-88550568D01*
X117559139Y-88420047D01*
X117720047Y-88259139D01*
X117850568Y-88072734D01*
X117946739Y-87866496D01*
X118005635Y-87646692D01*
X118020500Y-87476784D01*
X118020500Y-87363216D01*
X118005635Y-87193308D01*
X117946739Y-86973504D01*
X117850568Y-86767266D01*
X117720047Y-86580861D01*
X117720045Y-86580858D01*
X117559141Y-86419954D01*
X117372734Y-86289432D01*
X117372728Y-86289429D01*
X117314725Y-86262382D01*
X117262285Y-86216210D01*
X117243133Y-86149017D01*
X117263348Y-86082135D01*
X117314725Y-86037618D01*
X117372734Y-86010568D01*
X117559139Y-85880047D01*
X117720047Y-85719139D01*
X117850568Y-85532734D01*
X117946739Y-85326496D01*
X118005635Y-85106692D01*
X118020500Y-84936784D01*
X118020500Y-84823216D01*
X118005635Y-84653308D01*
X117946739Y-84433504D01*
X117850568Y-84227266D01*
X117720047Y-84040861D01*
X117720045Y-84040858D01*
X117559141Y-83879954D01*
X117372734Y-83749432D01*
X117372728Y-83749429D01*
X117314725Y-83722382D01*
X117262285Y-83676210D01*
X117243133Y-83609017D01*
X117263348Y-83542135D01*
X117314725Y-83497618D01*
X117372734Y-83470568D01*
X117559139Y-83340047D01*
X117720047Y-83179139D01*
X117850568Y-82992734D01*
X117946739Y-82786496D01*
X118005635Y-82566692D01*
X118020500Y-82396784D01*
X118020500Y-82283216D01*
X118005635Y-82113308D01*
X117946739Y-81893504D01*
X117850568Y-81687266D01*
X117720047Y-81500861D01*
X117720045Y-81500858D01*
X117559141Y-81339954D01*
X117492620Y-81293376D01*
X117448995Y-81238800D01*
X117441801Y-81169301D01*
X117473324Y-81106946D01*
X117533083Y-81071651D01*
X117553038Y-81066558D01*
X117553042Y-81066557D01*
X117626528Y-81036118D01*
X117626556Y-81036106D01*
X117675309Y-81012781D01*
X117675314Y-81012778D01*
X117790378Y-80926641D01*
X117790382Y-80926638D01*
X117846643Y-80870376D01*
X117846659Y-80870359D01*
X117882770Y-80830157D01*
X117956111Y-80706545D01*
X117956115Y-80706538D01*
X117986547Y-80633067D01*
X117986548Y-80633064D01*
X118004544Y-80582053D01*
X118024999Y-80439780D01*
X118025000Y-80439779D01*
X118025000Y-80050000D01*
X116044000Y-80050000D01*
X115976961Y-80030315D01*
X115931206Y-79977511D01*
X115920000Y-79926000D01*
X115920000Y-79674000D01*
X115939685Y-79606961D01*
X115992489Y-79561206D01*
X116044000Y-79550000D01*
X118025000Y-79550000D01*
X118025000Y-79160214D01*
X118022106Y-79106237D01*
X118022106Y-79106235D01*
X117986561Y-78966969D01*
X117986557Y-78966957D01*
X117956118Y-78893471D01*
X117956106Y-78893443D01*
X117932781Y-78844690D01*
X117932778Y-78844685D01*
X117846641Y-78729621D01*
X117846638Y-78729617D01*
X117790376Y-78673356D01*
X117790359Y-78673340D01*
X117750157Y-78637229D01*
X117626545Y-78563888D01*
X117626538Y-78563884D01*
X117553067Y-78533452D01*
X117553065Y-78533451D01*
X117524833Y-78523491D01*
X117468162Y-78482623D01*
X117442582Y-78417604D01*
X117456215Y-78349077D01*
X117494964Y-78304982D01*
X117559139Y-78260047D01*
X117720047Y-78099139D01*
X117850568Y-77912734D01*
X117946739Y-77706496D01*
X118005635Y-77486692D01*
X118020500Y-77316784D01*
X118020500Y-77203216D01*
X118005635Y-77033308D01*
X117946739Y-76813504D01*
X117850568Y-76607266D01*
X117720047Y-76420861D01*
X117720045Y-76420858D01*
X117559141Y-76259954D01*
X117372734Y-76129432D01*
X117372728Y-76129429D01*
X117314725Y-76102382D01*
X117262285Y-76056210D01*
X117243133Y-75989017D01*
X117263348Y-75922135D01*
X117314725Y-75877618D01*
X117372734Y-75850568D01*
X117559139Y-75720047D01*
X117720047Y-75559139D01*
X117850568Y-75372734D01*
X117946739Y-75166496D01*
X118005635Y-74946692D01*
X118020500Y-74776784D01*
X118020500Y-74663216D01*
X118005635Y-74493308D01*
X117946739Y-74273504D01*
X117850568Y-74067266D01*
X117720047Y-73880861D01*
X117720045Y-73880858D01*
X117559141Y-73719954D01*
X117372734Y-73589432D01*
X117372728Y-73589429D01*
X117314725Y-73562382D01*
X117262285Y-73516210D01*
X117243133Y-73449017D01*
X117263348Y-73382135D01*
X117314725Y-73337618D01*
X117372734Y-73310568D01*
X117559139Y-73180047D01*
X117720047Y-73019139D01*
X117850568Y-72832734D01*
X117946739Y-72626496D01*
X118005635Y-72406692D01*
X118020500Y-72236784D01*
X118020500Y-72123216D01*
X118005635Y-71953308D01*
X117946739Y-71733504D01*
X117850568Y-71527266D01*
X117720047Y-71340861D01*
X117720045Y-71340858D01*
X117559141Y-71179954D01*
X117372734Y-71049432D01*
X117372728Y-71049429D01*
X117314725Y-71022382D01*
X117262285Y-70976210D01*
X117243133Y-70909017D01*
X117263348Y-70842135D01*
X117314725Y-70797618D01*
X117372734Y-70770568D01*
X117559139Y-70640047D01*
X117720047Y-70479139D01*
X117850568Y-70292734D01*
X117946739Y-70086496D01*
X118005635Y-69866692D01*
X118020500Y-69696784D01*
X118020500Y-69583216D01*
X118005635Y-69413308D01*
X117946739Y-69193504D01*
X117850568Y-68987266D01*
X117734295Y-68821210D01*
X117720045Y-68800858D01*
X117559141Y-68639954D01*
X117492620Y-68593376D01*
X117448995Y-68538800D01*
X117441801Y-68469301D01*
X117473324Y-68406946D01*
X117533083Y-68371651D01*
X117553038Y-68366558D01*
X117553042Y-68366557D01*
X117626528Y-68336118D01*
X117626556Y-68336106D01*
X117675309Y-68312781D01*
X117675314Y-68312778D01*
X117790378Y-68226641D01*
X117790382Y-68226638D01*
X117817021Y-68199999D01*
X122160000Y-68199999D01*
X122160000Y-75600000D01*
X122162138Y-75665541D01*
X122162138Y-75665544D01*
X122162139Y-75665545D01*
X122196068Y-75792167D01*
X122261612Y-75905694D01*
X122354306Y-75998388D01*
X122467833Y-76063932D01*
X122594455Y-76097861D01*
X122660000Y-76100000D01*
X123560000Y-76100000D01*
X123625545Y-76097861D01*
X123752167Y-76063932D01*
X123865694Y-75998388D01*
X123958388Y-75905694D01*
X124023932Y-75792167D01*
X124057861Y-75665545D01*
X124060000Y-75600000D01*
X124060000Y-71900000D01*
X124060000Y-68200000D01*
X124057861Y-68134455D01*
X124023933Y-68007833D01*
X123958388Y-67894306D01*
X123865694Y-67801612D01*
X123752167Y-67736067D01*
X123625545Y-67702139D01*
X123560000Y-67700000D01*
X122660000Y-67700000D01*
X122594455Y-67702139D01*
X122467833Y-67736067D01*
X122467831Y-67736067D01*
X122467831Y-67736068D01*
X122354306Y-67801612D01*
X122354303Y-67801614D01*
X122261614Y-67894303D01*
X122261612Y-67894306D01*
X122196068Y-68007831D01*
X122162139Y-68134455D01*
X122160000Y-68199999D01*
X117817021Y-68199999D01*
X117846643Y-68170376D01*
X117846659Y-68170359D01*
X117882770Y-68130157D01*
X117956111Y-68006545D01*
X117956115Y-68006538D01*
X117986547Y-67933067D01*
X117986548Y-67933064D01*
X118004544Y-67882053D01*
X118024999Y-67739780D01*
X118025000Y-67739779D01*
X118025000Y-67350000D01*
X113839160Y-67350000D01*
X113855440Y-67431849D01*
X113855443Y-67431860D01*
X113884185Y-67526612D01*
X113944490Y-67672198D01*
X113991155Y-67759501D01*
X113991167Y-67759521D01*
X114078704Y-67890530D01*
X114078708Y-67890536D01*
X114141514Y-67967064D01*
X114252935Y-68078485D01*
X114329463Y-68141291D01*
X114329469Y-68141295D01*
X114460478Y-68228832D01*
X114460506Y-68228849D01*
X114525268Y-68263465D01*
X114575112Y-68312427D01*
X114590573Y-68380565D01*
X114566741Y-68446244D01*
X114519221Y-68485205D01*
X114467264Y-68509433D01*
X114280858Y-68639954D01*
X114119954Y-68800858D01*
X113989432Y-68987265D01*
X113989431Y-68987267D01*
X113893261Y-69193502D01*
X113893258Y-69193511D01*
X113834366Y-69413302D01*
X113834364Y-69413312D01*
X113819500Y-69583214D01*
X113819500Y-69696785D01*
X113834364Y-69866687D01*
X113834366Y-69866697D01*
X113893258Y-70086488D01*
X113893261Y-70086497D01*
X113989431Y-70292732D01*
X113989432Y-70292734D01*
X114106264Y-70459589D01*
X114128591Y-70525795D01*
X114111581Y-70593563D01*
X114092370Y-70618393D01*
X109547584Y-75163181D01*
X109486261Y-75196666D01*
X109459903Y-75199500D01*
X104285719Y-75199500D01*
X104218680Y-75179815D01*
X104175235Y-75131795D01*
X104155052Y-75092185D01*
X104155051Y-75092184D01*
X104030109Y-74920213D01*
X103879786Y-74769890D01*
X103707820Y-74644951D01*
X103707115Y-74644591D01*
X103699054Y-74640485D01*
X103648259Y-74592512D01*
X103631463Y-74524692D01*
X103653999Y-74458556D01*
X103699054Y-74419515D01*
X103707816Y-74415051D01*
X103729789Y-74399086D01*
X103879786Y-74290109D01*
X103879788Y-74290106D01*
X103879792Y-74290104D01*
X104030104Y-74139792D01*
X104030106Y-74139788D01*
X104030109Y-74139786D01*
X104155048Y-73967820D01*
X104155047Y-73967820D01*
X104155051Y-73967816D01*
X104251557Y-73778412D01*
X104317246Y-73576243D01*
X104350500Y-73366287D01*
X104350500Y-73153713D01*
X104317246Y-72943757D01*
X104303506Y-72901473D01*
X104301512Y-72831635D01*
X104333755Y-72775478D01*
X106858506Y-70250728D01*
X106858511Y-70250724D01*
X106868714Y-70240520D01*
X106868716Y-70240520D01*
X106980520Y-70128716D01*
X107059577Y-69991784D01*
X107100500Y-69839057D01*
X107100500Y-65785718D01*
X107120185Y-65718679D01*
X107168207Y-65675233D01*
X107207815Y-65655052D01*
X107207815Y-65655051D01*
X107207816Y-65655051D01*
X107338579Y-65560047D01*
X107379786Y-65530109D01*
X107379788Y-65530106D01*
X107379792Y-65530104D01*
X107530104Y-65379792D01*
X107530106Y-65379788D01*
X107530109Y-65379786D01*
X107655048Y-65207820D01*
X107655047Y-65207820D01*
X107655051Y-65207816D01*
X107659514Y-65199054D01*
X107707488Y-65148259D01*
X107775308Y-65131463D01*
X107841444Y-65153999D01*
X107880486Y-65199056D01*
X107884951Y-65207820D01*
X108009890Y-65379786D01*
X108160213Y-65530109D01*
X108332184Y-65655051D01*
X108332184Y-65655052D01*
X108371793Y-65675233D01*
X108422590Y-65723206D01*
X108439500Y-65785718D01*
X108439500Y-70920234D01*
X108419815Y-70987273D01*
X108418602Y-70989125D01*
X108330609Y-71120814D01*
X108330602Y-71120827D01*
X108270264Y-71266498D01*
X108270261Y-71266510D01*
X108239500Y-71421153D01*
X108239500Y-71578846D01*
X108270261Y-71733489D01*
X108270264Y-71733501D01*
X108330602Y-71879172D01*
X108330609Y-71879185D01*
X108418210Y-72010288D01*
X108418213Y-72010292D01*
X108529707Y-72121786D01*
X108529711Y-72121789D01*
X108660814Y-72209390D01*
X108660827Y-72209397D01*
X108799106Y-72266673D01*
X108806503Y-72269737D01*
X108961153Y-72300499D01*
X108961156Y-72300500D01*
X108961158Y-72300500D01*
X109118844Y-72300500D01*
X109118845Y-72300499D01*
X109273497Y-72269737D01*
X109419179Y-72209394D01*
X109550289Y-72121789D01*
X109661789Y-72010289D01*
X109749394Y-71879179D01*
X109809737Y-71733497D01*
X109840500Y-71578842D01*
X109840500Y-71421158D01*
X109840500Y-71421155D01*
X109840499Y-71421153D01*
X109809738Y-71266510D01*
X109809737Y-71266503D01*
X109773887Y-71179953D01*
X109749397Y-71120827D01*
X109749390Y-71120814D01*
X109661398Y-70989125D01*
X109640520Y-70922447D01*
X109640500Y-70920234D01*
X109640500Y-65785718D01*
X109660185Y-65718679D01*
X109708207Y-65675233D01*
X109747815Y-65655052D01*
X109747815Y-65655051D01*
X109747816Y-65655051D01*
X109878579Y-65560047D01*
X109919786Y-65530109D01*
X109919788Y-65530106D01*
X109919792Y-65530104D01*
X110070104Y-65379792D01*
X110070106Y-65379788D01*
X110070109Y-65379786D01*
X110195048Y-65207820D01*
X110195047Y-65207820D01*
X110195051Y-65207816D01*
X110291557Y-65018412D01*
X110357246Y-64816243D01*
X110390500Y-64606287D01*
X110390500Y-64393713D01*
X110357246Y-64183757D01*
X110291557Y-63981588D01*
X110195051Y-63792184D01*
X110195049Y-63792181D01*
X110195048Y-63792179D01*
X110070109Y-63620213D01*
X109956181Y-63506285D01*
X109922696Y-63444962D01*
X109927680Y-63375270D01*
X109969552Y-63319337D01*
X110000529Y-63302422D01*
X110132086Y-63253354D01*
X110132093Y-63253350D01*
X110247187Y-63167190D01*
X110247190Y-63167187D01*
X110333350Y-63052093D01*
X110333354Y-63052086D01*
X110358654Y-62984253D01*
X113028600Y-62984253D01*
X113028600Y-63141946D01*
X113059361Y-63296589D01*
X113059364Y-63296601D01*
X113119702Y-63442272D01*
X113119709Y-63442285D01*
X113207310Y-63573388D01*
X113207313Y-63573392D01*
X113318807Y-63684886D01*
X113318811Y-63684889D01*
X113449914Y-63772490D01*
X113449927Y-63772497D01*
X113595598Y-63832835D01*
X113595603Y-63832837D01*
X113660247Y-63845695D01*
X113750949Y-63863738D01*
X113767705Y-63872502D01*
X113786185Y-63876523D01*
X113811223Y-63895267D01*
X113812860Y-63896123D01*
X113814439Y-63897674D01*
X113875436Y-63958671D01*
X113908921Y-64019994D01*
X113903937Y-64089686D01*
X113900140Y-64098751D01*
X113893259Y-64113508D01*
X113834366Y-64333302D01*
X113834364Y-64333312D01*
X113819500Y-64503214D01*
X113819500Y-64616785D01*
X113834364Y-64786687D01*
X113834366Y-64786697D01*
X113893258Y-65006488D01*
X113893261Y-65006497D01*
X113989431Y-65212732D01*
X113989432Y-65212734D01*
X114119954Y-65399141D01*
X114280858Y-65560045D01*
X114280861Y-65560047D01*
X114467266Y-65690568D01*
X114519219Y-65714794D01*
X114571659Y-65760966D01*
X114590811Y-65828159D01*
X114570596Y-65895041D01*
X114525269Y-65936534D01*
X114460499Y-65971155D01*
X114460478Y-65971167D01*
X114329469Y-66058704D01*
X114329463Y-66058708D01*
X114252935Y-66121514D01*
X114141514Y-66232935D01*
X114078708Y-66309463D01*
X114078704Y-66309469D01*
X113991167Y-66440478D01*
X113991155Y-66440498D01*
X113944490Y-66527801D01*
X113884185Y-66673387D01*
X113855443Y-66768139D01*
X113855440Y-66768150D01*
X113839160Y-66849999D01*
X113839161Y-66850000D01*
X118025000Y-66850000D01*
X118025000Y-66460214D01*
X118022106Y-66406237D01*
X118022106Y-66406235D01*
X117986561Y-66266969D01*
X117986557Y-66266957D01*
X117956118Y-66193471D01*
X117956106Y-66193443D01*
X117932781Y-66144690D01*
X117932778Y-66144685D01*
X117846641Y-66029621D01*
X117846638Y-66029617D01*
X117790376Y-65973356D01*
X117790359Y-65973340D01*
X117750157Y-65937229D01*
X117626545Y-65863888D01*
X117626538Y-65863884D01*
X117553067Y-65833452D01*
X117553065Y-65833451D01*
X117524833Y-65823491D01*
X117468162Y-65782623D01*
X117442582Y-65717604D01*
X117456215Y-65649077D01*
X117494964Y-65604982D01*
X117559139Y-65560047D01*
X117720047Y-65399139D01*
X117850568Y-65212734D01*
X117908972Y-65087486D01*
X122009500Y-65087486D01*
X122009500Y-65272513D01*
X122038445Y-65455265D01*
X122095619Y-65631232D01*
X122095620Y-65631235D01*
X122158787Y-65755205D01*
X122179622Y-65796096D01*
X122288379Y-65945787D01*
X122419213Y-66076621D01*
X122568904Y-66185378D01*
X122649763Y-66226577D01*
X122733764Y-66269379D01*
X122733767Y-66269380D01*
X122821750Y-66297967D01*
X122909736Y-66326555D01*
X123092486Y-66355500D01*
X123092487Y-66355500D01*
X123277513Y-66355500D01*
X123277514Y-66355500D01*
X123460264Y-66326555D01*
X123636235Y-66269379D01*
X123801096Y-66185378D01*
X123950787Y-66076621D01*
X124081621Y-65945787D01*
X124190378Y-65796096D01*
X124274379Y-65631235D01*
X124331555Y-65455264D01*
X124360500Y-65272514D01*
X124360500Y-65087486D01*
X124331555Y-64904736D01*
X124293202Y-64786697D01*
X124276826Y-64736295D01*
X124274380Y-64728767D01*
X124274379Y-64728764D01*
X124259722Y-64699999D01*
X124660000Y-64699999D01*
X124660000Y-65600000D01*
X124662138Y-65665541D01*
X124662138Y-65665544D01*
X124662139Y-65665545D01*
X124696068Y-65792167D01*
X124761612Y-65905694D01*
X124854306Y-65998388D01*
X124967833Y-66063932D01*
X125094455Y-66097861D01*
X125160000Y-66100000D01*
X126060000Y-66100000D01*
X126125545Y-66097861D01*
X126252167Y-66063933D01*
X126365694Y-65998388D01*
X126458388Y-65905694D01*
X126523933Y-65792167D01*
X126557861Y-65665545D01*
X126560000Y-65600000D01*
X126560000Y-65087486D01*
X126859500Y-65087486D01*
X126859500Y-65272513D01*
X126888445Y-65455265D01*
X126945619Y-65631232D01*
X126945620Y-65631235D01*
X127008787Y-65755205D01*
X127029622Y-65796096D01*
X127138379Y-65945787D01*
X127269213Y-66076621D01*
X127418904Y-66185378D01*
X127499763Y-66226577D01*
X127583764Y-66269379D01*
X127583767Y-66269380D01*
X127671750Y-66297967D01*
X127759736Y-66326555D01*
X127942486Y-66355500D01*
X127942487Y-66355500D01*
X128127513Y-66355500D01*
X128127514Y-66355500D01*
X128310264Y-66326555D01*
X128486235Y-66269379D01*
X128651096Y-66185378D01*
X128800787Y-66076621D01*
X128931621Y-65945787D01*
X129040378Y-65796096D01*
X129124379Y-65631235D01*
X129181555Y-65455264D01*
X129210500Y-65272514D01*
X129210500Y-65087486D01*
X129181555Y-64904736D01*
X129143202Y-64786697D01*
X129124380Y-64728767D01*
X129124379Y-64728764D01*
X129067322Y-64616784D01*
X129040378Y-64563904D01*
X128931621Y-64414213D01*
X128800787Y-64283379D01*
X128651096Y-64174622D01*
X128612378Y-64154894D01*
X128486235Y-64090620D01*
X128486232Y-64090619D01*
X128310265Y-64033445D01*
X128218889Y-64018972D01*
X128127514Y-64004500D01*
X127942486Y-64004500D01*
X127881569Y-64014148D01*
X127759734Y-64033445D01*
X127583767Y-64090619D01*
X127583764Y-64090620D01*
X127418903Y-64174622D01*
X127381030Y-64202139D01*
X127269213Y-64283379D01*
X127269211Y-64283381D01*
X127269210Y-64283381D01*
X127138381Y-64414210D01*
X127138381Y-64414211D01*
X127138379Y-64414213D01*
X127091672Y-64478499D01*
X127029622Y-64563903D01*
X126945620Y-64728764D01*
X126945619Y-64728767D01*
X126888445Y-64904734D01*
X126859500Y-65087486D01*
X126560000Y-65087486D01*
X126560000Y-64700000D01*
X126557861Y-64634455D01*
X126523933Y-64507833D01*
X126458388Y-64394306D01*
X126365694Y-64301612D01*
X126252167Y-64236067D01*
X126125545Y-64202139D01*
X126060000Y-64200000D01*
X125610000Y-64200000D01*
X125160000Y-64200000D01*
X125094458Y-64202138D01*
X124967832Y-64236068D01*
X124854307Y-64301611D01*
X124854304Y-64301613D01*
X124761613Y-64394304D01*
X124761611Y-64394307D01*
X124696068Y-64507832D01*
X124662138Y-64634458D01*
X124660000Y-64699999D01*
X124259722Y-64699999D01*
X124217322Y-64616784D01*
X124190378Y-64563904D01*
X124081621Y-64414213D01*
X123950787Y-64283379D01*
X123801096Y-64174622D01*
X123762378Y-64154894D01*
X123636235Y-64090620D01*
X123636232Y-64090619D01*
X123460265Y-64033445D01*
X123368889Y-64018972D01*
X123277514Y-64004500D01*
X123092486Y-64004500D01*
X123031569Y-64014148D01*
X122909734Y-64033445D01*
X122733767Y-64090619D01*
X122733764Y-64090620D01*
X122568903Y-64174622D01*
X122531030Y-64202139D01*
X122419213Y-64283379D01*
X122419211Y-64283381D01*
X122419210Y-64283381D01*
X122288381Y-64414210D01*
X122288381Y-64414211D01*
X122288379Y-64414213D01*
X122241672Y-64478499D01*
X122179622Y-64563903D01*
X122095620Y-64728764D01*
X122095619Y-64728767D01*
X122038445Y-64904734D01*
X122009500Y-65087486D01*
X117908972Y-65087486D01*
X117946739Y-65006496D01*
X118005635Y-64786692D01*
X118020500Y-64616784D01*
X118020500Y-64503216D01*
X118005635Y-64333308D01*
X117946739Y-64113504D01*
X117850568Y-63907266D01*
X117752839Y-63767693D01*
X117720045Y-63720858D01*
X117559141Y-63559954D01*
X117372734Y-63429432D01*
X117372732Y-63429431D01*
X117358542Y-63422814D01*
X117321342Y-63405467D01*
X117268904Y-63359295D01*
X117249752Y-63292102D01*
X117269968Y-63225221D01*
X117315293Y-63183729D01*
X117379783Y-63149259D01*
X117510811Y-63061709D01*
X117587412Y-62998843D01*
X117698843Y-62887412D01*
X117761709Y-62810811D01*
X117849259Y-62679783D01*
X117895972Y-62592389D01*
X117956278Y-62446798D01*
X117985044Y-62351968D01*
X118015787Y-62197410D01*
X118025500Y-62098793D01*
X118025500Y-62043713D01*
X121534500Y-62043713D01*
X121534500Y-62256287D01*
X121541424Y-62300000D01*
X121549653Y-62351962D01*
X121567754Y-62466243D01*
X121633249Y-62667816D01*
X121633444Y-62668414D01*
X121729951Y-62857820D01*
X121854890Y-63029786D01*
X122005213Y-63180109D01*
X122177179Y-63305048D01*
X122177181Y-63305049D01*
X122177184Y-63305051D01*
X122366588Y-63401557D01*
X122568757Y-63467246D01*
X122778713Y-63500500D01*
X122778714Y-63500500D01*
X122991286Y-63500500D01*
X122991287Y-63500500D01*
X123201243Y-63467246D01*
X123403412Y-63401557D01*
X123592816Y-63305051D01*
X123659903Y-63256310D01*
X123764786Y-63180109D01*
X123764788Y-63180106D01*
X123764792Y-63180104D01*
X123915104Y-63029792D01*
X124040051Y-62857816D01*
X124040053Y-62857811D01*
X124042914Y-62853874D01*
X124044013Y-62854672D01*
X124091241Y-62811928D01*
X124149225Y-62799648D01*
X124160000Y-62800000D01*
X124160004Y-62800000D01*
X125060000Y-62800000D01*
X125125545Y-62797861D01*
X125252167Y-62763933D01*
X125365694Y-62698388D01*
X125458388Y-62605694D01*
X125498283Y-62536594D01*
X125548850Y-62488378D01*
X125617457Y-62475155D01*
X125682322Y-62501124D01*
X125713057Y-62536594D01*
X125761609Y-62620690D01*
X125761611Y-62620693D01*
X125761612Y-62620694D01*
X125854306Y-62713388D01*
X125967833Y-62778932D01*
X126094455Y-62812861D01*
X126160000Y-62815000D01*
X127059997Y-62815000D01*
X127060000Y-62815000D01*
X127081066Y-62814312D01*
X127148711Y-62831798D01*
X127185430Y-62865361D01*
X127304890Y-63029786D01*
X127455213Y-63180109D01*
X127627179Y-63305048D01*
X127627181Y-63305049D01*
X127627184Y-63305051D01*
X127816588Y-63401557D01*
X128018757Y-63467246D01*
X128228713Y-63500500D01*
X128228714Y-63500500D01*
X128441286Y-63500500D01*
X128441287Y-63500500D01*
X128651243Y-63467246D01*
X128824494Y-63410953D01*
X131791300Y-63410953D01*
X131791300Y-63568646D01*
X131822061Y-63723289D01*
X131822064Y-63723301D01*
X131882402Y-63868972D01*
X131882409Y-63868985D01*
X131970010Y-64000088D01*
X131970013Y-64000092D01*
X132081507Y-64111586D01*
X132081511Y-64111589D01*
X132212614Y-64199190D01*
X132212627Y-64199197D01*
X132301643Y-64236068D01*
X132358303Y-64259537D01*
X132511887Y-64290087D01*
X132512953Y-64290299D01*
X132512956Y-64290300D01*
X132512958Y-64290300D01*
X132670644Y-64290300D01*
X132670645Y-64290299D01*
X132825297Y-64259537D01*
X132970979Y-64199194D01*
X133037279Y-64154893D01*
X133103955Y-64134015D01*
X133171335Y-64152499D01*
X133218026Y-64204477D01*
X133229204Y-64273447D01*
X133225945Y-64290087D01*
X133214367Y-64333299D01*
X133214364Y-64333312D01*
X133199500Y-64503214D01*
X133199500Y-64616785D01*
X133214364Y-64786687D01*
X133214366Y-64786697D01*
X133273258Y-65006488D01*
X133273261Y-65006497D01*
X133369431Y-65212732D01*
X133369432Y-65212734D01*
X133499954Y-65399141D01*
X133660858Y-65560045D01*
X133727379Y-65606623D01*
X133771004Y-65661199D01*
X133778198Y-65730698D01*
X133746676Y-65793052D01*
X133686922Y-65828346D01*
X133666970Y-65833438D01*
X133666957Y-65833442D01*
X133593471Y-65863881D01*
X133593443Y-65863893D01*
X133544690Y-65887218D01*
X133544685Y-65887221D01*
X133429621Y-65973358D01*
X133429617Y-65973361D01*
X133373356Y-66029623D01*
X133373340Y-66029640D01*
X133337229Y-66069842D01*
X133263888Y-66193454D01*
X133263884Y-66193461D01*
X133233452Y-66266932D01*
X133233451Y-66266935D01*
X133215455Y-66317946D01*
X133195000Y-66460219D01*
X133195000Y-66850000D01*
X137380839Y-66850000D01*
X137380839Y-66849999D01*
X137364559Y-66768150D01*
X137364556Y-66768139D01*
X137335814Y-66673387D01*
X137275509Y-66527801D01*
X137228844Y-66440498D01*
X137228832Y-66440478D01*
X137141295Y-66309469D01*
X137141291Y-66309463D01*
X137078485Y-66232935D01*
X136967064Y-66121514D01*
X136890536Y-66058708D01*
X136890530Y-66058704D01*
X136759521Y-65971167D01*
X136759501Y-65971155D01*
X136694730Y-65936534D01*
X136644886Y-65887571D01*
X136629426Y-65819434D01*
X136653258Y-65753754D01*
X136700777Y-65714795D01*
X136752734Y-65690568D01*
X136939139Y-65560047D01*
X137100047Y-65399139D01*
X137230568Y-65212734D01*
X137326739Y-65006496D01*
X137385635Y-64786692D01*
X137400500Y-64616784D01*
X137400500Y-64503216D01*
X137385635Y-64333308D01*
X137326739Y-64113504D01*
X137230568Y-63907266D01*
X137132839Y-63767693D01*
X137100045Y-63720858D01*
X136939141Y-63559954D01*
X136752734Y-63429432D01*
X136752728Y-63429429D01*
X136725038Y-63416517D01*
X136694724Y-63402381D01*
X136642285Y-63356210D01*
X136623133Y-63289017D01*
X136643348Y-63222135D01*
X136694725Y-63177618D01*
X136752734Y-63150568D01*
X136939139Y-63020047D01*
X137100047Y-62859139D01*
X137230568Y-62672734D01*
X137326739Y-62466496D01*
X137385635Y-62246692D01*
X137400500Y-62076784D01*
X137400500Y-61963216D01*
X137385635Y-61793308D01*
X137326739Y-61573504D01*
X137230568Y-61367266D01*
X137100047Y-61180861D01*
X137100045Y-61180858D01*
X136939141Y-61019954D01*
X136752734Y-60889432D01*
X136752732Y-60889431D01*
X136546497Y-60793261D01*
X136546488Y-60793258D01*
X136326697Y-60734366D01*
X136326687Y-60734364D01*
X136156785Y-60719500D01*
X136156784Y-60719500D01*
X134443216Y-60719500D01*
X134443215Y-60719500D01*
X134273312Y-60734364D01*
X134273302Y-60734366D01*
X134053511Y-60793258D01*
X134053502Y-60793261D01*
X133847267Y-60889431D01*
X133847265Y-60889432D01*
X133660858Y-61019954D01*
X133499954Y-61180858D01*
X133369432Y-61367265D01*
X133369431Y-61367267D01*
X133273261Y-61573502D01*
X133273258Y-61573511D01*
X133214366Y-61793302D01*
X133214364Y-61793312D01*
X133199500Y-61963214D01*
X133199500Y-62076785D01*
X133214364Y-62246687D01*
X133214366Y-62246697D01*
X133273258Y-62466488D01*
X133273261Y-62466497D01*
X133369430Y-62672730D01*
X133369432Y-62672734D01*
X133384448Y-62694179D01*
X133388127Y-62705088D01*
X133395666Y-62713789D01*
X133399088Y-62737593D01*
X133406774Y-62760383D01*
X133403971Y-62771549D01*
X133405610Y-62782947D01*
X133395618Y-62804824D01*
X133389764Y-62828150D01*
X133381368Y-62836029D01*
X133376585Y-62846503D01*
X133356352Y-62859505D01*
X133338816Y-62875963D01*
X133325983Y-62879022D01*
X133317807Y-62884277D01*
X133282872Y-62889300D01*
X133171566Y-62889300D01*
X133104527Y-62869615D01*
X133102675Y-62868402D01*
X132970985Y-62780409D01*
X132970972Y-62780402D01*
X132825301Y-62720064D01*
X132825289Y-62720061D01*
X132670645Y-62689300D01*
X132670642Y-62689300D01*
X132512958Y-62689300D01*
X132512955Y-62689300D01*
X132358310Y-62720061D01*
X132358298Y-62720064D01*
X132212627Y-62780402D01*
X132212614Y-62780409D01*
X132081511Y-62868010D01*
X132081507Y-62868013D01*
X131970013Y-62979507D01*
X131970010Y-62979511D01*
X131882409Y-63110614D01*
X131882402Y-63110627D01*
X131822064Y-63256298D01*
X131822061Y-63256310D01*
X131791300Y-63410953D01*
X128824494Y-63410953D01*
X128853412Y-63401557D01*
X129042816Y-63305051D01*
X129043507Y-63304549D01*
X129043509Y-63304548D01*
X129214786Y-63180109D01*
X129214788Y-63180106D01*
X129214792Y-63180104D01*
X129365104Y-63029792D01*
X129365106Y-63029788D01*
X129365109Y-63029786D01*
X129490048Y-62857820D01*
X129490047Y-62857820D01*
X129490051Y-62857816D01*
X129586557Y-62668412D01*
X129652246Y-62466243D01*
X129685500Y-62256287D01*
X129685500Y-62043713D01*
X129652246Y-61833757D01*
X129586557Y-61631588D01*
X129490051Y-61442184D01*
X129490049Y-61442181D01*
X129490048Y-61442179D01*
X129365109Y-61270213D01*
X129214786Y-61119890D01*
X129042820Y-60994951D01*
X128853414Y-60898444D01*
X128853413Y-60898443D01*
X128853412Y-60898443D01*
X128651243Y-60832754D01*
X128651241Y-60832753D01*
X128651240Y-60832753D01*
X128475690Y-60804949D01*
X128441287Y-60799500D01*
X128228713Y-60799500D01*
X128194310Y-60804949D01*
X128018760Y-60832753D01*
X127816585Y-60898444D01*
X127627181Y-60994950D01*
X127548861Y-61051852D01*
X127483054Y-61075331D01*
X127415000Y-61059504D01*
X127388296Y-61039214D01*
X127365696Y-61016614D01*
X127365694Y-61016612D01*
X127252167Y-60951067D01*
X127125545Y-60917139D01*
X127060000Y-60915000D01*
X126610000Y-60915000D01*
X126160000Y-60915000D01*
X126094458Y-60917138D01*
X125967832Y-60951068D01*
X125854307Y-61016611D01*
X125854304Y-61016613D01*
X125761613Y-61109304D01*
X125761609Y-61109309D01*
X125721717Y-61178405D01*
X125671150Y-61226621D01*
X125602543Y-61239843D01*
X125537678Y-61213875D01*
X125506943Y-61178405D01*
X125469334Y-61113265D01*
X125458388Y-61094306D01*
X125365694Y-61001612D01*
X125252167Y-60936067D01*
X125125545Y-60902139D01*
X125060000Y-60900000D01*
X124610000Y-60900000D01*
X124160000Y-60900000D01*
X124094458Y-60902138D01*
X123967832Y-60936068D01*
X123854307Y-61001611D01*
X123854304Y-61001613D01*
X123823014Y-61032903D01*
X123761690Y-61066388D01*
X123691999Y-61061402D01*
X123662449Y-61045540D01*
X123592815Y-60994948D01*
X123403414Y-60898444D01*
X123403413Y-60898443D01*
X123403412Y-60898443D01*
X123201243Y-60832754D01*
X123201241Y-60832753D01*
X123201240Y-60832753D01*
X123025690Y-60804949D01*
X122991287Y-60799500D01*
X122778713Y-60799500D01*
X122744310Y-60804949D01*
X122568760Y-60832753D01*
X122366585Y-60898444D01*
X122177179Y-60994951D01*
X122005213Y-61119890D01*
X121854890Y-61270213D01*
X121729951Y-61442179D01*
X121633444Y-61631585D01*
X121567753Y-61833760D01*
X121537333Y-62025826D01*
X121534500Y-62043713D01*
X118025500Y-62043713D01*
X118025500Y-61941207D01*
X118015787Y-61842590D01*
X117985044Y-61688032D01*
X117956278Y-61593202D01*
X117895972Y-61447611D01*
X117870523Y-61400000D01*
X117849265Y-61360228D01*
X117849263Y-61360226D01*
X117849259Y-61360217D01*
X117842068Y-61349455D01*
X117761721Y-61229206D01*
X117761712Y-61229194D01*
X117761709Y-61229189D01*
X117698843Y-61152588D01*
X117587412Y-61041157D01*
X117510811Y-60978291D01*
X117510804Y-60978286D01*
X117510793Y-60978278D01*
X117379799Y-60890751D01*
X117379771Y-60890734D01*
X117292396Y-60844031D01*
X117292391Y-60844029D01*
X117271042Y-60835186D01*
X117249748Y-60826365D01*
X117146799Y-60783722D01*
X117121190Y-60775954D01*
X117051968Y-60754956D01*
X116897410Y-60724213D01*
X116897406Y-60724212D01*
X116897398Y-60724211D01*
X116817926Y-60716384D01*
X116798793Y-60714500D01*
X116798791Y-60714500D01*
X115303997Y-60714500D01*
X115236958Y-60694815D01*
X115216316Y-60678181D01*
X114736874Y-60198739D01*
X114703389Y-60137416D01*
X114702938Y-60135249D01*
X114672038Y-59979910D01*
X114672037Y-59979903D01*
X114672035Y-59979898D01*
X114611697Y-59834227D01*
X114611690Y-59834214D01*
X114524089Y-59703111D01*
X114524086Y-59703107D01*
X114412592Y-59591613D01*
X114412588Y-59591610D01*
X114281485Y-59504009D01*
X114281472Y-59504002D01*
X114135801Y-59443664D01*
X114135789Y-59443661D01*
X113981145Y-59412900D01*
X113981142Y-59412900D01*
X113823458Y-59412900D01*
X113823455Y-59412900D01*
X113668810Y-59443661D01*
X113668798Y-59443664D01*
X113523127Y-59504002D01*
X113523114Y-59504009D01*
X113392011Y-59591610D01*
X113392007Y-59591613D01*
X113280513Y-59703107D01*
X113280510Y-59703111D01*
X113192909Y-59834214D01*
X113192902Y-59834227D01*
X113132564Y-59979898D01*
X113132561Y-59979910D01*
X113101800Y-60134553D01*
X113101800Y-60292246D01*
X113132561Y-60446889D01*
X113132564Y-60446901D01*
X113192902Y-60592572D01*
X113192909Y-60592585D01*
X113280510Y-60723688D01*
X113280513Y-60723692D01*
X113392007Y-60835186D01*
X113392011Y-60835189D01*
X113523114Y-60922790D01*
X113523127Y-60922797D01*
X113668798Y-60983135D01*
X113668803Y-60983137D01*
X113728181Y-60994948D01*
X113768695Y-61003007D01*
X113830606Y-61035392D01*
X113865180Y-61096107D01*
X113861441Y-61165877D01*
X113859068Y-61172070D01*
X113852980Y-61186769D01*
X113852970Y-61186795D01*
X113834976Y-61237800D01*
X113814500Y-61380219D01*
X113814500Y-62148057D01*
X113794815Y-62215096D01*
X113742011Y-62260851D01*
X113714692Y-62269674D01*
X113595608Y-62293361D01*
X113595598Y-62293364D01*
X113449927Y-62353702D01*
X113449914Y-62353709D01*
X113318811Y-62441310D01*
X113318807Y-62441313D01*
X113207313Y-62552807D01*
X113207310Y-62552811D01*
X113119709Y-62683914D01*
X113119702Y-62683927D01*
X113059364Y-62829598D01*
X113059361Y-62829610D01*
X113028600Y-62984253D01*
X110358654Y-62984253D01*
X110377087Y-62934833D01*
X110377087Y-62934832D01*
X110383597Y-62917376D01*
X110383598Y-62917372D01*
X110389999Y-62857844D01*
X110390000Y-62857827D01*
X110390000Y-62210000D01*
X109473012Y-62210000D01*
X109505925Y-62152993D01*
X109540000Y-62025826D01*
X109540000Y-61894174D01*
X109505925Y-61767007D01*
X109473012Y-61710000D01*
X110390000Y-61710000D01*
X110390000Y-61062172D01*
X110389999Y-61062155D01*
X110383598Y-61002627D01*
X110383596Y-61002620D01*
X110333354Y-60867913D01*
X110333350Y-60867906D01*
X110247190Y-60752812D01*
X110247187Y-60752809D01*
X110132093Y-60666649D01*
X110132086Y-60666645D01*
X109997379Y-60616403D01*
X109997372Y-60616401D01*
X109937844Y-60610000D01*
X109290000Y-60610000D01*
X109290000Y-61526988D01*
X109232993Y-61494075D01*
X109105826Y-61460000D01*
X108974174Y-61460000D01*
X108847007Y-61494075D01*
X108790000Y-61526988D01*
X108790000Y-60610000D01*
X108494500Y-60610000D01*
X108427461Y-60590315D01*
X108381706Y-60537511D01*
X108370500Y-60486000D01*
X108370500Y-57359060D01*
X108370501Y-57359047D01*
X108370501Y-57190944D01*
X108329576Y-57038214D01*
X108329573Y-57038209D01*
X108250524Y-56901290D01*
X108250518Y-56901282D01*
X107461983Y-56112747D01*
X106647095Y-55297860D01*
X106613611Y-55236538D01*
X106618595Y-55166846D01*
X106620200Y-55162764D01*
X106661158Y-55063887D01*
X106720548Y-54842238D01*
X106750500Y-54614734D01*
X106750500Y-54385266D01*
X106720548Y-54157762D01*
X106661158Y-53936113D01*
X106573344Y-53724112D01*
X106458611Y-53525388D01*
X106458608Y-53525385D01*
X106458607Y-53525382D01*
X106456281Y-53522351D01*
X106400773Y-53450013D01*
X108250000Y-53450013D01*
X108250000Y-54250000D01*
X109399999Y-54250000D01*
X109374979Y-54310402D01*
X109350000Y-54435981D01*
X109350000Y-54564019D01*
X109374979Y-54689598D01*
X109399999Y-54750000D01*
X108250001Y-54750000D01*
X108250001Y-55549986D01*
X108260494Y-55652697D01*
X108315641Y-55819119D01*
X108315643Y-55819124D01*
X108407684Y-55968345D01*
X108531654Y-56092315D01*
X108680875Y-56184356D01*
X108680880Y-56184358D01*
X108847302Y-56239505D01*
X108847309Y-56239506D01*
X108950019Y-56249999D01*
X109749999Y-56249999D01*
X109750000Y-56249998D01*
X109750000Y-55100001D01*
X109810402Y-55125021D01*
X109935981Y-55150000D01*
X110064019Y-55150000D01*
X110189598Y-55125021D01*
X110250000Y-55100001D01*
X110250000Y-56249999D01*
X111049972Y-56249999D01*
X111049986Y-56249998D01*
X111152697Y-56239505D01*
X111319119Y-56184358D01*
X111319124Y-56184356D01*
X111468345Y-56092315D01*
X111592315Y-55968345D01*
X111684356Y-55819124D01*
X111684358Y-55819119D01*
X111739505Y-55652697D01*
X111739506Y-55652690D01*
X111749999Y-55549986D01*
X111750000Y-55549973D01*
X111750000Y-54750000D01*
X110600001Y-54750000D01*
X110625021Y-54689598D01*
X110650000Y-54564019D01*
X110650000Y-54435981D01*
X110625021Y-54310402D01*
X110600001Y-54250000D01*
X111749999Y-54250000D01*
X111749999Y-53602135D01*
X114494500Y-53602135D01*
X114494500Y-55397870D01*
X114494501Y-55397876D01*
X114500908Y-55457483D01*
X114551202Y-55592328D01*
X114551206Y-55592335D01*
X114637452Y-55707544D01*
X114637455Y-55707547D01*
X114752664Y-55793793D01*
X114752671Y-55793797D01*
X114887517Y-55844091D01*
X114887516Y-55844091D01*
X114894444Y-55844835D01*
X114947127Y-55850500D01*
X116742872Y-55850499D01*
X116802483Y-55844091D01*
X116937331Y-55793796D01*
X117052546Y-55707546D01*
X117138796Y-55592331D01*
X117189091Y-55457483D01*
X117195500Y-55397873D01*
X117195499Y-54435981D01*
X117195499Y-53602155D01*
X134075000Y-53602155D01*
X134075000Y-54250000D01*
X134991988Y-54250000D01*
X134959075Y-54307007D01*
X134925000Y-54434174D01*
X134925000Y-54565826D01*
X134959075Y-54692993D01*
X134991988Y-54750000D01*
X134075000Y-54750000D01*
X134075000Y-55397844D01*
X134081401Y-55457372D01*
X134081403Y-55457379D01*
X134131645Y-55592086D01*
X134131649Y-55592093D01*
X134217809Y-55707187D01*
X134217812Y-55707190D01*
X134332906Y-55793350D01*
X134332913Y-55793354D01*
X134467620Y-55843596D01*
X134467627Y-55843598D01*
X134527155Y-55849999D01*
X134527172Y-55850000D01*
X135175000Y-55850000D01*
X135175000Y-54933012D01*
X135232007Y-54965925D01*
X135359174Y-55000000D01*
X135490826Y-55000000D01*
X135617993Y-54965925D01*
X135675000Y-54933012D01*
X135675000Y-55850000D01*
X136322828Y-55850000D01*
X136322844Y-55849999D01*
X136382372Y-55843598D01*
X136382379Y-55843596D01*
X136517086Y-55793354D01*
X136517093Y-55793350D01*
X136632187Y-55707190D01*
X136632190Y-55707187D01*
X136718350Y-55592093D01*
X136718354Y-55592086D01*
X136768596Y-55457379D01*
X136768598Y-55457372D01*
X136774999Y-55397844D01*
X136775000Y-55397827D01*
X136775000Y-54750000D01*
X135858012Y-54750000D01*
X135890925Y-54692993D01*
X135925000Y-54565826D01*
X135925000Y-54434174D01*
X135890925Y-54307007D01*
X135858012Y-54250000D01*
X136775000Y-54250000D01*
X136775000Y-53602172D01*
X136774999Y-53602155D01*
X136768598Y-53542627D01*
X136768596Y-53542620D01*
X136718354Y-53407913D01*
X136718350Y-53407906D01*
X136632190Y-53292812D01*
X136632187Y-53292809D01*
X136517093Y-53206649D01*
X136517086Y-53206645D01*
X136382379Y-53156403D01*
X136382372Y-53156401D01*
X136322844Y-53150000D01*
X135675000Y-53150000D01*
X135675000Y-54066988D01*
X135617993Y-54034075D01*
X135490826Y-54000000D01*
X135359174Y-54000000D01*
X135232007Y-54034075D01*
X135175000Y-54066988D01*
X135175000Y-53150000D01*
X134527155Y-53150000D01*
X134467627Y-53156401D01*
X134467620Y-53156403D01*
X134332913Y-53206645D01*
X134332906Y-53206649D01*
X134217812Y-53292809D01*
X134217809Y-53292812D01*
X134131649Y-53407906D01*
X134131645Y-53407913D01*
X134081403Y-53542620D01*
X134081401Y-53542627D01*
X134075000Y-53602155D01*
X117195499Y-53602155D01*
X117195499Y-53602129D01*
X117195498Y-53602123D01*
X117195497Y-53602116D01*
X117189091Y-53542517D01*
X117182702Y-53525388D01*
X117138797Y-53407671D01*
X117138793Y-53407664D01*
X117052547Y-53292455D01*
X117052544Y-53292452D01*
X116937335Y-53206206D01*
X116937328Y-53206202D01*
X116802482Y-53155908D01*
X116802483Y-53155908D01*
X116742883Y-53149501D01*
X116742881Y-53149500D01*
X116742873Y-53149500D01*
X116742864Y-53149500D01*
X114947129Y-53149500D01*
X114947123Y-53149501D01*
X114887516Y-53155908D01*
X114752671Y-53206202D01*
X114752664Y-53206206D01*
X114637455Y-53292452D01*
X114637452Y-53292455D01*
X114551206Y-53407664D01*
X114551202Y-53407671D01*
X114500908Y-53542517D01*
X114494501Y-53602116D01*
X114494501Y-53602123D01*
X114494500Y-53602135D01*
X111749999Y-53602135D01*
X111749999Y-53450028D01*
X111749998Y-53450013D01*
X111739505Y-53347302D01*
X111684358Y-53180880D01*
X111684356Y-53180875D01*
X111592315Y-53031654D01*
X111468345Y-52907684D01*
X111319124Y-52815643D01*
X111319119Y-52815641D01*
X111152697Y-52760494D01*
X111152690Y-52760493D01*
X111049986Y-52750000D01*
X110250000Y-52750000D01*
X110250000Y-53899998D01*
X110189598Y-53874979D01*
X110064019Y-53850000D01*
X109935981Y-53850000D01*
X109810402Y-53874979D01*
X109750000Y-53899998D01*
X109750000Y-52750000D01*
X108950028Y-52750000D01*
X108950012Y-52750001D01*
X108847302Y-52760494D01*
X108680880Y-52815641D01*
X108680875Y-52815643D01*
X108531654Y-52907684D01*
X108407684Y-53031654D01*
X108315643Y-53180875D01*
X108315641Y-53180880D01*
X108260494Y-53347302D01*
X108260493Y-53347309D01*
X108250000Y-53450013D01*
X106400773Y-53450013D01*
X106318918Y-53343338D01*
X106318911Y-53343330D01*
X106156670Y-53181089D01*
X106156661Y-53181081D01*
X105974617Y-53041392D01*
X105775890Y-52926657D01*
X105775876Y-52926650D01*
X105563887Y-52838842D01*
X105342238Y-52779452D01*
X105304215Y-52774446D01*
X105114741Y-52749500D01*
X105114734Y-52749500D01*
X104885266Y-52749500D01*
X104885258Y-52749500D01*
X104668715Y-52778009D01*
X104657762Y-52779452D01*
X104564076Y-52804554D01*
X104436112Y-52838842D01*
X104224123Y-52926650D01*
X104224109Y-52926657D01*
X104025382Y-53041392D01*
X103843338Y-53181081D01*
X103681081Y-53343338D01*
X103541392Y-53525382D01*
X103426657Y-53724109D01*
X103426650Y-53724123D01*
X103338842Y-53936112D01*
X103279453Y-54157759D01*
X103279451Y-54157770D01*
X103249500Y-54385258D01*
X103249500Y-54614741D01*
X103258415Y-54682451D01*
X103279452Y-54842238D01*
X103338841Y-55063882D01*
X103338842Y-55063887D01*
X103426650Y-55275876D01*
X103426657Y-55275890D01*
X103541392Y-55474617D01*
X103681081Y-55656661D01*
X103681089Y-55656670D01*
X103843330Y-55818911D01*
X103843338Y-55818918D01*
X103843339Y-55818919D01*
X103875501Y-55843598D01*
X104025382Y-55958607D01*
X104025385Y-55958608D01*
X104025388Y-55958611D01*
X104224112Y-56073344D01*
X104224117Y-56073346D01*
X104224123Y-56073349D01*
X104315480Y-56111190D01*
X104436113Y-56161158D01*
X104657762Y-56220548D01*
X104874312Y-56249057D01*
X104881460Y-56249999D01*
X104885266Y-56250500D01*
X104885273Y-56250500D01*
X105114727Y-56250500D01*
X105114734Y-56250500D01*
X105342238Y-56220548D01*
X105563887Y-56161158D01*
X105662728Y-56120215D01*
X105732196Y-56112747D01*
X105794675Y-56144021D01*
X105797861Y-56147096D01*
X107133181Y-57482416D01*
X107166666Y-57543739D01*
X107169500Y-57570097D01*
X107169500Y-60586863D01*
X107149815Y-60653902D01*
X107097011Y-60699657D01*
X107027853Y-60709601D01*
X107007182Y-60704794D01*
X106816240Y-60642753D01*
X106654957Y-60617208D01*
X106606287Y-60609500D01*
X106393713Y-60609500D01*
X106345042Y-60617208D01*
X106183760Y-60642753D01*
X106183757Y-60642754D01*
X106023531Y-60694815D01*
X105981585Y-60708444D01*
X105792179Y-60804951D01*
X105620213Y-60929890D01*
X105469890Y-61080213D01*
X105344949Y-61252182D01*
X105340484Y-61260946D01*
X105292509Y-61311742D01*
X105224688Y-61328536D01*
X105158553Y-61305998D01*
X105119516Y-61260946D01*
X105115050Y-61252182D01*
X104990109Y-61080213D01*
X104839786Y-60929890D01*
X104667820Y-60804951D01*
X104478414Y-60708444D01*
X104478413Y-60708443D01*
X104478412Y-60708443D01*
X104276243Y-60642754D01*
X104276241Y-60642753D01*
X104276240Y-60642753D01*
X104114957Y-60617208D01*
X104066287Y-60609500D01*
X103853713Y-60609500D01*
X103805042Y-60617208D01*
X103643760Y-60642753D01*
X103643757Y-60642754D01*
X103483531Y-60694815D01*
X103441585Y-60708444D01*
X103252179Y-60804951D01*
X103080213Y-60929890D01*
X102929890Y-61080213D01*
X102804951Y-61252179D01*
X102708444Y-61441585D01*
X102642753Y-61643760D01*
X102612661Y-61833757D01*
X102609500Y-61853713D01*
X102609500Y-62066287D01*
X102619534Y-62129644D01*
X102641713Y-62269674D01*
X102642754Y-62276243D01*
X102704571Y-62466496D01*
X102708444Y-62478414D01*
X102804951Y-62667820D01*
X102929890Y-62839786D01*
X103080213Y-62990109D01*
X103252182Y-63115050D01*
X103260946Y-63119516D01*
X103311742Y-63167491D01*
X103328536Y-63235312D01*
X103305998Y-63301447D01*
X103260946Y-63340484D01*
X103252182Y-63344949D01*
X103080213Y-63469890D01*
X102929890Y-63620213D01*
X102804951Y-63792179D01*
X102708444Y-63981585D01*
X102642753Y-64183760D01*
X102609500Y-64393713D01*
X102609500Y-64606286D01*
X102638073Y-64786692D01*
X102642754Y-64816243D01*
X102704571Y-65006496D01*
X102708444Y-65018414D01*
X102804951Y-65207820D01*
X102929890Y-65379786D01*
X103080213Y-65530109D01*
X103252179Y-65655048D01*
X103252181Y-65655049D01*
X103252184Y-65655051D01*
X103441588Y-65751557D01*
X103643757Y-65817246D01*
X103853713Y-65850500D01*
X103853714Y-65850500D01*
X104066286Y-65850500D01*
X104066287Y-65850500D01*
X104276243Y-65817246D01*
X104467185Y-65755204D01*
X104537023Y-65753210D01*
X104596856Y-65789290D01*
X104627684Y-65851991D01*
X104629500Y-65873136D01*
X104629500Y-67038202D01*
X104609815Y-67105241D01*
X104593181Y-67125883D01*
X102519481Y-69199582D01*
X102519477Y-69199587D01*
X102473352Y-69279480D01*
X102473351Y-69279482D01*
X102457173Y-69307502D01*
X102406605Y-69355717D01*
X102349787Y-69369500D01*
X102102130Y-69369500D01*
X102102123Y-69369501D01*
X102042516Y-69375908D01*
X101907671Y-69426202D01*
X101907664Y-69426206D01*
X101792455Y-69512452D01*
X101792452Y-69512455D01*
X101706206Y-69627664D01*
X101706202Y-69627671D01*
X101655908Y-69762517D01*
X101652565Y-69793615D01*
X101649501Y-69822123D01*
X101649500Y-69822135D01*
X100500500Y-69822135D01*
X100500500Y-50624500D01*
X100520185Y-50557461D01*
X100572989Y-50511706D01*
X100624500Y-50500500D01*
X139375500Y-50500500D01*
X139442539Y-50520185D01*
G37*
%TD.AperFunction*%
%TA.AperFunction,Conductor*%
G36*
X114034075Y-144152993D02*
G01*
X114099901Y-144267007D01*
X114192993Y-144360099D01*
X114307007Y-144425925D01*
X114370590Y-144442962D01*
X113738282Y-145075269D01*
X113738282Y-145075270D01*
X113792452Y-145114626D01*
X113792451Y-145114626D01*
X113801495Y-145119234D01*
X113852292Y-145167208D01*
X113869087Y-145235029D01*
X113846550Y-145301164D01*
X113801499Y-145340202D01*
X113792182Y-145344949D01*
X113620213Y-145469890D01*
X113469890Y-145620213D01*
X113344949Y-145792182D01*
X113340484Y-145800946D01*
X113292509Y-145851742D01*
X113224688Y-145868536D01*
X113158553Y-145845998D01*
X113119516Y-145800946D01*
X113115050Y-145792182D01*
X112990109Y-145620213D01*
X112839786Y-145469890D01*
X112667820Y-145344951D01*
X112666132Y-145344091D01*
X112659054Y-145340484D01*
X112608259Y-145292512D01*
X112591463Y-145224692D01*
X112613999Y-145158556D01*
X112659054Y-145119515D01*
X112667816Y-145115051D01*
X112757554Y-145049853D01*
X112839786Y-144990109D01*
X112839788Y-144990106D01*
X112839792Y-144990104D01*
X112990104Y-144839792D01*
X112990106Y-144839788D01*
X112990109Y-144839786D01*
X113075890Y-144721717D01*
X113115051Y-144667816D01*
X113119793Y-144658508D01*
X113167763Y-144607711D01*
X113235583Y-144590911D01*
X113301719Y-144613445D01*
X113340763Y-144658500D01*
X113345373Y-144667547D01*
X113384728Y-144721716D01*
X114017037Y-144089408D01*
X114034075Y-144152993D01*
G37*
%TD.AperFunction*%
%TA.AperFunction,Conductor*%
G36*
X135034075Y-144152993D02*
G01*
X135099901Y-144267007D01*
X135192993Y-144360099D01*
X135307007Y-144425925D01*
X135370590Y-144442962D01*
X134738282Y-145075269D01*
X134738282Y-145075270D01*
X134792452Y-145114626D01*
X134792451Y-145114626D01*
X134801495Y-145119234D01*
X134852292Y-145167208D01*
X134869087Y-145235029D01*
X134846550Y-145301164D01*
X134801499Y-145340202D01*
X134792182Y-145344949D01*
X134620213Y-145469890D01*
X134469890Y-145620213D01*
X134344949Y-145792182D01*
X134340484Y-145800946D01*
X134292509Y-145851742D01*
X134224688Y-145868536D01*
X134158553Y-145845998D01*
X134119516Y-145800946D01*
X134115050Y-145792182D01*
X133990109Y-145620213D01*
X133839786Y-145469890D01*
X133667820Y-145344951D01*
X133666132Y-145344091D01*
X133659054Y-145340484D01*
X133608259Y-145292512D01*
X133591463Y-145224692D01*
X133613999Y-145158556D01*
X133659054Y-145119515D01*
X133667816Y-145115051D01*
X133757554Y-145049853D01*
X133839786Y-144990109D01*
X133839788Y-144990106D01*
X133839792Y-144990104D01*
X133990104Y-144839792D01*
X133990106Y-144839788D01*
X133990109Y-144839786D01*
X134075890Y-144721717D01*
X134115051Y-144667816D01*
X134119793Y-144658508D01*
X134167763Y-144607711D01*
X134235583Y-144590911D01*
X134301719Y-144613445D01*
X134340763Y-144658500D01*
X134345373Y-144667547D01*
X134384728Y-144721716D01*
X135017037Y-144089408D01*
X135034075Y-144152993D01*
G37*
%TD.AperFunction*%
%TD*%
M02*
