M48
; DRILL file {KiCad 9.0.1} date 2025-04-26T09:10:30+0100
; FORMAT={-:-/ absolute / metric / decimal}
; #@! TF.CreationDate,2025-04-26T09:10:30+01:00
; #@! TF.GenerationSoftware,Kicad,Pcbnew,9.0.1
; #@! TF.FileFunction,Plated,1,2,PTH
FMAT,2
METRIC
; #@! TA.AperFunction,Plated,PTH,ViaDrill
T1C0.300
; #@! TA.AperFunction,Plated,PTH,ComponentDrill
T2C0.600
; #@! TA.AperFunction,Plated,PTH,ComponentDrill
T3C0.700
; #@! TA.AperFunction,Plated,PTH,ComponentDrill
T4C0.800
; #@! TA.AperFunction,Plated,PTH,ComponentDrill
T5C0.900
; #@! TA.AperFunction,Plated,PTH,ComponentDrill
T6C1.000
; #@! TA.AperFunction,Plated,PTH,ComponentDrill
T7C1.300
%
G90
G05
T1
X109.04Y-71.5
X109.04Y-112.0
X109.95Y-127.997
X113.829Y-63.063
X113.902Y-60.213
X121.08Y-69.841
X127.179Y-69.055
X129.605Y-123.322
X130.015Y-119.222
X130.399Y-115.417
X132.592Y-63.49
X132.641Y-107.641
X133.115Y-114.769
X136.783Y-136.514
X136.803Y-96.413
X138.651Y-97.5
T2
X115.0Y-136.0
X117.0Y-136.0
X134.0Y-138.0
X136.0Y-138.0
T3
X105.0Y-138.0
X106.27Y-139.27
X107.54Y-138.0
X120.0Y-144.0
X121.27Y-145.27
X122.54Y-144.0
T4
X101.92Y-116.0
X104.0Y-126.0
X104.0Y-131.0
X106.0Y-121.0
X112.08Y-116.0
X114.16Y-126.0
X114.16Y-131.0
X116.16Y-121.0
X119.0Y-122.0
X121.0Y-127.0
X121.0Y-132.0
X121.0Y-137.0
X129.16Y-122.0
X131.16Y-127.0
X131.16Y-132.0
X131.16Y-137.0
T5
X131.0Y-117.0
X132.0Y-122.0
X133.54Y-117.0
X134.54Y-122.0
T6
X102.0Y-121.0
X102.0Y-144.0
X103.0Y-70.72
X103.0Y-73.26
X103.0Y-75.8
X103.0Y-78.34
X103.0Y-80.88
X103.0Y-83.42
X103.0Y-85.96
X103.0Y-88.5
X103.0Y-91.04
X103.0Y-93.58
X103.0Y-96.12
X103.0Y-98.66
X103.0Y-101.2
X103.0Y-103.74
X103.0Y-106.28
X103.0Y-108.82
X103.96Y-61.96
X103.96Y-64.5
X106.5Y-61.96
X106.5Y-64.5
X106.88Y-143.96
X106.88Y-146.5
X109.04Y-61.96
X109.04Y-64.5
X109.42Y-143.96
X109.42Y-146.5
X111.96Y-143.96
X111.96Y-146.5
X114.5Y-143.96
X114.5Y-146.5
X115.845Y-54.5
X119.0Y-117.0
X127.88Y-143.96
X127.88Y-146.5
X130.42Y-143.96
X130.42Y-146.5
X132.96Y-143.96
X132.96Y-146.5
X135.0Y-128.0
X135.0Y-133.0
X135.425Y-54.5
X135.5Y-143.96
X135.5Y-146.5
X138.0Y-116.0
T7
X105.0Y-54.5
X110.0Y-54.5
M30
