%TF.GenerationSoftware,KiCad,Pcbnew,9.0.1*%
%TF.CreationDate,2025-04-26T09:10:26+01:00*%
%TF.ProjectId,PicoDCC,5069636f-4443-4432-9e6b-696361645f70,rev?*%
%TF.SameCoordinates,Original*%
%TF.FileFunction,Soldermask,Top*%
%TF.FilePolarity,Negative*%
%FSLAX46Y46*%
G04 Gerber Fmt 4.6, Leading zero omitted, Abs format (unit mm)*
G04 Created by KiCad (PCBNEW 9.0.1) date 2025-04-26 09:10:26*
%MOMM*%
%LPD*%
G01*
G04 APERTURE LIST*
G04 Aperture macros list*
%AMRoundRect*
0 Rectangle with rounded corners*
0 $1 Rounding radius*
0 $2 $3 $4 $5 $6 $7 $8 $9 X,Y pos of 4 corners*
0 Add a 4 corners polygon primitive as box body*
4,1,4,$2,$3,$4,$5,$6,$7,$8,$9,$2,$3,0*
0 Add four circle primitives for the rounded corners*
1,1,$1+$1,$2,$3*
1,1,$1+$1,$4,$5*
1,1,$1+$1,$6,$7*
1,1,$1+$1,$8,$9*
0 Add four rect primitives between the rounded corners*
20,1,$1+$1,$2,$3,$4,$5,0*
20,1,$1+$1,$4,$5,$6,$7,0*
20,1,$1+$1,$6,$7,$8,$9,0*
20,1,$1+$1,$8,$9,$2,$3,0*%
%AMFreePoly0*
4,1,37,1.600000,0.796148,1.678414,0.796148,1.832228,0.765552,1.977117,0.705537,2.107515,0.618408,2.218408,0.507515,2.305537,0.377117,2.365552,0.232228,2.396148,0.078414,2.396148,-0.078414,2.365552,-0.232228,2.305537,-0.377117,2.218408,-0.507515,2.107515,-0.618408,1.977117,-0.705537,1.832228,-0.765552,1.678414,-0.796148,1.600000,-0.796148,1.600000,-0.800000,-0.600000,-0.800000,
-0.603843,-0.796157,-0.639018,-0.796157,-0.711114,-0.766294,-0.766294,-0.711114,-0.796157,-0.639018,-0.796157,-0.603843,-0.800000,-0.600000,-0.800000,0.600000,-0.796157,0.603843,-0.796157,0.639018,-0.766294,0.711114,-0.711114,0.766294,-0.639018,0.796157,-0.603843,0.796157,-0.600000,0.800000,1.600000,0.800000,1.600000,0.796148,1.600000,0.796148,$1*%
%AMFreePoly1*
4,1,37,0.800000,0.796148,0.878414,0.796148,1.032228,0.765552,1.177117,0.705537,1.307515,0.618408,1.418408,0.507515,1.505537,0.377117,1.565552,0.232228,1.596148,0.078414,1.596148,-0.078414,1.565552,-0.232228,1.505537,-0.377117,1.418408,-0.507515,1.307515,-0.618408,1.177117,-0.705537,1.032228,-0.765552,0.878414,-0.796148,0.800000,-0.796148,0.800000,-0.800000,-1.400000,-0.800000,
-1.403843,-0.796157,-1.439018,-0.796157,-1.511114,-0.766294,-1.566294,-0.711114,-1.596157,-0.639018,-1.596157,-0.603843,-1.600000,-0.600000,-1.600000,0.600000,-1.596157,0.603843,-1.596157,0.639018,-1.566294,0.711114,-1.511114,0.766294,-1.439018,0.796157,-1.403843,0.796157,-1.400000,0.800000,0.800000,0.800000,0.800000,0.796148,0.800000,0.796148,$1*%
%AMFreePoly2*
4,1,37,1.403843,0.796157,1.439018,0.796157,1.511114,0.766294,1.566294,0.711114,1.596157,0.639018,1.596157,0.603843,1.600000,0.600000,1.600000,-0.600000,1.596157,-0.603843,1.596157,-0.639018,1.566294,-0.711114,1.511114,-0.766294,1.439018,-0.796157,1.403843,-0.796157,1.400000,-0.800000,-0.800000,-0.800000,-0.800000,-0.796148,-0.878414,-0.796148,-1.032228,-0.765552,-1.177117,-0.705537,
-1.307515,-0.618408,-1.418408,-0.507515,-1.505537,-0.377117,-1.565552,-0.232228,-1.596148,-0.078414,-1.596148,0.078414,-1.565552,0.232228,-1.505537,0.377117,-1.418408,0.507515,-1.307515,0.618408,-1.177117,0.705537,-1.032228,0.765552,-0.878414,0.796148,-0.800000,0.796148,-0.800000,0.800000,1.400000,0.800000,1.403843,0.796157,1.403843,0.796157,$1*%
G04 Aperture macros list end*
%ADD10RoundRect,0.800000X0.000010X-0.800000X0.000010X0.800000X-0.000010X0.800000X-0.000010X-0.800000X0*%
%ADD11FreePoly0,270.000000*%
%ADD12RoundRect,0.800000X-0.800000X-0.000010X0.800000X-0.000010X0.800000X0.000010X-0.800000X0.000010X0*%
%ADD13FreePoly1,0.000000*%
%ADD14FreePoly2,0.000000*%
%ADD15C,2.200000*%
%ADD16C,1.850000*%
%ADD17R,1.700000X1.700000*%
%ADD18C,1.700000*%
%ADD19C,1.600000*%
%ADD20O,1.600000X1.600000*%
%ADD21O,1.600000X1.200000*%
%ADD22C,1.200000*%
%ADD23RoundRect,0.250000X1.000000X1.000000X-1.000000X1.000000X-1.000000X-1.000000X1.000000X-1.000000X0*%
%ADD24C,2.500000*%
%ADD25R,1.800000X1.800000*%
%ADD26C,1.800000*%
%ADD27R,1.200000X1.200000*%
G04 APERTURE END LIST*
D10*
%TO.C,A1*%
X128150000Y-110850000D03*
D11*
X125610000Y-110050000D03*
D10*
X123070000Y-110850000D03*
D12*
X135300000Y-62020000D03*
X135300000Y-64560000D03*
D13*
X135300000Y-67100000D03*
D12*
X135300000Y-69640000D03*
X135300000Y-72180000D03*
X135300000Y-74720000D03*
X135300000Y-77260000D03*
D13*
X135300000Y-79800000D03*
D12*
X135300000Y-82340000D03*
X135300000Y-84880000D03*
X135300000Y-87420000D03*
X135300000Y-89960000D03*
D13*
X135300000Y-92500000D03*
D12*
X135300000Y-95040000D03*
X135300000Y-97580000D03*
X135300000Y-100120000D03*
X135300000Y-102660000D03*
D13*
X135300000Y-105200000D03*
D12*
X135300000Y-107740000D03*
X135300000Y-110280000D03*
X115920000Y-110280000D03*
X115920000Y-107740000D03*
D14*
X115920000Y-105200000D03*
D12*
X115920000Y-102660000D03*
X115920000Y-100120000D03*
X115920000Y-97580000D03*
X115920000Y-95040000D03*
D14*
X115920000Y-92500000D03*
D12*
X115920000Y-89960000D03*
X115920000Y-87420000D03*
X115920000Y-84880000D03*
X115920000Y-82340000D03*
D14*
X115920000Y-79800000D03*
D12*
X115920000Y-77260000D03*
X115920000Y-74720000D03*
X115920000Y-72180000D03*
X115920000Y-69640000D03*
D14*
X115920000Y-67100000D03*
D12*
X115920000Y-64560000D03*
D13*
X115920000Y-62020000D03*
D15*
X128335000Y-62150000D03*
D16*
X128035000Y-65180000D03*
X123185000Y-65180000D03*
D15*
X122885000Y-62150000D03*
%TD*%
D17*
%TO.C,U2*%
X127880000Y-146500000D03*
D18*
X127880000Y-143960000D03*
X130420000Y-146500000D03*
X130420000Y-143960000D03*
X132960000Y-146500000D03*
X132960000Y-143960000D03*
X135500000Y-146500000D03*
X135500000Y-143960000D03*
%TD*%
D17*
%TO.C,U1*%
X106880000Y-146500000D03*
D18*
X106880000Y-143960000D03*
X109420000Y-146500000D03*
X109420000Y-143960000D03*
X111960000Y-146500000D03*
X111960000Y-143960000D03*
X114500000Y-146500000D03*
X114500000Y-143960000D03*
%TD*%
D17*
%TO.C,TP8*%
X135425000Y-54500000D03*
%TD*%
%TO.C,TP7*%
X115845000Y-54500000D03*
%TD*%
%TO.C,TP6*%
X135000000Y-133000000D03*
%TD*%
%TO.C,TP5*%
X135000000Y-128000000D03*
%TD*%
%TO.C,TP4*%
X119000000Y-117000000D03*
%TD*%
%TO.C,TP3*%
X102000000Y-144000000D03*
%TD*%
%TO.C,TP2*%
X138000000Y-116000000D03*
%TD*%
%TO.C,TP1*%
X102000000Y-121000000D03*
%TD*%
D19*
%TO.C,R8*%
X121000000Y-137000000D03*
D20*
X131160000Y-137000000D03*
%TD*%
D19*
%TO.C,R7*%
X104000000Y-131000000D03*
D20*
X114160000Y-131000000D03*
%TD*%
D19*
%TO.C,R6*%
X121000000Y-127000000D03*
D20*
X131160000Y-127000000D03*
%TD*%
D19*
%TO.C,R5*%
X121000000Y-132000000D03*
D20*
X131160000Y-132000000D03*
%TD*%
D19*
%TO.C,R4*%
X106000000Y-121000000D03*
D20*
X116160000Y-121000000D03*
%TD*%
D19*
%TO.C,R3*%
X119000000Y-122000000D03*
D20*
X129160000Y-122000000D03*
%TD*%
D19*
%TO.C,R2*%
X104000000Y-126000000D03*
D20*
X114160000Y-126000000D03*
%TD*%
D19*
%TO.C,R1*%
X101920000Y-116000000D03*
D20*
X112080000Y-116000000D03*
%TD*%
D21*
%TO.C,Q2*%
X120000000Y-144000000D03*
D22*
X121270000Y-145270000D03*
X122540000Y-144000000D03*
%TD*%
D21*
%TO.C,Q1*%
X105000000Y-138000000D03*
D22*
X106270000Y-139270000D03*
X107540000Y-138000000D03*
%TD*%
D23*
%TO.C,J4*%
X110000000Y-54500000D03*
D24*
X105000000Y-54500000D03*
%TD*%
D17*
%TO.C,J2*%
X109040000Y-61960000D03*
D18*
X109040000Y-64500000D03*
X106500000Y-61960000D03*
X106500000Y-64500000D03*
X103960000Y-61960000D03*
X103960000Y-64500000D03*
%TD*%
D17*
%TO.C,J1*%
X103000000Y-70720000D03*
D18*
X103000000Y-73260000D03*
X103000000Y-75800000D03*
X103000000Y-78340000D03*
X103000000Y-80880000D03*
X103000000Y-83420000D03*
X103000000Y-85960000D03*
X103000000Y-88500000D03*
X103000000Y-91040000D03*
X103000000Y-93580000D03*
X103000000Y-96120000D03*
X103000000Y-98660000D03*
X103000000Y-101200000D03*
X103000000Y-103740000D03*
X103000000Y-106280000D03*
X103000000Y-108820000D03*
%TD*%
D25*
%TO.C,D2*%
X131000000Y-117000000D03*
D26*
X133540000Y-117000000D03*
%TD*%
D25*
%TO.C,D1*%
X132000000Y-122000000D03*
D26*
X134540000Y-122000000D03*
%TD*%
D27*
%TO.C,C2*%
X134000000Y-138000000D03*
D22*
X136000000Y-138000000D03*
%TD*%
D27*
%TO.C,C1*%
X115000000Y-136000000D03*
D22*
X117000000Y-136000000D03*
%TD*%
M02*
